<svg width="44" height="51" viewBox="0 0 44 51" fill="none" xmlns="http://www.w3.org/2000/svg">
<g id="Black">
<path id="Vector" d="M2.76172 2.55078V4.60156H1.58984H0.417969V27.5508V50.5H22H43.582V48.9863V47.4727H41.1406H38.6992V45.9785V44.4941L39.041 44.3086C39.2363 44.2012 39.5586 43.9277 39.7734 43.7031C41.3848 41.9453 40.8574 39.1816 38.6992 38.1172C38.2305 37.8828 38.0449 37.8535 37.2344 37.8535C36.4336 37.8535 36.2285 37.8926 35.7598 38.1074C35.0078 38.459 34.4902 38.957 34.1094 39.6797C33.2988 41.1836 33.7676 43.1758 35.1445 44.1328L35.6621 44.4941L35.6719 45.9785V47.4629L35.0859 47.2578C33.748 46.8086 32.3125 45.5586 31.6289 44.25C29.8223 40.8125 31.4336 36.7012 35.1152 35.3438C36.0137 35.0117 37.5273 34.875 38.2891 35.0508L38.6992 35.1484V22.8047V10.4609H33.4258H28.1523V28.9668V47.4727H26.7363H25.3203V26.0371V4.60156H24.0996H22.8789V2.55078V0.5H12.8203H2.76172V2.55078ZM10.5742 12.6094V14.6602H9.1582H7.74219V12.6094V10.5586H9.1582H10.5742V12.6094ZM17.8984 12.6094V14.6602H16.4824H15.0664V12.6094V10.5586H16.4824H17.8984V12.6094ZM10.5742 20.9102V22.9609H9.1582H7.74219V20.9102V18.8594H9.1582H10.5742V20.9102ZM17.8984 20.9102V22.9609H16.4824H15.0664V20.9102V18.8594H16.4824H17.8984V20.9102ZM34.8906 20.9102V22.9609H33.4258H31.9609V20.9102V18.8594H33.4258H34.8906V20.9102ZM10.5742 29.2598V31.2617H9.1582H7.74219V29.2598V27.2578H9.1582H10.5742V29.2598ZM17.8984 29.2598V31.2617H16.4824H15.0664V29.2598V27.2578H16.4824H17.8984V29.2598ZM34.8906 29.2598V31.2617H33.4258H31.9609V29.2598V27.2578H33.4258H34.8906V29.2598ZM10.5742 37.6094V39.6602H9.1582H7.74219V37.6094V35.5586H9.1582H10.5742V37.6094ZM17.8984 37.6094V39.6602H16.4824H15.0664V37.6094V35.5586H16.4824H17.8984V37.6094Z" fill="#1164B4"/>
</g>
</svg>
