<svg width="18" height="25" viewBox="0 0 18 25" fill="none" xmlns="http://www.w3.org/2000/svg">
<path d="M14.5844 0.603125C14.4391 0.696875 14.1579 1.24531 11.9922 5.6C10.6563 8.29531 9.56881 10.5031 9.57819 10.5172C9.59225 10.5266 9.7235 10.4609 9.8735 10.3719C10.6141 9.93594 11.4719 9.86562 12.2454 10.1797C12.4047 10.2453 12.9438 10.5687 13.4501 10.9062C13.961 11.2391 14.3922 11.5156 14.4204 11.5156C14.4438 11.5156 14.6454 11.2437 14.8704 10.9156C15.0907 10.5875 15.7094 9.69219 16.2391 8.91875L17.2047 7.51719V7.25469C17.2047 6.95937 17.1157 6.78125 16.8954 6.63594C16.7688 6.55156 16.6422 6.54688 14.9688 6.54688C13.9797 6.54688 13.1735 6.5375 13.1735 6.52344C13.1735 6.50937 13.7454 5.36094 14.4391 3.96875C15.6157 1.61562 15.7047 1.41875 15.7047 1.19375C15.7047 0.917187 15.611 0.729687 15.3954 0.589062C15.1985 0.4625 14.7954 0.471874 14.5844 0.603125Z" fill="black"/>
<path d="M1.10625 6.63594C0.885937 6.78125 0.796875 6.95937 0.796875 7.25469V7.51719L2.17031 9.51406C2.92031 10.6156 3.55781 11.5109 3.58125 11.5156C3.60937 11.5156 4.04062 11.2391 4.55156 10.9062C5.05781 10.5687 5.60156 10.2406 5.76094 10.1797C6.51094 9.875 7.17656 9.91719 8.08594 10.325C8.11875 10.3391 9.84844 6.91719 9.975 6.58906C9.98437 6.56562 8.1 6.54688 5.61562 6.54688C1.41094 6.54688 1.2375 6.55156 1.10625 6.63594Z" fill="black"/>
<path d="M6.49219 11.3562C6.24844 11.4172 6.06094 11.525 5.27344 12.0453C4.80938 12.3547 4.41094 12.6219 4.39219 12.6406C4.36875 12.6594 5.24063 13.9625 6.32344 15.5375L8.29688 18.3969V20.7453V23.0938H5.89688C3.61875 23.0938 3.48281 23.0984 3.35625 23.1828C3.14062 23.3281 3.04688 23.5062 3.04688 23.7969C3.04688 24.0875 3.14062 24.2656 3.35625 24.4109C3.4875 24.4953 3.68438 24.5 9 24.5C14.3156 24.5 14.5125 24.4953 14.6438 24.4109C14.8594 24.2656 14.9531 24.0875 14.9531 23.7969C14.9531 23.5062 14.8594 23.3281 14.6438 23.1828C14.5172 23.0984 14.3813 23.0938 12.1078 23.0938H9.70313V20.7453V18.4016L11.6766 15.5375C12.7594 13.9625 13.6313 12.6594 13.6078 12.6406C13.4859 12.5281 11.8547 11.4781 11.7188 11.4172C11.5078 11.3328 10.9922 11.3328 10.7813 11.4219C10.6922 11.4594 10.5 11.5578 10.3594 11.6375C10.0031 11.8484 9.59531 11.975 9.15469 12.0125L8.77969 12.0453L8.38594 12.8375C8.17031 13.2734 7.94531 13.6719 7.88906 13.7234C7.55156 14.0422 7.03594 13.9484 6.81563 13.5219C6.69375 13.2922 6.74063 13.1328 7.125 12.3547C7.33125 11.9422 7.49063 11.5859 7.47656 11.5578C7.39219 11.4266 6.74531 11.2953 6.49219 11.3562Z" fill="black"/>
</svg>
