<svg width="24" height="25" viewBox="0 0 24 25" fill="none" xmlns="http://www.w3.org/2000/svg">
<g id="Black">
<path id="Vector" d="M4.08288 0.589062C3.89069 0.635937 3.55319 0.767187 3.33288 0.879687C3.00944 1.04375 2.84069 1.17031 2.47976 1.53125C2.08601 1.92031 2.00163 2.0375 1.81413 2.42188C1.43913 3.20469 1.45319 3.03125 1.45319 7.02969V10.5781H2.15632H2.85944V7.35312C2.85944 5.5625 2.88288 3.97812 2.90632 3.78594C3.03288 2.82031 3.77351 2.07969 4.73913 1.95312C5.18444 1.89687 6.15476 1.89687 6.60944 1.95312C7.10163 2.01875 7.56101 2.24844 7.87507 2.59062C8.08601 2.825 8.34382 3.2375 8.34382 3.35C8.34382 3.36875 8.20319 3.43437 8.02976 3.49062C7.53288 3.65 7.14382 3.90312 6.67976 4.36719C5.95788 5.08437 5.67194 5.81562 5.67194 6.93125V7.53125H9.19226H12.7126L12.6938 6.81406C12.6751 6.20469 12.6516 6.04531 12.5485 5.72656C12.3704 5.18281 12.1219 4.79375 11.6719 4.34375C11.2079 3.87969 10.8188 3.63594 10.261 3.46719L9.86257 3.34062L9.73601 2.94219C9.56726 2.38437 9.32351 1.99531 8.85944 1.53125C8.40944 1.08125 8.02507 0.8375 7.47663 0.654687C7.10632 0.528125 7.07819 0.528125 5.76569 0.514062C4.59851 0.504687 4.38757 0.514062 4.08288 0.589062Z" fill="black"/>
<path id="Vector_2" d="M14.8688 10.7234C14.5453 10.8828 14.3813 11.0562 14.2219 11.3984L14.1094 11.6328V14.2672V16.9062H16.2188H18.3281V14.2672V11.6328L18.2156 11.3984C18.0563 11.0562 17.8922 10.8828 17.5688 10.7234L17.2828 10.5781H16.2188H15.1547L14.8688 10.7234Z" fill="black"/>
<path id="Vector_3" d="M0.759375 12.1297C0.253125 12.3781 0 12.8047 0 13.3906C0 13.9766 0.253125 14.4031 0.759375 14.6516L1.04531 14.7969H6.87656H12.7031V13.3906V11.9844H6.87656H1.04531L0.759375 12.1297Z" fill="black"/>
<path id="Vector_4" d="M19.7344 13.3906V14.7969H21.3422H22.9547L23.2406 14.6516C23.7469 14.4031 24 13.9766 24 13.3906C24 12.8047 23.7469 12.3781 23.2406 12.1297L22.9547 11.9844H21.3422H19.7344V13.3906Z" fill="black"/>
<path id="Vector_5" d="M1.45938 17.7125C1.47813 19.2031 1.47813 19.2312 1.60469 19.6484C1.95625 20.8016 2.65 21.7578 3.60625 22.4094C3.74688 22.5078 3.87344 22.5969 3.88281 22.6062C3.89688 22.6203 3.70938 22.8266 3.46563 23.0703L3.02031 23.5156L3.5125 24.0078C3.78438 24.2797 4.02344 24.5 4.05156 24.5C4.075 24.5 4.38438 24.2141 4.73125 23.8672L5.36875 23.2297H11.9969H18.625L19.2625 23.8672C19.6094 24.2141 19.9188 24.5 19.9422 24.5C19.9703 24.5 20.2094 24.2797 20.4813 24.0078L20.9734 23.5156L20.5281 23.0703C20.2844 22.8266 20.0969 22.6203 20.1109 22.6062C20.1203 22.5969 20.2469 22.5078 20.3875 22.4094C21.3438 21.7578 22.0375 20.8016 22.3891 19.6484C22.5156 19.2312 22.5156 19.2031 22.5344 17.7125L22.5484 16.2031H21.1422H19.7313V17.2578V18.3125H16.2156H12.7V17.2578V16.2031H7.07031H1.44531L1.45938 17.7125Z" fill="black"/>
</g>
</svg>
