<svg width="32" height="25" viewBox="0 0 32 25" fill="none" xmlns="http://www.w3.org/2000/svg">
<path d="M6.6 0.599999C5.71875 0.8125 4.8375 1.5 4.4125 2.30625C4.01875 3.05625 4 3.23125 4 6.10625V8.6875H6.53125H9.0625V8.2C9.06875 7.14375 9.39375 6.3 10.0625 5.61875C10.5563 5.11875 11.0188 4.85 11.6625 4.6875C12.1188 4.56875 12.3562 4.5625 16 4.5625C19.6438 4.5625 19.8813 4.56875 20.3375 4.6875C20.9813 4.85 21.4438 5.11875 21.9375 5.61875C22.6063 6.3 22.9312 7.14375 22.9375 8.2V8.6875H25.4688H28V6.10625C28 3.23125 27.9813 3.05625 27.5875 2.30625C27.1562 1.4875 26.2812 0.8125 25.3687 0.59375C24.7875 0.45625 7.16875 0.4625 6.6 0.599999Z" fill="#1164B4"/>
<path d="M11.9813 6.4625C11.2375 6.73125 10.8813 7.29375 10.875 8.2V8.6875H16.0062H21.1375L21.1125 8.10625C21.075 7.29375 20.8313 6.86875 20.2188 6.5375C19.9688 6.40625 19.925 6.40625 16.0938 6.39375C12.95 6.38125 12.175 6.39375 11.9813 6.4625Z" fill="#1164B4"/>
<path d="M3 10.5625C1.95625 10.6875 1.01875 11.3063 0.46875 12.2188C0.04375 12.9312 0 13.1812 0 15.0063V16.625H16H32V14.9812C32 13.45 31.9875 13.3187 31.8563 12.9312C31.4813 11.8375 30.6875 11.05 29.5625 10.6687L29.1562 10.5312L16.2812 10.525C9.2 10.5187 3.225 10.5375 3 10.5625Z" fill="#1164B4"/>
<path d="M0 21.1361C0 23.7236 0.00625 23.8486 0.125 24.0486C0.4625 24.6049 1.21875 24.6549 1.6875 24.1549C1.83125 23.9986 1.84375 23.9361 1.8625 23.2424L1.8875 22.4986H16.0062H30.125V23.1674C30.125 23.7299 30.1437 23.8736 30.25 24.0486C30.5875 24.6049 31.3437 24.6549 31.8125 24.1549L31.9687 23.9861L31.9875 21.2111L32.0062 18.4361H16H0V21.1361Z" fill="#1164B4"/>
</svg>
