<svg width="45" height="46" viewBox="0 0 45 46" fill="none" xmlns="http://www.w3.org/2000/svg">
<path d="M13.2891 3.05469C12.7705 3.37813 12.6562 3.69258 12.6562 4.77969V5.75H9.45703C6.56543 5.75 6.20508 5.76797 5.72168 5.9207C4.42969 6.33399 3.33105 7.46602 2.95312 8.7957C2.83887 9.19102 2.8125 9.775 2.8125 11.8324V14.375H22.5H42.1875V11.8324C42.1875 9.775 42.1611 9.19102 42.0469 8.7957C41.6689 7.46602 40.5703 6.33399 39.2783 5.9207C38.7949 5.76797 38.4346 5.75 35.543 5.75H32.3438V4.77969C32.3438 3.69258 32.2295 3.37813 31.7109 3.05469C31.3154 2.81211 30.5596 2.81211 30.1641 3.05469C29.6455 3.37813 29.5312 3.69258 29.5312 4.77969V5.75H22.5H15.4688V4.77969C15.4688 3.98008 15.4424 3.77344 15.293 3.52188C15.0293 3.09063 14.6338 2.875 14.0625 2.875C13.7373 2.875 13.4824 2.92891 13.2891 3.05469Z" fill="#1164B4"/>
<path d="M2.8125 28.4176C2.8125 38.3543 2.83008 39.6391 2.95312 40.0793C3.33105 41.409 4.42969 42.541 5.72168 42.9543C6.24023 43.116 6.80273 43.125 22.5 43.125C38.1973 43.125 38.7598 43.116 39.2783 42.9543C40.5703 42.541 41.6689 41.409 42.0469 40.0793C42.1699 39.6391 42.1875 38.3543 42.1875 28.4176V17.25H22.5H2.8125V28.4176ZM30.1465 23.1977C30.5596 23.4133 30.9375 23.9883 30.9375 24.4105C30.9375 24.9945 30.7617 25.1742 25.6465 29.6484C22.8779 32.0832 20.4961 34.1496 20.3467 34.2395C20.0303 34.4461 19.4238 34.4641 19.0898 34.2844C18.6768 34.0598 14.2559 29.4508 14.1855 29.1723C14.0977 28.7949 14.1943 28.2559 14.4053 27.9594C14.7393 27.4832 15.5391 27.2496 16.0225 27.5012C16.1279 27.5551 17.0156 28.4086 17.9824 29.3969L19.7578 31.1937L24.0469 27.4293C26.4111 25.3629 28.5029 23.5391 28.6963 23.3863C29.2412 22.9551 29.5752 22.9102 30.1465 23.1977Z" fill="#1164B4"/>
</svg>
