<svg width="20" height="20" viewBox="0 0 20 20" fill="none" xmlns="http://www.w3.org/2000/svg">
<path fill-rule="evenodd" clip-rule="evenodd" d="M1.94737 4C1.69611 4 1.45514 4.0903 1.27748 4.25103C1.09981 4.41177 1 4.62977 1 4.85708C1 5.08439 1.09981 5.3024 1.27748 5.46313C1.45514 5.62386 1.69611 5.71416 1.94737 5.71416H18.0526C18.3039 5.71416 18.5449 5.62386 18.7225 5.46313C18.9002 5.3024 19 5.08439 19 4.85708C19 4.62977 18.9002 4.41177 18.7225 4.25103C18.5449 4.0903 18.3039 4 18.0526 4H1.94737ZM1 9.99957C1 9.77226 1.09981 9.55426 1.27748 9.39352C1.45514 9.23279 1.69611 9.14249 1.94737 9.14249H18.0526C18.3039 9.14249 18.5449 9.23279 18.7225 9.39352C18.9002 9.55426 19 9.77226 19 9.99957C19 10.2269 18.9002 10.4449 18.7225 10.6056C18.5449 10.7664 18.3039 10.8567 18.0526 10.8567H1.94737C1.69611 10.8567 1.45514 10.7664 1.27748 10.6056C1.09981 10.4449 1 10.2269 1 9.99957ZM1 15.1429C1 14.9156 1.09981 14.6976 1.27748 14.5369C1.45514 14.3761 1.69611 14.2858 1.94737 14.2858H18.0526C18.3039 14.2858 18.5449 14.3761 18.7225 14.5369C18.9002 14.6976 19 14.9156 19 15.1429C19 15.3702 18.9002 15.5882 18.7225 15.749C18.5449 15.9097 18.3039 16 18.0526 16H1.94737C1.69611 16 1.45514 15.9097 1.27748 15.749C1.09981 15.5882 1 15.3702 1 15.1429Z" fill="#1164B4"/>
</svg>
