<svg width="22" height="22" viewBox="0 0 22 22" fill="none" xmlns="http://www.w3.org/2000/svg">
<g id="Black">
<path id="Vector" d="M6.0875 0.59375C5.81094 0.7625 5.75 0.926563 5.75 1.49375V2H4.04375C2.50156 2 2.30938 2.00938 2.05156 2.08906C1.3625 2.30469 0.776563 2.89531 0.575 3.58906C0.514063 3.79531 0.5 4.1 0.5 5.17344V6.5H11H21.5V5.17344C21.5 4.1 21.4859 3.79531 21.425 3.58906C21.2234 2.89531 20.6375 2.30469 19.9484 2.08906C19.6906 2.00938 19.4984 2 17.9563 2H16.25V1.49375C16.25 0.926563 16.1891 0.7625 15.9125 0.59375C15.7016 0.467188 15.2984 0.467188 15.0875 0.59375C14.8109 0.7625 14.75 0.926563 14.75 1.49375V2H11H7.25V1.49375C7.25 1.07656 7.23594 0.96875 7.15625 0.837501C7.01563 0.6125 6.80469 0.5 6.5 0.5C6.32656 0.5 6.19063 0.528125 6.0875 0.59375Z" fill="black"/>
<path id="Vector_2" d="M0.5 13.8266C0.5 19.0109 0.509375 19.6812 0.575 19.9109C0.776563 20.6047 1.3625 21.1953 2.05156 21.4109C2.32813 21.4953 2.62812 21.5 11 21.5C19.3719 21.5 19.6719 21.4953 19.9484 21.4109C20.6375 21.1953 21.2234 20.6047 21.425 19.9109C21.4906 19.6812 21.5 19.0109 21.5 13.8266V8H11H0.5V13.8266ZM15.0781 11.1031C15.2984 11.2156 15.5 11.5156 15.5 11.7359C15.5 12.0406 15.4063 12.1344 12.6781 14.4688C11.2016 15.7391 9.93125 16.8172 9.85156 16.8641C9.68281 16.9719 9.35938 16.9812 9.18125 16.8875C8.96094 16.7703 6.60313 14.3656 6.56563 14.2203C6.51875 14.0234 6.57031 13.7422 6.68281 13.5875C6.86094 13.3391 7.2875 13.2172 7.54531 13.3484C7.60156 13.3766 8.075 13.8219 8.59063 14.3375L9.5375 15.275L11.825 13.3109C13.0859 12.2328 14.2016 11.2812 14.3047 11.2016C14.5953 10.9766 14.7734 10.9531 15.0781 11.1031Z" fill="black"/>
</g>
</svg>
