<svg width="32" height="32" viewBox="0 0 32 32" fill="none" xmlns="http://www.w3.org/2000/svg">
<path d="M14.525 4.6875C11.475 4.84375 8.99378 5.4125 7.18753 6.375C6.68753 6.64375 5.94378 7.3625 5.53753 7.9875C5.11878 8.63125 4.57503 9.70625 4.21253 10.6062L3.90628 11.375H2.21878C0.656278 11.375 0.518778 11.3875 0.350028 11.4937C-0.0687222 11.775 -0.0874722 12.0938 0.237528 13.6312C0.562528 15.1375 0.643778 15.2437 1.53128 15.3C2.06878 15.3313 2.13753 15.3625 1.96878 15.5C1.80003 15.6375 1.31878 16.5312 1.16253 17C1.08128 17.2562 0.975028 17.6625 0.931278 17.9C0.837528 18.4625 0.893778 19.9062 1.03128 20.4062C1.26253 21.2438 1.73128 22.0875 2.28753 22.6875L2.55003 22.9688L2.57503 24.6875C2.59378 26.325 2.60003 26.4187 2.73128 26.6687C2.91253 27 3.20628 27.225 3.56253 27.3062C3.71878 27.3438 4.50628 27.375 5.31878 27.375C6.99378 27.375 7.28128 27.325 7.60628 26.9875C7.92503 26.65 7.96253 26.525 7.98753 25.6687L8.01253 24.875H16H23.9875L24.0125 25.6687C24.0375 26.525 24.075 26.65 24.3938 26.9875C24.7188 27.325 25.0063 27.375 26.6813 27.375C27.4938 27.375 28.2813 27.3438 28.4375 27.3062C28.7938 27.225 29.0875 27 29.2688 26.6687C29.4 26.4187 29.4063 26.325 29.425 24.7188L29.4438 23.0312L29.6563 22.8125C30.3688 22.0563 30.8813 21.0187 31.0688 19.9688C31.175 19.3375 31.1063 17.9625 30.9375 17.3812C30.7813 16.8313 30.4563 16.1687 30.1188 15.6875L29.875 15.3438L30.4375 15.3C31.3688 15.2375 31.4375 15.1438 31.7625 13.6312C32.0875 12.0938 32.0688 11.775 31.65 11.4937C31.4813 11.3875 31.3438 11.375 29.7813 11.375H28.0938L27.7875 10.6062C27.4313 9.71875 26.8938 8.65 26.4625 7.99375C26.0625 7.375 25.3188 6.65 24.8063 6.36875C22.5313 5.13125 18.575 4.4875 14.525 4.6875ZM18.475 7.28125C21.1563 7.525 23.4125 8.21875 24.0938 9.01875C24.5125 9.50625 25.0875 10.6313 25.6188 11.9937L25.8625 12.625H16H6.13753L6.38128 11.9937C6.93128 10.5875 7.48753 9.5 7.91253 9.0125C8.64378 8.175 11.0188 7.46875 13.8438 7.25C15.4438 7.125 16.8313 7.1375 18.475 7.28125ZM7.88753 17.0125C8.96878 17.5125 9.53753 18.7125 9.21253 19.8063C8.71253 21.4938 6.71253 22.1 5.39378 20.9688C4.36253 20.0875 4.28753 18.5625 5.23128 17.5562C5.73128 17.0188 6.25003 16.8062 7.00003 16.8313C7.41253 16.8438 7.61253 16.8875 7.88753 17.0125ZM25.7875 16.9187C27.2 17.3875 27.8563 18.9187 27.2188 20.2312C26.875 20.925 26.1063 21.4562 25.3313 21.5375C24.2188 21.6562 23.1063 20.8937 22.8125 19.8125C22.4125 18.325 23.5313 16.8375 25.0688 16.8187C25.2938 16.8125 25.6125 16.8562 25.7875 16.9187Z" fill="black"/>
</svg>
