<svg width="24" height="24" viewBox="0 0 24 24" fill="none" xmlns="http://www.w3.org/2000/svg">
<path d="M10.8938 3.51562C8.60627 3.63281 6.74533 4.05937 5.39065 4.78125C5.01565 4.98281 4.45783 5.52187 4.15315 5.99062C3.83908 6.47344 3.43127 7.27969 3.1594 7.95469L2.92971 8.53125H1.66408C0.492208 8.53125 0.389083 8.54062 0.262521 8.62031C-0.0515416 8.83125 -0.0656041 9.07031 0.178146 10.2234C0.421896 11.3531 0.482833 11.4328 1.14846 11.475C1.55158 11.4984 1.60315 11.5219 1.47658 11.625C1.35002 11.7281 0.989083 12.3984 0.871896 12.75C0.810958 12.9422 0.731271 13.2469 0.698458 13.425C0.628146 13.8469 0.670333 14.9297 0.773458 15.3047C0.946896 15.9328 1.29846 16.5656 1.71565 17.0156L1.91252 17.2266L1.93127 18.5156C1.94533 19.7437 1.95002 19.8141 2.04846 20.0016C2.1844 20.25 2.40471 20.4187 2.6719 20.4797C2.78908 20.5078 3.37971 20.5312 3.98908 20.5312C5.24533 20.5312 5.46096 20.4937 5.70471 20.2406C5.94377 19.9875 5.9719 19.8937 5.99065 19.2516L6.0094 18.6562H12H17.9906L18.0094 19.2516C18.0281 19.8937 18.0563 19.9875 18.2953 20.2406C18.5391 20.4937 18.7547 20.5312 20.011 20.5312C20.6203 20.5312 21.211 20.5078 21.3281 20.4797C21.5953 20.4187 21.8156 20.25 21.9516 20.0016C22.05 19.8141 22.0547 19.7437 22.0688 18.5391L22.0828 17.2734L22.2422 17.1094C22.7766 16.5422 23.161 15.7641 23.3016 14.9766C23.3813 14.5031 23.3297 13.4719 23.2031 13.0359C23.086 12.6234 22.8422 12.1266 22.5891 11.7656L22.4063 11.5078L22.8281 11.475C23.5266 11.4281 23.5781 11.3578 23.8219 10.2234C24.0656 9.07031 24.0516 8.83125 23.7375 8.62031C23.611 8.54062 23.5078 8.53125 22.336 8.53125H21.0703L20.8406 7.95469C20.5735 7.28906 20.1703 6.4875 19.8469 5.99531C19.5469 5.53125 18.9891 4.9875 18.6047 4.77656C16.8985 3.84843 13.9313 3.36562 10.8938 3.51562ZM13.8563 5.46094C15.8672 5.64375 17.5594 6.16406 18.0703 6.76406C18.3844 7.12969 18.8156 7.97344 19.2141 8.99531L19.3969 9.46875H12H4.60315L4.78596 8.99531C5.19846 7.94062 5.61565 7.125 5.9344 6.75937C6.48283 6.13125 8.26408 5.60156 10.3828 5.4375C11.5828 5.34375 12.6235 5.35312 13.8563 5.46094ZM5.91565 12.7594C6.72658 13.1344 7.15315 14.0344 6.9094 14.8547C6.5344 16.1203 5.0344 16.575 4.04533 15.7266C3.2719 15.0656 3.21565 13.9219 3.92346 13.1672C4.29846 12.7641 4.68752 12.6047 5.25002 12.6234C5.5594 12.6328 5.7094 12.6656 5.91565 12.7594ZM19.3406 12.6891C20.4 13.0406 20.8922 14.1891 20.4141 15.1734C20.1563 15.6937 19.5797 16.0922 18.9985 16.1531C18.1641 16.2422 17.3297 15.6703 17.1094 14.8594C16.8094 13.7437 17.6485 12.6281 18.8016 12.6141C18.9703 12.6094 19.2094 12.6422 19.3406 12.6891Z" fill="black"/>
</svg>
