<svg width="24" height="24" viewBox="0 0 24 24" fill="none" xmlns="http://www.w3.org/2000/svg">
<g clip-path="url(#clip0_172_3094)">
<path d="M21 5C21 3.89543 20.1046 3 19 3H5C3.89543 3 3 3.89543 3 5V19C3 20.1046 3.89543 21 5 21H19C20.1046 21 21 20.1046 21 19V5ZM11.4142 15.5858C10.6332 16.3668 9.36684 16.3668 8.58579 15.5858L5.70549 12.7055C5.31586 12.3159 5.31586 11.6841 5.70549 11.2945C6.09474 10.9053 6.7257 10.9048 7.11549 11.2935L8.58579 12.7597C9.36716 13.5389 10.632 13.538 11.4122 12.7578L16.88 7.29C17.2717 6.89829 17.9072 6.89941 18.2975 7.29251C18.6859 7.68365 18.6848 8.31524 18.295 8.705L11.4142 15.5858Z" fill="#1C204A"/>
</g>
<defs>
<clipPath id="clip0_172_3094">
<rect width="24" height="24" fill="white"/>
</clipPath>
</defs>
</svg>
