<svg width="28" height="28" viewBox="0 0 28 28" fill="none" xmlns="http://www.w3.org/2000/svg">
<g id="Checkbox" clip-path="url(#clip0_6088_148314)">
<path id="Vector" d="M24.5 5.5C24.5 4.39543 23.6046 3.5 22.5 3.5H5.5C4.39543 3.5 3.5 4.39543 3.5 5.5V22.5C3.5 23.6046 4.39543 24.5 5.5 24.5H22.5C23.6046 24.5 24.5 23.6046 24.5 22.5V5.5ZM13.0809 18.4191C12.2998 19.2002 11.0335 19.2002 10.2525 18.4191L6.65641 14.8231C6.20184 14.3685 6.20184 13.6315 6.65641 13.1769C7.11053 12.7228 7.84665 12.7223 8.3014 13.1758L10.2525 15.1214C11.0338 15.9006 12.2986 15.8997 13.0789 15.1194L19.6933 8.50501C20.1503 8.048 20.8917 8.04931 21.3471 8.50793C21.8002 8.96426 21.7989 9.70111 21.3442 10.1558L13.0809 18.4191Z" fill="black"/>
</g>
<defs>
<clipPath id="clip0_6088_148314">
<rect width="28" height="28" fill="white"/>
</clipPath>
</defs>
</svg>
