<svg width="28" height="28" viewBox="0 0 28 28" fill="none" xmlns="http://www.w3.org/2000/svg">
<g id="Checkbox" clip-path="url(#clip0_6088_148319)">
<path id="Vector" d="M20.1667 5.83333C21.2712 5.83333 22.1667 6.72876 22.1667 7.83333V20.1667C22.1667 21.2712 21.2712 22.1667 20.1667 22.1667H7.83333C6.72876 22.1667 5.83333 21.2712 5.83333 20.1667V7.83333C5.83333 6.72876 6.72876 5.83333 7.83333 5.83333H20.1667ZM24.5 5.5C24.5 4.39543 23.6046 3.5 22.5 3.5H5.5C4.39543 3.5 3.5 4.39543 3.5 5.5V22.5C3.5 23.6046 4.39543 24.5 5.5 24.5H22.5C23.6046 24.5 24.5 23.6046 24.5 22.5V5.5Z" fill="black"/>
</g>
<defs>
<clipPath id="clip0_6088_148319">
<rect width="28" height="28" fill="white"/>
</clipPath>
</defs>
</svg>
