<svg width="24" height="24" viewBox="0 0 24 24" fill="none" xmlns="http://www.w3.org/2000/svg">
<g clip-path="url(#clip0_6088_148351)">
<path d="M6.56242 0.15C6.2343 0.407812 0.210861 5.82656 0.117111 5.94844C0.00929884 6.09375 -0.0282012 6.47344 0.0467988 6.65625C0.0796113 6.73594 0.178049 6.8625 0.267111 6.9375L0.426486 7.07812H7.04055H13.6546L13.8609 6.86719L14.0718 6.65625L14.053 6.36094C14.0437 6.16875 14.0062 6.02812 13.9452 5.95312C13.8562 5.83125 7.83274 0.4125 7.49992 0.15C7.33117 0.0187497 7.27024 -4.76837e-07 7.03117 -4.76837e-07C6.79211 -4.76837e-07 6.73117 0.0187497 6.56242 0.15Z" fill="black"/>
<path d="M1.40615 15.5391V22.5938H0.928027C0.39834 22.5938 0.262402 22.6453 0.0889648 22.9031C-0.0329102 23.0859 -0.0329102 23.5078 0.0889648 23.6906C0.28584 23.9859 0.346777 24 1.40615 24C2.46553 24 2.52646 23.9859 2.72334 23.6906C2.80771 23.5641 2.8124 23.4375 2.8124 21.6656V19.7813H3.51553H4.21865V21.6656C4.21865 23.4375 4.22334 23.5641 4.30771 23.6906C4.45303 23.9063 4.63115 24 4.92178 24C5.2124 24 5.39053 23.9063 5.53584 23.6906C5.60615 23.5781 5.6249 23.4656 5.6249 23.0719V22.5938H7.03115H8.4374V23.0719C8.4374 23.4656 8.45615 23.5781 8.52647 23.6906C8.67178 23.9063 8.8499 24 9.14053 24C9.43115 24 9.60928 23.9063 9.75459 23.6906C9.83897 23.5641 9.84365 23.4375 9.84365 21.6656V19.7813H10.5468H11.2499V21.6656C11.2499 23.4375 11.2546 23.5641 11.339 23.6906C11.5358 23.9859 11.5968 24 12.6562 24C13.7155 24 13.7765 23.9859 13.9733 23.6906C14.0952 23.5078 14.0952 23.0859 13.9733 22.9031C13.7999 22.6453 13.664 22.5938 13.139 22.5938H12.6562V15.5391V8.48438H7.03115H1.40615V15.5391ZM7.71084 10.0078C8.20303 10.1344 8.56865 10.35 8.97647 10.7578C9.55772 11.3344 9.79678 11.9063 9.79678 12.7031C9.79678 13.5 9.55772 14.0719 8.97647 14.6484C8.3999 15.2297 7.82803 15.4688 7.03115 15.4688C6.23428 15.4688 5.6624 15.2297 5.08584 14.6484C4.50459 14.0719 4.26553 13.5 4.26553 12.7031C4.26553 11.9063 4.50459 11.3344 5.08584 10.7578C5.48428 10.3547 5.85459 10.1344 6.32803 10.0125C6.67022 9.92344 7.36397 9.91875 7.71084 10.0078ZM4.21865 17.6719V18.375H3.51553H2.8124V17.6719V16.9688H3.51553H4.21865V17.6719ZM8.4374 17.6719V18.375H7.03115H5.6249V17.6719V16.9688H7.03115H8.4374V17.6719ZM11.2499 17.6719V18.375H10.5468H9.84365V17.6719V16.9688H10.5468H11.2499V17.6719ZM8.4374 20.4844V21.1875H7.03115H5.6249V20.4844V19.7813H7.03115H8.4374V20.4844Z" fill="black"/>
<path d="M14.0625 14.1789V15.6039L14.2172 15.6836C14.4328 15.7914 14.7094 16.068 14.8219 16.2883C14.8781 16.3914 15.3469 17.7836 15.8672 19.3867C16.3922 20.9852 16.8703 22.3961 16.9359 22.5273C17.2219 23.0805 17.8594 23.6336 18.4875 23.868C18.7641 23.9711 18.825 23.9711 20.85 23.9898L22.9266 24.0039L23.175 23.8914C23.7047 23.6477 24 23.1836 24 22.593C24 22.0305 23.7328 21.5805 23.2359 21.318C23.0438 21.2148 22.9828 21.2102 21.4453 21.182C20.2313 21.1633 19.8094 21.1398 19.6781 21.0883C19.3922 20.9805 19.0922 20.7367 18.9656 20.5164C18.8953 20.3945 18.5016 19.1945 18.0469 17.718C17.3344 15.3883 17.2313 15.0883 17.0297 14.7508C16.6078 14.0477 15.9188 13.4242 15.2109 13.0961C14.9016 12.9555 14.2594 12.7492 14.1234 12.7492C14.0766 12.7492 14.0625 13.0539 14.0625 14.1789Z" fill="black"/>
</g>
<defs>
<clipPath id="clip0_6088_148351">
<rect width="24" height="24" fill="white"/>
</clipPath>
</defs>
</svg>
