<svg width="32" height="32" viewBox="0 0 32 32" fill="none" xmlns="http://www.w3.org/2000/svg">
<g clip-path="url(#clip0_1530_19648)">
<path d="M8.75006 0.2C8.31256 0.54375 0.281311 7.76875 0.156311 7.93125C0.0125612 8.125 -0.0374388 8.63125 0.0625612 8.875C0.106311 8.98125 0.237561 9.15 0.356311 9.25L0.568811 9.4375H9.38756H18.2063L18.4813 9.15625L18.7626 8.875L18.7376 8.48125C18.7251 8.225 18.6751 8.0375 18.5938 7.9375C18.4751 7.775 10.4438 0.55 10.0001 0.2C9.77506 0.0249996 9.69381 0 9.37506 0C9.05631 0 8.97506 0.0249996 8.75006 0.2Z" fill="black"/>
<path d="M1.87495 20.7188V30.125H1.23745C0.531201 30.125 0.349951 30.1938 0.118701 30.5375C-0.0437988 30.7812 -0.0437988 31.3438 0.118701 31.5875C0.381201 31.9812 0.462451 32 1.87495 32C3.28745 32 3.3687 31.9812 3.6312 31.5875C3.7437 31.4187 3.74995 31.25 3.74995 28.8875V26.375H4.68745H5.62495V28.8875C5.62495 31.25 5.6312 31.4187 5.7437 31.5875C5.93745 31.875 6.17495 32 6.56245 32C6.94995 32 7.18745 31.875 7.3812 31.5875C7.47495 31.4375 7.49995 31.2875 7.49995 30.7625V30.125H9.37495H11.25V30.7625C11.25 31.2875 11.275 31.4375 11.3687 31.5875C11.5625 31.875 11.8 32 12.1875 32C12.575 32 12.8125 31.875 13.0062 31.5875C13.1187 31.4187 13.125 31.25 13.125 28.8875V26.375H14.0625H15V28.8875C15 31.25 15.0062 31.4187 15.1187 31.5875C15.3812 31.9812 15.4625 32 16.875 32C18.2875 32 18.3687 31.9812 18.6312 31.5875C18.7937 31.3438 18.7937 30.7812 18.6312 30.5375C18.4 30.1938 18.2187 30.125 17.5187 30.125H16.875V20.7188V11.3125H9.37495H1.87495V20.7188ZM10.2812 13.3438C10.9375 13.5125 11.425 13.8 11.9687 14.3438C12.7437 15.1125 13.0625 15.875 13.0625 16.9375C13.0625 18 12.7437 18.7625 11.9687 19.5312C11.2 20.3062 10.4375 20.625 9.37495 20.625C8.31245 20.625 7.54995 20.3062 6.7812 19.5312C6.0062 18.7625 5.68745 18 5.68745 16.9375C5.68745 15.875 6.0062 15.1125 6.7812 14.3438C7.31245 13.8062 7.8062 13.5125 8.43745 13.35C8.8937 13.2312 9.8187 13.225 10.2812 13.3438ZM5.62495 23.5625V24.5H4.68745H3.74995V23.5625V22.625H4.68745H5.62495V23.5625ZM11.25 23.5625V24.5H9.37495H7.49995V23.5625V22.625H9.37495H11.25V23.5625ZM15 23.5625V24.5H14.0625H13.125V23.5625V22.625H14.0625H15V23.5625ZM11.25 27.3125V28.25H9.37495H7.49995V27.3125V26.375H9.37495H11.25V27.3125Z" fill="black"/>
<path d="M18.75 18.9059V20.8059L18.9562 20.9121C19.2438 21.0559 19.6125 21.4246 19.7625 21.7184C19.8375 21.8559 20.4625 23.7121 21.1562 25.8496C21.8563 27.9809 22.4938 29.8621 22.5812 30.0371C22.9625 30.7746 23.8125 31.5121 24.65 31.8246C25.0188 31.9621 25.1 31.9621 27.8 31.9871L30.5688 32.0059L30.9 31.8559C31.6062 31.5309 32 30.9121 32 30.1246C32 29.3746 31.6438 28.7746 30.9812 28.4246C30.725 28.2871 30.6438 28.2809 28.5938 28.2434C26.975 28.2184 26.4125 28.1871 26.2375 28.1184C25.8563 27.9746 25.4563 27.6496 25.2875 27.3559C25.1937 27.1934 24.6688 25.5934 24.0625 23.6246C23.1125 20.5184 22.975 20.1184 22.7062 19.6684C22.1437 18.7309 21.225 17.8996 20.2812 17.4621C19.8687 17.2746 19.0125 16.9996 18.8313 16.9996C18.7688 16.9996 18.75 17.4059 18.75 18.9059Z" fill="black"/>
</g>
<defs>
<clipPath id="clip0_1530_19648">
<rect width="32" height="32" fill="white"/>
</clipPath>
</defs>
</svg>
