<svg width="24" height="24" viewBox="0 0 24 24" fill="none" xmlns="http://www.w3.org/2000/svg">
<path d="M10.0406 4.43438C9.81094 4.59375 9.74063 4.90313 9.87188 5.17969C9.98906 5.42813 10.1672 5.48438 10.8469 5.48438H11.4375V6.01406V6.53906L10.7953 6.61875C6.19688 7.18594 2.65313 10.8328 2.20312 15.4641C2.17969 15.7313 2.15625 16.05 2.15625 16.1766V16.4062H12H21.8438V16.1766C21.8438 15.3844 21.6422 14.2172 21.3469 13.3125C20.1609 9.68438 17.0063 7.0875 13.2328 6.62344L12.5625 6.53906V6.01406V5.48438H13.1531C13.8328 5.48438 14.0109 5.42813 14.1281 5.17969C14.2219 4.9875 14.2219 4.81406 14.1328 4.64063C13.9828 4.35469 14.0297 4.35938 12 4.35938C10.3969 4.35938 10.1297 4.36875 10.0406 4.43438ZM10.6313 9.9375C10.9172 10.1156 10.9594 10.4719 10.725 10.7063C10.5844 10.8469 10.5328 10.8656 10.1953 10.8938C8.94844 11.0016 8.01094 11.6156 7.64062 12.5625C7.51406 12.8859 7.3875 13.0219 7.18594 13.0594C6.88594 13.1156 6.5625 12.8625 6.5625 12.5719C6.5625 12.4313 6.83438 11.8406 7.02656 11.5594C7.72969 10.5422 8.97188 9.8625 10.1484 9.84844C10.3969 9.84375 10.5141 9.86719 10.6313 9.9375Z" fill="black"/>
<path d="M0.684375 17.5078C0.267188 17.6578 0 18.0609 0 18.5531C0 18.8297 0.01875 18.9047 0.154688 19.125C0.271875 19.3219 0.360938 19.4109 0.557813 19.5094L0.80625 19.6406H12H23.1938L23.4422 19.5094C23.8078 19.3219 24 18.9891 24 18.5625C24 18.3703 23.9672 18.1875 23.9109 18.0703C23.8031 17.8312 23.4938 17.55 23.2641 17.4891C23.1422 17.4516 19.6688 17.4375 11.9766 17.4375C2.64844 17.4422 0.839063 17.4516 0.684375 17.5078Z" fill="black"/>
</svg>
