<svg width="24" height="25" viewBox="0 0 24 25" fill="none" xmlns="http://www.w3.org/2000/svg">
<g clip-path="url(#clip0_5153_93982)">
<path d="M1.65001 3.64531C0.942195 3.78125 0.33282 4.325 0.0890697 5.03281C0.00469471 5.28594 7.20877e-06 5.45 7.20877e-06 9.02656C7.20877e-06 12.9922 -0.00468029 12.9266 0.225007 13.3719C0.360945 13.6344 0.665632 13.9672 0.937507 14.1406C1.32188 14.3844 1.66407 14.4688 2.30157 14.4688C2.60626 14.4688 2.85938 14.4594 2.85938 14.45C2.85938 14.4406 3.09376 13.4047 3.37501 12.1438C3.75469 10.4516 3.91876 9.81875 3.99844 9.70156C4.21407 9.3875 3.66563 9.40625 12 9.40625C20.3344 9.40625 19.7859 9.3875 20.0016 9.70156C20.0813 9.81875 20.2453 10.4516 20.625 12.1438C20.9063 13.4047 21.1406 14.4406 21.1406 14.45C21.1406 14.4594 21.3938 14.4688 21.6984 14.4688C22.3359 14.4688 22.6781 14.3844 23.0625 14.1406C23.3344 13.9672 23.6391 13.6344 23.775 13.3719C24.0047 12.9266 24 12.9922 24 9.02656C24 5.45 23.9953 5.28594 23.9109 5.03281C23.6578 4.30625 23.0578 3.78125 22.3125 3.64063C22.0031 3.58438 1.94532 3.58438 1.65001 3.64531ZM16.0359 7.21719C16.3406 7.41875 16.4391 7.79844 16.2656 8.08438C16.0781 8.38906 15.9516 8.42656 15.1781 8.4125C14.5172 8.39844 14.4844 8.39375 14.3672 8.28125C14.0016 7.93906 14.0391 7.45156 14.4469 7.20313C14.5828 7.12344 14.6859 7.10938 15.2391 7.10938C15.825 7.10938 15.8906 7.11875 16.0359 7.21719ZM19.2703 7.21719C19.6922 7.49844 19.6828 8.06563 19.2516 8.33281C19.1156 8.41719 19.0313 8.42188 18.4125 8.4125L17.7188 8.39844L17.55 8.225C17.2359 7.91094 17.2969 7.4375 17.6813 7.20313C17.8172 7.12344 17.9203 7.10938 18.4734 7.10938C19.0594 7.10938 19.125 7.11875 19.2703 7.21719Z" fill="black"/>
<path d="M5.03681 10.8219C5.02744 10.8547 4.84463 11.6516 4.63838 12.5938C4.42744 13.5359 4.24463 14.3422 4.23525 14.3844C4.21181 14.4641 4.60556 14.4688 11.9931 14.4688H19.779L19.7509 14.3375C19.7368 14.2672 19.5493 13.4422 19.3384 12.5L18.954 10.7891L12.0024 10.775C6.47119 10.7656 5.05556 10.775 5.03681 10.8219Z" fill="black"/>
<path d="M8.21508 15.4391C8.00415 15.5422 7.88227 15.7344 7.83071 16.025C7.81196 16.161 7.71821 16.4235 7.62446 16.6016C7.28227 17.2766 7.28696 17.9563 7.6479 18.6782C7.8729 19.1329 7.8729 19.1891 7.61977 19.6954C7.3479 20.2344 7.29165 20.7454 7.46977 21.05C7.81665 21.6547 8.69321 21.4485 8.79165 20.7407C8.8104 20.6047 8.89477 20.3563 8.97915 20.1875C9.1854 19.7844 9.23696 19.5782 9.23696 19.1516C9.23696 18.7438 9.1479 18.3922 8.95102 18.05C8.75883 17.7125 8.7729 17.5297 9.01196 17.0563C9.19008 16.7094 9.20883 16.6297 9.22758 16.2594C9.24165 15.8891 9.23696 15.8375 9.13383 15.6875C8.93227 15.3829 8.53852 15.2797 8.21508 15.4391Z" fill="black"/>
<path d="M11.9063 15.4388C11.6906 15.5513 11.55 15.7716 11.5125 16.0529C11.4984 16.1795 11.4188 16.4045 11.3391 16.5498C11.1469 16.9013 11.0625 17.2295 11.0625 17.6326C11.0625 18.0076 11.1328 18.2701 11.3438 18.6873C11.4281 18.8513 11.4938 19.0529 11.4984 19.1373C11.5031 19.2263 11.4188 19.4654 11.2969 19.7232C11.1234 20.0888 11.0906 20.206 11.0766 20.5107C11.0625 20.792 11.0766 20.8998 11.1422 21.0263C11.2594 21.2513 11.4422 21.3685 11.7047 21.392C12.1172 21.4295 12.4266 21.167 12.4828 20.731C12.5016 20.6138 12.5813 20.3841 12.6609 20.2248C12.8578 19.831 12.9375 19.531 12.9375 19.1326C12.9375 18.7529 12.8672 18.4951 12.6563 18.0732C12.4594 17.6888 12.4641 17.5248 12.6703 17.117C12.7594 16.9341 12.8578 16.7045 12.8859 16.6013C12.9563 16.3435 12.9516 15.9498 12.8719 15.7623C12.7313 15.4295 12.2438 15.2654 11.9063 15.4388Z" fill="black"/>
<path d="M15.6321 15.4251C15.3977 15.5283 15.2852 15.697 15.2149 16.0345C15.1774 16.2033 15.1024 16.4236 15.0508 16.5126C14.6571 17.1736 14.6664 18.0642 15.0649 18.7486C15.2336 19.0345 15.2289 19.2876 15.0461 19.6017C14.7461 20.1267 14.6664 20.7783 14.8727 21.0829C15.2524 21.6501 16.1711 21.3923 16.1711 20.7173C16.1711 20.647 16.2555 20.4173 16.3586 20.2064C16.7242 19.4564 16.7242 18.8329 16.3539 18.0876C16.1289 17.6423 16.1289 17.5673 16.3774 17.0939C16.6399 16.5923 16.7102 16.0345 16.5414 15.7345C16.3586 15.4158 15.9602 15.2798 15.6321 15.4251Z" fill="black"/>
</g>
<defs>
<clipPath id="clip0_5153_93982">
<rect width="24" height="24" fill="white" transform="translate(0 0.5)"/>
</clipPath>
</defs>
</svg>
