<svg width="100" height="100" viewBox="0 0 100 100" fill="none" xmlns="http://www.w3.org/2000/svg">
<g clip-path="url(#clip0_6073_87129)">
<path d="M42.8361 0.411079C18.0365 3.77023 -0.5 24.9859 -0.5 50.0153C-0.5 73.4789 15.7637 93.76 38.6944 98.8619C44.6796 100.201 52.3064 100.377 58.3421 99.2913C79.6313 95.5533 95.9455 78.6312 99.1022 57.062C99.6326 53.526 99.6326 46.5046 99.1022 42.9687C96.3748 24.2534 83.6972 8.84683 65.9941 2.70944C59.0492 0.28479 50.1345 -0.59919 42.8361 0.411079ZM51.8265 39.0792L51.9023 52.4147L60.4129 58.2238C65.0849 61.4061 68.9993 64.1086 69.1003 64.2349C69.2771 64.4117 65.4638 70.246 65.186 70.1955C65.1102 70.1955 60.4382 67.0384 54.8065 63.1994L44.5786 56.2032L44.5028 40.9734L44.4523 25.7689H48.1142H51.776L51.8265 39.0792Z" fill="#1164B4"/>
</g>
<defs>
<clipPath id="clip0_6073_87129">
<rect width="100" height="100" fill="white"/>
</clipPath>
</defs>
</svg>
