<svg width="24" height="25" viewBox="0 0 24 25" fill="none" xmlns="http://www.w3.org/2000/svg">
<g id="&#208;&#183;&#208;&#176;&#208;&#178;&#209;&#130;&#209;&#128;&#208;&#176;&#208;&#186;">
<path id="Vector" d="M2.83333 18.5075V16.8409C2.83636 14.5553 3.69233 12.3532 5.23367 10.6656C6.77501 8.97794 8.89074 7.92637 11.1667 7.71671V6.61004C10.8489 6.4266 10.6006 6.14344 10.4602 5.80447C10.3198 5.46551 10.2952 5.08969 10.3901 4.7353C10.4851 4.38091 10.6943 4.06776 10.9854 3.84441C11.2765 3.62106 11.6331 3.5 12 3.5C12.3669 3.5 12.7235 3.62106 13.0146 3.84441C13.3057 4.06776 13.5149 4.38091 13.6099 4.7353C13.7048 5.08969 13.6802 5.46551 13.5398 5.80447C13.3994 6.14344 13.1511 6.4266 12.8333 6.61004V7.71671C15.1093 7.92637 17.225 8.97794 18.7663 10.6656C20.3077 12.3532 21.1636 14.5553 21.1667 16.8409V18.5075H2.83333ZM2 20.1742V21.8409H22V20.1742H2Z" fill="#228B22"/>
</g>
</svg>
