<svg width="24" height="17" viewBox="0 0 24 17" fill="none" xmlns="http://www.w3.org/2000/svg">
<g id="Black">
<path id="Vector" d="M10.0406 0.934376C9.81094 1.09375 9.74063 1.40313 9.87188 1.67969C9.98906 1.92813 10.1672 1.98438 10.8469 1.98438H11.4375V2.51406V3.03906L10.7953 3.11875C6.19688 3.68594 2.65313 7.33281 2.20312 11.9641C2.17969 12.2313 2.15625 12.55 2.15625 12.6766V12.9062H12H21.8438V12.6766C21.8438 11.8844 21.6422 10.7172 21.3469 9.8125C20.1609 6.18438 17.0063 3.5875 13.2328 3.12344L12.5625 3.03906V2.51406V1.98438H13.1531C13.8328 1.98438 14.0109 1.92813 14.1281 1.67969C14.2219 1.4875 14.2219 1.31406 14.1328 1.14063C13.9828 0.854689 14.0297 0.859376 12 0.859376C10.3969 0.859376 10.1297 0.868751 10.0406 0.934376ZM10.6313 6.4375C10.9172 6.61563 10.9594 6.97188 10.725 7.20625C10.5844 7.34688 10.5328 7.36563 10.1953 7.39375C8.94844 7.50156 8.01094 8.11563 7.64062 9.0625C7.51406 9.38594 7.3875 9.52188 7.18594 9.55938C6.88594 9.61563 6.5625 9.3625 6.5625 9.07188C6.5625 8.93125 6.83438 8.34063 7.02656 8.05938C7.72969 7.04219 8.97188 6.3625 10.1484 6.34844C10.3969 6.34375 10.5141 6.36719 10.6313 6.4375Z" fill="black"/>
<path id="Vector_2" d="M0.684375 14.0078C0.267188 14.1578 0 14.5609 0 15.0531C0 15.3297 0.01875 15.4047 0.154688 15.625C0.271875 15.8219 0.360938 15.9109 0.557813 16.0094L0.80625 16.1406H12H23.1938L23.4422 16.0094C23.8078 15.8219 24 15.4891 24 15.0625C24 14.8703 23.9672 14.6875 23.9109 14.5703C23.8031 14.3312 23.4938 14.05 23.2641 13.9891C23.1422 13.9516 19.6688 13.9375 11.9766 13.9375C2.64844 13.9422 0.839063 13.9516 0.684375 14.0078Z" fill="black"/>
</g>
</svg>
