<svg width="24" height="24" viewBox="0 0 24 24" fill="none" xmlns="http://www.w3.org/2000/svg">
<path d="M11.82 23.04C10.4333 23.04 9.16667 22.8133 8.02 22.36C6.87333 21.9067 5.88667 21.2733 5.06 20.46C4.23333 19.6467 3.59333 18.6867 3.14 17.58C2.68667 16.46 2.46 15.24 2.46 13.92C2.46 12.6 2.68667 11.3867 3.14 10.28C3.59333 9.17333 4.23333 8.21333 5.06 7.4C5.9 6.58667 6.9 5.96 8.06 5.52C9.22 5.08 10.5 4.86 11.9 4.86C13.2733 4.86 14.5267 5.07333 15.66 5.5C16.7933 5.92667 17.7733 6.53333 18.6 7.32C19.44 8.09333 20.0867 9.02 20.54 10.1C20.9933 11.1667 21.22 12.3467 21.22 13.64C21.22 14.7733 21.08 15.7467 20.8 16.56C20.52 17.3733 20.1133 18.0067 19.58 18.46C19.06 18.9 18.42 19.12 17.66 19.12C16.9133 19.12 16.3133 18.8933 15.86 18.44C15.42 17.9867 15.2 17.34 15.2 16.5V15.14L15.3 13.92L15.12 11.62V8.96H16.86V16.16C16.86 16.6933 16.9667 17.0667 17.18 17.28C17.4067 17.4933 17.68 17.6 18 17.6C18.3867 17.6 18.72 17.4467 19 17.14C19.2933 16.8333 19.5067 16.3867 19.64 15.8C19.7867 15.2 19.86 14.4867 19.86 13.66C19.86 12.54 19.6667 11.5267 19.28 10.62C18.9067 9.7 18.36 8.90667 17.64 8.24C16.9333 7.57333 16.0933 7.06667 15.12 6.72C14.16 6.36 13.0867 6.18 11.9 6.18C10.7133 6.18 9.62667 6.37333 8.64 6.76C7.66667 7.13333 6.82667 7.66667 6.12 8.36C5.41333 9.04 4.86667 9.85333 4.48 10.8C4.10667 11.7467 3.92 12.7867 3.92 13.92C3.92 15.0667 4.10667 16.12 4.48 17.08C4.85333 18.0267 5.38667 18.84 6.08 19.52C6.78667 20.2133 7.62 20.7467 8.58 21.12C9.55333 21.5067 10.6333 21.7 11.82 21.7C12.4333 21.7 13.08 21.6267 13.76 21.48C14.44 21.3467 15.08 21.1267 15.68 20.82L16.12 22.1C15.5067 22.4067 14.8133 22.64 14.04 22.8C13.2667 22.96 12.5267 23.04 11.82 23.04ZM11.46 19.12C10.5133 19.12 9.67333 18.9 8.94 18.46C8.20667 18.0067 7.62667 17.3933 7.2 16.62C6.77333 15.8467 6.56 14.9667 6.56 13.98C6.56 12.98 6.77333 12.1 7.2 11.34C7.62667 10.5667 8.20667 9.96667 8.94 9.54C9.67333 9.1 10.5133 8.88 11.46 8.88C12.38 8.88 13.1867 9.08 13.88 9.48C14.5733 9.86667 15.1133 10.44 15.5 11.2C15.9 11.96 16.1 12.8867 16.1 13.98C16.1 15.0733 15.9067 16 15.52 16.76C15.1333 17.52 14.5933 18.1067 13.9 18.52C13.2067 18.92 12.3933 19.12 11.46 19.12ZM11.74 17.56C12.3933 17.56 12.9733 17.42 13.48 17.14C14 16.8467 14.4067 16.4333 14.7 15.9C15.0067 15.3533 15.16 14.7133 15.16 13.98C15.16 13.2333 15.0067 12.5933 14.7 12.06C14.4067 11.5267 14 11.12 13.48 10.84C12.9733 10.56 12.3933 10.42 11.74 10.42C11.0733 10.42 10.48 10.5667 9.96 10.86C9.45333 11.14 9.05333 11.5467 8.76 12.08C8.48 12.6133 8.34 13.2467 8.34 13.98C8.34 14.7 8.48 15.3267 8.76 15.86C9.05333 16.3933 9.45333 16.8133 9.96 17.12C10.48 17.4133 11.0733 17.56 11.74 17.56Z" fill="black"/>
</svg>
