<svg width="155" height="155" viewBox="0 0 155 155" fill="none" xmlns="http://www.w3.org/2000/svg">
<path d="M75.5 117.111C110.018 117.111 138 92.238 138 61.5556C138 30.8731 110.018 6 75.5 6C40.9822 6 13 30.8731 13 61.5556C13 76.5324 19.6672 90.125 30.5072 100.116C27.193 114.68 19.25 124.056 13 131C31.75 131 41.2965 124.203 52.5036 113.23C59.6213 115.735 67.3798 117.111 75.5 117.111Z" fill="white" stroke="#1164B4" stroke-width="8.33333" stroke-linecap="round" stroke-linejoin="round"/>
<path d="M112.5 143.056C91.7893 143.056 75 130.619 75 115.278C75 99.9365 91.7893 87.5 112.5 87.5C133.211 87.5 150 99.9365 150 115.278C150 122.766 146 129.563 139.496 134.558C141.484 141.84 146.25 146.528 150 150C138.75 150 133.022 146.602 126.298 141.115C122.027 142.367 117.372 143.056 112.5 143.056Z" stroke="#1164B4" stroke-width="8.33333" stroke-linecap="round" stroke-linejoin="round"/>
<g clip-path="url(#clip0_5286_142199)">
<path d="M54.375 81.375H61.875V58.875H54.375V81.375ZM95.625 60.75C95.625 58.6875 93.9375 57 91.875 57H80.0437L81.825 48.4313L81.8813 47.8312C81.8813 47.0625 81.5625 46.35 81.0562 45.8437L79.0688 43.875L66.7313 56.2313C66.0375 56.9062 65.625 57.8438 65.625 58.875V77.625C65.625 79.6875 67.3125 81.375 69.375 81.375H86.25C87.8063 81.375 89.1375 80.4375 89.7 79.0875L95.3625 65.8687C95.5312 65.4375 95.625 64.9875 95.625 64.5V60.75Z" fill="#5785DE" fill-opacity="0.5"/>
</g>
<defs>
<clipPath id="clip0_5286_142199">
<rect width="45" height="45" fill="white" transform="translate(52.5 42)"/>
</clipPath>
</defs>
</svg>
