<svg width="24" height="24" viewBox="0 0 24 24" fill="none" xmlns="http://www.w3.org/2000/svg">
<path d="M14.6594 3.04775C13.7625 3.17064 12.9781 3.42307 12.1406 3.85817C10.8625 4.52244 9.79375 5.52217 8.99063 6.80422C8.74688 7.19282 8.39375 7.90359 8.23438 8.33204L8.11875 8.64093H6.55938H5V9.60413V10.5673H6.3375H7.67188V11.4973V12.4273H6.3375H5V13.3905V14.3537H6.55938H8.11875L8.23438 14.6592C8.84375 16.2934 10.0094 17.778 11.4219 18.7213C11.7719 18.9571 12.4813 19.3258 12.875 19.4819C13.7937 19.8406 14.6438 20 15.6781 20C17.2656 20 18.7312 19.545 20.0156 18.6449C20.4375 18.3526 21 17.8843 21 17.8278C21 17.7846 19.4656 16.1472 19.425 16.1472C19.4125 16.1472 19.3125 16.2203 19.2063 16.31C18.5688 16.848 17.7344 17.2698 16.9375 17.4592C16.3844 17.5887 16.0813 17.6186 15.4781 17.5987C14.5813 17.5688 13.8938 17.3861 13.0938 16.9643C12.3219 16.5557 11.5938 15.9114 11.0594 15.1541C10.8719 14.8851 10.5938 14.4234 10.5938 14.3736C10.5938 14.3636 11.7406 14.3537 13.1406 14.3537H15.6875V13.3905V12.4273H12.8313H9.97813L9.94063 12.0952C9.92188 11.9092 9.90625 11.6434 9.90625 11.4973C9.90625 11.3512 9.92188 11.0855 9.94063 10.8995L9.97813 10.5673H12.8313H15.6875V9.60413V8.64093H13.1406C11.7406 8.64093 10.5938 8.63097 10.5938 8.621C10.5938 8.57783 10.8563 8.12944 11.025 7.8903C11.9188 6.60826 13.1031 5.81445 14.6031 5.48231C15.0156 5.39264 15.8813 5.35942 16.325 5.41921C17.3844 5.55871 18.3969 6.00377 19.2063 6.68465C19.3125 6.77432 19.4125 6.84739 19.425 6.84739C19.4656 6.84739 21 5.20996 21 5.16678C21 5.11032 20.4375 4.64201 20.0156 4.34973C19.0188 3.65224 17.9 3.22046 16.6469 3.04443C16.1938 2.98465 15.125 2.98465 14.6594 3.04775Z" fill="black"/>
</svg>
