<svg width="16" height="17" viewBox="0 0 16 17" fill="none" xmlns="http://www.w3.org/2000/svg">
<path d="M9.65938 0.0477524C8.7625 0.170643 7.97813 0.423067 7.14062 0.858166C5.8625 1.52244 4.79375 2.52217 3.99063 3.80422C3.74688 4.19282 3.39375 4.90359 3.23438 5.33204L3.11875 5.64093H1.55938H0V6.60413V7.56732H1.3375H2.67188V8.49731V9.42729H1.3375H0V10.3905V11.3537H1.55938H3.11875L3.23438 11.6592C3.84375 13.2934 5.00938 14.778 6.42188 15.7213C6.77187 15.9571 7.48125 16.3258 7.875 16.4819C8.79375 16.8406 9.64375 17 10.6781 17C12.2656 17 13.7312 16.545 15.0156 15.6449C15.4375 15.3526 16 14.8843 16 14.8278C16 14.7846 14.4656 13.1472 14.425 13.1472C14.4125 13.1472 14.3125 13.2203 14.2063 13.31C13.5688 13.848 12.7344 14.2698 11.9375 14.4592C11.3844 14.5887 11.0813 14.6186 10.4781 14.5987C9.58125 14.5688 8.89375 14.3861 8.09375 13.9643C7.32188 13.5557 6.59375 12.9114 6.05938 12.1541C5.87188 11.8851 5.59375 11.4234 5.59375 11.3736C5.59375 11.3636 6.74062 11.3537 8.14062 11.3537H10.6875V10.3905V9.42729H7.83125H4.97813L4.94063 9.09515C4.92188 8.90915 4.90625 8.64345 4.90625 8.49731C4.90625 8.35117 4.92188 8.08546 4.94063 7.89946L4.97813 7.56732H7.83125H10.6875V6.60413V5.64093H8.14062C6.74062 5.64093 5.59375 5.63097 5.59375 5.621C5.59375 5.57783 5.85625 5.12944 6.025 4.8903C6.91875 3.60826 8.10313 2.81445 9.60313 2.48231C10.0156 2.39264 10.8813 2.35942 11.325 2.41921C12.3844 2.55871 13.3969 3.00377 14.2063 3.68465C14.3125 3.77432 14.4125 3.84739 14.425 3.84739C14.4656 3.84739 16 2.20996 16 2.16678C16 2.11032 15.4375 1.64201 15.0156 1.34973C14.0188 0.652241 12.9 0.220465 11.6469 0.0444317C11.1938 -0.0153522 10.125 -0.0153522 9.65938 0.0477524Z" fill="black"/>
</svg>
