<svg width="78" height="79" viewBox="0 0 78 79" fill="none" xmlns="http://www.w3.org/2000/svg">
<path d="M77 39.5C77 60.775 59.9748 78 39 78C18.0252 78 1 60.775 1 39.5C1 18.225 18.0252 1 39 1C59.9748 1 77 18.225 77 39.5Z" stroke="black" stroke-width="2"/>
<path d="M52.3327 38.9998C52.3327 31.6398 46.3593 25.6665 38.9993 25.6665C31.6393 25.6665 25.666 31.6398 25.666 38.9998C25.666 45.4532 30.2527 50.8265 36.3327 52.0665V42.9998H33.666V38.9998H36.3327V35.6665C36.3327 33.0932 38.426 30.9998 40.9993 30.9998H44.3327V34.9998H41.666C40.9327 34.9998 40.3327 35.5998 40.3327 36.3332V38.9998H44.3327V42.9998H40.3327V52.2665C47.066 51.5998 52.3327 45.9198 52.3327 38.9998Z" fill="black"/>
</svg>
