<svg width="33" height="32" viewBox="0 0 33 32" fill="none" xmlns="http://www.w3.org/2000/svg">
<g clip-path="url(#clip0_4595_44707)">
<path d="M22.0052 4C19.6852 4 17.4585 5.08 16.0052 6.78667C14.5519 5.08 12.3252 4 10.0052 4C5.89854 4 2.67188 7.22667 2.67188 11.3333C2.67188 16.3733 7.20521 20.48 14.0719 26.72L16.0052 28.4667L17.9385 26.7067C24.8052 20.48 29.3385 16.3733 29.3385 11.3333C29.3385 7.22667 26.1119 4 22.0052 4ZM16.1385 24.7333L16.0052 24.8667L15.8719 24.7333C9.52521 18.9867 5.33854 15.1867 5.33854 11.3333C5.33854 8.66667 7.33854 6.66667 10.0052 6.66667C12.0585 6.66667 14.0585 7.98667 14.7652 9.81333H17.2585C17.9519 7.98667 19.9519 6.66667 22.0052 6.66667C24.6719 6.66667 26.6719 8.66667 26.6719 11.3333C26.6719 15.1867 22.4852 18.9867 16.1385 24.7333Z" fill="white"/>
</g>
<defs>
<clipPath id="clip0_4595_44707">
<rect width="32" height="32" fill="white" transform="translate(0.00390625)"/>
</clipPath>
</defs>
</svg>
