<svg width="18" height="14" viewBox="0 0 18 14" fill="none" xmlns="http://www.w3.org/2000/svg">
<path d="M1.23751 0.358985C0.706646 0.460938 0.249615 0.86875 0.0668023 1.39961C0.00352103 1.58945 5.40657e-06 1.7125 5.40657e-06 4.39492C5.40657e-06 7.36914 -0.00351022 7.31992 0.168755 7.65391C0.270709 7.85078 0.499224 8.10039 0.70313 8.23047C0.991412 8.41328 1.24805 8.47656 1.72618 8.47656C1.95469 8.47656 2.14454 8.46953 2.14454 8.4625C2.14454 8.45547 2.32032 7.67852 2.53126 6.73281C2.81602 5.46367 2.93907 4.98906 2.99883 4.90117C3.16055 4.66563 2.74922 4.67969 9.00001 4.67969C15.2508 4.67969 14.8395 4.66563 15.0012 4.90117C15.0609 4.98906 15.184 5.46367 15.4688 6.73281C15.6797 7.67852 15.8555 8.45547 15.8555 8.4625C15.8555 8.46953 16.0453 8.47656 16.2738 8.47656C16.752 8.47656 17.0086 8.41328 17.2969 8.23047C17.5008 8.10039 17.7293 7.85078 17.8313 7.65391C18.0035 7.31992 18 7.36914 18 4.39492C18 1.7125 17.9965 1.58945 17.9332 1.39961C17.7434 0.854688 17.2934 0.460938 16.7344 0.355469C16.5023 0.313281 1.45899 0.313281 1.23751 0.358985ZM12.027 3.03789C12.2555 3.18906 12.3293 3.47383 12.1992 3.68828C12.0586 3.9168 11.9637 3.94492 11.3836 3.93438C10.8879 3.92383 10.8633 3.92031 10.7754 3.83594C10.5012 3.5793 10.5293 3.21367 10.8352 3.02734C10.9371 2.96758 11.0145 2.95703 11.4293 2.95703C11.8688 2.95703 11.918 2.96406 12.027 3.03789ZM14.4527 3.03789C14.7691 3.24883 14.7621 3.67422 14.4387 3.87461C14.3367 3.93789 14.2734 3.94141 13.8094 3.93438L13.2891 3.92383L13.1625 3.79375C12.927 3.5582 12.9727 3.20312 13.2609 3.02734C13.3629 2.96758 13.4402 2.95703 13.8551 2.95703C14.2945 2.95703 14.3438 2.96406 14.4527 3.03789Z" fill="black"/>
<path d="M3.77761 5.74141C3.77058 5.76602 3.63347 6.36367 3.47878 7.07031C3.32058 7.77695 3.18347 8.38164 3.17644 8.41328C3.15886 8.47305 3.45417 8.47656 8.9948 8.47656H14.8343L14.8132 8.37812C14.8026 8.32539 14.662 7.70664 14.5038 7L14.2155 5.7168L9.00183 5.70625C4.85339 5.69922 3.79167 5.70625 3.77761 5.74141Z" fill="black"/>
<path d="M6.15936 9.20433C6.00116 9.28167 5.90975 9.42581 5.87108 9.64378C5.85702 9.74574 5.7867 9.94261 5.71639 10.0762C5.45975 10.5825 5.46327 11.0922 5.73397 11.6336C5.90272 11.9746 5.90272 12.0168 5.71288 12.3965C5.50897 12.8008 5.46678 13.184 5.60038 13.4125C5.86053 13.866 6.51795 13.7114 6.59178 13.1805C6.60584 13.0785 6.66913 12.8922 6.73241 12.7657C6.88709 12.4633 6.92577 12.3086 6.92577 11.9887C6.92577 11.6828 6.85897 11.4192 6.71131 11.1625C6.56717 10.9094 6.57772 10.7723 6.75702 10.4172C6.89061 10.1571 6.90467 10.0973 6.91874 9.81956C6.92928 9.54183 6.92577 9.50316 6.84842 9.39066C6.69725 9.16214 6.40194 9.0848 6.15936 9.20433Z" fill="black"/>
<path d="M8.92969 9.20437C8.76797 9.28875 8.6625 9.45398 8.63437 9.66492C8.62383 9.75984 8.56406 9.92859 8.5043 10.0376C8.36016 10.3012 8.29688 10.5473 8.29688 10.8497C8.29688 11.1309 8.34961 11.3278 8.50781 11.6407C8.57109 11.7637 8.62031 11.9149 8.62383 11.9782C8.62734 12.045 8.56406 12.2243 8.47266 12.4177C8.34258 12.6919 8.31797 12.7798 8.30742 13.0083C8.29688 13.2192 8.30742 13.3001 8.35664 13.395C8.44453 13.5637 8.58164 13.6516 8.77852 13.6692C9.08789 13.6973 9.31992 13.5005 9.36211 13.1735C9.37617 13.0856 9.43594 12.9134 9.4957 12.7938C9.64336 12.4985 9.70312 12.2735 9.70312 11.9747C9.70312 11.6899 9.65039 11.4966 9.49219 11.1802C9.34453 10.8919 9.34805 10.7688 9.50273 10.463C9.56953 10.3259 9.64336 10.1536 9.66445 10.0762C9.71719 9.88289 9.71367 9.58757 9.65391 9.44695C9.54844 9.19734 9.18281 9.07429 8.92969 9.20437Z" fill="black"/>
<path d="M11.726 9.19385C11.5502 9.2712 11.4658 9.39776 11.4131 9.65088C11.385 9.77745 11.3287 9.94268 11.2901 10.0095C10.9947 10.5052 11.0018 11.1731 11.3006 11.6864C11.4272 11.9009 11.4236 12.0907 11.2865 12.3263C11.0615 12.72 11.0018 13.2087 11.1565 13.4372C11.4412 13.8626 12.1303 13.6692 12.1303 13.163C12.1303 13.1103 12.1936 12.938 12.2709 12.7798C12.5451 12.2173 12.5451 11.7497 12.2674 11.1907C12.0986 10.8567 12.0986 10.8005 12.285 10.4454C12.4819 10.0692 12.5346 9.65088 12.408 9.42588C12.2709 9.18682 11.9721 9.08487 11.726 9.19385Z" fill="black"/>
</svg>
