<svg width="100" height="100" viewBox="0 0 100 100" fill="none" xmlns="http://www.w3.org/2000/svg">
<path d="M41.7969 0.3125C34.5312 1.85547 28.9062 7.53906 27.4414 14.8242C26.9336 17.2656 27.1094 21.3672 27.8125 23.6914C28.7891 26.9531 30.4102 29.6289 32.8711 31.9727C34.0039 33.0664 34.2383 33.2031 34.9219 33.2031C35.5469 33.2031 35.8008 33.0859 36.1133 32.6953C36.8164 31.7969 36.6602 31.3672 35 29.6289C32.5195 27.0117 31.4062 25.0977 30.6445 22.0703C30.293 20.6641 30.2344 20.0586 30.332 17.8711C30.4687 14.5508 31.0352 12.7539 32.7539 10.0781C34.8828 6.77734 38.418 4.29688 42.3242 3.39844C44.1797 2.96875 47.3828 3.00781 49.2383 3.49609C52.0508 4.21875 54.1406 5.39062 56.3867 7.46094C57.4023 8.39844 61 14 61 14C61.918 14 63 12.957 63 12C63 11.3164 59.6289 6.17188 58.457 5.05859C57.7148 4.35547 56.7383 3.51562 56.25 3.18359C54.2188 1.81641 51.3281 0.625 48.9453 0.214844C47.3242 -0.078125 43.3203 -0.0195312 41.7969 0.3125Z" fill="#1164B4"/>
<path d="M43.5938 6.44512C38.1445 7.42168 34.1016 11.8162 33.4961 17.4021C33.2422 19.7459 34.0625 23.3396 35.0781 24.3553C35.7227 24.9998 36.7578 24.9607 37.2852 24.2967C37.793 23.6521 37.793 23.1248 37.3047 21.9725C37.0898 21.4646 36.8164 20.449 36.6992 19.7264C35.7617 14.0623 41.2305 8.61309 46.9336 9.55059C52.7344 10.5076 56.1914 16.5232 54.0234 21.8553C53.418 23.3787 53.3984 23.6326 53.9258 24.2967C54.2383 24.6873 54.4922 24.8045 55.0586 24.8045C55.9961 24.8045 56.3281 24.5311 56.8359 23.3396C58.8086 18.7107 57.7539 13.4178 54.1992 9.86309C52.7539 8.41778 50.9375 7.30449 49.0625 6.75762C47.7344 6.36699 44.9414 6.21074 43.5938 6.44512Z" fill="#1164B4"/>
<path d="M60.8008 11.8162C60.1758 12.2459 60.5703 13.3389 61 14.999C61.8203 18.1826 61.25 20.449 60.1758 23.574C59.4336 25.7225 58.1445 27.7342 56.3672 29.492C55.0391 30.8006 54.8828 31.035 54.8828 31.6795C54.8828 33.3201 56.3672 33.7107 57.8906 32.4607C62.3633 28.7693 64.9922 22.1287 64.1914 16.1521C63.8984 13.9256 63.293 11.9725 62.8047 11.7186C62.2773 11.4451 61.2891 11.4842 60.8008 11.8162Z" fill="#1164B4"/>
<path d="M43.75 21.7383C41.9727 22.2461 40.1953 23.7891 39.3945 25.5469L38.9648 26.4649L38.8672 48.5156L38.7695 70.5664L33.6523 64.043C30.8398 60.4492 28.2031 57.1875 27.793 56.7969C26.582 55.625 25.0195 55.0195 23.1641 55.0195C21.7773 55 21.4062 55.0781 20.2734 55.6055C17.8125 56.7578 16.4258 58.7695 16.25 61.4453C16.0937 63.9258 16.3477 64.4141 20.957 70.6055C23.2031 73.6133 25.2148 76.2305 25.4297 76.4062C25.6445 76.6016 28.8836 81.459 29.2547 81.459C30.1336 81.459 31.5077 80.532 31.5077 79.6531C31.5077 79.0867 27.3242 73.8086 23.8477 69.1602C21.6016 66.1719 19.668 63.3789 19.5312 62.9883C18.8281 60.8789 20.2734 58.6133 22.5977 58.1055C23.4766 57.9297 16.2183 60.2773 16.9995 61C17.3706 61.3516 21.0352 65.5664 23.8477 69.1602C26.6602 72.7539 35.5859 84.9805 35.8789 85.1953C36.9995 96 51.5625 96.8359 52.0898 96.8945C53.2812 96.9922 40.6445 73.2617 41.3672 72.3047L41.8945 71.6211L41.9922 49.4336C42.1094 24.8633 41.9922 26.6602 43.3398 25.5274L38.9648 26.4649L38.8672 48.5156L38.7695 70.5664L48.0469 99.4531C48.7109 100.02 72.6758 98.4766 73.3398 97.9492L83.6914 85.0586L80.625 71.7773C80.6836 65.9766 69.3359 54.1797 69.7656 53.3789C71.1914 50.6836 58.125 48.2812 59.3945 51.0742C59.7266 51.7773 59.7656 52.4609 59.7656 57.6758V63.4961L60.2539 63.9648C60.8789 64.6094 61.7773 64.6094 62.4023 63.9648L62.8906 63.4961V58.9453C62.8906 54.9609 62.9492 54.2969 63.2617 53.6133C64.5312 50.8203 68.3398 50.6836 69.7656 53.3789C70.1953 54.1602 70.2148 54.4531 70.3125 59.7266C70.4102 64.9219 70.4297 65.293 70.7812 65.5469C71.2305 65.8594 72.1289 65.8984 72.6562 65.625C73.2617 65.293 73.4375 64.3164 73.4375 61.0938C73.4375 57.6367 79.8277 75.0352 80.9995 74C83.0113 72.2422 79.7266 55.4102 80.4688 57.9688C80.625 58.457 80.6641 62.7539 80.625 71.7773L80.5664 84.8633L80.0391 86.2891C78.1836 91.3672 73.5156 95.332 67.9102 96.582C66.0352 97.0117 55.3906 97.2266 52.0898 96.8945C48.4961 96.543 45.7617 95.5469 43.2031 93.6523C41.2305 92.207 40.5469 91.4258 35.8789 85.1953C32.1289 80.2148 31.3672 79.3164 30.8594 79.1992C29.7852 78.9648 28.75 80 29.0039 81.0156C29.1211 81.5234 35.4297 90.0977 37.7734 92.9492C40.1562 95.8398 44.2773 98.4375 48.0469 99.4531C49.668 99.8828 49.9414 99.9023 58.7891 99.9023C69.2969 99.9023 69.3945 99.8828 73.3398 97.9492C78.1836 95.5859 81.8555 91.3672 83.2422 86.6016L83.6914 85.0586V71.0938V57.1289L83.125 55.9961C81.6602 53.125 78.457 51.6406 75.3906 52.4219C74.6875 52.5977 73.9258 52.8906 73.6719 53.0469C73.418 53.2227 73.1836 53.3203 73.1641 53.2812C73.1445 53.2422 72.9688 52.8125 72.7734 52.3047C72.3047 51.0352 70.8594 49.5508 69.4336 48.8867C68.418 48.418 68.0273 48.3398 66.5039 48.3398C64.9219 48.3398 64.6289 48.418 63.5352 48.9648L62.3047 49.5703L61.9141 48.9258C61.3281 47.9688 59.8633 46.7188 58.8281 46.2695C58.3203 46.0352 57.3047 45.8203 56.543 45.7617C55.2344 45.6641 54.3359 45.8594 52.6953 46.5625C52.3828 46.6992 52.3633 46.0742 52.3047 36.4844L52.2461 26.2696L51.7188 25.293C51.0352 23.9649 49.8242 22.793 48.4961 22.1485C47.2266 21.5235 45.1367 21.3477 43.75 21.7383Z" fill="#1164B4"/>
</svg>
