<svg width="24" height="15" viewBox="0 0 24 15" fill="none" xmlns="http://www.w3.org/2000/svg">
<path d="M5.32081 0.393431C5.14737 0.468431 4.93644 0.707494 4.88487 0.880931C4.86612 0.951243 4.85206 3.95124 4.85206 7.54656C4.85206 14.8637 4.82394 14.2356 5.18956 14.5169C5.35362 14.6434 5.38644 14.6481 5.97237 14.6622C6.54425 14.6762 6.6005 14.6716 6.79269 14.5684C6.938 14.4887 7.03644 14.3903 7.11144 14.2497L7.21925 14.0481V7.49968V0.951243L7.11144 0.749681C6.93331 0.412181 6.71769 0.327806 6.02863 0.327806C5.663 0.332494 5.40987 0.355931 5.32081 0.393431Z" fill="black"/>
<path d="M17.2078 0.430931C17.0625 0.510618 16.9641 0.609056 16.8891 0.749681L16.7812 0.951243V7.49968V14.0481L16.8891 14.2497C16.9641 14.3903 17.0625 14.4887 17.2078 14.5684C17.4 14.6716 17.4562 14.6762 18.0281 14.6622C18.6141 14.6481 18.6469 14.6434 18.8109 14.5169C19.1766 14.2356 19.1484 14.8403 19.1625 7.71062C19.1719 4.20437 19.1625 1.22781 19.1484 1.09187C19.1156 0.824681 18.9891 0.604368 18.7828 0.449681C18.6656 0.365306 18.5719 0.351243 18.0328 0.337181C17.4562 0.323118 17.4 0.327806 17.2078 0.430931Z" fill="black"/>
<path d="M2.60156 3.14473C2.41875 3.19629 2.20781 3.39316 2.12813 3.59004C2.07188 3.72129 2.0625 4.40566 2.0625 7.50879C2.0625 11.1604 2.06719 11.2729 2.15625 11.4557C2.20781 11.5635 2.325 11.6994 2.42344 11.765C2.5875 11.8775 2.62969 11.8822 3.40781 11.8963L4.21875 11.915V7.5041V3.09316L3.48281 3.09785C3.075 3.09785 2.68125 3.12129 2.60156 3.14473Z" fill="black"/>
<path d="M19.7812 7.49531V11.9062H20.4984C20.8875 11.9062 21.2859 11.8828 21.375 11.8594C21.5672 11.8078 21.8156 11.5734 21.8859 11.3766C21.9234 11.2875 21.9375 10.0219 21.9375 7.49062C21.9375 3.83906 21.9328 3.72656 21.8438 3.54375C21.7922 3.43594 21.675 3.3 21.5766 3.23438C21.4125 3.12187 21.3703 3.11719 20.5922 3.10312L19.7812 3.08906V7.49531Z" fill="black"/>
<path d="M0 7.5V8.85938H0.703125H1.40625V7.5V6.14062H0.703125H0V7.5Z" fill="black"/>
<path d="M7.875 7.5V8.85938H12H16.125V7.5V6.14062H12H7.875V7.5Z" fill="black"/>
<path d="M22.5938 7.5V8.85938H23.2969H24V7.5V6.14062H23.2969H22.5938V7.5Z" fill="black"/>
</svg>
