<svg width="208" height="42" viewBox="0 0 208 42" fill="none" xmlns="http://www.w3.org/2000/svg">
<g clip-path="url(#clip0_4702_47700)">
<path d="M21.5 30.2225L32.315 36.75L29.445 24.4475L39 16.17L26.4175 15.1025L21.5 3.5L16.5825 15.1025L4 16.17L13.555 24.4475L10.685 36.75L21.5 30.2225Z" fill="#FFC506"/>
</g>
<g clip-path="url(#clip1_4702_47700)">
<path d="M76.5 30.2225L87.315 36.75L84.445 24.4475L94 16.17L81.4175 15.1025L76.5 3.5L71.5825 15.1025L59 16.17L68.555 24.4475L65.685 36.75L76.5 30.2225Z" fill="#FFC506"/>
</g>
<g clip-path="url(#clip2_4702_47700)">
<path d="M131.5 30.2225L142.315 36.75L139.445 24.4475L149 16.17L136.418 15.1025L131.5 3.5L126.582 15.1025L114 16.17L123.555 24.4475L120.685 36.75L131.5 30.2225Z" fill="#FFC506"/>
</g>
<g clip-path="url(#clip3_4702_47700)">
<path d="M186.5 30.2225L197.315 36.75L194.445 24.4475L204 16.17L191.418 15.1025L186.5 3.5L181.582 15.1025L169 16.17L178.555 24.4475L175.685 36.75L186.5 30.2225Z" fill="#FFC506"/>
</g>
<defs>
<clipPath id="clip0_4702_47700">
<rect width="42" height="42" fill="white" transform="translate(0.5)"/>
</clipPath>
<clipPath id="clip1_4702_47700">
<rect width="42" height="42" fill="white" transform="translate(55.5)"/>
</clipPath>
<clipPath id="clip2_4702_47700">
<rect width="42" height="42" fill="white" transform="translate(110.5)"/>
</clipPath>
<clipPath id="clip3_4702_47700">
<rect width="42" height="42" fill="white" transform="translate(165.5)"/>
</clipPath>
</defs>
</svg>
