<svg width="18" height="18" viewBox="0 0 18 18" fill="none" xmlns="http://www.w3.org/2000/svg">
<path d="M5.08711 0.214454C4.79531 0.284766 4.51758 0.502735 4.37344 0.773438C4.31016 0.889453 4.30664 1.04414 4.29609 3.62813L4.28906 6.36328H5.32617H6.36328V6.02578C6.36328 5.49492 6.02578 5.55469 9 5.55469C11.9742 5.55469 11.6367 5.49492 11.6367 6.02578V6.36328H12.6738H13.7109L13.7039 3.62813C13.6934 0.903516 13.6934 0.896485 13.616 0.75586C13.5105 0.5625 13.3066 0.369141 13.0957 0.27422L12.9199 0.19336L9.07031 0.186329C6.89414 0.182813 5.16445 0.196876 5.08711 0.214454ZM5.63203 1.71211C5.6918 1.76484 5.69531 1.8668 5.69531 3.48398V5.20313L5.60742 5.25938C5.52656 5.31211 5.5125 5.31211 5.43164 5.25938L5.34375 5.20313V3.49102C5.34375 1.94766 5.35078 1.77539 5.40352 1.71563C5.47383 1.63828 5.54766 1.63477 5.63203 1.71211Z" fill="black"/>
<path d="M6.75 6.13477V6.36328H9H11.25V6.13477V5.90625H9H6.75V6.13477Z" fill="black"/>
<path d="M4.2895 11.4536C4.2895 16.7974 4.26489 16.3614 4.58481 16.6849C4.90473 17.0013 4.57427 16.9802 9.00044 16.9802C13.4266 16.9802 13.0961 17.0013 13.4161 16.6849C13.736 16.3614 13.7114 16.7974 13.7114 11.4536V6.74971H9.00044H4.2895V11.4536ZM5.62895 7.62861C5.69223 7.66377 5.69575 7.72705 5.69575 9.91377V12.1638L5.60786 12.22C5.527 12.2728 5.51294 12.2728 5.43208 12.22L5.34419 12.1638V9.93135C5.34419 7.95205 5.35122 7.69893 5.40044 7.64971C5.46372 7.58291 5.53403 7.5794 5.62895 7.62861Z" fill="black"/>
<path d="M5.09769 17.518C5.09769 17.8098 5.07659 17.8063 6.1137 17.8168C6.99613 17.8274 7.03128 17.8239 7.10159 17.7536C7.15081 17.7043 7.17191 17.6375 7.17191 17.525V17.3668H6.1348H5.09769V17.518Z" fill="black"/>
<path d="M10.8281 17.525C10.8281 17.6375 10.8492 17.7043 10.8984 17.7536C10.9687 17.8239 11.0039 17.8274 11.8863 17.8168C12.9234 17.8063 12.9023 17.8098 12.9023 17.518V17.3668H11.8652H10.8281V17.525Z" fill="black"/>
</svg>
