<svg width="165" height="50" viewBox="0 0 165 50" fill="none" xmlns="http://www.w3.org/2000/svg">
<path d="M19.1364 37.7395C18.7597 37.5388 18.5713 37.0371 18.5713 36.5353C18.5713 36.4349 18.5713 36.2342 18.5713 36.1339C18.5713 28.7075 18.5713 21.2811 18.5713 13.955C18.5713 13.5536 18.6655 13.2526 18.7597 12.8511C18.8539 12.6504 19.0423 12.4497 19.2307 12.249C23.281 16.5643 27.2372 20.8796 31.1934 25.195C27.143 29.2092 23.1869 33.4242 19.1364 37.7395Z" fill="#262B64"/>
<path d="M35.1494 20.7789C34.019 21.9832 32.7945 23.1874 31.6642 24.492C27.8964 20.3774 24.0344 16.2628 20.2666 12.1482C20.2666 12.1482 20.2666 12.0479 20.3608 12.0479C25.2589 14.9582 30.1571 17.8685 35.1494 20.7789Z" fill="#262B64"/>
<path d="M20.2666 37.739C24.0344 33.7248 27.8964 29.7106 31.6642 25.6963C32.7003 26.8002 33.8307 27.9041 35.0552 29.1084C30.1571 32.0188 25.2589 34.9291 20.3608 37.739H20.2666Z" fill="#262B64"/>
<path d="M35.7151 28.7074C34.4906 27.5031 33.3603 26.2988 32.1357 25.0946C33.3603 23.79 34.5848 22.4853 35.8093 21.1807C36.1861 21.3814 36.5629 21.5821 36.9397 21.8831C37.8816 22.4853 38.9178 22.9871 39.8597 23.5892C40.1423 23.6895 40.3307 23.8903 40.5191 24.1913C40.8958 24.6931 40.8958 25.1949 40.5191 25.6967C40.3307 25.8974 40.1423 26.0981 39.8597 26.1985C38.541 27.1017 37.1281 27.9046 35.7151 28.7074Z" fill="#262B64"/>
<path d="M54.836 9.26C54.38 9.26 53.968 9.34 53.6 9.5C53.232 9.652 52.92 9.88 52.664 10.184C52.408 10.48 52.212 10.844 52.076 11.276C51.94 11.7 51.872 12.18 51.872 12.716C51.872 13.42 51.98 14.032 52.196 14.552C52.42 15.072 52.748 15.472 53.18 15.752C53.62 16.032 54.168 16.172 54.824 16.172C55.2 16.172 55.556 16.14 55.892 16.076C56.228 16.012 56.556 15.932 56.876 15.836V16.772C56.556 16.892 56.224 16.98 55.88 17.036C55.544 17.092 55.14 17.12 54.668 17.12C53.796 17.12 53.068 16.94 52.484 16.58C51.9 16.22 51.46 15.708 51.164 15.044C50.876 14.38 50.732 13.6 50.732 12.704C50.732 12.056 50.82 11.464 50.996 10.928C51.18 10.392 51.444 9.928 51.788 9.536C52.14 9.144 52.572 8.844 53.084 8.636C53.596 8.42 54.184 8.312 54.848 8.312C55.288 8.312 55.712 8.356 56.12 8.444C56.528 8.532 56.892 8.656 57.212 8.816L56.78 9.728C56.516 9.608 56.22 9.5 55.892 9.404C55.572 9.308 55.22 9.26 54.836 9.26ZM64.998 17H63.702L59.826 12.656V17H58.746V8.432H59.826V12.584L63.606 8.432H64.83L61.11 12.596L64.998 17ZM71.54 17L70.508 14.348H67.112L66.092 17H65L68.348 8.396H69.32L72.656 17H71.54ZM69.224 10.796C69.2 10.732 69.16 10.616 69.104 10.448C69.048 10.28 68.992 10.108 68.936 9.932C68.888 9.748 68.848 9.608 68.816 9.512C68.776 9.672 68.732 9.836 68.684 10.004C68.644 10.164 68.6 10.312 68.552 10.448C68.512 10.584 68.476 10.7 68.444 10.796L67.472 13.388H70.184L69.224 10.796ZM79.2784 17H78.1984V13.484C77.7344 13.644 77.2984 13.776 76.8904 13.88C76.4904 13.976 76.0424 14.024 75.5464 14.024C74.7464 14.024 74.1264 13.84 73.6864 13.472C73.2464 13.096 73.0264 12.556 73.0264 11.852V8.432H74.1064V11.696C74.1064 12.16 74.2264 12.508 74.4664 12.74C74.7144 12.964 75.1104 13.076 75.6544 13.076C76.1264 13.076 76.5504 13.032 76.9264 12.944C77.3024 12.856 77.7264 12.736 78.1984 12.584V8.432H79.2784V17ZM86.9853 17L85.9533 14.348H82.5573L81.5373 17H80.4453L83.7933 8.396H84.7653L88.1013 17H86.9853ZM84.6693 10.796C84.6453 10.732 84.6053 10.616 84.5493 10.448C84.4933 10.28 84.4373 10.108 84.3813 9.932C84.3333 9.748 84.2933 9.608 84.2613 9.512C84.2213 9.672 84.1773 9.836 84.1293 10.004C84.0893 10.164 84.0453 10.312 83.9973 10.448C83.9573 10.584 83.9213 10.7 83.8893 10.796L82.9173 13.388H85.6293L84.6693 10.796ZM91.1416 17H90.0616V9.38H87.3856V8.432H93.8056V9.38H91.1416V17ZM95.0976 17V8.432H96.1776V12.056H97.7856C98.5856 12.056 99.2216 12.164 99.6936 12.38C100.166 12.596 100.506 12.888 100.714 13.256C100.922 13.624 101.026 14.036 101.026 14.492C101.026 14.996 100.91 15.436 100.678 15.812C100.454 16.188 100.114 16.48 99.6576 16.688C99.2016 16.896 98.6216 17 97.9176 17H95.0976ZM97.8096 16.076C98.5056 16.076 99.0296 15.948 99.3816 15.692C99.7336 15.428 99.9096 15.028 99.9096 14.492C99.9096 14.124 99.8216 13.832 99.6456 13.616C99.4776 13.392 99.2256 13.232 98.8896 13.136C98.5616 13.04 98.1496 12.992 97.6536 12.992H96.1776V16.076H97.8096ZM106.114 8.432H107.122V13.136C107.122 13.336 107.118 13.556 107.11 13.796C107.11 14.028 107.106 14.26 107.098 14.492C107.09 14.724 107.078 14.932 107.062 15.116C107.054 15.292 107.046 15.428 107.038 15.524H107.086L111.802 8.432H113.002V17H111.993V12.344C111.993 12.128 111.998 11.896 112.006 11.648C112.014 11.392 112.022 11.148 112.03 10.916C112.046 10.676 112.058 10.464 112.066 10.28C112.074 10.096 112.082 9.96 112.09 9.872H112.042L107.314 17H106.114V8.432ZM120.376 10.436C120.376 11.02 120.192 11.484 119.824 11.828C119.456 12.164 118.964 12.38 118.348 12.476V12.524C119.068 12.62 119.616 12.844 119.992 13.196C120.368 13.548 120.556 14.008 120.556 14.576C120.556 15.08 120.428 15.524 120.172 15.908C119.916 16.284 119.532 16.58 119.02 16.796C118.508 17.012 117.868 17.12 117.1 17.12C116.636 17.12 116.192 17.084 115.768 17.012C115.352 16.948 114.964 16.828 114.604 16.652V15.668C114.852 15.788 115.116 15.892 115.396 15.98C115.684 16.06 115.972 16.124 116.26 16.172C116.548 16.212 116.824 16.232 117.088 16.232C117.856 16.232 118.436 16.088 118.828 15.8C119.228 15.512 119.428 15.104 119.428 14.576C119.428 14.032 119.196 13.636 118.732 13.388C118.268 13.14 117.62 13.016 116.788 13.016H115.564V12.116H116.728C117.296 12.116 117.764 12.052 118.132 11.924C118.508 11.796 118.788 11.616 118.972 11.384C119.164 11.144 119.26 10.864 119.26 10.544C119.26 10.112 119.1 9.78 118.78 9.548C118.46 9.316 118.044 9.2 117.532 9.2C116.996 9.2 116.548 9.268 116.188 9.404C115.836 9.54 115.492 9.716 115.156 9.932L114.64 9.2C114.864 9.032 115.12 8.884 115.408 8.756C115.704 8.62 116.032 8.512 116.392 8.432C116.752 8.352 117.136 8.312 117.544 8.312C118.16 8.312 118.676 8.404 119.092 8.588C119.516 8.772 119.836 9.024 120.052 9.344C120.268 9.656 120.376 10.02 120.376 10.436Z" fill="#262B64"/>
<path d="M57.344 39.18C56.42 39.18 55.562 39.018 54.77 38.694C53.978 38.37 53.288 37.92 52.7 37.344C52.124 36.756 51.674 36.066 51.35 35.274C51.026 34.482 50.864 33.624 50.864 32.7C50.864 31.776 51.026 30.918 51.35 30.126C51.674 29.334 52.124 28.65 52.7 28.074C53.288 27.486 53.978 27.03 54.77 26.706C55.562 26.382 56.42 26.22 57.344 26.22C57.98 26.22 58.592 26.298 59.18 26.454C59.78 26.598 60.314 26.82 60.782 27.12C60.866 27.18 60.926 27.252 60.962 27.336C61.01 27.408 61.034 27.486 61.034 27.57C61.034 27.738 60.98 27.876 60.872 27.984C60.764 28.08 60.65 28.128 60.53 28.128C60.47 28.128 60.41 28.122 60.35 28.11C60.302 28.086 60.254 28.062 60.206 28.038C59.798 27.81 59.354 27.63 58.874 27.498C58.394 27.366 57.884 27.3 57.344 27.3C56.312 27.3 55.394 27.534 54.59 28.002C53.786 28.47 53.156 29.112 52.7 29.928C52.244 30.744 52.016 31.668 52.016 32.7C52.016 33.732 52.244 34.656 52.7 35.472C53.156 36.288 53.786 36.93 54.59 37.398C55.394 37.866 56.312 38.1 57.344 38.1C57.884 38.1 58.424 38.022 58.964 37.866C59.516 37.71 59.99 37.5 60.386 37.236L60.296 37.614V33.474L60.566 33.726H57.452C57.296 33.726 57.164 33.672 57.056 33.564C56.948 33.456 56.894 33.33 56.894 33.186C56.894 33.018 56.948 32.886 57.056 32.79C57.164 32.694 57.296 32.646 57.452 32.646H60.89C61.046 32.646 61.172 32.7 61.268 32.808C61.376 32.904 61.43 33.03 61.43 33.186V37.524C61.43 37.62 61.406 37.71 61.358 37.794C61.31 37.878 61.244 37.95 61.16 38.01C60.632 38.37 60.038 38.658 59.378 38.874C58.73 39.078 58.052 39.18 57.344 39.18ZM72.5056 34.392C72.5056 35.304 72.3076 36.126 71.9116 36.858C71.5156 37.578 70.9756 38.148 70.2916 38.568C69.6076 38.976 68.8276 39.18 67.9516 39.18C67.0996 39.18 66.3256 38.976 65.6296 38.568C64.9456 38.148 64.3996 37.578 63.9916 36.858C63.5956 36.126 63.3976 35.304 63.3976 34.392C63.3976 33.468 63.5956 32.646 63.9916 31.926C64.3996 31.206 64.9456 30.636 65.6296 30.216C66.3256 29.796 67.0996 29.586 67.9516 29.586C68.8276 29.586 69.6076 29.796 70.2916 30.216C70.9756 30.636 71.5156 31.206 71.9116 31.926C72.3076 32.646 72.5056 33.468 72.5056 34.392ZM71.4256 34.392C71.4256 33.66 71.2756 33.012 70.9756 32.448C70.6756 31.872 70.2616 31.422 69.7336 31.098C69.2176 30.762 68.6236 30.594 67.9516 30.594C67.3036 30.594 66.7156 30.762 66.1876 31.098C65.6596 31.422 65.2396 31.872 64.9276 32.448C64.6276 33.012 64.4776 33.66 64.4776 34.392C64.4776 35.124 64.6276 35.772 64.9276 36.336C65.2396 36.9 65.6596 37.35 66.1876 37.686C66.7156 38.01 67.3036 38.172 67.9516 38.172C68.6236 38.172 69.2176 38.01 69.7336 37.686C70.2616 37.35 70.6756 36.9 70.9756 36.336C71.2756 35.772 71.4256 35.124 71.4256 34.392ZM83.3689 34.392C83.3689 35.304 83.1709 36.126 82.7749 36.858C82.3789 37.578 81.8389 38.148 81.1549 38.568C80.4709 38.976 79.6909 39.18 78.8149 39.18C77.9629 39.18 77.1889 38.976 76.4929 38.568C75.8089 38.148 75.2629 37.578 74.8549 36.858C74.4589 36.126 74.2609 35.304 74.2609 34.392C74.2609 33.468 74.4589 32.646 74.8549 31.926C75.2629 31.206 75.8089 30.636 76.4929 30.216C77.1889 29.796 77.9629 29.586 78.8149 29.586C79.6909 29.586 80.4709 29.796 81.1549 30.216C81.8389 30.636 82.3789 31.206 82.7749 31.926C83.1709 32.646 83.3689 33.468 83.3689 34.392ZM82.2889 34.392C82.2889 33.66 82.1389 33.012 81.8389 32.448C81.5389 31.872 81.1249 31.422 80.5969 31.098C80.0809 30.762 79.4869 30.594 78.8149 30.594C78.1669 30.594 77.5789 30.762 77.0509 31.098C76.5229 31.422 76.1029 31.872 75.7909 32.448C75.4909 33.012 75.3409 33.66 75.3409 34.392C75.3409 35.124 75.4909 35.772 75.7909 36.336C76.1029 36.9 76.5229 37.35 77.0509 37.686C77.5789 38.01 78.1669 38.172 78.8149 38.172C79.4869 38.172 80.0809 38.01 80.5969 37.686C81.1249 37.35 81.5389 36.9 81.8389 36.336C82.1389 35.772 82.2889 35.124 82.2889 34.392ZM89.4982 29.586C90.0382 29.586 90.5362 29.682 90.9922 29.874C91.4482 30.054 91.8442 30.294 92.1802 30.594C92.5282 30.882 92.7982 31.194 92.9902 31.53C93.1822 31.854 93.2782 32.166 93.2782 32.466L92.9722 32.034V30.36C92.9722 30.204 93.0202 30.072 93.1162 29.964C93.2242 29.856 93.3562 29.802 93.5122 29.802C93.6802 29.802 93.8122 29.856 93.9082 29.964C94.0042 30.072 94.0522 30.204 94.0522 30.36V38.154C94.0522 39.114 93.8542 39.924 93.4582 40.584C93.0622 41.244 92.5222 41.742 91.8382 42.078C91.1662 42.426 90.3982 42.6 89.5342 42.6C89.1142 42.6 88.6702 42.546 88.2022 42.438C87.7462 42.33 87.3502 42.192 87.0142 42.024C86.6902 41.856 86.5102 41.682 86.4742 41.502C86.3782 41.394 86.3302 41.286 86.3302 41.178C86.3422 41.082 86.3962 40.998 86.4922 40.926C86.6122 40.842 86.7382 40.83 86.8702 40.89C87.0022 40.962 87.2002 41.052 87.4642 41.16C87.5842 41.196 87.7462 41.25 87.9502 41.322C88.1542 41.394 88.3942 41.454 88.6702 41.502C88.9582 41.562 89.2582 41.592 89.5702 41.592C90.6502 41.592 91.4842 41.28 92.0722 40.656C92.6722 40.044 92.9722 39.234 92.9722 38.226V36.498L93.1702 36.552C93.0622 36.984 92.8822 37.362 92.6302 37.686C92.3902 38.01 92.1022 38.286 91.7662 38.514C91.4302 38.73 91.0642 38.892 90.6682 39C90.2842 39.12 89.9002 39.18 89.5162 39.18C88.6882 39.18 87.9442 38.97 87.2842 38.55C86.6242 38.13 86.0962 37.56 85.7002 36.84C85.3162 36.12 85.1242 35.298 85.1242 34.374C85.1242 33.462 85.3162 32.646 85.7002 31.926C86.0962 31.194 86.6182 30.624 87.2662 30.216C87.9262 29.796 88.6702 29.586 89.4982 29.586ZM89.6242 30.594C88.9642 30.594 88.3702 30.762 87.8422 31.098C87.3262 31.422 86.9182 31.872 86.6182 32.448C86.3302 33.012 86.1862 33.654 86.1862 34.374C86.1862 35.094 86.3302 35.742 86.6182 36.318C86.9182 36.894 87.3262 37.35 87.8422 37.686C88.3702 38.01 88.9642 38.172 89.6242 38.172C90.2842 38.172 90.8722 38.01 91.3882 37.686C91.9042 37.362 92.3122 36.918 92.6122 36.354C92.9122 35.778 93.0622 35.118 93.0622 34.374C93.0622 33.63 92.9122 32.976 92.6122 32.412C92.3122 31.836 91.9042 31.392 91.3882 31.08C90.8722 30.756 90.2842 30.594 89.6242 30.594ZM98.0846 38.46C98.0846 38.604 98.0306 38.73 97.9226 38.838C97.8146 38.946 97.6886 39 97.5446 39C97.3886 39 97.2566 38.946 97.1486 38.838C97.0526 38.73 97.0046 38.604 97.0046 38.46V26.22C97.0046 26.076 97.0586 25.95 97.1666 25.842C97.2746 25.734 97.4006 25.68 97.5446 25.68C97.7006 25.68 97.8266 25.734 97.9226 25.842C98.0306 25.95 98.0846 26.076 98.0846 26.22V38.46ZM105.027 39.18C104.103 39.18 103.287 38.982 102.579 38.586C101.871 38.19 101.319 37.638 100.923 36.93C100.527 36.222 100.329 35.394 100.329 34.446C100.329 33.426 100.527 32.556 100.923 31.836C101.331 31.116 101.853 30.564 102.489 30.18C103.137 29.784 103.821 29.586 104.541 29.586C105.069 29.586 105.579 29.682 106.071 29.874C106.575 30.054 107.019 30.33 107.403 30.702C107.799 31.062 108.111 31.506 108.339 32.034C108.579 32.562 108.711 33.174 108.735 33.87C108.723 34.014 108.663 34.14 108.555 34.248C108.447 34.344 108.321 34.392 108.177 34.392H100.959L100.743 33.42H107.835L107.601 33.636V33.276C107.553 32.712 107.373 32.232 107.061 31.836C106.749 31.44 106.371 31.14 105.927 30.936C105.483 30.732 105.021 30.63 104.541 30.63C104.181 30.63 103.809 30.702 103.425 30.846C103.053 30.99 102.711 31.218 102.399 31.53C102.099 31.83 101.853 32.22 101.661 32.7C101.469 33.168 101.373 33.726 101.373 34.374C101.373 35.082 101.517 35.724 101.805 36.3C102.093 36.876 102.507 37.332 103.047 37.668C103.599 38.004 104.253 38.172 105.009 38.172C105.429 38.172 105.807 38.112 106.143 37.992C106.479 37.872 106.773 37.716 107.025 37.524C107.277 37.32 107.487 37.11 107.655 36.894C107.787 36.786 107.919 36.732 108.051 36.732C108.171 36.732 108.273 36.78 108.357 36.876C108.453 36.972 108.501 37.08 108.501 37.2C108.501 37.344 108.441 37.47 108.321 37.578C107.961 38.01 107.493 38.388 106.917 38.712C106.341 39.024 105.711 39.18 105.027 39.18ZM121.045 26.4C121.717 26.4 122.311 26.556 122.827 26.868C123.343 27.168 123.751 27.588 124.051 28.128C124.351 28.668 124.501 29.286 124.501 29.982C124.501 30.678 124.351 31.308 124.051 31.872C123.751 32.424 123.343 32.862 122.827 33.186C122.311 33.51 121.717 33.672 121.045 33.672H117.229L117.319 33.492V38.46C117.319 38.604 117.265 38.73 117.157 38.838C117.049 38.946 116.923 39 116.779 39C116.611 39 116.479 38.946 116.383 38.838C116.287 38.73 116.239 38.604 116.239 38.46V26.94C116.239 26.796 116.293 26.67 116.401 26.562C116.509 26.454 116.635 26.4 116.779 26.4H121.045ZM121.045 32.628C121.513 32.628 121.921 32.514 122.269 32.286C122.617 32.046 122.887 31.728 123.079 31.332C123.283 30.924 123.385 30.474 123.385 29.982C123.385 29.49 123.283 29.058 123.079 28.686C122.887 28.302 122.617 28.002 122.269 27.786C121.921 27.57 121.513 27.462 121.045 27.462H117.229L117.319 27.3V32.736L117.211 32.628H121.045ZM127.88 38.46C127.88 38.604 127.826 38.73 127.718 38.838C127.61 38.946 127.484 39 127.34 39C127.184 39 127.052 38.946 126.944 38.838C126.848 38.73 126.8 38.604 126.8 38.46V26.22C126.8 26.076 126.854 25.95 126.962 25.842C127.07 25.734 127.196 25.68 127.34 25.68C127.496 25.68 127.622 25.734 127.718 25.842C127.826 25.95 127.88 26.076 127.88 26.22V38.46ZM138.382 29.802C138.538 29.802 138.664 29.856 138.76 29.964C138.868 30.072 138.922 30.204 138.922 30.36V38.46C138.922 38.604 138.868 38.73 138.76 38.838C138.652 38.946 138.526 39 138.382 39C138.226 39 138.094 38.946 137.986 38.838C137.89 38.73 137.842 38.604 137.842 38.46V36.318L138.148 36.174C138.148 36.51 138.052 36.852 137.86 37.2C137.68 37.548 137.428 37.872 137.104 38.172C136.78 38.472 136.396 38.718 135.952 38.91C135.52 39.09 135.052 39.18 134.548 39.18C133.732 39.18 133 38.97 132.352 38.55C131.716 38.13 131.212 37.554 130.84 36.822C130.48 36.09 130.3 35.268 130.3 34.356C130.3 33.42 130.486 32.598 130.858 31.89C131.23 31.17 131.734 30.606 132.37 30.198C133.006 29.79 133.726 29.586 134.53 29.586C135.046 29.586 135.526 29.676 135.97 29.856C136.426 30.036 136.822 30.282 137.158 30.594C137.494 30.906 137.752 31.266 137.932 31.674C138.124 32.07 138.22 32.484 138.22 32.916L137.842 32.646V30.36C137.842 30.204 137.89 30.072 137.986 29.964C138.094 29.856 138.226 29.802 138.382 29.802ZM134.638 38.172C135.274 38.172 135.838 38.01 136.33 37.686C136.822 37.35 137.206 36.894 137.482 36.318C137.77 35.73 137.914 35.076 137.914 34.356C137.914 33.648 137.77 33.012 137.482 32.448C137.206 31.884 136.822 31.434 136.33 31.098C135.838 30.762 135.274 30.594 134.638 30.594C134.014 30.594 133.45 30.756 132.946 31.08C132.454 31.404 132.064 31.848 131.776 32.412C131.5 32.976 131.362 33.624 131.362 34.356C131.362 35.076 131.5 35.73 131.776 36.318C132.064 36.894 132.454 37.35 132.946 37.686C133.438 38.01 134.002 38.172 134.638 38.172ZM148.614 29.64C148.77 29.64 148.896 29.694 148.992 29.802C149.1 29.91 149.154 30.036 149.154 30.18V38.118C149.154 39.09 148.962 39.906 148.578 40.566C148.194 41.238 147.678 41.742 147.03 42.078C146.382 42.426 145.644 42.6 144.816 42.6C144.3 42.6 143.82 42.54 143.376 42.42C142.944 42.312 142.59 42.168 142.314 41.988C142.17 41.904 142.062 41.802 141.99 41.682C141.918 41.562 141.912 41.436 141.972 41.304C142.032 41.136 142.122 41.022 142.242 40.962C142.374 40.914 142.506 40.92 142.638 40.98C142.842 41.088 143.136 41.22 143.52 41.376C143.904 41.532 144.342 41.61 144.834 41.61C145.494 41.61 146.064 41.472 146.544 41.196C147.036 40.92 147.414 40.518 147.678 39.99C147.942 39.474 148.074 38.856 148.074 38.136V36.84L148.2 37.272C148.02 37.644 147.762 37.974 147.426 38.262C147.102 38.55 146.724 38.778 146.292 38.946C145.872 39.102 145.422 39.18 144.942 39.18C144.222 39.18 143.622 39.036 143.142 38.748C142.674 38.448 142.326 38.04 142.098 37.524C141.87 37.008 141.756 36.402 141.756 35.706V30.18C141.756 30.036 141.804 29.91 141.9 29.802C141.996 29.694 142.128 29.64 142.296 29.64C142.452 29.64 142.578 29.694 142.674 29.802C142.782 29.91 142.836 30.036 142.836 30.18V35.544C142.836 36.384 143.016 37.032 143.376 37.488C143.748 37.944 144.348 38.172 145.176 38.172C145.692 38.172 146.166 38.052 146.598 37.812C147.03 37.56 147.384 37.236 147.66 36.84C147.936 36.432 148.074 36 148.074 35.544V30.18C148.074 30.036 148.122 29.91 148.218 29.802C148.326 29.694 148.458 29.64 148.614 29.64Z" fill="#262B64"/>
<rect x="0.5" y="0.5" width="164" height="49" rx="5.5" stroke="#262B64"/>
</svg>
