<svg width="50" height="50" viewBox="0 0 50 50" fill="none" xmlns="http://www.w3.org/2000/svg">
<circle cx="25" cy="25" r="24" stroke="black" stroke-width="2"/>
<g clip-path="url(#clip0_6492_29619)">
<path d="M34.8459 24.1H25.4263V26.83H32.1135C31.7745 30.64 28.5182 32.27 25.4366 32.27C21.5023 32.27 18.0508 29.25 18.0508 25C18.0508 20.9 21.338 17.73 25.4468 17.73C28.621 17.73 30.4802 19.7 30.4802 19.7L32.4319 17.72C32.4319 17.72 29.9255 15 25.3441 15C19.5095 15 15 19.8 15 25C15 30.05 19.2424 35 25.4982 35C30.9938 35 35 31.33 35 25.91C35 24.76 34.8459 24.1 34.8459 24.1Z" fill="black"/>
</g>
<defs>
<clipPath id="clip0_6492_29619">
<rect width="20" height="20" fill="white" transform="translate(15 15)"/>
</clipPath>
</defs>
</svg>
