<svg width="78" height="79" viewBox="0 0 78 79" fill="none" xmlns="http://www.w3.org/2000/svg">
<path d="M77 39.5C77 60.775 59.9748 78 39 78C18.0252 78 1 60.775 1 39.5C1 18.225 18.0252 1 39 1C59.9748 1 77 18.225 77 39.5Z" stroke="black" stroke-width="2"/>
<path d="M50.9935 37.83H39.1306V41.379H47.5523C47.1254 46.332 43.0245 48.451 39.1436 48.451C34.1888 48.451 29.8422 44.525 29.8422 39C29.8422 33.67 33.9819 29.549 39.1565 29.549C43.1539 29.549 45.4954 32.11 45.4954 32.11L47.9534 29.536C47.9534 29.536 44.7968 26 39.0271 26C31.6792 26 26 32.24 26 39C26 45.565 31.3428 52 39.2212 52C46.1422 52 51.1875 47.229 51.1875 40.183C51.1875 38.688 50.9935 37.83 50.9935 37.83Z" fill="black"/>
</svg>
