<svg width="32" height="32" viewBox="0 0 32 32" fill="none" xmlns="http://www.w3.org/2000/svg">
<path d="M7.09368 6.5249C6.86243 6.6249 6.58118 6.94365 6.51243 7.1749C6.48743 7.26865 6.46868 11.2687 6.46868 16.0624C6.46868 25.8187 6.43118 24.9812 6.91868 25.3562C7.13743 25.5249 7.18118 25.5312 7.96243 25.5499C8.72493 25.5687 8.79993 25.5624 9.05618 25.4249C9.24993 25.3187 9.38118 25.1874 9.48118 24.9999L9.62493 24.7312V15.9999V7.26865L9.48118 6.9999C9.24368 6.5499 8.95618 6.4374 8.03743 6.4374C7.54993 6.44365 7.21243 6.4749 7.09368 6.5249Z" fill="black"/>
<path d="M22.9438 6.5749C22.75 6.68115 22.6188 6.8124 22.5187 6.9999L22.375 7.26865V15.9999V24.7312L22.5187 24.9999C22.6188 25.1874 22.75 25.3187 22.9438 25.4249C23.2 25.5624 23.275 25.5687 24.0375 25.5499C24.8188 25.5312 24.8625 25.5249 25.0812 25.3562C25.5688 24.9812 25.5312 25.7874 25.55 16.2811C25.5625 11.6061 25.55 7.6374 25.5312 7.45615C25.4875 7.0999 25.3188 6.80615 25.0438 6.5999C24.8875 6.4874 24.7625 6.46865 24.0438 6.4499C23.275 6.43115 23.2 6.4374 22.9438 6.5749Z" fill="black"/>
<path d="M3.46875 10.1939C3.225 10.2627 2.94375 10.5252 2.8375 10.7877C2.7625 10.9627 2.75 11.8752 2.75 16.0127C2.75 20.8814 2.75625 21.0314 2.875 21.2752C2.94375 21.4189 3.1 21.6002 3.23125 21.6877C3.45 21.8377 3.50625 21.8439 4.54375 21.8627L5.625 21.8877V16.0064V10.1252L4.64375 10.1314C4.1 10.1314 3.575 10.1627 3.46875 10.1939Z" fill="black"/>
<path d="M26.375 15.9938V21.875H27.3313C27.85 21.875 28.3813 21.8438 28.5 21.8125C28.7563 21.7437 29.0875 21.4313 29.1813 21.1687C29.2313 21.05 29.25 19.3625 29.25 15.9875C29.25 11.1187 29.2438 10.9688 29.125 10.725C29.0563 10.5813 28.9 10.4 28.7687 10.3125C28.55 10.1625 28.4938 10.1562 27.4563 10.1375L26.375 10.1187V15.9938Z" fill="black"/>
<path d="M0 16V17.8125H0.9375H1.875V16V14.1875H0.9375H0V16Z" fill="black"/>
<path d="M10.5 16V17.8125H16H21.5V16V14.1875H16H10.5V16Z" fill="black"/>
<path d="M30.125 16V17.8125H31.0625H32V16V14.1875H31.0625H30.125V16Z" fill="black"/>
</svg>
