<svg width="24" height="24" viewBox="0 0 24 24" fill="none" xmlns="http://www.w3.org/2000/svg">
<path fill-rule="evenodd" clip-rule="evenodd" d="M3.10526 4C2.81213 4 2.531 4.11287 2.32372 4.31379C2.11645 4.51471 2 4.78721 2 5.07135C2 5.35549 2.11645 5.62799 2.32372 5.82891C2.531 6.02983 2.81213 6.1427 3.10526 6.1427H21.8947C22.1879 6.1427 22.469 6.02983 22.6763 5.82891C22.8836 5.62799 23 5.35549 23 5.07135C23 4.78721 22.8836 4.51471 22.6763 4.31379C22.469 4.11287 22.1879 4 21.8947 4H3.10526ZM2 11.4995C2 11.2153 2.11645 10.9428 2.32372 10.7419C2.531 10.541 2.81213 10.4281 3.10526 10.4281H21.8947C22.1879 10.4281 22.469 10.541 22.6763 10.7419C22.8836 10.9428 23 11.2153 23 11.4995C23 11.7836 22.8836 12.0561 22.6763 12.257C22.469 12.4579 22.1879 12.5708 21.8947 12.5708H3.10526C2.81213 12.5708 2.531 12.4579 2.32372 12.257C2.11645 12.0561 2 11.7836 2 11.4995ZM2 17.9286C2 17.6445 2.11645 17.372 2.32372 17.1711C2.531 16.9702 2.81213 16.8573 3.10526 16.8573H21.8947C22.1879 16.8573 22.469 16.9702 22.6763 17.1711C22.8836 17.372 23 17.6445 23 17.9286C23 18.2128 22.8836 18.4853 22.6763 18.6862C22.469 18.8871 22.1879 19 21.8947 19H3.10526C2.81213 19 2.531 18.8871 2.32372 18.6862C2.11645 18.4853 2 18.2128 2 17.9286Z" fill="#262B64"/>
</svg>
