<svg width="24" height="24" viewBox="0 0 24 24" fill="none" xmlns="http://www.w3.org/2000/svg">
<g clip-path="url(#clip0_3179_53975)">
<path d="M11.6292 3.19114C8.87829 4.00114 7.06758 5.71114 6.23187 8.29864C5.93008 9.23239 5.90687 11.3361 6.18544 12.2361C6.84704 14.3961 8.26312 16.0724 10.2247 16.9949C12.1051 17.8836 14.3685 17.9849 16.4462 17.2536C17.3399 16.9499 18.9997 15.8361 18.9997 15.5549C18.9997 15.5099 18.6399 15.1161 18.2104 14.6999L17.4212 13.9349L16.9685 14.3174C14.9837 15.9824 11.8381 15.8474 9.93454 14.0136C9.30776 13.4174 8.91312 12.8436 8.61133 12.0561C8.29794 11.2574 8.29794 9.45739 8.59972 8.68114C9.12204 7.37614 10.0738 6.31864 11.2229 5.78989C12.8712 5.03614 14.5658 5.04739 16.0979 5.83489C16.5042 6.03739 17.189 6.52114 17.2354 6.62239C17.3283 6.81364 17.5488 6.67864 18.2569 6.01489C18.8953 5.41864 19.197 4.91239 18.9069 4.91239C18.8604 4.91239 18.6979 4.79989 18.5354 4.65364C17.9203 4.11364 16.8408 3.56239 15.6917 3.21364C14.8095 2.94364 12.5113 2.93239 11.6292 3.19114Z" fill="black"/>
<path d="M6 19.875V21H12.5H19V19.875V18.75H12.5H6V19.875Z" fill="black"/>
</g>
<defs>
<clipPath id="clip0_3179_53975">
<rect width="13" height="18" fill="white" transform="translate(6 3)"/>
</clipPath>
</defs>
</svg>
