<svg width="43" height="43" viewBox="0 0 43 43" fill="none" xmlns="http://www.w3.org/2000/svg">
<g id="Heart" clip-path="url(#clip0_958_15577)">
<path id="Vector" d="M29.5612 5.375C26.4437 5.375 23.4516 6.82625 21.4987 9.11958C19.5458 6.82625 16.5537 5.375 13.4362 5.375C7.91786 5.375 3.58203 9.71083 3.58203 15.2292C3.58203 22.0017 9.6737 27.52 18.9008 35.905L21.4987 38.2521L24.0966 35.8871C33.3237 27.52 39.4154 22.0017 39.4154 15.2292C39.4154 9.71083 35.0795 5.375 29.5612 5.375ZM21.6779 33.2354L21.4987 33.4146L21.3195 33.2354C12.7912 25.5133 7.16536 20.4071 7.16536 15.2292C7.16536 11.6458 9.85286 8.95833 13.4362 8.95833C16.1954 8.95833 18.8829 10.7321 19.8324 13.1867H23.1829C24.1145 10.7321 26.802 8.95833 29.5612 8.95833C33.1445 8.95833 35.832 11.6458 35.832 15.2292C35.832 20.4071 30.2062 25.5133 21.6779 33.2354Z" fill="black"/>
</g>
<defs>
<clipPath id="clip0_958_15577">
<rect width="43" height="43" fill="white"/>
</clipPath>
</defs>
</svg>
