<svg width="50" height="50" viewBox="0 0 50 50" fill="none" xmlns="http://www.w3.org/2000/svg">
<g clip-path="url(#clip0_4702_47933)">
<path d="M23.7601 5.25424C23.4866 5.35189 23.0863 5.5472 22.8812 5.68392C22.1878 6.14291 0.127265 24.5804 0.0686717 24.7464C-0.0582814 25.0589 0.000312328 25.6351 0.166328 25.8792C0.254219 26.016 0.771797 26.641 1.29914 27.2757C2.38312 28.555 2.51984 28.6331 3.28156 28.4671C3.39875 28.4378 8.32063 24.3949 14.2191 19.4828C20.1175 14.5706 24.971 10.5472 25.0003 10.5472C25.0296 10.5472 29.9027 14.5902 35.8304 19.5218C44.0238 26.348 46.6702 28.5062 46.9046 28.5452C47.0804 28.5648 47.3343 28.5452 47.4808 28.4964C47.7054 28.4183 49.3265 26.6117 49.8343 25.8792C50.0589 25.557 50.0491 24.8929 49.8148 24.5999C49.7073 24.473 48.1058 23.1156 46.2503 21.5824L42.8812 18.7992L42.8714 12.2757V5.74252L42.5882 5.45931L42.305 5.17611H38.9163C35.1956 5.17611 35.1761 5.17611 34.971 5.78158C34.9027 5.97689 34.8636 7.1976 34.8636 9.09213V12.1097L30.9964 8.87728C28.3304 6.65072 26.9534 5.56674 26.5726 5.39095C25.8402 5.04916 24.512 4.9808 23.7601 5.25424Z" fill="#1164B4"/>
<path d="M16.0449 20.4395L7.12891 27.7832V35.5957V43.418L7.35352 43.8477C7.48047 44.1016 7.74414 44.4043 7.98828 44.5801L8.41797 44.873L14.7559 44.9023L21.0938 44.9219V38.9648V33.0078H25H28.9062V38.9648V44.9219L35.2441 44.9023L41.582 44.873L42.0117 44.5801C42.2363 44.4141 42.5293 44.1016 42.6465 43.8965L42.8711 43.5059V35.6445V27.7832L33.9844 20.459C29.0918 16.4258 25.0586 13.125 25.0195 13.1152C24.9805 13.0957 20.9375 16.3965 16.0449 20.4395Z" fill="#1164B4"/>
</g>
<defs>
<clipPath id="clip0_4702_47933">
<rect width="50" height="50" fill="white"/>
</clipPath>
</defs>
</svg>
