<svg width="50" height="41" viewBox="0 0 50 41" fill="none" xmlns="http://www.w3.org/2000/svg">
<g id="Black">
<path id="Vector" d="M23.7601 0.754234C23.4866 0.851891 23.0863 1.0472 22.8812 1.18392C22.1878 1.64291 0.127265 20.0804 0.0686717 20.2464C-0.0582814 20.5589 0.000312328 21.1351 0.166328 21.3792C0.254219 21.516 0.771797 22.141 1.29914 22.7757C2.38312 24.055 2.51984 24.1331 3.28156 23.9671C3.39875 23.9378 8.32063 19.8949 14.2191 14.9827C20.1175 10.0706 24.971 6.0472 25.0003 6.0472C25.0296 6.0472 29.9027 10.0902 35.8304 15.0218C44.0238 21.848 46.6702 24.0062 46.9046 24.0452C47.0804 24.0648 47.3343 24.0452 47.4808 23.9964C47.7054 23.9183 49.3265 22.1117 49.8343 21.3792C50.0589 21.057 50.0491 20.3929 49.8148 20.0999C49.7073 19.973 48.1058 18.6156 46.2503 17.0824L42.8812 14.2992L42.8714 7.77572V1.24252L42.5882 0.959312L42.305 0.676109H38.9163C35.1956 0.676109 35.1761 0.676109 34.971 1.28158C34.9027 1.47689 34.8636 2.69759 34.8636 4.59212V7.6097L30.9964 4.37728C28.3304 2.15072 26.9534 1.06673 26.5726 0.890953C25.8402 0.549156 24.512 0.480797 23.7601 0.754234Z" fill="#1164B4"/>
<path id="Vector_2" d="M16.0449 15.9395L7.12891 23.2832V31.0957V38.918L7.35352 39.3477C7.48047 39.6016 7.74414 39.9043 7.98828 40.0801L8.41797 40.373L14.7559 40.4023L21.0938 40.4219V34.4648V28.5078H25H28.9062V34.4648V40.4219L35.2441 40.4023L41.582 40.373L42.0117 40.0801C42.2363 39.9141 42.5293 39.6016 42.6465 39.3965L42.8711 39.0059V31.1445V23.2832L33.9844 15.959C29.0918 11.9258 25.0586 8.625 25.0195 8.61524C24.9805 8.59571 20.9375 11.8965 16.0449 15.9395Z" fill="#1164B4"/>
</g>
</svg>
