<svg width="32" height="26" viewBox="0 0 32 26" fill="none" xmlns="http://www.w3.org/2000/svg">
<g id="Black">
<path id="Vector" d="M15.2064 0.362397C15.0314 0.424897 14.7752 0.549897 14.6439 0.637398C14.2002 0.931148 0.0814499 12.7311 0.0439499 12.8374C-0.0373001 13.0374 0.00019989 13.4061 0.10645 13.5624C0.1627 13.6499 0.49395 14.0499 0.83145 14.4561C1.5252 15.2749 1.6127 15.3249 2.1002 15.2186C2.1752 15.1999 5.3252 12.6124 9.1002 9.46865C12.8752 6.3249 15.9814 3.7499 16.0002 3.7499C16.0189 3.7499 19.1377 6.3374 22.9314 9.49365C28.1752 13.8624 29.8689 15.2436 30.0189 15.2686C30.1314 15.2811 30.2939 15.2686 30.3877 15.2374C30.5314 15.1874 31.5689 14.0311 31.8939 13.5624C32.0377 13.3561 32.0314 12.9311 31.8814 12.7436C31.8127 12.6624 30.7877 11.7936 29.6002 10.8124L27.4439 9.03115L27.4377 4.85615V0.674897L27.2564 0.493648L27.0752 0.312398H24.9064C22.5252 0.312398 22.5127 0.312398 22.3814 0.699898C22.3377 0.824898 22.3127 1.60615 22.3127 2.81865V4.7499L19.8377 2.68115C18.1314 1.25615 17.2502 0.562398 17.0064 0.449898C16.5377 0.231148 15.6877 0.187398 15.2064 0.362397Z" fill="#1164B4"/>
<path id="Vector_2" d="M10.2688 10.0813L4.5625 14.7813V19.7813V24.7875L4.70625 25.0625C4.7875 25.225 4.95625 25.4188 5.1125 25.5313L5.3875 25.7188L9.44375 25.7375L13.5 25.75V21.9375V18.125H16H18.5V21.9375V25.75L22.5562 25.7375L26.6125 25.7188L26.8875 25.5313C27.0312 25.425 27.2188 25.225 27.2938 25.0938L27.4375 24.8438V19.8125V14.7813L21.75 10.0938C18.6188 7.5125 16.0375 5.4 16.0125 5.39375C15.9875 5.38125 13.4 7.49375 10.2688 10.0813Z" fill="#1164B4"/>
</g>
</svg>
