<svg width="52" height="60" viewBox="0 0 52 60" fill="none" xmlns="http://www.w3.org/2000/svg">
<path d="M2.91406 2.46094V4.92188H1.50781H0.101562V32.4609V60H26H51.8984V58.1836V56.3672H48.9688H46.0391V54.5742V52.793L46.4492 52.5703C46.6836 52.4414 47.0703 52.1133 47.3281 51.8438C49.2617 49.7344 48.6289 46.418 46.0391 45.1406C45.4766 44.8594 45.2539 44.8242 44.2812 44.8242C43.3203 44.8242 43.0742 44.8711 42.5117 45.1289C41.6094 45.5508 40.9883 46.1484 40.5312 47.0156C39.5586 48.8203 40.1211 51.2109 41.7734 52.3594L42.3945 52.793L42.4062 54.5742V56.3555L41.7031 56.1094C40.0977 55.5703 38.375 54.0703 37.5547 52.5C35.3867 48.375 37.3203 43.4414 41.7383 41.8125C42.8164 41.4141 44.6328 41.25 45.5469 41.4609L46.0391 41.5781V26.7656V11.9531H39.7109H33.3828V34.1602V56.3672H31.6836H29.9844V30.6445V4.92188H28.5195H27.0547V2.46094V0H14.9844H2.91406V2.46094ZM12.2891 14.5312V16.9922H10.5898H8.89062V14.5312V12.0703H10.5898H12.2891V14.5312ZM21.0781 14.5312V16.9922H19.3789H17.6797V14.5312V12.0703H19.3789H21.0781V14.5312ZM12.2891 24.4922V26.9531H10.5898H8.89062V24.4922V22.0312H10.5898H12.2891V24.4922ZM21.0781 24.4922V26.9531H19.3789H17.6797V24.4922V22.0312H19.3789H21.0781V24.4922ZM41.4688 24.4922V26.9531H39.7109H37.9531V24.4922V22.0312H39.7109H41.4688V24.4922ZM12.2891 34.5117V36.9141H10.5898H8.89062V34.5117V32.1094H10.5898H12.2891V34.5117ZM21.0781 34.5117V36.9141H19.3789H17.6797V34.5117V32.1094H19.3789H21.0781V34.5117ZM41.4688 34.5117V36.9141H39.7109H37.9531V34.5117V32.1094H39.7109H41.4688V34.5117ZM12.2891 44.5312V46.9922H10.5898H8.89062V44.5312V42.0703H10.5898H12.2891V44.5312ZM21.0781 44.5312V46.9922H19.3789H17.6797V44.5312V42.0703H19.3789H21.0781V44.5312Z" fill="#1164B4"/>
</svg>
