<svg width="50" height="49" viewBox="0 0 50 49" fill="none" xmlns="http://www.w3.org/2000/svg">
<g id="Black">
<path id="Vector" d="M9.94154 0.857806C7.99818 1.48281 6.86537 3.30898 7.14857 5.38906C7.44154 7.60585 9.64858 9.18789 11.8849 8.78749C13.0275 8.58242 13.0079 8.60195 14.1408 6.08242C14.6876 4.85195 15.1369 3.77773 15.1369 3.6996C15.1369 3.36757 14.5216 2.29335 14.0822 1.8539C13.0177 0.789447 11.3869 0.398822 9.94154 0.857806Z" fill="#1164B4"/>
<path id="Vector_2" d="M29.1016 1.7168C24.4043 2.07812 21.5723 2.25391 19.1895 2.3418C17.5781 2.39062 16.2598 2.44922 16.25 2.45898C16.25 2.46875 15.5078 4.12891 14.6191 6.15039L12.9883 9.82227V11.1602V12.4883H27.4805H41.9824L41.6602 11.5312C39.668 5.64258 37.6855 2.92773 34.7168 2.04883C34.3457 1.94141 33.6621 1.80469 33.2031 1.74609C32.4414 1.6582 30.127 1.63867 29.1016 1.7168Z" fill="#1164B4"/>
<path id="Vector_3" d="M1.85547 1.83398C1.11328 2.07812 0.527344 2.5957 0.205078 3.30859C0.00976562 3.74805 0 3.83594 0 26.0332V48.3281H2.68555H5.37109V45.4961V42.6641H25H44.6289V45.4961V48.3281H47.3145H50V26.0332C50 3.83594 49.9902 3.74805 49.7949 3.30859C49.5508 2.77148 49.1016 2.2832 48.584 2.00977C48.2715 1.84375 48.0273 1.79492 47.3633 1.79492C46.3867 1.79492 45.957 1.98047 45.3711 2.625C44.6973 3.37695 44.6777 3.43555 44.6484 6.50195L44.6191 9.26562H43.1543C42.3535 9.26562 41.6992 9.27539 41.6992 9.29492C41.6992 9.31445 42.0117 10.1934 42.3828 11.2578C42.7637 12.3125 43.0664 13.2012 43.0664 13.2305C43.0664 13.25 36.123 13.2695 27.6367 13.2695H12.207V11.4238V9.57812L11.4941 9.62695C10.957 9.66602 10.5859 9.62695 9.96094 9.4707C9.26758 9.29492 8.85742 9.26562 7.26562 9.26562H5.38086L5.35156 6.50195C5.32227 3.43555 5.30273 3.37695 4.62891 2.625C4.11133 2.04883 3.60352 1.81445 2.7832 1.78516C2.41211 1.76562 1.99219 1.78516 1.85547 1.83398ZM44.6289 25.916V34.7539H43.1641C42.2949 34.7539 41.6992 34.793 41.6992 34.8516C41.6992 34.9004 41.7871 35.1738 41.9043 35.457C42.0996 35.9648 43.0664 38.748 43.0664 38.8164C43.0664 38.8359 36.123 38.8555 27.6367 38.8555H12.207V37.0195V35.1836H11.2598C10.5273 35.1836 10.1562 35.125 9.69727 34.9688C9.15039 34.7734 8.88672 34.7539 7.22656 34.7539H5.37109V25.916V17.0781H25H44.6289V25.916Z" fill="#1164B4"/>
<path id="Vector_4" d="M9.79366 26.4435C8.37764 26.9611 7.31319 28.2599 7.14717 29.7052C6.98116 31.1114 7.36202 32.2638 8.28975 33.2013C9.24678 34.1486 10.5261 34.5587 11.8444 34.3536C13.0261 34.1681 12.9968 34.2072 14.1296 31.6779C14.6765 30.4376 15.1355 29.3536 15.1355 29.256C15.1355 28.9728 14.6862 28.0939 14.2956 27.6447C13.8366 27.1075 13.2116 26.6779 12.528 26.4435C11.7956 26.1993 10.4968 26.1896 9.79366 26.4435Z" fill="#1164B4"/>
<path id="Vector_5" d="M28.7598 27.293C28.1641 27.4004 20.9766 27.8496 18.8184 27.8984L16.2891 27.9668L14.6387 31.668L12.9883 35.3789V36.7266V38.0742H27.5H42.002L41.9336 37.8496C41.9043 37.7324 41.582 36.8633 41.2402 35.9258C39.2578 30.584 37.4219 28.3184 34.4238 27.5078C33.7402 27.332 33.3398 27.3027 31.2988 27.2734C30.0098 27.2637 28.8672 27.2637 28.7598 27.293Z" fill="#1164B4"/>
</g>
</svg>
