<svg width="32" height="32" viewBox="0 0 32 32" fill="none" xmlns="http://www.w3.org/2000/svg">
<g id="Black">
<path id="Vector" d="M8.92506 0.756174C8.86256 0.787424 8.66881 1.06867 8.49381 1.36867L8.16881 1.91867L7.63131 1.94992C7.02506 1.98742 6.85631 2.06242 6.71881 2.34992C6.56881 2.66867 6.60631 2.80617 7.00631 3.49992L7.38756 4.15617L7.34381 4.81867C7.31256 5.36867 7.31881 5.52492 7.40006 5.68117C7.60006 6.05617 7.92506 6.08742 8.77506 5.81867L9.33756 5.64367L9.88756 5.82492C10.5813 6.04992 10.8688 6.04992 11.1126 5.84367C11.3563 5.63742 11.3938 5.45617 11.3126 4.78117L11.2501 4.21867L11.6251 3.57492C11.9251 3.05617 12.0001 2.86867 12.0001 2.65617C12.0001 2.15617 11.6688 1.93742 10.8938 1.93742H10.5126L10.2188 1.43742C9.85631 0.812424 9.70006 0.687424 9.31881 0.687424C9.16256 0.687424 8.98131 0.718674 8.92506 0.756174Z" fill="#1164B4"/>
<path id="Vector_2" d="M15.5686 0.793721C15.4936 0.856221 15.2999 1.13122 15.1374 1.40622L14.8374 1.90622L14.2999 1.94997C13.6874 1.99372 13.5374 2.05622 13.4061 2.31247C13.2374 2.63747 13.2874 2.84997 13.6874 3.53122L14.0561 4.16872L14.0186 4.89372L13.9811 5.61872L14.1749 5.80622C14.4249 6.06247 14.7311 6.06247 15.4561 5.81872L15.9999 5.63122L16.5436 5.81872C17.2686 6.06247 17.5749 6.06247 17.8249 5.80622L18.0186 5.61872L17.9811 4.89372L17.9436 4.16872L18.3124 3.53122C18.7124 2.84997 18.7624 2.63747 18.5936 2.31247C18.4624 2.05622 18.3124 1.99372 17.6999 1.94997L17.1624 1.90622L16.8624 1.40622C16.4874 0.774971 16.3811 0.687471 15.9999 0.687471C15.8061 0.687471 15.6561 0.724971 15.5686 0.793721Z" fill="#1164B4"/>
<path id="Vector_3" d="M22.2313 0.812109C22.1437 0.880859 21.9438 1.16211 21.7875 1.43711L21.4937 1.93711H21.1375C20.3375 1.94336 20 2.15586 20 2.65586C20 2.87461 20.075 3.04961 20.375 3.57461L20.75 4.21836L20.6813 4.78086C20.6125 5.43086 20.6375 5.59336 20.8625 5.82461C21.075 6.05586 21.3938 6.05586 22.1125 5.82461L22.6625 5.64336L23.225 5.81836C24.075 6.08711 24.4 6.05586 24.6 5.68086C24.6813 5.52461 24.6875 5.36836 24.6562 4.81836L24.6125 4.15586L24.9938 3.49961C25.3938 2.80586 25.4313 2.66836 25.2812 2.34961C25.1438 2.06211 24.975 1.98711 24.3688 1.94961L23.8312 1.91836L23.5063 1.36836C23.3312 1.06211 23.1313 0.787109 23.0625 0.749609C22.8625 0.643359 22.4062 0.674609 22.2313 0.812109Z" fill="#1164B4"/>
<path id="Vector_4" d="M2.4375 6.66875C2.3875 6.6875 2.26875 6.775 2.175 6.8625L2 7.025V16.8562V26.6875H7.34375H12.6875V25.575C12.6875 24.2562 12.7438 23.875 13.0438 23.25C13.7 21.875 15.3313 21.0938 16.7688 21.4688C18.0063 21.7875 19.025 22.8687 19.2438 24.0875C19.2813 24.2938 19.3125 24.9625 19.3125 25.575V26.6875H24.3438H29.375V16.9375C29.375 6.21875 29.4 6.925 29 6.71875C28.8375 6.6375 27.3063 6.625 15.675 6.63125C8.44375 6.63125 2.4875 6.65 2.4375 6.66875ZM10.9375 8.78125C11.3 8.96875 11.3125 9.04375 11.3125 11.3125C11.3125 13.0562 11.3 13.4187 11.2188 13.5938C11.0375 13.9625 11.0063 13.9688 8.65 13.9688C6.575 13.9688 6.50625 13.9625 6.33125 13.8375C6.0125 13.6 5.99375 13.4125 6.0125 11.1875C6.03125 9.00625 6.03125 9 6.36875 8.79375C6.60625 8.64375 10.6563 8.6375 10.9375 8.78125ZM18.4438 8.925L18.625 9.125V11.3375C18.625 13.4688 18.6188 13.55 18.5 13.7063C18.425 13.8 18.2625 13.9 18.1375 13.9375C17.8313 14.0188 14.1688 14.0188 13.8625 13.9375C13.7375 13.9 13.575 13.8 13.5 13.7063C13.3813 13.55 13.375 13.4688 13.375 11.3438C13.375 9.1875 13.375 9.1375 13.5063 8.975C13.5813 8.88125 13.7 8.775 13.775 8.75C13.8438 8.71875 14.8875 8.7 16.0813 8.70625L18.2625 8.71875L18.4438 8.925ZM25.5875 8.78125C25.9688 8.9625 25.9688 8.9625 25.9875 11.1875C26.0063 13.4125 25.9875 13.6 25.6688 13.8375C25.4938 13.9625 25.425 13.9688 23.35 13.9688C20.9938 13.9688 20.9625 13.9625 20.7813 13.5938C20.7 13.4187 20.6875 13.0562 20.6875 11.3125C20.6875 9.05625 20.7 8.975 21.05 8.7875C21.3 8.65 25.2938 8.64375 25.5875 8.78125ZM10.9375 14.7812C11.3 14.9688 11.3125 15.0437 11.3125 17.3125C11.3125 19.0563 11.3 19.4187 11.2188 19.5938C11.0375 19.9625 11.0063 19.9688 8.65 19.9688C6.575 19.9688 6.50625 19.9625 6.33125 19.8375C6.0125 19.6 5.99375 19.4125 6.0125 17.1875C6.03125 15.0062 6.03125 15 6.36875 14.7937C6.60625 14.6438 10.6563 14.6375 10.9375 14.7812ZM18.4438 14.925L18.625 15.125V17.3375C18.625 19.4688 18.6188 19.55 18.5 19.7062C18.425 19.8 18.2625 19.9 18.1375 19.9375C17.8313 20.0187 14.1688 20.0187 13.8625 19.9375C13.7375 19.9 13.575 19.8 13.5 19.7062C13.3813 19.55 13.375 19.4688 13.375 17.3438C13.375 15.1875 13.375 15.1375 13.5063 14.975C13.5813 14.8812 13.7 14.775 13.775 14.75C13.8438 14.7188 14.8875 14.7 16.0813 14.7063L18.2625 14.7188L18.4438 14.925ZM25.5875 14.7812C25.9688 14.9625 25.9688 14.9625 25.9875 17.1875C26.0063 19.4125 25.9875 19.6 25.6688 19.8375C25.4938 19.9625 25.425 19.9688 23.35 19.9688C20.9938 19.9688 20.9625 19.9625 20.7813 19.5938C20.7 19.4187 20.6875 19.0563 20.6875 17.3125C20.6875 15.0562 20.7 14.975 21.05 14.7875C21.3 14.65 25.2938 14.6438 25.5875 14.7812Z" fill="#1164B4"/>
<path id="Vector_5" d="M0.95 27.412C0.65 27.6182 0.625 27.7682 0.625 29.3432C0.625 30.9682 0.65 31.0995 1 31.2807C1.1625 31.362 2.875 31.3745 16 31.3745C32.3125 31.3745 31.0687 31.4057 31.2812 30.9932C31.3687 30.837 31.3812 30.562 31.3625 29.2432L31.3437 27.6745L31.1375 27.4932L30.9375 27.312H16.0125C2.59375 27.312 1.075 27.3245 0.95 27.412Z" fill="#1164B4"/>
</g>
</svg>
