<svg width="50" height="50" viewBox="0 0 50 50" fill="none" xmlns="http://www.w3.org/2000/svg">
<path d="M13.9451 1.18177C13.8474 1.23059 13.5447 1.67005 13.2713 2.1388L12.7635 2.99817L11.9236 3.047C10.9763 3.10559 10.7127 3.22278 10.4978 3.672C10.2635 4.17005 10.3221 4.38489 10.9471 5.46887L11.5428 6.49427L11.4744 7.52942C11.4256 8.3888 11.4353 8.63294 11.5623 8.87708C11.8748 9.46302 12.3826 9.51184 13.7107 9.09192L14.5896 8.81848L15.449 9.10169C16.533 9.45325 16.9822 9.45325 17.3631 9.13098C17.7439 8.80872 17.8025 8.52552 17.6756 7.47083L17.5779 6.59192L18.1638 5.58606C18.6326 4.77552 18.7498 4.48255 18.7498 4.15052C18.7498 3.36927 18.2322 3.02747 17.0213 3.02747H16.4256L15.9666 2.24622C15.4002 1.26966 15.156 1.07434 14.5603 1.07434C14.3162 1.07434 14.033 1.12317 13.9451 1.18177Z" fill="#1164B4"/>
<path d="M24.326 1.24019C24.2089 1.33784 23.9061 1.76753 23.6522 2.19722L23.1835 2.97847L22.3436 3.04683C21.3866 3.11519 21.1522 3.21284 20.9471 3.61324C20.6835 4.12105 20.7616 4.45308 21.3866 5.51753L21.9628 6.51363L21.9042 7.64644L21.8456 8.77925L22.1483 9.07222C22.5389 9.47261 23.0175 9.47261 24.1503 9.09175L24.9999 8.79878L25.8495 9.09175C26.9823 9.47261 27.4608 9.47261 27.8514 9.07222L28.1542 8.77925L28.0956 7.64644L28.037 6.51363L28.6132 5.51753C29.2382 4.45308 29.3163 4.12105 29.0526 3.61324C28.8475 3.21284 28.6132 3.11519 27.6561 3.04683L26.8163 2.97847L26.3475 2.19722C25.7616 1.21089 25.5956 1.07417 24.9999 1.07417C24.6971 1.07417 24.4628 1.13277 24.326 1.24019Z" fill="#1164B4"/>
<path d="M34.7363 1.26807C34.5996 1.37549 34.2871 1.81494 34.043 2.24463L33.584 3.02588H33.0273C31.7773 3.03564 31.25 3.36768 31.25 4.14893C31.25 4.49072 31.3672 4.76416 31.8359 5.58447L32.4219 6.59033L32.3145 7.46924C32.207 8.48486 32.2461 8.73877 32.5977 9.1001C32.9297 9.46143 33.4277 9.46143 34.5508 9.1001L35.4102 8.81689L36.2891 9.09033C37.6172 9.51025 38.125 9.46143 38.4375 8.87549C38.5645 8.63135 38.5742 8.38721 38.5254 7.52783L38.457 6.49268L39.0527 5.46729C39.6777 4.3833 39.7363 4.16846 39.502 3.67041C39.2871 3.22119 39.0234 3.104 38.0762 3.04541L37.2363 2.99658L36.7285 2.13721C36.4551 1.65869 36.1426 1.229 36.0352 1.17041C35.7227 1.00439 35.0098 1.05322 34.7363 1.26807Z" fill="#1164B4"/>
<path d="M3.80859 10.4199C3.73047 10.4492 3.54492 10.5859 3.39844 10.7227L3.125 10.9766V26.3379V41.6992H11.4746H19.8242V39.9609C19.8242 37.9004 19.9121 37.3047 20.3809 36.3281C21.4063 34.1797 23.9551 32.959 26.2012 33.5449C28.1348 34.043 29.7266 35.7324 30.0684 37.6367C30.127 37.959 30.1758 39.0039 30.1758 39.9609V41.6992H38.0371H45.8984V26.4648C45.8984 9.71679 45.9375 10.8203 45.3125 10.498C45.0586 10.3711 42.666 10.3516 24.4922 10.3613C13.1934 10.3613 3.88672 10.3906 3.80859 10.4199ZM17.0898 13.7207C17.6563 14.0137 17.6758 14.1309 17.6758 17.6758C17.6758 20.4004 17.6563 20.9668 17.5293 21.2402C17.2461 21.8164 17.1973 21.8262 13.5156 21.8262C10.2734 21.8262 10.166 21.8164 9.89258 21.6211C9.39453 21.25 9.36523 20.957 9.39453 17.4805C9.42383 14.0723 9.42383 14.0625 9.95117 13.7402C10.3223 13.5059 16.6504 13.4961 17.0898 13.7207ZM28.8184 13.9453L29.1016 14.2578V17.7148C29.1016 21.0449 29.0918 21.1719 28.9063 21.416C28.7891 21.5625 28.5352 21.7187 28.3398 21.7773C27.8613 21.9043 22.1387 21.9043 21.6602 21.7773C21.4648 21.7187 21.2109 21.5625 21.0938 21.416C20.9082 21.1719 20.8984 21.0449 20.8984 17.7246C20.8984 14.3555 20.8984 14.2773 21.1035 14.0234C21.2207 13.877 21.4063 13.7109 21.5234 13.6719C21.6309 13.623 23.2617 13.5937 25.127 13.6035L28.5352 13.623L28.8184 13.9453ZM39.9805 13.7207C40.5762 14.0039 40.5762 14.0039 40.6055 17.4805C40.6348 20.957 40.6055 21.25 40.1074 21.6211C39.834 21.8164 39.7266 21.8262 36.4844 21.8262C32.8027 21.8262 32.7539 21.8164 32.4707 21.2402C32.3438 20.9668 32.3242 20.4004 32.3242 17.6758C32.3242 14.1504 32.3438 14.0234 32.8906 13.7305C33.2813 13.5156 39.5215 13.5059 39.9805 13.7207ZM17.0898 23.0957C17.6563 23.3887 17.6758 23.5059 17.6758 27.0508C17.6758 29.7754 17.6563 30.3418 17.5293 30.6152C17.2461 31.1914 17.1973 31.2012 13.5156 31.2012C10.2734 31.2012 10.166 31.1914 9.89258 30.9961C9.39453 30.625 9.36523 30.332 9.39453 26.8555C9.42383 23.4473 9.42383 23.4375 9.95117 23.1152C10.3223 22.8809 16.6504 22.8711 17.0898 23.0957ZM28.8184 23.3203L29.1016 23.6328V27.0898C29.1016 30.4199 29.0918 30.5469 28.9063 30.791C28.7891 30.9375 28.5352 31.0937 28.3398 31.1523C27.8613 31.2793 22.1387 31.2793 21.6602 31.1523C21.4648 31.0937 21.2109 30.9375 21.0938 30.791C20.9082 30.5469 20.8984 30.4199 20.8984 27.0996C20.8984 23.7305 20.8984 23.6523 21.1035 23.3984C21.2207 23.252 21.4063 23.0859 21.5234 23.0469C21.6309 22.998 23.2617 22.9687 25.127 22.9785L28.5352 22.998L28.8184 23.3203ZM39.9805 23.0957C40.5762 23.3789 40.5762 23.3789 40.6055 26.8555C40.6348 30.332 40.6055 30.625 40.1074 30.9961C39.834 31.1914 39.7266 31.2012 36.4844 31.2012C32.8027 31.2012 32.7539 31.1914 32.4707 30.6152C32.3438 30.3418 32.3242 29.7754 32.3242 27.0508C32.3242 23.5254 32.3438 23.3984 32.8906 23.1055C33.2813 22.8906 39.5215 22.8809 39.9805 23.0957Z" fill="#1164B4"/>
<path d="M1.48437 42.8312C1.01562 43.1535 0.976562 43.3878 0.976562 45.8488C0.976562 48.3878 1.01562 48.5929 1.5625 48.8761C1.81641 49.0031 4.49219 49.0226 25 49.0226C50.4883 49.0226 48.5449 49.0714 48.8769 48.4269C49.0137 48.1827 49.0332 47.7531 49.0039 45.6925L48.9746 43.2413L48.6523 42.9581L48.3398 42.6749H25.0195C4.05273 42.6749 1.67969 42.6945 1.48437 42.8312Z" fill="#1164B4"/>
</svg>
