<svg width="50" height="49" viewBox="0 0 50 49" fill="none" xmlns="http://www.w3.org/2000/svg">
<g id="Black">
<path id="Vector" d="M13.9451 0.681766C13.8474 0.730594 13.5447 1.17005 13.2713 1.6388L12.7635 2.49817L11.9236 2.547C10.9763 2.60559 10.7127 2.72278 10.4978 3.172C10.2635 3.67005 10.3221 3.88489 10.9471 4.96887L11.5428 5.99427L11.4744 7.02942C11.4256 7.8888 11.4353 8.13294 11.5623 8.37708C11.8748 8.96302 12.3826 9.01184 13.7107 8.59192L14.5896 8.31848L15.449 8.60169C16.533 8.95325 16.9822 8.95325 17.3631 8.63098C17.7439 8.30872 17.8025 8.02552 17.6756 6.97083L17.5779 6.09192L18.1638 5.08606C18.6326 4.27552 18.7498 3.98255 18.7498 3.65052C18.7498 2.86927 18.2322 2.52747 17.0213 2.52747H16.4256L15.9666 1.74622C15.4002 0.769656 15.156 0.574344 14.5603 0.574344C14.3162 0.574344 14.033 0.623172 13.9451 0.681766Z" fill="#1164B4"/>
<path id="Vector_2" d="M24.326 0.740189C24.2089 0.837845 23.9061 1.26753 23.6522 1.69722L23.1835 2.47847L22.3436 2.54683C21.3866 2.61519 21.1522 2.71284 20.9471 3.11324C20.6835 3.62105 20.7616 3.95308 21.3866 5.01753L21.9628 6.01363L21.9042 7.14644L21.8456 8.27925L22.1483 8.57222C22.5389 8.97261 23.0175 8.97261 24.1503 8.59175L24.9999 8.29878L25.8495 8.59175C26.9823 8.97261 27.4608 8.97261 27.8514 8.57222L28.1542 8.27925L28.0956 7.14644L28.037 6.01363L28.6132 5.01753C29.2382 3.95308 29.3163 3.62105 29.0526 3.11324C28.8475 2.71284 28.6132 2.61519 27.6561 2.54683L26.8163 2.47847L26.3475 1.69722C25.7616 0.710892 25.5956 0.574173 24.9999 0.574173C24.6971 0.574173 24.4628 0.632767 24.326 0.740189Z" fill="#1164B4"/>
<path id="Vector_3" d="M34.7363 0.77002C34.5996 0.877441 34.2871 1.31689 34.043 1.74658L33.584 2.52783H33.0273C31.7773 2.5376 31.25 2.86963 31.25 3.65088C31.25 3.99268 31.3672 4.26611 31.8359 5.08643L32.4219 6.09229L32.3145 6.97119C32.207 7.98682 32.2461 8.24072 32.5977 8.60205C32.9297 8.96338 33.4277 8.96338 34.5508 8.60205L35.4102 8.31885L36.2891 8.59229C37.6172 9.01221 38.125 8.96338 38.4375 8.37744C38.5645 8.1333 38.5742 7.88916 38.5254 7.02979L38.457 5.99463L39.0527 4.96924C39.6777 3.88525 39.7363 3.67041 39.502 3.17236C39.2871 2.72314 39.0234 2.60596 38.0762 2.54736L37.2363 2.49854L36.7285 1.63916C36.4551 1.16064 36.1426 0.730957 36.0352 0.672363C35.7227 0.506348 35.0098 0.555176 34.7363 0.77002Z" fill="#1164B4"/>
<path id="Vector_4" d="M3.80859 9.91992C3.73047 9.94922 3.54492 10.0859 3.39844 10.2227L3.125 10.4766V25.8379V41.1992H11.4746H19.8242V39.4609C19.8242 37.4004 19.9121 36.8047 20.3809 35.8281C21.4063 33.6797 23.9551 32.459 26.2012 33.0449C28.1348 33.543 29.7266 35.2324 30.0684 37.1367C30.127 37.459 30.1758 38.5039 30.1758 39.4609V41.1992H38.0371H45.8984V25.9648C45.8984 9.2168 45.9375 10.3203 45.3125 9.99805C45.0586 9.87109 42.666 9.85156 24.4922 9.86133C13.1934 9.86133 3.88672 9.89062 3.80859 9.91992ZM17.0898 13.2207C17.6563 13.5137 17.6758 13.6309 17.6758 17.1758C17.6758 19.9004 17.6563 20.4668 17.5293 20.7402C17.2461 21.3164 17.1973 21.3262 13.5156 21.3262C10.2734 21.3262 10.166 21.3164 9.89258 21.1211C9.39453 20.75 9.36523 20.457 9.39453 16.9805C9.42383 13.5723 9.42383 13.5625 9.95117 13.2402C10.3223 13.0059 16.6504 12.9961 17.0898 13.2207ZM28.8184 13.4453L29.1016 13.7578V17.2148C29.1016 20.5449 29.0918 20.6719 28.9063 20.916C28.7891 21.0625 28.5352 21.2188 28.3398 21.2773C27.8613 21.4043 22.1387 21.4043 21.6602 21.2773C21.4648 21.2188 21.2109 21.0625 21.0938 20.916C20.9082 20.6719 20.8984 20.5449 20.8984 17.2246C20.8984 13.8555 20.8984 13.7773 21.1035 13.5234C21.2207 13.377 21.4063 13.2109 21.5234 13.1719C21.6309 13.123 23.2617 13.0938 25.127 13.1035L28.5352 13.123L28.8184 13.4453ZM39.9805 13.2207C40.5762 13.5039 40.5762 13.5039 40.6055 16.9805C40.6348 20.457 40.6055 20.75 40.1074 21.1211C39.834 21.3164 39.7266 21.3262 36.4844 21.3262C32.8027 21.3262 32.7539 21.3164 32.4707 20.7402C32.3438 20.4668 32.3242 19.9004 32.3242 17.1758C32.3242 13.6504 32.3438 13.5234 32.8906 13.2305C33.2813 13.0156 39.5215 13.0059 39.9805 13.2207ZM17.0898 22.5957C17.6563 22.8887 17.6758 23.0059 17.6758 26.5508C17.6758 29.2754 17.6563 29.8418 17.5293 30.1152C17.2461 30.6914 17.1973 30.7012 13.5156 30.7012C10.2734 30.7012 10.166 30.6914 9.89258 30.4961C9.39453 30.125 9.36523 29.832 9.39453 26.3555C9.42383 22.9473 9.42383 22.9375 9.95117 22.6152C10.3223 22.3809 16.6504 22.3711 17.0898 22.5957ZM28.8184 22.8203L29.1016 23.1328V26.5898C29.1016 29.9199 29.0918 30.0469 28.9063 30.291C28.7891 30.4375 28.5352 30.5938 28.3398 30.6523C27.8613 30.7793 22.1387 30.7793 21.6602 30.6523C21.4648 30.5938 21.2109 30.4375 21.0938 30.291C20.9082 30.0469 20.8984 29.9199 20.8984 26.5996C20.8984 23.2305 20.8984 23.1523 21.1035 22.8984C21.2207 22.752 21.4063 22.5859 21.5234 22.5469C21.6309 22.498 23.2617 22.4688 25.127 22.4785L28.5352 22.498L28.8184 22.8203ZM39.9805 22.5957C40.5762 22.8789 40.5762 22.8789 40.6055 26.3555C40.6348 29.832 40.6055 30.125 40.1074 30.4961C39.834 30.6914 39.7266 30.7012 36.4844 30.7012C32.8027 30.7012 32.7539 30.6914 32.4707 30.1152C32.3438 29.8418 32.3242 29.2754 32.3242 26.5508C32.3242 23.0254 32.3438 22.8984 32.8906 22.6055C33.2813 22.3906 39.5215 22.3809 39.9805 22.5957Z" fill="#1164B4"/>
<path id="Vector_5" d="M1.48437 42.3322C1.01562 42.6544 0.976562 42.8888 0.976562 45.3497C0.976562 47.8888 1.01562 48.0939 1.5625 48.3771C1.81641 48.504 4.49219 48.5236 25 48.5236C50.4883 48.5236 48.5449 48.5724 48.8769 47.9279C49.0137 47.6837 49.0332 47.254 49.0039 45.1935L48.9746 42.7423L48.6523 42.4591L48.3398 42.1759H25.0195C4.05273 42.1759 1.67969 42.1954 1.48437 42.3322Z" fill="#1164B4"/>
</g>
</svg>
