<svg width="33" height="32" viewBox="0 0 33 32" fill="none" xmlns="http://www.w3.org/2000/svg">
<path d="M3.16669 25.3334V16.8334C3.16669 16.2779 3.2778 15.7556 3.50002 15.2667C3.72224 14.7779 4.05558 14.3779 4.50002 14.0667V10.2001C4.50002 9.20008 4.83891 8.36119 5.51669 7.68341C6.19446 7.00564 7.03335 6.66675 8.03335 6.66675H14.0334C14.5222 6.66675 14.9778 6.77786 15.4 7.00008C15.8222 7.2223 16.1889 7.5223 16.5 7.90008C16.8111 7.5223 17.1722 7.2223 17.5834 7.00008C17.9945 6.77786 18.4445 6.66675 18.9334 6.66675H24.9334C25.9334 6.66675 26.7778 7.00564 27.4667 7.68341C28.1556 8.36119 28.5 9.20008 28.5 10.2001V14.0667C28.9445 14.3779 29.2778 14.7779 29.5 15.2667C29.7222 15.7556 29.8334 16.2779 29.8334 16.8334V25.3334H27.8334V22.6667H5.16669V25.3334H3.16669ZM17.5 13.5001H26.5V10.2001C26.5 9.75564 26.35 9.38897 26.05 9.10008C25.75 8.81119 25.3778 8.66675 24.9334 8.66675H18.8334C18.4556 8.66675 18.1389 8.8223 17.8834 9.13341C17.6278 9.44453 17.5 9.80008 17.5 10.2001V13.5001ZM6.50002 13.5001H15.5V10.2001C15.5 9.80008 15.3722 9.44453 15.1167 9.13341C14.8611 8.8223 14.5445 8.66675 14.1667 8.66675H8.03335C7.61113 8.66675 7.25002 8.81675 6.95002 9.11675C6.65002 9.41675 6.50002 9.77786 6.50002 10.2001V13.5001ZM5.16669 20.6667H27.8334V16.8334C27.8334 16.4556 27.7056 16.139 27.45 15.8834C27.1945 15.6279 26.8778 15.5001 26.5 15.5001H6.50002C6.12224 15.5001 5.80558 15.6279 5.55002 15.8834C5.29446 16.139 5.16669 16.4556 5.16669 16.8334V20.6667Z" fill="white"/>
</svg>
