<svg width="60" height="56" viewBox="0 0 60 56" fill="none" xmlns="http://www.w3.org/2000/svg">
<path d="M14.297 0.847397C13.2188 1.21068 12.4688 1.67943 11.6954 2.46458C10.9571 3.2263 10.3009 4.44505 10.0899 5.4763C9.99617 5.9099 9.96102 10.5271 9.96102 20.5935C9.96102 36.5544 9.93758 35.8513 10.6876 37.3044C11.1915 38.2654 12.422 39.4724 13.3712 39.9411C14.8946 40.6911 13.8516 40.656 34.9923 40.656C48.3868 40.656 54.422 40.6208 54.9141 40.5271C56.1329 40.3044 57.2227 39.7068 58.172 38.7576C58.629 38.2888 59.1446 37.6326 59.3204 37.3044C60.0235 35.9802 60.0001 36.7068 60.0001 20.5583C60.0001 8.62864 59.9649 5.67552 59.836 5.20677C59.2735 3.07396 57.504 1.30443 55.3712 0.741928C54.8907 0.613022 51.1055 0.577866 34.922 0.577866L15.0587 0.589584L14.297 0.847397ZM54.2579 5.79271C54.9962 6.16771 54.961 5.79271 54.9376 15.4958L54.9024 24.3435L51.3868 20.2302C46.8985 14.9802 46.6407 14.699 45.7735 14.2536C45.0938 13.9021 44.9884 13.8786 43.7696 13.8786C42.586 13.8786 42.4337 13.9021 41.836 14.2068C41.4845 14.3943 41.0391 14.6755 40.8516 14.8513C40.6641 15.0271 38.3907 17.7107 35.8009 20.8161L31.0899 26.4529L29.3438 24.7068C27.4337 22.7849 26.9063 22.4333 25.6641 22.2576C24.7618 22.1286 23.8712 22.2693 22.9923 22.6677C22.4298 22.9255 21.7384 23.5583 18.6563 26.6286L15.0001 30.2849L15.0235 18.3904C15.0587 7.30442 15.0704 6.4724 15.2579 6.20287C15.3751 6.05052 15.586 5.8513 15.7266 5.76927C15.9376 5.65208 19.9805 5.62865 34.9571 5.61693C51.6798 5.61693 53.9532 5.64037 54.2579 5.79271Z" fill="#1164B4"/>
<path d="M20.6836 8.37059C19.7344 8.75731 19.1484 9.1909 18.5625 9.91747C17.7773 10.8784 17.5313 11.6518 17.5195 13.1167C17.5195 14.2651 17.543 14.4057 17.8945 15.144C19.7695 19.0932 25.2422 19.105 27.0938 15.1675C27.3633 14.5698 27.457 14.1831 27.5039 13.4331C27.6445 11.2768 26.6367 9.50731 24.75 8.58153C23.918 8.17137 23.7891 8.13622 22.6289 8.10106C21.5156 8.07762 21.3164 8.10106 20.6836 8.37059Z" fill="#1164B4"/>
<path d="M5.89453 18.9173C5.69531 19.5618 4.28906 24.1438 2.80078 29.1126L0.0703125 38.136L0.0585938 39.6126V41.0891L0.550781 42.0852C1.13672 43.2571 2.05078 44.1946 3.09375 44.6868C3.82031 45.0266 42.75 55.4915 43.7344 55.6087C45.2109 55.7844 46.9922 55.1751 48.1055 54.1204C49.1719 53.1126 49.3359 52.7376 50.6719 48.5071C51.3516 46.3508 51.9141 44.5227 51.9141 44.4407C51.9141 44.3235 47.9297 44.2883 33.0234 44.2649L14.1211 44.2298L13.2539 43.9602C11.4961 43.4212 10.1719 42.6126 8.95312 41.3352C7.81641 40.1516 7.13672 38.9563 6.60938 37.1985C6.41016 36.554 6.38672 35.6985 6.32812 27.1204L6.26953 17.7454L5.89453 18.9173Z" fill="#1164B4"/>
</svg>
