<svg width="100" height="100" viewBox="0 0 100 100" fill="none" xmlns="http://www.w3.org/2000/svg">
<path d="M71.7969 0.371094C70.5273 1.21094 70.5078 1.28906 70.5078 7.32422C70.5078 12.3633 70.5469 12.832 70.8789 13.3594C71.4844 14.2578 72.2266 14.6484 73.4375 14.6484C74.6484 14.6484 75.3906 14.2578 75.9961 13.3594C76.3281 12.832 76.3672 12.3633 76.3672 7.32422C76.3672 2.28516 76.3281 1.81641 75.9961 1.28906C75.3906 0.390625 74.6484 0 73.4375 0C72.7148 0 72.1875 0.117188 71.7969 0.371094Z" fill="#1164B4"/>
<path d="M54.2188 6.23096C53.3008 6.83643 52.9297 7.57862 52.9297 8.80909C52.9297 9.70752 53.0273 10.0396 53.4961 10.6646C54.1602 11.5435 59.4336 16.7778 60.1562 17.2661C60.8398 17.7153 62.6367 17.6763 63.3594 17.2075C64.2773 16.6021 64.6484 15.8599 64.6484 14.6294C64.6484 13.731 64.5508 13.3989 64.082 12.7739C63.418 11.895 58.1445 6.66065 57.4219 6.17237C56.7383 5.72315 54.9414 5.76221 54.2188 6.23096Z" fill="#1164B4"/>
<path d="M89.1406 6.42578C88.2617 7.08984 83.0273 12.3633 82.5391 13.0859C82.0898 13.7695 82.1289 15.5664 82.5977 16.2891C83.2031 17.1875 83.9453 17.5781 85.1562 17.5781C85.8398 17.5781 86.4258 17.4609 86.7187 17.2656C87.4414 16.7773 92.7148 11.543 93.3789 10.6641C93.8477 10.0391 93.9453 9.70703 93.9453 8.80859C93.9453 6.91406 92.8906 5.85938 90.9961 5.85938C90.0977 5.85938 89.7656 5.95703 89.1406 6.42578Z" fill="#1164B4"/>
<path d="M71.1914 17.8517C70.3711 18.2032 69.5898 19.1993 69.3164 20.1759C68.7891 22.1681 66.7578 27.9884 66.0156 29.6876C63.2227 36.0353 58.6133 41.2892 51.2695 46.504C50.2539 47.2267 47.793 49.4337 45.3906 51.7775C40.8984 56.172 39.4531 57.2267 36.8555 58.1056C36.0352 58.379 34.707 58.672 33.9258 58.7501L32.5195 58.8868V76.5626V94.2384L34.7656 94.3556C38.0664 94.5509 40.3516 95.0196 44.7656 96.4064C49.2383 97.8126 53.7305 98.7892 59.0234 99.5509C61.8555 99.9415 86.9141 100.176 88.1445 99.8048C90 99.001 90.6094 98.3525 91 98.001C92.8945 96.3408 92.8359 93.6807 91 92.001C89.9258 91.0049 88.4375 90.0791 85 90.001C82.207 89.9424 81 90.001 81 90.001C80.1211 89.4736 79.4922 89.297 79.4922 88.3009C79.4922 87.2267 81 87.001 81 87.001C81 87.001 81.7695 87.0986 88 87.001C94.9141 86.9033 94.8672 86.2119 96 85.001C96.7617 84.2002 97.0703 82.2071 97.0703 80.8595C97.0703 79.5704 96 78.001 96 78.001C96 78.001 94.8047 75.2313 87.8906 75.1336C81.7969 75.036 81 75.001 81 75.001C81 75.001 79.4922 74.6486 79.4922 73.6329C79.4922 72.5782 81 72.001 81 72.001C81 72.001 81.6602 72.0986 87.8906 72.001C94.8047 71.9033 95.9375 69.3946 95.9375 69.3946C95.9375 69.3946 97.0703 67.5587 97.0703 66.2111C97.0703 64.922 96 63.001 96 63.001C96 63.001 94.8047 60.0986 87.8906 60.001C81.9922 59.9033 81 60.001 81 60.001C81 60.001 79.4922 60.0001 79.4922 59.004C79.4922 57.9298 81 58.001 81 58.001C81 58.001 81.6602 58.0986 87.8906 58.001C94.8047 57.9033 95.9375 54.7462 95.9375 54.7462C95.9375 54.7462 97.0703 52.9103 97.0703 51.5626C97.0703 49.8048 96.5625 48.8018 95 48.001C94.3164 47.6494 93.7266 47.001 84 47.001L73.418 47.2657L73.5352 46.8165C73.7695 46.0939 74.668 44.0431 76.3281 40.5275C78.9648 34.9415 79.8828 31.6603 79.8828 27.9884C79.8828 24.3556 78.8477 21.6017 76.7578 19.6681C75.0391 18.0665 72.5195 17.2462 71.1914 17.8517Z" fill="#1164B4"/>
<path d="M4.21875 59.3555C3.92578 59.5508 3.49609 59.9805 3.30078 60.2734C2.94922 60.8203 2.92969 61.4844 2.92969 76.5625C2.92969 91.6406 2.94922 92.3047 3.30078 92.8516C3.49609 93.1445 3.92578 93.5742 4.21875 93.7695C4.76562 94.1211 5.33203 94.1406 15.6836 94.1406H26.5625V76.5625V58.9844H15.6836C5.33203 58.9844 4.76562 59.0039 4.21875 59.3555Z" fill="#1164B4"/>
</svg>
