<svg width="151" height="150" viewBox="0 0 151 150" fill="none" xmlns="http://www.w3.org/2000/svg">
<path d="M67.6194 17.2416C53.5794 20.2816 42.2194 31.8016 39.3394 45.8816C38.9794 47.6416 38.6994 50.9216 38.6994 53.5616V58.1616L36.4994 59.6016C32.8994 62.0016 30.3794 65.9616 29.4994 70.6016C28.9794 73.3216 28.9794 110.802 29.4994 113.922C30.3394 119.202 33.8594 123.962 38.6594 126.322L41.2994 127.602H75.4994H109.699L112.339 126.322C117.139 123.962 120.659 119.202 121.499 113.922C122.019 110.802 122.019 73.3216 121.499 70.6016C120.619 65.9616 118.099 62.0016 114.499 59.6016L112.299 58.1616V53.5616C112.299 42.7216 108.459 33.7616 100.579 26.3616C95.5794 21.6416 89.7394 18.6016 82.9794 17.1616C79.5794 16.4416 71.0194 16.4816 67.6194 17.2416ZM80.8994 29.4816C82.0194 29.6816 84.4194 30.6016 86.2594 31.4816C88.9394 32.7616 90.2594 33.7216 92.6594 36.1616C97.5394 41.0416 99.8994 46.6416 99.8994 53.2816V56.6016H75.4994H51.0994V53.2816C51.0994 46.6416 53.4594 41.0016 58.2994 36.2016C64.5394 29.9616 72.2594 27.6816 80.8994 29.4816ZM78.4594 83.3616C80.8594 84.9616 81.0994 85.8016 81.0994 92.4816C81.0994 98.4416 81.0994 98.5616 80.0594 99.8016C77.3394 103.002 73.6594 103.002 70.9394 99.8016C69.8994 98.5616 69.8994 98.4416 69.8994 92.4816C69.8994 85.8016 70.1394 84.9616 72.5394 83.3616C74.0594 82.3616 76.9394 82.3616 78.4594 83.3616Z" fill="#FFC506"/>
<rect x="2.5" y="2" width="146" height="146" rx="73" stroke="#5785DE" stroke-opacity="0.5" stroke-width="4"/>
</svg>
