<svg width="564" height="488" viewBox="0 0 564 488" fill="none" xmlns="http://www.w3.org/2000/svg">
<path d="M211.5 5L16.5 317L219.5 84L350.5 207.5L299 126L348.5 84L547.5 317L348.5 0L281 102.5L211.5 5Z" fill="url(#paint0_linear_927_16951)"/>
<path d="M18.221 357.963C19.317 357.963 20.4587 358.237 21.646 358.785C22.8333 359.333 23.7467 360.109 24.386 361.114L59.184 414.133L53.293 413.859L88.776 361.114C90.2373 359.013 92.1097 357.963 94.393 357.963C96.2197 357.963 97.818 358.648 99.188 360.018C100.649 361.297 101.38 362.941 101.38 364.95V447.013C101.38 449.022 100.741 450.712 99.462 452.082C98.1833 453.361 96.4937 454 94.393 454C92.201 454 90.42 453.361 89.05 452.082C87.7713 450.712 87.132 449.022 87.132 447.013V377.554L91.516 378.513L61.376 424.408C60.7367 425.23 59.9147 425.961 58.91 426.6C57.9053 427.148 56.855 427.376 55.759 427.285C54.7543 427.376 53.704 427.148 52.608 426.6C51.6033 425.961 50.7813 425.23 50.142 424.408L21.098 379.198L24.386 373.718V447.013C24.386 449.022 23.7467 450.712 22.468 452.082C21.2807 453.361 19.6823 454 17.673 454C15.755 454 14.1567 453.361 12.878 452.082C11.6907 450.712 11.097 449.022 11.097 447.013V364.95C11.097 363.032 11.782 361.388 13.152 360.018C14.6133 358.648 16.303 357.963 18.221 357.963ZM155.805 455.37C148.225 455.37 141.649 453.817 136.077 450.712C130.506 447.515 126.168 443.177 123.062 437.697C120.048 432.126 118.541 425.778 118.541 418.654C118.541 410.617 120.14 403.767 123.336 398.104C126.624 392.35 130.871 387.966 136.077 384.952C141.283 381.847 146.809 380.294 152.654 380.294C157.13 380.294 161.377 381.207 165.395 383.034C169.414 384.769 172.976 387.235 176.081 390.432C179.278 393.537 181.79 397.236 183.616 401.529C185.443 405.73 186.402 410.343 186.493 415.366C186.402 417.193 185.671 418.7 184.301 419.887C182.931 421.074 181.333 421.668 179.506 421.668H126.213L122.925 410.023H174.437L171.834 412.489V409.064C171.652 405.867 170.601 403.082 168.683 400.707C166.765 398.241 164.391 396.369 161.559 395.09C158.728 393.72 155.76 393.035 152.654 393.035C149.914 393.035 147.266 393.492 144.708 394.405C142.242 395.227 140.005 396.597 137.995 398.515C136.077 400.433 134.525 402.99 133.337 406.187C132.241 409.292 131.693 413.174 131.693 417.832C131.693 422.855 132.744 427.239 134.844 430.984C136.945 434.729 139.776 437.651 143.338 439.752C146.9 441.761 150.828 442.766 155.12 442.766C158.5 442.766 161.285 442.446 163.477 441.807C165.669 441.076 167.496 440.209 168.957 439.204C170.419 438.199 171.697 437.24 172.793 436.327C174.163 435.505 175.533 435.094 176.903 435.094C178.547 435.094 179.917 435.688 181.013 436.875C182.109 437.971 182.657 439.295 182.657 440.848C182.657 442.857 181.653 444.684 179.643 446.328C177.177 448.703 173.752 450.803 169.368 452.63C165.076 454.457 160.555 455.37 155.805 455.37ZM254.877 381.39C256.886 381.39 258.53 382.075 259.809 383.445C261.087 384.724 261.727 386.368 261.727 388.377V447.287C261.727 455.324 260.174 461.855 257.069 466.878C254.055 471.901 249.945 475.555 244.739 477.838C239.624 480.213 233.824 481.4 227.34 481.4C224.052 481.4 220.764 481.08 217.476 480.441C214.188 479.893 211.493 479.071 209.393 477.975C207.201 476.97 205.648 475.737 204.735 474.276C203.821 472.815 203.684 471.216 204.324 469.481C204.963 467.289 206.059 465.782 207.612 464.96C209.164 464.229 210.763 464.184 212.407 464.823C213.959 465.462 216.014 466.284 218.572 467.289C221.129 468.294 224.052 468.796 227.34 468.796C231.815 468.796 235.605 468.065 238.711 466.604C241.816 465.143 244.145 462.859 245.698 459.754C247.342 456.649 248.164 452.63 248.164 447.698V438.245L250.356 441.533C248.894 444.547 246.976 447.059 244.602 449.068C242.227 451.077 239.396 452.63 236.108 453.726C232.911 454.822 229.349 455.37 225.422 455.37C220.398 455.37 216.06 454.274 212.407 452.082C208.845 449.799 206.105 446.693 204.187 442.766C202.269 438.747 201.31 434.181 201.31 429.066V388.377C201.31 386.368 201.949 384.724 203.228 383.445C204.506 382.075 206.15 381.39 208.16 381.39C210.078 381.39 211.676 382.075 212.955 383.445C214.325 384.724 215.01 386.368 215.01 388.377V425.367C215.01 431.395 216.334 435.825 218.983 438.656C221.631 441.396 225.559 442.766 230.765 442.766C234.235 442.766 237.249 442.035 239.807 440.574C242.364 439.113 244.373 437.103 245.835 434.546C247.296 431.897 248.027 428.838 248.027 425.367V388.377C248.027 386.368 248.666 384.724 249.945 383.445C251.315 382.075 252.959 381.39 254.877 381.39ZM317.082 380.705C323.841 380.705 329.047 382.395 332.7 385.774C336.354 389.062 338.774 393.537 339.961 399.2L337.769 398.515L338.728 396.323C339.916 393.948 341.697 391.574 344.071 389.199C346.537 386.733 349.46 384.724 352.839 383.171C356.219 381.527 359.826 380.705 363.662 380.705C369.964 380.705 374.851 382.075 378.321 384.815C381.792 387.464 384.212 391.071 385.582 395.638C386.952 400.113 387.637 405.137 387.637 410.708V447.013C387.637 449.022 386.998 450.712 385.719 452.082C384.441 453.361 382.797 454 380.787 454C378.869 454 377.225 453.361 375.855 452.082C374.577 450.712 373.937 449.022 373.937 447.013V410.845C373.937 407.648 373.481 404.726 372.567 402.077C371.745 399.428 370.238 397.328 368.046 395.775C365.946 394.131 363.023 393.309 359.278 393.309C355.716 393.309 352.52 394.131 349.688 395.775C346.948 397.328 344.802 399.428 343.249 402.077C341.697 404.726 340.92 407.648 340.92 410.845V447.013C340.92 449.022 340.281 450.712 339.002 452.082C337.724 453.361 336.08 454 334.07 454C332.061 454 330.417 453.361 329.138 452.082C327.86 450.712 327.22 449.022 327.22 447.013V410.708C327.22 407.511 326.764 404.589 325.85 401.94C325.028 399.291 323.567 397.191 321.466 395.638C319.366 394.085 316.443 393.309 312.698 393.309C309.136 393.309 305.985 394.085 303.245 395.638C300.505 397.191 298.359 399.291 296.806 401.94C295.345 404.589 294.614 407.511 294.614 410.708V447.013C294.614 449.022 293.929 450.712 292.559 452.082C291.281 453.361 289.682 454 287.764 454C285.755 454 284.111 453.361 282.832 452.082C281.554 450.712 280.914 449.022 280.914 447.013V388.925C280.914 386.916 281.554 385.272 282.832 383.993C284.111 382.623 285.755 381.938 287.764 381.938C289.682 381.938 291.281 382.623 292.559 383.993C293.929 385.272 294.614 386.916 294.614 388.925V397.008L292.011 398.515C292.651 396.506 293.701 394.451 295.162 392.35C296.624 390.249 298.45 388.331 300.642 386.596C302.926 384.861 305.437 383.445 308.177 382.349C310.917 381.253 313.886 380.705 317.082 380.705ZM465.857 380.842C467.866 380.842 469.51 381.527 470.789 382.897C472.067 384.176 472.707 385.82 472.707 387.829V447.013C472.707 449.022 472.067 450.712 470.789 452.082C469.51 453.361 467.866 454 465.857 454C463.939 454 462.295 453.361 460.925 452.082C459.646 450.712 459.007 449.022 459.007 447.013V437.149L461.884 437.56C461.884 439.204 461.199 441.031 459.829 443.04C458.55 445.049 456.769 447.013 454.486 448.931C452.202 450.758 449.508 452.31 446.403 453.589C443.297 454.776 439.964 455.37 436.402 455.37C430.1 455.37 424.437 453.772 419.414 450.575C414.39 447.287 410.417 442.812 407.495 437.149C404.572 431.486 403.111 425.047 403.111 417.832C403.111 410.434 404.572 403.949 407.495 398.378C410.417 392.715 414.345 388.286 419.277 385.089C424.3 381.892 429.871 380.294 435.991 380.294C439.918 380.294 443.526 380.933 446.814 382.212C450.193 383.491 453.116 385.135 455.582 387.144C458.048 389.153 459.92 391.3 461.199 393.583C462.569 395.775 463.254 397.876 463.254 399.885L459.007 400.296V387.829C459.007 385.911 459.646 384.267 460.925 382.897C462.295 381.527 463.939 380.842 465.857 380.842ZM437.909 442.766C442.201 442.766 445.992 441.67 449.28 439.478C452.568 437.286 455.125 434.318 456.952 430.573C458.778 426.737 459.692 422.49 459.692 417.832C459.692 413.083 458.778 408.836 456.952 405.091C455.125 401.346 452.568 398.378 449.28 396.186C445.992 393.994 442.201 392.898 437.909 392.898C433.707 392.898 429.963 393.994 426.675 396.186C423.478 398.378 420.921 401.346 419.003 405.091C417.176 408.836 416.263 413.083 416.263 417.832C416.263 422.49 417.176 426.737 419.003 430.573C420.921 434.318 423.478 437.286 426.675 439.478C429.963 441.67 433.707 442.766 437.909 442.766ZM529.027 380.294C535.511 380.294 540.535 381.664 544.097 384.404C547.659 387.053 550.125 390.66 551.495 395.227C552.956 399.702 553.687 404.726 553.687 410.297V447.013C553.687 449.022 553.002 450.712 551.632 452.082C550.353 453.361 548.755 454 546.837 454C544.827 454 543.183 453.361 541.905 452.082C540.626 450.712 539.987 449.022 539.987 447.013V410.434C539.987 407.146 539.53 404.223 538.617 401.666C537.703 399.017 536.105 396.917 533.822 395.364C531.63 393.72 528.524 392.898 524.506 392.898C520.761 392.898 517.473 393.72 514.642 395.364C511.81 396.917 509.573 399.017 507.929 401.666C506.376 404.223 505.6 407.146 505.6 410.434V447.013C505.6 449.022 504.915 450.712 503.545 452.082C502.266 453.361 500.668 454 498.75 454C496.74 454 495.096 453.361 493.818 452.082C492.539 450.712 491.9 449.022 491.9 447.013V388.925C491.9 386.916 492.539 385.272 493.818 383.993C495.096 382.623 496.74 381.938 498.75 381.938C500.668 381.938 502.266 382.623 503.545 383.993C504.915 385.272 505.6 386.916 505.6 388.925V396.597L503.134 397.967C503.773 395.958 504.869 393.948 506.422 391.939C508.066 389.838 510.029 387.92 512.313 386.185C514.596 384.358 517.153 382.943 519.985 381.938C522.816 380.842 525.83 380.294 529.027 380.294Z" fill="url(#paint1_linear_927_16951)"/>
<defs>
<linearGradient id="paint0_linear_927_16951" x1="282" y1="0" x2="282" y2="317" gradientUnits="userSpaceOnUse">
<stop/>
<stop offset="0.0001" stop-color="#1400FF"/>
<stop offset="1" stop-color="#2C2857"/>
</linearGradient>
<linearGradient id="paint1_linear_927_16951" x1="282" y1="317" x2="282" y2="488" gradientUnits="userSpaceOnUse">
<stop/>
<stop offset="0.0001" stop-color="#1400FF"/>
<stop offset="1" stop-color="#2C2857"/>
</linearGradient>
</defs>
</svg>
