<svg width="70" height="60" viewBox="0 0 70 60" fill="none" xmlns="http://www.w3.org/2000/svg">
<path d="M26.3107 0.615219L2.27734 39.0049L27.2967 10.3357L43.4422 25.5316L37.0949 15.5035L43.1957 10.3357L67.722 39.0049L43.1957 0L34.8764 12.612L26.3107 0.615219Z" fill="#1164B4"/>
<path d="M2.24384 44.1783C2.37881 44.1783 2.5194 44.2121 2.66562 44.2795C2.81183 44.347 2.9243 44.4426 3.00304 44.5664L7.28827 51.0954L6.56281 51.0617L10.9324 44.5664C11.1124 44.3077 11.3429 44.1783 11.6241 44.1783C11.8491 44.1783 12.0459 44.2627 12.2146 44.4314C12.3946 44.5888 12.4845 44.7913 12.4845 45.0387V55.1445C12.4845 55.3919 12.4058 55.6 12.2483 55.7687C12.0909 55.9262 11.8828 56.0049 11.6241 56.0049C11.3542 56.0049 11.1349 55.9262 10.9661 55.7687C10.8087 55.6 10.7299 55.3919 10.7299 55.1445V46.5909L11.2698 46.709L7.5582 52.3607C7.47947 52.462 7.37824 52.552 7.25452 52.6307C7.1308 52.6982 7.00146 52.7263 6.86649 52.715C6.74277 52.7263 6.61343 52.6982 6.47846 52.6307C6.35474 52.552 6.25351 52.462 6.17478 52.3607L2.59813 46.7933L3.00304 46.1185V55.1445C3.00304 55.3919 2.9243 55.6 2.76684 55.7687C2.62063 55.9262 2.4238 56.0049 2.17636 56.0049C1.94016 56.0049 1.74334 55.9262 1.58587 55.7687C1.43966 55.6 1.36655 55.3919 1.36655 55.1445V45.0387C1.36655 44.8025 1.4509 44.6001 1.61961 44.4314C1.79957 44.2627 2.00765 44.1783 2.24384 44.1783ZM19.1868 56.1736C18.2533 56.1736 17.4435 55.9824 16.7574 55.6C16.0713 55.2063 15.537 54.6721 15.1546 53.9972C14.7835 53.3111 14.5979 52.5295 14.5979 51.6522C14.5979 50.6624 14.7947 49.8189 15.1884 49.1215C15.5933 48.4129 16.1163 47.8731 16.7574 47.5019C17.3985 47.1195 18.0789 46.9283 18.7988 46.9283C19.3499 46.9283 19.8729 47.0408 20.3678 47.2657C20.8626 47.4794 21.3013 47.7831 21.6837 48.1767C22.0774 48.5592 22.3867 49.0147 22.6116 49.5433C22.8365 50.0607 22.9546 50.6287 22.9659 51.2473C22.9546 51.4722 22.8647 51.6578 22.696 51.804C22.5272 51.9502 22.3304 52.0233 22.1055 52.0233H15.5427L15.1378 50.5893H21.4812L21.1607 50.893V50.4712C21.1382 50.0775 21.0089 49.7345 20.7727 49.4421C20.5365 49.1384 20.244 48.9078 19.8954 48.7504C19.5467 48.5816 19.1812 48.4973 18.7988 48.4973C18.4613 48.4973 18.1352 48.5535 17.8202 48.666C17.5166 48.7672 17.241 48.9359 16.9936 49.1721C16.7574 49.4083 16.5662 49.7233 16.4199 50.1169C16.285 50.4993 16.2175 50.9773 16.2175 51.5509C16.2175 52.1695 16.3468 52.7094 16.6055 53.1706C16.8642 53.6317 17.2129 53.9916 17.6515 54.2503C18.0902 54.4977 18.5738 54.6215 19.1024 54.6215C19.5186 54.6215 19.8616 54.5821 20.1316 54.5034C20.4015 54.4134 20.6264 54.3065 20.8064 54.1828C20.9864 54.0591 21.1438 53.941 21.2788 53.8285C21.4475 53.7273 21.6162 53.6767 21.7849 53.6767C21.9874 53.6767 22.1561 53.7498 22.2911 53.896C22.426 54.031 22.4935 54.1941 22.4935 54.3853C22.4935 54.6327 22.3698 54.8577 22.1223 55.0601C21.8187 55.3525 21.3969 55.6112 20.857 55.8362C20.3284 56.0611 19.7717 56.1736 19.1868 56.1736ZM31.387 47.0633C31.6345 47.0633 31.8369 47.1476 31.9944 47.3163C32.1518 47.4738 32.2306 47.6762 32.2306 47.9237V55.1782C32.2306 56.168 32.0394 56.9722 31.657 57.5908C31.2858 58.2094 30.7797 58.6593 30.1386 58.9404C29.5087 59.2329 28.7945 59.3791 27.9959 59.3791C27.591 59.3791 27.1861 59.3397 26.7812 59.261C26.3763 59.1935 26.0445 59.0923 25.7859 58.9573C25.5159 58.8336 25.3247 58.6817 25.2122 58.5018C25.0998 58.3218 25.0829 58.125 25.1616 57.9113C25.2404 57.6414 25.3753 57.4558 25.5665 57.3546C25.7577 57.2646 25.9546 57.259 26.157 57.3377C26.3482 57.4164 26.6013 57.5176 26.9162 57.6414C27.2311 57.7651 27.591 57.8269 27.9959 57.8269C28.5471 57.8269 29.0138 57.737 29.3962 57.557C29.7787 57.3771 30.0655 57.0959 30.2567 56.7135C30.4591 56.3311 30.5603 55.8362 30.5603 55.2288V54.0647L30.8303 54.4696C30.6503 54.8408 30.4141 55.1501 30.1217 55.3975C29.8293 55.645 29.4806 55.8362 29.0757 55.9711C28.682 56.1061 28.2434 56.1736 27.7598 56.1736C27.1412 56.1736 26.6069 56.0386 26.157 55.7687C25.7184 55.4875 25.3809 55.1051 25.1448 54.6215C24.9086 54.1266 24.7905 53.5642 24.7905 52.9344V47.9237C24.7905 47.6762 24.8692 47.4738 25.0267 47.3163C25.1841 47.1476 25.3866 47.0633 25.634 47.0633C25.8702 47.0633 26.067 47.1476 26.2245 47.3163C26.3932 47.4738 26.4776 47.6762 26.4776 47.9237V52.4788C26.4776 53.2212 26.6406 53.7667 26.9668 54.1153C27.293 54.4528 27.7766 54.6215 28.4177 54.6215C28.8451 54.6215 29.2163 54.5315 29.5312 54.3515C29.8461 54.1716 30.0936 53.9241 30.2735 53.6092C30.4535 53.283 30.5435 52.9062 30.5435 52.4788V47.9237C30.5435 47.6762 30.6222 47.4738 30.7797 47.3163C30.9484 47.1476 31.1508 47.0633 31.387 47.0633ZM39.0474 46.9789C39.8797 46.9789 40.5208 47.187 40.9707 47.6031C41.4206 48.008 41.7186 48.5592 41.8648 49.2565L41.5949 49.1721L41.713 48.9022C41.8592 48.6098 42.0785 48.3173 42.371 48.0249C42.6746 47.7212 43.0345 47.4738 43.4507 47.2826C43.8668 47.0801 44.3111 46.9789 44.7835 46.9789C45.5596 46.9789 46.1613 47.1476 46.5887 47.485C47.0161 47.8112 47.3142 48.2555 47.4829 48.8178C47.6516 49.369 47.7359 49.9876 47.7359 50.6737V55.1445C47.7359 55.3919 47.6572 55.6 47.4997 55.7687C47.3423 55.9262 47.1398 56.0049 46.8924 56.0049C46.6562 56.0049 46.4537 55.9262 46.285 55.7687C46.1276 55.6 46.0488 55.3919 46.0488 55.1445V50.6905C46.0488 50.2969 45.9926 49.937 45.8801 49.6108C45.7789 49.2846 45.5933 49.0259 45.3234 48.8347C45.0647 48.6323 44.7048 48.531 44.2436 48.531C43.805 48.531 43.4113 48.6323 43.0627 48.8347C42.7252 49.0259 42.4609 49.2846 42.2697 49.6108C42.0785 49.937 41.9829 50.2969 41.9829 50.6905V55.1445C41.9829 55.3919 41.9042 55.6 41.7467 55.7687C41.5893 55.9262 41.3868 56.0049 41.1394 56.0049C40.8919 56.0049 40.6895 55.9262 40.532 55.7687C40.3746 55.6 40.2958 55.3919 40.2958 55.1445V50.6737C40.2958 50.28 40.2396 49.9201 40.1271 49.5939C40.0259 49.2677 39.8459 49.009 39.5872 48.8178C39.3286 48.6266 38.9686 48.531 38.5075 48.531C38.0689 48.531 37.6808 48.6266 37.3434 48.8178C37.006 49.009 36.7417 49.2677 36.5505 49.5939C36.3705 49.9201 36.2805 50.28 36.2805 50.6737V55.1445C36.2805 55.3919 36.1962 55.6 36.0275 55.7687C35.87 55.9262 35.6732 56.0049 35.437 56.0049C35.1895 56.0049 34.9871 55.9262 34.8296 55.7687C34.6722 55.6 34.5934 55.3919 34.5934 55.1445V47.9912C34.5934 47.7437 34.6722 47.5413 34.8296 47.3838C34.9871 47.2151 35.1895 47.1307 35.437 47.1307C35.6732 47.1307 35.87 47.2151 36.0275 47.3838C36.1962 47.5413 36.2805 47.7437 36.2805 47.9912V48.9866L35.96 49.1721C36.0387 48.9247 36.1681 48.6716 36.348 48.4129C36.528 48.1543 36.7529 47.9181 37.0229 47.7044C37.304 47.4907 37.6133 47.3163 37.9508 47.1814C38.2882 47.0464 38.6537 46.9789 39.0474 46.9789ZM57.3683 46.9958C57.6158 46.9958 57.8182 47.0801 57.9757 47.2488C58.1332 47.4063 58.2119 47.6088 58.2119 47.8562V55.1445C58.2119 55.3919 58.1332 55.6 57.9757 55.7687C57.8182 55.9262 57.6158 56.0049 57.3683 56.0049C57.1321 56.0049 56.9297 55.9262 56.761 55.7687C56.6035 55.6 56.5248 55.3919 56.5248 55.1445V53.9298L56.8791 53.9804C56.8791 54.1828 56.7947 54.4078 56.626 54.6552C56.4685 54.9026 56.2492 55.1445 55.968 55.3807C55.6869 55.6056 55.3551 55.7968 54.9727 55.9543C54.5902 56.1005 54.1797 56.1736 53.7411 56.1736C52.965 56.1736 52.2677 55.9768 51.6491 55.5831C51.0305 55.1782 50.5412 54.6271 50.1813 53.9298C49.8214 53.2324 49.6414 52.4395 49.6414 51.5509C49.6414 50.6399 49.8214 49.8413 50.1813 49.1553C50.5412 48.4579 51.0248 47.9124 51.6322 47.5188C52.2508 47.1251 52.9369 46.9283 53.6905 46.9283C54.1741 46.9283 54.6184 47.007 55.0233 47.1645C55.4394 47.3219 55.7993 47.5244 56.103 47.7718C56.4067 48.0193 56.6373 48.2836 56.7947 48.5648C56.9634 48.8347 57.0478 49.0934 57.0478 49.3408L56.5248 49.3915V47.8562C56.5248 47.62 56.6035 47.4176 56.761 47.2488C56.9297 47.0801 57.1321 46.9958 57.3683 46.9958ZM53.9267 54.6215C54.4553 54.6215 54.922 54.4865 55.3269 54.2166C55.7318 53.9466 56.0468 53.5811 56.2717 53.1199C56.4967 52.6476 56.6091 52.1246 56.6091 51.5509C56.6091 50.9661 56.4967 50.4431 56.2717 49.9819C56.0468 49.5208 55.7318 49.1553 55.3269 48.8853C54.922 48.6154 54.4553 48.4804 53.9267 48.4804C53.4093 48.4804 52.9481 48.6154 52.5432 48.8853C52.1496 49.1553 51.8347 49.5208 51.5985 49.9819C51.3735 50.4431 51.261 50.9661 51.261 51.5509C51.261 52.1246 51.3735 52.6476 51.5985 53.1199C51.8347 53.5811 52.1496 53.9466 52.5432 54.2166C52.9481 54.4865 53.4093 54.6215 53.9267 54.6215ZM65.1474 46.9283C65.946 46.9283 66.5646 47.097 67.0032 47.4344C67.4419 47.7606 67.7456 48.2049 67.9143 48.7672C68.0942 49.3183 68.1842 49.937 68.1842 50.623V55.1445C68.1842 55.3919 68.0999 55.6 67.9312 55.7687C67.7737 55.9262 67.5769 56.0049 67.3407 56.0049C67.0932 56.0049 66.8908 55.9262 66.7333 55.7687C66.5758 55.6 66.4971 55.3919 66.4971 55.1445V50.6399C66.4971 50.235 66.4409 49.8751 66.3284 49.5602C66.2159 49.234 66.0191 48.9753 65.7379 48.7841C65.468 48.5816 65.0856 48.4804 64.5907 48.4804C64.1296 48.4804 63.7247 48.5816 63.376 48.7841C63.0273 48.9753 62.7518 49.234 62.5493 49.5602C62.3581 49.8751 62.2625 50.235 62.2625 50.6399V55.1445C62.2625 55.3919 62.1781 55.6 62.0094 55.7687C61.852 55.9262 61.6551 56.0049 61.419 56.0049C61.1715 56.0049 60.9691 55.9262 60.8116 55.7687C60.6541 55.6 60.5754 55.3919 60.5754 55.1445V47.9912C60.5754 47.7437 60.6541 47.5413 60.8116 47.3838C60.9691 47.2151 61.1715 47.1307 61.419 47.1307C61.6551 47.1307 61.852 47.2151 62.0094 47.3838C62.1781 47.5413 62.2625 47.7437 62.2625 47.9912V48.9359L61.9588 49.1046C62.0376 48.8572 62.1725 48.6098 62.3637 48.3623C62.5662 48.1036 62.808 47.8674 63.0892 47.6537C63.3704 47.4288 63.6853 47.2545 64.034 47.1307C64.3826 46.9958 64.7538 46.9283 65.1474 46.9283Z" fill="#1164B4"/>
</svg>
