<svg width="33" height="32" viewBox="0 0 33 32" fill="none" xmlns="http://www.w3.org/2000/svg">
<path d="M3.16602 25.3334V16.8334C3.16602 16.2779 3.27713 15.7556 3.49935 15.2667C3.72157 14.7779 4.0549 14.3779 4.49935 14.0667V10.2001C4.49935 9.20008 4.83824 8.36119 5.51602 7.68341C6.19379 7.00564 7.03268 6.66675 8.03268 6.66675H14.0327C14.5216 6.66675 14.9771 6.77786 15.3993 7.00008C15.8216 7.2223 16.1882 7.5223 16.4993 7.90008C16.8105 7.5223 17.1716 7.2223 17.5827 7.00008C17.9938 6.77786 18.4438 6.66675 18.9327 6.66675H24.9327C25.9327 6.66675 26.7771 7.00564 27.466 7.68341C28.1549 8.36119 28.4993 9.20008 28.4993 10.2001V14.0667C28.9438 14.3779 29.2771 14.7779 29.4993 15.2667C29.7216 15.7556 29.8327 16.2779 29.8327 16.8334V25.3334H27.8327V22.6667H5.16602V25.3334H3.16602ZM17.4993 13.5001H26.4993V10.2001C26.4993 9.75564 26.3493 9.38897 26.0494 9.10008C25.7493 8.81119 25.3771 8.66675 24.9327 8.66675H18.8327C18.4549 8.66675 18.1382 8.8223 17.8827 9.13341C17.6271 9.44453 17.4993 9.80008 17.4993 10.2001V13.5001ZM6.49935 13.5001H15.4993V10.2001C15.4993 9.80008 15.3716 9.44453 15.116 9.13341C14.8605 8.8223 14.5438 8.66675 14.166 8.66675H8.03268C7.61046 8.66675 7.24935 8.81675 6.94935 9.11675C6.64935 9.41675 6.49935 9.77786 6.49935 10.2001V13.5001ZM5.16602 20.6667H27.8327V16.8334C27.8327 16.4556 27.7049 16.139 27.4494 15.8834C27.1938 15.6279 26.8771 15.5001 26.4993 15.5001H6.49935C6.12157 15.5001 5.8049 15.6279 5.54935 15.8834C5.29379 16.139 5.16602 16.4556 5.16602 16.8334V20.6667Z" fill="white"/>
</svg>
