<svg width="33" height="32" viewBox="0 0 33 32" fill="none" xmlns="http://www.w3.org/2000/svg">
<path d="M7.16667 25.2001V27.0001C7.16667 27.2834 7.07083 27.5209 6.87917 27.7126C6.6875 27.9042 6.45 28.0001 6.16667 28.0001H5.5C5.21667 28.0001 4.97917 27.9042 4.7875 27.7126C4.59583 27.5209 4.5 27.2834 4.5 27.0001V16.2001L7.33333 7.66675C7.44444 7.35564 7.62778 7.11119 7.88333 6.93341C8.13889 6.75564 8.43333 6.66675 8.76667 6.66675H24.2333C24.5667 6.66675 24.8611 6.75564 25.1167 6.93341C25.3722 7.11119 25.5556 7.35564 25.6667 7.66675L28.5 16.2001V27.0001C28.5 27.2834 28.4042 27.5209 28.2125 27.7126C28.0208 27.9042 27.7833 28.0001 27.5 28.0001H26.8C26.5111 28.0001 26.2778 27.9042 26.1 27.7126C25.9222 27.5209 25.8333 27.2834 25.8333 27.0001V25.2001H7.16667ZM7.26667 14.2001H25.7333L23.9 8.66675H9.1L7.26667 14.2001ZM10.0255 21.5334C10.5418 21.5334 10.9722 21.3584 11.3167 21.0084C11.6611 20.6584 11.8333 20.2334 11.8333 19.7334C11.8333 19.2149 11.6583 18.7742 11.3083 18.4112C10.9583 18.0482 10.5333 17.8667 10.0333 17.8667C9.51482 17.8667 9.07408 18.0475 8.7111 18.4089C8.34814 18.7703 8.16667 19.2092 8.16667 19.7256C8.16667 20.2419 8.34739 20.6723 8.70883 21.0167C9.07026 21.3612 9.50915 21.5334 10.0255 21.5334ZM23 21.5334C23.5185 21.5334 23.9593 21.3584 24.3222 21.0084C24.6852 20.6584 24.8667 20.2334 24.8667 19.7334C24.8667 19.2149 24.6859 18.7742 24.3245 18.4112C23.9631 18.0482 23.5242 17.8667 23.0078 17.8667C22.4915 17.8667 22.0611 18.0475 21.7167 18.4089C21.3722 18.7703 21.2 19.2092 21.2 19.7256C21.2 20.2419 21.375 20.6723 21.725 21.0167C22.075 21.3612 22.5 21.5334 23 21.5334ZM6.5 23.2001H26.5V16.2001H6.5V23.2001Z" fill="white"/>
</svg>
