<svg width="60" height="60" viewBox="0 0 60 60" fill="none" xmlns="http://www.w3.org/2000/svg">
<g clip-path="url(#clip0_4673_26754)">
<path d="M15.0824 5.39063C7.23086 8.34375 0.703515 10.8516 0.56289 10.9688C-0.0347667 11.5195 0.000389542 10.5117 0.000389542 30.0234C0.000389542 47.8594 0.000389546 48.2344 0.234765 48.5977C0.351952 48.8086 0.574608 49.0547 0.726952 49.1484C0.879296 49.2422 7.40664 51.7266 15.2465 54.6562C26.3324 58.8164 29.6137 60 30.0238 60C30.434 60 33.7035 58.8164 44.7777 54.6562C52.6059 51.7266 59.1215 49.2422 59.2738 49.1484C59.4262 49.0547 59.6488 48.8086 59.766 48.5977C60.0004 48.2344 60.0004 47.8594 60.0004 30C60.0004 12.1406 60.0004 11.7656 59.766 11.4023C59.6488 11.1914 59.4262 10.9453 59.2738 10.8516C59.1215 10.7578 52.5941 8.27344 44.7543 5.34375C32.6723 0.808598 30.4223 3.8147e-06 29.9301 0.0117226C29.473 0.0234413 26.391 1.13672 15.0824 5.39063ZM28.1254 6.89063V9.32813L28.0434 4.46485L2 14L3.6918 18.4922L3.65664 16.0899C3.64492 14.7656 3.64492 13.6524 3.66836 13.6289C3.72695 13.582 27.9027 4.48829 28.0434 4.46485C28.0902 4.45313 28.1254 5.55469 28.1254 6.89063ZM44.1098 9.01172C50.8012 11.5195 56.2855 13.5938 56.3207 13.6289C56.3441 13.6524 56.3559 14.7656 56.3441 16.0899L56.309 18.4922L57 13.3945L44 8.00001L31 2.50001L31.8754 6.89063C31.8754 5.55469 31.8988 4.45313 31.9105 4.45313C31.934 4.45313 37.4301 6.50391 44.1098 9.01172ZM28.1254 24.5274V35.8008L16.266 40.2422C9.73867 42.6914 4.21914 44.7656 4.0082 44.8477L3.6332 45V33.7266V22.4414L15.8559 17.8477C22.5707 15.3281 28.0785 13.2539 28.1019 13.2539C28.1137 13.2422 28.1254 18.3164 28.1254 24.5274ZM44.5082 18L56.3676 22.4414V33.7148V45L55.8168 44.7773C55.5004 44.6602 53.9535 44.0742 52.3598 43.4766L49.4535 42.3867V33.5273C49.4535 25.1016 49.4418 24.6445 49.2309 24.2578C49.1137 24.0352 48.8559 23.7539 48.6684 23.6367C48.4809 23.5313 46.2777 22.6758 43.7934 21.7383C38.9535 19.9219 38.5902 19.8399 37.8871 20.2734C37.0434 20.7774 37.1019 20.2148 37.0316 29.4258L36.973 37.7109L34.4301 36.7617L31.8754 35.8008V24.5274V13.2422L32.2621 13.3945C32.4613 13.4766 37.9809 15.5508 44.5082 18ZM42 42H47.5L45.8207 33.7266C45.8207 40.6406 45.809 41.0391 45.6215 40.957C45.5043 40.9102 44.3441 40.4766 43.0434 39.9844L40.6644 39.1055V31.793V24.4922L38.5 38C38.8984 38.1523 40.9805 41.625 42 42ZM30.0004 57.5C36.2113 59.832 52.6527 47.5195 52.7816 47.5664C52.934 47.625 49.4887 48.9727 41.4965 51.9609L30.0004 56.2852L18.4926 51.9609C12.1644 49.5938 7.04336 47.6367 7.10195 47.6133C7.16055 47.5898 23.7543 59.8555 30.0004 57.5C36.2582 55.1562 29.9887 56.2969 30.0004 56.2852C30.0238 56.2852 23.8012 55.168 30.0004 57.5Z" fill="#1164B4"/>
<path d="M15.1289 23.0273C11.1094 24.5391 7.71094 25.875 7.58203 25.9805C7.03125 26.4844 7.03125 26.5312 7.03125 31.7812C7.03125 36.5156 7.04297 36.75 7.26562 37.125C7.58203 37.6406 8.15625 37.9688 8.76562 37.9688C9.12891 37.9688 11.2031 37.2422 16.5 35.2617C20.4727 33.7734 23.8477 32.4844 24 32.3906C24.1523 32.2969 24.375 32.0508 24.4922 31.8398C24.7148 31.4883 24.7266 31.2188 24.7266 26.4844C24.7266 21.7266 24.7148 21.4922 24.4922 21.1172C24.1641 20.5898 23.6016 20.2734 22.9688 20.2734C22.5703 20.2734 20.6602 20.9414 15.1289 23.0273ZM21.0938 27.1758V29.625L17.5 32.5C13.5 31.5 10.9805 33.4102 10.875 33.457C10.6758 33.5391 10.6641 33.375 10.6641 31.0781L9.5 34.5L17.5 32.5C20.3125 31.4336 22.5039 30.625 22.4219 25.7383C22.5039 30.625 21.0938 25.8281 21.0938 27.1758Z" fill="#1164B4"/>
</g>
<defs>
<clipPath id="clip0_4673_26754">
<rect width="60" height="60" fill="white"/>
</clipPath>
</defs>
</svg>
