<svg width="24" height="19" viewBox="0 0 24 19" fill="none" xmlns="http://www.w3.org/2000/svg">
<g id="Black">
<path id="Vector" d="M17.9341 0.856188C17.6669 0.954626 17.4559 1.12806 17.3106 1.38119L17.1794 1.6015L17.1653 4.13275C17.1513 6.95931 17.1419 6.89369 17.4794 7.264C17.7888 7.61088 17.9294 7.64369 19.0872 7.66244L20.1091 7.68119L20.1184 12.7578L20.1325 17.8343L20.245 17.9562C20.3856 18.1015 20.5872 18.1531 20.77 18.0781C21.0606 17.9562 21.0466 18.2374 21.0466 12.7156V7.68119L22.0684 7.66244C23.2169 7.64369 23.3575 7.61088 23.6856 7.27338C24.0138 6.93588 24.0044 7.00619 23.9903 4.13275C23.9763 1.6765 23.9716 1.54994 23.8872 1.414C23.7325 1.17963 23.5638 1.01088 23.3669 0.907751C23.1841 0.804626 23.1419 0.804626 20.6481 0.79525C18.5341 0.785875 18.0888 0.79525 17.9341 0.856188ZM21.2481 2.22963C21.7778 2.36088 22.1247 2.8015 22.1622 3.38275C22.1997 3.97338 21.9513 4.44681 21.4778 4.6765C21.295 4.76556 21.1591 4.78431 20.6481 4.80306C20.3153 4.81244 20.0013 4.84056 19.9591 4.864C19.8841 4.90619 19.8747 4.98588 19.8747 5.52963C19.8747 5.9515 19.8559 6.17181 19.8184 6.20931C19.7856 6.24213 19.6263 6.26556 19.42 6.26556C19.1341 6.26556 19.0731 6.2515 19.0309 6.1765C19.0028 6.11556 18.9841 5.41244 18.9841 4.20775C18.9841 2.3515 18.9841 2.32806 19.0825 2.22963C19.1809 2.13119 19.2091 2.1265 20.1278 2.15463C20.6481 2.16869 21.1497 2.2015 21.2481 2.22963Z" fill="black"/>
<path id="Vector_2" d="M19.9078 2.92302C19.8891 2.93708 19.875 3.19021 19.875 3.47614C19.875 4.13708 19.8703 4.13239 20.4375 4.09489C21.1359 4.04333 21.2859 3.93552 21.2859 3.47614C21.2859 2.99802 21.1266 2.89021 20.4 2.89021C20.1469 2.89021 19.9219 2.90427 19.9078 2.92302Z" fill="black"/>
<path id="Vector_3" d="M4.09219 4.78906C3.73594 4.8875 3.51563 5.00937 3.225 5.27656C2.90625 5.56719 2.82656 5.71719 2.29688 7.01562C2.05781 7.59687 1.85156 8.08437 1.83281 8.10312C1.81875 8.12187 1.61719 8.07969 1.38281 8.01406C0.642188 7.80312 0.365625 7.85 0.103125 8.23438C0.009375 8.37031 0 8.44531 0 8.92344C0 9.5 0.05625 9.69219 0.290625 9.90781C0.426563 10.0344 0.707813 10.1562 0.871875 10.1562C0.970313 10.1562 0.989063 10.175 0.960938 10.2359C0.834375 10.5594 0.646875 11.1922 0.557813 11.5859C0.459375 12.0312 0.454688 12.1766 0.435938 14.6844C0.421875 16.5312 0.43125 17.375 0.46875 17.5109C0.534375 17.7547 0.764063 18.0219 1.00781 18.1297C1.16719 18.2047 1.32188 18.2188 2.01562 18.2188C2.94375 18.2188 3.09375 18.1766 3.36094 17.8766C3.54844 17.6609 3.60938 17.375 3.60938 16.6953V16.1562H8.87813H14.1516L14.1656 16.8781C14.1797 17.5953 14.1797 17.6047 14.3203 17.8016C14.4 17.9094 14.5547 18.05 14.6719 18.1109C14.8781 18.2188 14.9109 18.2234 15.7828 18.2094L16.6781 18.1953L16.8844 18.0547C17.0016 17.9703 17.1281 17.825 17.1938 17.7031L17.2969 17.4969V14.8906C17.2969 11.9422 17.2781 11.7172 16.9266 10.6906L16.7531 10.1656L16.9594 10.1422C17.2313 10.1141 17.5172 9.90781 17.6578 9.64531C17.7516 9.46719 17.7656 9.36875 17.7656 8.95156C17.7656 8.38906 17.7094 8.20625 17.4797 8.0375C17.2359 7.85469 17.0484 7.84062 16.5188 7.97656C16.2656 8.04219 16.0219 8.10781 15.9797 8.12187C15.9188 8.14062 15.8063 7.90625 15.4219 6.96875C15.1547 6.32187 14.8781 5.69844 14.8031 5.58594C14.625 5.31875 14.325 5.07969 13.9359 4.89219L13.6172 4.74219L8.97656 4.73281C5.08594 4.72344 4.29844 4.73281 4.09219 4.78906ZM13.1953 5.6375C13.6266 5.87187 13.6641 5.9375 14.4469 7.84062C14.85 8.82031 15.1969 9.67812 15.2109 9.74844C15.2625 9.94531 15.2016 10.1047 15.0328 10.2031C14.8875 10.2969 14.7656 10.2969 8.86875 10.2969C2.20781 10.2969 2.63906 10.3156 2.53125 9.99219C2.47031 9.80937 2.45625 9.85625 3.52969 7.25469C4.10156 5.88125 4.21406 5.71719 4.73438 5.55781C4.8 5.53906 6.68906 5.525 8.92969 5.52969C13.0031 5.53906 13.0078 5.53906 13.1953 5.6375ZM5.53594 12.4484C5.61563 12.5469 5.625 12.6406 5.625 13.325C5.625 14.0281 5.61563 14.1031 5.53125 14.1875C5.47969 14.2391 5.39062 14.2906 5.33438 14.3047C5.27344 14.3187 4.60781 14.3281 3.85781 14.3187C2.13281 14.3 2.27813 14.3844 2.25938 13.3766C2.24531 12.6078 2.27344 12.4812 2.48438 12.3734C2.57344 12.3266 2.94375 12.3125 4.02188 12.3219L5.44688 12.3359L5.53594 12.4484ZM15.3375 12.4437C15.4406 12.5469 15.4453 12.5797 15.4453 13.3203C15.4453 14.3984 15.6 14.3 13.8328 14.3187C12.9516 14.3281 12.3891 14.3141 12.3094 14.2812C12.0891 14.1969 12.0375 13.9812 12.0563 13.2266C12.0703 12.5281 12.0984 12.4437 12.3047 12.3547C12.3563 12.3359 13.0359 12.3219 13.8141 12.3266C15.2203 12.3359 15.2344 12.3359 15.3375 12.4437Z" fill="black"/>
</g>
</svg>
