<svg width="24" height="25" viewBox="0 0 24 25" fill="none" xmlns="http://www.w3.org/2000/svg">
<g id="Black">
<path id="Vector" d="M6.04705 1.04392C5.90643 1.08142 5.62049 1.19392 5.41424 1.29705C4.75799 1.62049 4.30799 2.07049 3.98455 2.72674C3.63768 3.42986 3.65643 3.0408 3.65643 9.16736V14.6705L3.77362 14.872C3.94705 15.1674 4.21893 15.3127 4.59393 15.3127C4.96893 15.3127 5.2408 15.1674 5.41424 14.872C5.52674 14.6799 5.53143 14.647 5.53143 13.822V12.9689H9.75018H13.9689V13.822C13.9689 14.647 13.9736 14.6799 14.0861 14.872C14.4283 15.4533 15.3564 15.472 15.7127 14.9049L15.8205 14.7267L15.8439 9.31267L15.8674 3.89861L15.9752 3.66424C16.2049 3.16736 16.6267 2.8908 17.1564 2.8908C17.8689 2.8908 18.3611 3.3783 18.4455 4.15642C18.5111 4.7658 18.8486 5.09392 19.4064 5.09392C19.7814 5.09392 20.0533 4.94861 20.2267 4.6533C20.3252 4.47986 20.3439 4.39548 20.3439 4.05799C20.3439 3.5658 20.2549 3.21424 20.0158 2.72674C19.6924 2.07049 19.2424 1.62049 18.5861 1.29705C18.0752 1.04392 17.7471 0.968923 17.1564 0.968923C16.5658 0.968923 16.2377 1.04392 15.7267 1.29705C15.0705 1.62049 14.6205 2.07049 14.2971 2.72674C13.983 3.36423 13.9689 3.46267 13.9689 5.26736V6.87517H9.74549H5.52205L5.5408 5.38455C5.55487 3.95017 5.55955 3.88924 5.66268 3.66424C5.89237 3.16736 6.31424 2.8908 6.84393 2.8908C7.55643 2.8908 8.04862 3.37361 8.13299 4.15642C8.19862 4.7658 8.53612 5.09392 9.09393 5.09392C9.46893 5.09392 9.7408 4.94861 9.91424 4.6533C10.0127 4.47986 10.0314 4.39548 10.0314 4.05799C10.0314 3.5658 9.94237 3.21424 9.7033 2.72674C9.37987 2.07049 8.92987 1.62049 8.27362 1.29705C8.06737 1.19392 7.77205 1.07674 7.61737 1.03924C7.2658 0.950172 6.39393 0.950172 6.04705 1.04392ZM13.9689 9.92205V11.0939H9.75018H5.53143V9.92205V8.75017H9.75018H13.9689V9.92205Z" fill="black"/>
<path id="Vector_2" d="M0.435938 16.3722C0.140625 16.5457 0 16.8175 0 17.1972C0 17.4785 0.01875 17.53 0.1875 17.7878C0.407813 18.116 0.946875 18.641 1.32188 18.8847C2.25938 19.5082 3.34219 19.8128 4.61719 19.8128C5.93438 19.8128 7.00781 19.5082 7.95 18.866L8.325 18.6082L8.46563 18.7207C8.91094 19.0863 9.70312 19.4519 10.4813 19.6582C10.9641 19.7847 11.0438 19.7894 12 19.7894C12.9563 19.7894 13.0359 19.7847 13.5141 19.6582C14.3109 19.4472 14.9719 19.1472 15.4688 18.7722L15.675 18.6082L16.0359 18.8566C16.7109 19.316 17.4328 19.5972 18.3188 19.7425C19.0828 19.8691 20.2359 19.8222 20.9625 19.6347C21.5484 19.4847 22.2234 19.1894 22.6734 18.8894C23.0531 18.641 23.5922 18.1207 23.8125 17.7878C23.9813 17.53 24 17.4785 24 17.1972C24 16.6113 23.6438 16.2503 23.0625 16.2503C22.6969 16.2503 22.4438 16.3816 22.2375 16.6769C22.0359 16.9675 21.6094 17.3003 21.1734 17.5113C20.5406 17.816 20.2922 17.8675 19.3828 17.8675C18.6891 17.8675 18.5391 17.8535 18.2156 17.7597C17.5406 17.5675 17.1422 17.3238 16.6406 16.8082C16.3969 16.555 16.1344 16.3253 16.0641 16.3019C15.8484 16.2175 15.4406 16.241 15.2438 16.3394C15.15 16.391 14.9156 16.6019 14.7281 16.8082C14.0531 17.5535 13.1953 17.891 11.9766 17.891C11.3719 17.891 10.9453 17.816 10.4203 17.6097C9.92813 17.4222 9.63281 17.216 9.25313 16.7894C9.075 16.5925 8.85 16.391 8.75625 16.3394C8.55938 16.241 8.15156 16.2175 7.93594 16.3019C7.86563 16.3253 7.60313 16.555 7.35938 16.8082C6.85781 17.3238 6.45938 17.5675 5.78438 17.7597C5.46094 17.8535 5.31094 17.8675 4.61719 17.8675C3.70781 17.8675 3.45938 17.816 2.82656 17.5113C2.39062 17.3003 1.96406 16.9675 1.7625 16.6769C1.55625 16.3816 1.30313 16.2503 0.932813 16.2503C0.69375 16.2503 0.590625 16.2738 0.435938 16.3722Z" fill="black"/>
<path id="Vector_3" d="M0.745313 20.4691C0.496875 20.5113 0.248438 20.6847 0.117188 20.9097C0.0234375 21.0691 0 21.1722 0 21.416C0 21.6972 0.01875 21.7488 0.1875 22.0066C0.407813 22.3347 0.946875 22.8597 1.32188 23.1035C2.25938 23.7269 3.34219 24.0316 4.61719 24.0316C5.93906 24.0316 7.00313 23.7269 7.96406 23.0753L8.325 22.8269L8.46563 22.9394C8.90625 23.3003 9.69844 23.6707 10.4578 23.8675C11.1141 24.041 12.3469 24.0832 13.0594 23.966C13.9266 23.816 14.8922 23.4316 15.45 23.005L15.675 22.8269L16.0359 23.0753C16.7109 23.5347 17.4328 23.816 18.3188 23.9613C19.0828 24.0878 20.2359 24.041 20.9625 23.8535C21.5484 23.7035 22.2234 23.4082 22.6734 23.1082C23.0531 22.8597 23.5922 22.3394 23.8125 22.0066C23.9813 21.7488 24 21.6972 24 21.416C24 20.8347 23.6297 20.4597 23.0625 20.4644C22.7063 20.4644 22.4531 20.6003 22.2188 20.9144C21.8719 21.3832 21.1781 21.8097 20.4609 22.0019C19.95 22.1332 18.7172 22.1238 18.2156 21.9785C17.5406 21.7863 17.1422 21.5425 16.6406 21.0269C16.3969 20.7738 16.1344 20.5441 16.0641 20.5207C15.8484 20.4363 15.4406 20.4597 15.2438 20.5582C15.15 20.6097 14.9156 20.8207 14.7281 21.0269C14.0531 21.7722 13.1953 22.1097 11.9766 22.1097C11.3719 22.1097 10.9453 22.0347 10.4203 21.8285C9.92813 21.641 9.63281 21.4347 9.25313 21.0082C9.075 20.8113 8.85 20.6097 8.75625 20.5582C8.55938 20.4597 8.15156 20.4363 7.93594 20.5207C7.86563 20.5441 7.60313 20.7738 7.35938 21.0269C6.8625 21.5378 6.45938 21.7816 5.8125 21.9691C5.31094 22.1144 4.28906 22.1519 3.74531 22.0394C2.95312 21.88 2.19844 21.4535 1.80469 20.9472C1.49063 20.5441 1.17188 20.3988 0.745313 20.4691Z" fill="black"/>
</g>
</svg>
