<svg width="50" height="46" viewBox="0 0 50 46" fill="none" xmlns="http://www.w3.org/2000/svg">
<g id="Black">
<path id="Vector" d="M36.1714 0.784143C33.7788 1.21383 31.728 2.29782 29.9702 4.04586C27.9487 6.07711 26.7768 8.61617 26.5815 11.3505C26.3276 15.0127 27.4702 18.1572 29.9702 20.667C31.5132 22.2002 33.2612 23.206 35.3511 23.7529C36.6108 24.0849 38.9643 24.1728 40.3218 23.9384C45.1655 23.0986 49.0132 19.2705 49.853 14.4658C50.0386 13.3623 50.0386 11.3505 49.853 10.247C49.0132 5.47164 45.1655 1.62399 40.3901 0.784143C39.3452 0.608362 37.1577 0.598597 36.1714 0.784143ZM39.0034 5.12008C39.4136 5.39352 39.6479 5.80367 39.6479 6.26266V6.67282L40.2339 6.88766C40.9761 7.1611 41.5425 7.57125 41.7573 7.97164C41.9819 8.4111 41.9038 9.15328 41.5913 9.48532C41.0347 10.0908 40.4585 10.1494 39.6479 9.71969C39.189 9.47555 39.0034 9.42672 38.3979 9.42672C37.4116 9.42672 36.6206 9.77828 36.6206 10.2177C36.6206 10.4912 37.0307 10.6474 38.6128 10.9892C40.7026 11.4384 41.5522 11.8193 42.1382 12.6006C43.5347 14.417 42.5679 16.9463 40.1655 17.7861L39.6479 17.9716V18.4111C39.6479 19.4853 38.4565 20.1494 37.5288 19.583C37.1675 19.3681 37.021 19.124 36.8745 18.4795C36.7671 18.0205 36.7475 18.0009 36.1909 17.7763C35.5464 17.5127 34.98 17.0927 34.7847 16.7412C34.5893 16.3701 34.687 15.5302 34.9702 15.2275C35.5268 14.622 36.103 14.5634 36.9136 14.9931C37.3725 15.2373 37.5581 15.2861 38.1636 15.2861C39.1499 15.2861 39.9409 14.9345 39.9409 14.4951C39.9409 14.2216 39.5112 14.0556 37.9682 13.7334C37.187 13.5673 36.3179 13.3525 36.0249 13.2353C34.9604 12.8349 34.1304 11.9853 33.8765 11.038C33.7202 10.4619 33.8179 9.35836 34.0718 8.86032C34.5015 8.02047 35.3413 7.30758 36.3472 6.93649C36.7768 6.78024 36.7964 6.75094 36.8647 6.32125C36.9526 5.70602 37.1577 5.35446 37.5288 5.12985C37.939 4.87594 38.6323 4.87594 39.0034 5.12008Z" fill="#1164B4"/>
<path id="Vector_2" d="M12.8438 24.173C11.6914 24.3781 10.2656 24.8371 9.37695 25.2765L8.74219 25.589V33.8312V42.0734L14.8945 43.4699C18.2832 44.2414 21.6426 44.964 22.3652 45.0812C24.0254 45.3449 27.4727 45.4425 29.1719 45.2668C32.5605 44.925 35.8027 43.9582 38.9277 42.3468C40.1094 41.7414 41.252 40.9894 44.7773 38.5285C49.9727 34.8859 49.9824 34.8859 49.9922 33.255C50.002 32.3957 49.7578 31.7609 49.1816 31.175C48.5469 30.5304 48.127 30.3742 47.0723 30.3742C46.3496 30.3742 46.0664 30.4132 45.8125 30.5597C45.627 30.6574 43.6445 32.0246 41.418 33.5871C38.8594 35.3742 37.0625 36.5656 36.5742 36.7902C34.6504 37.6886 32.0625 37.9523 30.1289 37.4445C29.4648 37.2687 20.0508 34.1632 19.8359 34.0363C19.5039 33.8605 19.2402 33.3527 19.2402 32.8742C19.2402 32.0832 19.8066 31.4972 20.5684 31.4972C20.7637 31.4972 23.2344 32.2492 26.1152 33.1769C31.0664 34.7882 31.3398 34.8664 32.082 34.8664C32.9902 34.8664 33.5273 34.6515 34.1328 34.0558C35.4805 32.7277 35.1875 30.3449 33.5664 29.4074C32.9023 29.0265 18.3711 24.3195 17.2969 24.1339C16.0762 23.9289 14.1035 23.9386 12.8438 24.173Z" fill="#1164B4"/>
<path id="Vector_3" d="M0.644531 27.1895C0.498047 27.2871 0.283203 27.502 0.185547 27.6484C0.00976562 27.9219 0 28.2539 0 35.793C0 43.332 0.00976562 43.6641 0.185547 43.9375C0.595703 44.5527 0.722656 44.582 2.92969 44.582C5.13672 44.582 5.26367 44.5527 5.67383 43.9375C5.84961 43.6641 5.85938 43.3223 5.85938 35.3242V27.0039H3.39844C1.14258 27.0039 0.908203 27.0234 0.644531 27.1895Z" fill="#1164B4"/>
</g>
</svg>
