<svg width="48" height="48" viewBox="0 0 48 48" fill="none" xmlns="http://www.w3.org/2000/svg">
<g id="Black">
<path id="Vector" d="M40.3079 1.29791C39.8001 1.59088 39.302 1.92291 39.2141 2.0401C38.8333 2.49908 38.9114 2.67486 41.5384 7.3233C42.9153 9.75494 44.1262 11.8448 44.2434 11.962C44.5755 12.3233 45.0735 12.2647 46.0403 11.7374C47.2415 11.0831 47.4368 10.8878 47.4368 10.3995C47.4368 10.0479 47.0852 9.37408 44.8977 5.49713C43.4915 3.02643 42.2805 0.946347 42.1926 0.877988C41.8411 0.614316 41.2747 0.741269 40.3079 1.29791ZM45.4641 9.41315C45.9719 9.76471 45.4934 10.5655 44.9368 10.3116C44.5169 10.1163 44.5169 9.5694 44.927 9.37408C45.22 9.23736 45.2102 9.23736 45.4641 9.41315Z" fill="#1164B4"/>
<path id="Vector_2" d="M28.2385 3.67056C27.6428 3.88541 27.7112 3.83658 21.1682 7.86978C18.2971 9.64713 15.8655 11.1999 15.7678 11.3366C15.5237 11.6588 15.5237 12.4206 15.7776 12.7624C16.3928 13.5924 17.6233 13.3288 20.221 11.8151C24.635 9.2272 26.0217 8.45572 26.5393 8.27994C27.2424 8.04556 28.2971 8.02603 29.469 8.23111C30.2991 8.37759 33.7757 9.30533 34.0686 9.46158C34.2932 9.57877 34.4397 10.0378 34.3421 10.3014C34.303 10.4186 34.1565 10.5846 34.0198 10.6823C33.7757 10.8385 33.6975 10.819 31.9397 10.3405C29.1663 9.58853 29.2151 9.60806 28.7757 9.73502C28.0921 9.94009 27.8674 10.8385 28.3753 11.3756C28.5901 11.61 28.8342 11.7077 29.8108 11.9323C30.4553 12.0885 31.9983 12.567 33.2288 12.9967C35.2698 13.6999 35.5432 13.778 36.2561 13.7878C36.9495 13.7975 37.1155 13.7585 37.721 13.4753C38.5803 13.0651 41.969 11.112 41.969 11.0338C41.9592 10.9948 41.3147 9.82291 40.5237 8.42642L39.0784 5.88736L38.6389 5.82877C38.4046 5.7897 36.3831 5.27213 34.1565 4.66666C29.7034 3.47525 29.0784 3.36783 28.2385 3.67056Z" fill="#1164B4"/>
<path id="Vector_3" d="M23.6348 13.1606C22.0039 13.3461 20.3145 13.8539 18.9082 14.5961C18.0488 15.0453 17.8438 15.2699 17.8438 15.7582C17.8438 16.1 18.2539 16.4809 18.6152 16.4809C18.7715 16.4809 19.2891 16.2856 19.7676 16.0512C21.6523 15.1039 23.0488 14.7817 25.1191 14.7914C27.1211 14.8012 28.6445 15.1723 30.3633 16.0707C34.5332 18.2387 36.9355 22.5844 36.5742 27.2914C36.457 28.8149 35.8613 30.8461 35.2168 31.9106C35.0117 32.2328 35.002 32.2426 34.9238 32.0375C34.748 31.5688 33.9473 31.4614 33.5664 31.8617C33.3516 32.0864 33.3516 32.1449 33.3906 33.5024C33.4492 35.6703 33.5664 35.7485 35.5879 35.1821C36.9941 34.7817 37.2773 34.5961 37.2773 34.059C37.2773 33.6977 36.9355 33.2778 36.6328 33.2778C36.3984 33.2778 36.3984 33.268 36.877 32.3207C37.8438 30.3871 38.2637 28.5805 38.2637 26.3442C38.2637 24.7328 38.1074 23.6781 37.6582 22.2621C36.9941 20.2016 35.9883 18.5903 34.3574 16.9692C32.7266 15.3481 31.2227 14.4203 29.1523 13.7367C27.5215 13.2094 25.2656 12.9653 23.6348 13.1606Z" fill="#1164B4"/>
<path id="Vector_4" d="M24.0527 16.2684C23.2129 16.6688 22.7344 17.4501 22.7344 18.4169C22.7344 20.9071 26.0156 21.6395 27.1875 19.4129C27.3145 19.1786 27.373 18.8563 27.373 18.3778C27.373 17.7821 27.334 17.6258 27.0801 17.2157C26.9141 16.952 26.5918 16.6004 26.3574 16.4344C25.9961 16.1805 25.8398 16.1415 25.1953 16.1122C24.6191 16.0926 24.3555 16.1317 24.0527 16.2684Z" fill="#1164B4"/>
<path id="Vector_5" d="M14.5293 17.4961C13.9629 17.6719 13.4062 17.8379 13.2793 17.8867C12.5469 18.1309 12.7617 19.4102 13.5332 19.4102C13.6992 19.4102 13.6602 19.5176 13.25 20.3086C12.7129 21.373 12.2637 22.6621 12.0195 23.873C11.7852 25.0645 11.7852 27.623 12.0195 28.8145C12.3613 30.5039 13.0938 32.3203 13.9531 33.5898C14.4023 34.2441 14.4414 34.2734 14.9004 34.2734C15.3203 34.2734 15.7012 33.9023 15.7012 33.4922C15.7012 33.3457 15.4961 32.8965 15.2422 32.4961C13.7676 30.1328 13.1914 27.3691 13.6016 24.6543C13.7676 23.5605 14.2949 21.9004 14.7344 21.0605L15.0371 20.4941L15.2812 20.7871C15.4766 21.0215 15.5938 21.0703 15.9355 21.0703C16.2383 21.0703 16.4043 21.0117 16.541 20.8652C16.707 20.6797 16.7266 20.5137 16.6973 19.2734C16.668 17.7695 16.5898 17.4375 16.2285 17.2715C15.8867 17.1152 15.6914 17.1445 14.5293 17.4961Z" fill="#1164B4"/>
<path id="Vector_6" d="M19.0842 21.58C18.5471 21.7265 17.7951 22.4394 17.6096 22.996C17.3948 23.6113 17.4143 24.2558 17.6584 24.7831C17.9221 25.3691 18.1858 25.6425 18.7717 25.916C20.4416 26.707 22.258 25.4765 22.1213 23.6601C22.0627 22.957 21.8772 22.5761 21.3889 22.0976C20.8323 21.5507 19.9436 21.3554 19.0842 21.58Z" fill="#1164B4"/>
<path id="Vector_7" d="M29.6641 21.5488C28.5801 21.9004 27.9844 22.7207 27.9844 23.8535C27.9747 25.1719 28.9805 26.1484 30.3184 26.1484C31.6368 26.1387 32.6134 25.1719 32.6231 23.8535C32.6231 22.916 32.1739 22.1348 31.3927 21.7344C30.963 21.5195 30.0548 21.4219 29.6641 21.5488Z" fill="#1164B4"/>
<path id="Vector_8" d="M23.7265 21.8223C23.3261 21.9395 23.2187 22.0176 23.2577 22.1348C23.7362 23.6484 23.7167 24.332 23.1698 25.582C23.1015 25.748 23.2284 25.7578 25.0546 25.7578H27.0077L26.7636 25.1523C26.4511 24.3809 26.4315 23.4238 26.7147 22.584C26.8222 22.2617 26.9101 21.9883 26.8905 21.9785C26.8808 21.9687 26.6171 21.8906 26.2948 21.8027C25.5624 21.6172 24.4003 21.627 23.7265 21.8223Z" fill="#1164B4"/>
<path id="Vector_9" d="M19.0187 27.125C17.4171 27.418 16.1574 28.4434 15.5324 29.957C15.2687 30.6113 15.2492 30.8555 15.4835 31.0605C15.6496 31.207 16.089 31.2266 19.8195 31.2266C23.8136 31.2266 23.9796 31.2168 24.1457 31.0313C24.6242 30.5039 23.5597 28.5898 22.3585 27.8184C21.4308 27.2227 20.0343 26.9297 19.0187 27.125Z" fill="#1164B4"/>
<path id="Vector_10" d="M29.3097 27.1738C28.4796 27.3496 27.7667 27.7402 27.1026 28.375C26.1163 29.3125 25.5304 30.8457 26.0382 31.1289C26.1651 31.1875 27.6788 31.2266 30.296 31.2266C32.9132 31.2266 34.4269 31.1875 34.5538 31.1289C35.0616 30.8457 34.4757 29.3125 33.4894 28.375C32.8155 27.7305 32.1124 27.3496 31.2335 27.1641C30.4523 26.998 30.0909 26.998 29.3097 27.1738Z" fill="#1164B4"/>
<path id="Vector_11" d="M10.6873 34.3539C10.2186 34.5199 6.34161 36.6586 6.0877 36.893C6.04864 36.9418 6.66387 38.1332 7.46465 39.5492C8.86114 42.0199 8.9295 42.1176 9.23223 42.1469C9.40801 42.1664 11.4295 42.684 13.7244 43.309C17.4158 44.3149 17.992 44.4418 18.7244 44.4516C19.4666 44.4613 19.6229 44.4321 20.1893 44.1488C21.2244 43.6508 32.035 36.9321 32.2303 36.6781C32.4744 36.3461 32.4744 35.5844 32.2205 35.2426C31.8201 34.7055 31.0486 34.6567 29.8865 35.0961C29.5447 35.2231 28.0701 36.0238 26.6053 36.8735C22.2986 39.393 22.0643 39.5199 21.4588 39.725C20.7459 39.9692 19.6619 39.9789 18.5193 39.7738C17.66 39.6176 14.2029 38.6899 13.9295 38.5434C13.7049 38.4262 13.5584 37.9672 13.6561 37.7035C13.6951 37.5863 13.8416 37.4203 13.9783 37.3227C14.2225 37.1664 14.3006 37.186 16.0584 37.6645C18.8318 38.4164 18.783 38.3969 19.2225 38.2699C19.9061 38.0649 20.1307 37.1664 19.6326 36.6293C19.408 36.3949 19.1639 36.2973 18.1873 36.0727C17.5428 35.9164 16.0096 35.4477 14.7693 35.018C12.1717 34.1196 11.5955 34.0317 10.6873 34.3539Z" fill="#1164B4"/>
<path id="Vector_12" d="M1.88086 36.3164C0.71875 36.9609 0.5625 37.1171 0.5625 37.6152C0.5625 37.9374 0.953125 38.6894 3.08203 42.4492C4.45898 44.9003 5.66992 46.9804 5.76758 47.0683C6.08984 47.4003 6.63672 47.2929 7.70117 46.6972C8.23828 46.3945 8.73633 46.0527 8.81445 45.9453C9.14648 45.4667 9.05859 45.2714 6.46094 40.6816C5.08398 38.2499 3.87305 36.1601 3.75586 36.0332C3.41406 35.6621 2.90625 35.7402 1.88086 36.3164ZM3.3457 37.9863C3.44336 38.2597 3.31641 38.5136 3.04297 38.6406C2.65234 38.8164 2.30078 38.5527 2.33984 38.1328C2.38867 37.5761 3.18945 37.4589 3.3457 37.9863Z" fill="#1164B4"/>
</g>
</svg>
