<svg width="40" height="50" viewBox="0 0 40 50" fill="none" xmlns="http://www.w3.org/2000/svg">
<g id="Black">
<path id="Vector" d="M23.7589 0.147945C21.6202 0.733883 19.9112 2.55029 19.4523 4.69873C19.2569 5.62646 19.3253 6.5542 19.6573 7.56982C20.0187 8.6538 21.3956 11.4175 23.0167 14.3081C25.0187 17.8823 24.8136 17.5796 25.253 17.5796C25.7218 17.5796 25.8487 17.4429 26.5421 16.2124C26.8253 15.7046 27.5675 14.3862 28.1827 13.2827C30.214 9.67919 31.171 7.4624 31.2882 6.12451C31.3663 5.28466 31.1222 4.22998 30.6339 3.23388C29.9015 1.74951 28.4464 0.577633 26.8351 0.147945C26.1612 -0.0278358 24.423 -0.0278358 23.7589 0.147945ZM26.6007 3.35107C27.587 3.84912 28.1437 4.78662 28.1437 5.90966C28.1437 7.88232 26.3175 9.22998 24.4327 8.63427C23.6808 8.3999 22.8507 7.60888 22.6066 6.89599C22.1183 5.45068 22.753 3.97607 24.1495 3.30224C24.6671 3.04834 24.8136 3.01904 25.4191 3.0581C25.9073 3.0874 26.2491 3.16552 26.6007 3.35107Z" fill="#1164B4"/>
<path id="Vector_2" d="M22.5352 16.9545C21.666 17.4428 21.2656 18.0287 21.2656 18.8002C21.2656 19.4936 21.7734 20.2846 22.4863 20.685C22.623 20.7533 21.5684 22.0717 16.0801 28.6342C10.7188 35.0307 9.45898 36.476 9.29297 36.4467C9.13672 36.4174 9.00977 36.5541 8.63867 37.1889C8.0625 38.1947 7.71094 38.4291 6.80273 38.4291C5.92383 38.4291 5.47461 38.1264 4.9375 37.14C4.72266 36.7494 4.50781 36.4272 4.45898 36.4272C4.22461 36.4272 3.58984 36.8373 3.26758 37.1986C2.95508 37.5502 2.71094 38.0971 2.71094 38.4779C2.71094 39.2201 3.31641 40.0014 4.21484 40.4213C5.07422 40.8217 5.75781 40.9682 6.86133 40.9682C7.71094 40.9682 7.97461 40.9193 8.81445 40.6459L9.79102 40.3236L16.8711 42.8725C20.7676 44.2787 25.123 45.851 26.5684 46.3686L29.1758 47.3061V47.7065C29.1758 48.4975 29.957 49.2787 31.1777 49.7182C31.8809 49.9721 33.668 50.0795 34.4199 49.9233C35.7383 49.64 36.8516 48.9174 37.0859 48.185C37.2812 47.6088 37.1641 46.8373 36.8223 46.4076C36.5684 46.0854 35.6992 45.4115 35.5332 45.4115C35.5039 45.4115 35.3086 45.7045 35.1133 46.0756C34.7031 46.8275 34.3516 47.1986 33.8438 47.4037C33.3848 47.599 32.9746 47.599 32.5156 47.4037C32.0078 47.1889 31.6562 46.8275 31.2461 46.0756C31.0508 45.7045 30.8652 45.4115 30.8359 45.4115C30.8066 45.4115 30.5625 45.5483 30.3086 45.7045L29.8398 46.0072L20.2988 42.5697L10.7676 39.142L10.8066 38.644C10.8262 38.3705 10.7871 37.9897 10.7285 37.7846L10.6211 37.4135L17.3789 29.3275L24.1465 21.2416L24.7324 21.3002C26.4023 21.4662 28.2969 20.851 28.9707 19.9135C29.7031 18.9076 29.332 17.6283 28.1211 16.9643L27.6328 16.7006L27.1836 17.4818C26.5879 18.5072 26.1777 18.8002 25.3086 18.8002C24.4785 18.8002 24.0098 18.4682 23.4629 17.5111C23.248 17.1303 23.0527 16.7885 23.0234 16.7592C22.9941 16.7299 22.7695 16.8178 22.5352 16.9545Z" fill="#1164B4"/>
<path id="Vector_3" d="M5.36745 19.7655C3.31667 20.2831 1.53933 22.0507 1.00222 24.1014C0.787373 24.8925 0.806904 26.0839 1.03151 26.8554C1.52956 28.5253 2.21315 29.9022 4.98659 34.7948C6.45144 37.3827 6.51979 37.4608 7.07644 37.1678C7.64284 36.8846 11.8128 29.1796 12.4378 27.2948C12.8186 26.1229 12.8382 24.7167 12.4964 23.7206C11.8811 21.9237 10.5921 20.6151 8.78542 19.9413C7.98464 19.6386 6.21706 19.5507 5.36745 19.7655ZM7.69167 22.8221C8.81472 23.1835 9.67409 24.3554 9.68386 25.537C9.68386 26.2792 9.52761 26.7382 9.05886 27.3339C8.21901 28.3983 6.7737 28.7206 5.56276 28.1151C3.7073 27.1971 3.38503 24.8436 4.90847 23.4569C5.72878 22.705 6.66628 22.4901 7.69167 22.8221Z" fill="#1164B4"/>
<path id="Vector_4" d="M32.4023 28.7207C29.502 29.043 27.2363 31.5918 27.2266 34.5215C27.2266 36.0742 27.959 37.7637 31.0645 43.3105C31.875 44.7559 32.5977 46.0254 32.6758 46.1133C32.7637 46.2207 32.959 46.2891 33.1348 46.2891C33.3105 46.2891 33.5449 46.2109 33.6523 46.1133C33.8965 45.8984 36.377 41.4844 37.5293 39.1992C39.3457 35.6055 39.5508 34.1699 38.5352 32.0312C38.2129 31.3574 37.9883 31.0547 37.3438 30.4199C35.9668 29.0625 34.3457 28.5059 32.4023 28.7207ZM34.4238 32.0117C36.0645 32.8516 36.543 34.9316 35.4492 36.377C34.2285 37.9785 31.7285 37.832 30.7422 36.1133C30.3125 35.3418 30.2051 34.7168 30.3906 33.9844C30.6543 32.959 31.2988 32.2363 32.2754 31.875C32.8027 31.6797 33.9063 31.748 34.4238 32.0117Z" fill="#1164B4"/>
</g>
</svg>
