<svg width="24" height="24" viewBox="0 0 24 24" fill="none" xmlns="http://www.w3.org/2000/svg">
<g clip-path="url(#clip0_6088_148316)">
<path d="M17.5827 0.103125C17.4374 0.196875 17.1562 0.745312 14.9905 5.1C13.6546 7.79531 12.5671 10.0031 12.5765 10.0172C12.5905 10.0266 12.7218 9.96094 12.8718 9.87187C13.6124 9.43594 14.4702 9.36562 15.2437 9.67969C15.403 9.74531 15.9421 10.0687 16.4484 10.4062C16.9593 10.7391 17.3905 11.0156 17.4187 11.0156C17.4421 11.0156 17.6437 10.7437 17.8687 10.4156C18.089 10.0875 18.7077 9.19219 19.2374 8.41875L20.203 7.01719V6.75469C20.203 6.45937 20.114 6.28125 19.8937 6.13594C19.7671 6.05156 19.6405 6.04688 17.9671 6.04688C16.978 6.04688 16.1718 6.0375 16.1718 6.02344C16.1718 6.00937 16.7437 4.86094 17.4374 3.46875C18.614 1.11562 18.703 0.91875 18.703 0.693749C18.703 0.417187 18.6093 0.229687 18.3937 0.0890617C18.1968 -0.0375004 17.7937 -0.0281258 17.5827 0.103125Z" fill="black"/>
<path d="M4.10625 6.13594C3.88594 6.28125 3.79688 6.45937 3.79688 6.75469V7.01719L5.17031 9.01406C5.92031 10.1156 6.55781 11.0109 6.58125 11.0156C6.60937 11.0156 7.04062 10.7391 7.55156 10.4062C8.05781 10.0687 8.60156 9.74062 8.76094 9.67969C9.51094 9.375 10.1766 9.41719 11.0859 9.825C11.1187 9.83906 12.8484 6.41719 12.975 6.08906C12.9844 6.06562 11.1 6.04688 8.61562 6.04688C4.41094 6.04688 4.2375 6.05156 4.10625 6.13594Z" fill="black"/>
<path d="M9.49219 10.8562C9.24844 10.9172 9.06094 11.025 8.27344 11.5453C7.80938 11.8547 7.41094 12.1219 7.39219 12.1406C7.36875 12.1594 8.24063 13.4625 9.32344 15.0375L11.2969 17.8969V20.2453V22.5938H8.89688C6.61875 22.5938 6.48281 22.5984 6.35625 22.6828C6.14062 22.8281 6.04688 23.0062 6.04688 23.2969C6.04688 23.5875 6.14062 23.7656 6.35625 23.9109C6.4875 23.9953 6.68438 24 12 24C17.3156 24 17.5125 23.9953 17.6438 23.9109C17.8594 23.7656 17.9531 23.5875 17.9531 23.2969C17.9531 23.0062 17.8594 22.8281 17.6438 22.6828C17.5172 22.5984 17.3813 22.5938 15.1078 22.5938H12.7031V20.2453V17.9016L14.6766 15.0375C15.7594 13.4625 16.6313 12.1594 16.6078 12.1406C16.4859 12.0281 14.8547 10.9781 14.7188 10.9172C14.5078 10.8328 13.9922 10.8328 13.7813 10.9219C13.6922 10.9594 13.5 11.0578 13.3594 11.1375C13.0031 11.3484 12.5953 11.475 12.1547 11.5125L11.7797 11.5453L11.3859 12.3375C11.1703 12.7734 10.9453 13.1719 10.8891 13.2234C10.5516 13.5422 10.0359 13.4484 9.81563 13.0219C9.69375 12.7922 9.74063 12.6328 10.125 11.8547C10.3313 11.4422 10.4906 11.0859 10.4766 11.0578C10.3922 10.9266 9.74531 10.7953 9.49219 10.8562Z" fill="black"/>
</g>
<defs>
<clipPath id="clip0_6088_148316">
<rect width="24" height="24" fill="white"/>
</clipPath>
</defs>
</svg>
