<svg width="28" height="29" viewBox="0 0 28 29" fill="none" xmlns="http://www.w3.org/2000/svg">
<g id="radio button">
<path id="Vector" d="M12.8328 7.75391C9.93476 7.75391 7.58276 10.1059 7.58276 13.0039C7.58276 15.9019 9.93476 18.2539 12.8328 18.2539C15.7308 18.2539 18.0828 15.9019 18.0828 13.0039C18.0828 10.1059 15.7308 7.75391 12.8328 7.75391ZM12.8328 2.50391C7.03676 2.50391 2.33276 7.20791 2.33276 13.0039C2.33276 18.7999 7.03676 23.5039 12.8328 23.5039C18.6288 23.5039 23.3328 18.7999 23.3328 13.0039C23.3328 7.20791 18.6288 2.50391 12.8328 2.50391ZM12.8328 21.4039C8.19176 21.4039 4.43276 17.6449 4.43276 13.0039C4.43276 8.36291 8.19176 4.60391 12.8328 4.60391C17.4738 4.60391 21.2328 8.36291 21.2328 13.0039C21.2328 17.6449 17.4738 21.4039 12.8328 21.4039Z" fill="black"/>
</g>
</svg>
