<svg width="50" height="47" viewBox="0 0 50 47" fill="none" xmlns="http://www.w3.org/2000/svg">
<g id="Black">
<path id="Vector" d="M24.0623 0.785156C23.2127 1.26367 0.409937 17.9434 0.234156 18.1973C-0.176 18.8223 -0.0197501 20.0918 0.556422 20.7754C1.09353 21.4102 1.29861 21.4492 3.89627 21.4492H6.24978L6.26931 33.3438L6.29861 45.2383L6.54275 45.5996C6.68923 45.8145 6.99197 46.0684 7.26541 46.2051L7.75369 46.4492H24.9998H42.2459L42.7342 46.2051C43.0076 46.0684 43.3103 45.8145 43.4568 45.5996L43.701 45.2383L43.7303 33.3438L43.7498 21.4492H46.1033C48.701 21.4492 48.906 21.4102 49.4431 20.7754C50.0193 20.0918 50.1756 18.8223 49.7654 18.1973C49.5896 17.9434 26.7869 1.26367 25.9373 0.785156C25.6541 0.619141 25.3806 0.550781 24.9998 0.550781C24.6189 0.550781 24.3455 0.619141 24.0623 0.785156ZM26.9236 17.4941C32.2947 18.3633 36.4451 22.5723 37.3045 28.0117C37.4998 29.1934 37.3826 31.5273 37.0799 32.6797C35.8299 37.4746 32.1873 40.9707 27.4119 41.9668C26.0252 42.2598 23.9744 42.2598 22.5877 41.9668C17.8123 40.9707 14.1697 37.4746 12.9197 32.6797C12.617 31.5273 12.4998 29.1934 12.6951 28.0117C13.4568 23.1973 16.7576 19.3496 21.3767 17.8945C23.076 17.3574 25.1658 17.2109 26.9236 17.4941Z" fill="#1164B4"/>
<path id="Vector_2" d="M21.875 23.5V26.625H18.75H15.625V29.7988V32.9727H18.75H21.875V36.0977V39.2227H25H28.125V36.0977V32.9727H31.25H34.375V29.7988V26.625H31.25H28.125V23.5V20.375H25H21.875V23.5Z" fill="#1164B4"/>
</g>
</svg>
