<svg width="18" height="32" viewBox="0 0 18 32" fill="none" xmlns="http://www.w3.org/2000/svg">
<path d="M8.54496 9.15701C6.32776 9.83608 4.86833 11.2697 4.19475 13.4389C3.95152 14.2217 3.93281 15.9854 4.15733 16.7399C4.69058 18.5508 5.83193 19.9561 7.41297 20.7295C8.92852 21.4746 10.7528 21.5594 12.4274 20.9464C13.1478 20.6917 14.4856 19.758 14.4856 19.5222C14.4856 19.4845 14.1955 19.1544 13.8494 18.8054L13.2132 18.1641L12.8484 18.4848C11.2486 19.8806 8.71335 19.7675 7.17909 18.2301C6.6739 17.7303 6.35582 17.2492 6.11258 16.589C5.85999 15.9194 5.85999 14.4104 6.10323 13.7596C6.52422 12.6655 7.29135 11.779 8.21752 11.3357C9.54597 10.7038 10.9118 10.7132 12.1467 11.3734C12.4742 11.5432 13.0261 11.9487 13.0636 12.0336C13.1384 12.194 13.3161 12.0808 13.8868 11.5243C14.4014 11.0244 14.6446 10.6 14.4107 10.6C14.3733 10.6 14.2423 10.5057 14.1113 10.3831C13.6155 9.93039 12.7455 9.46825 11.8193 9.17587C11.1083 8.94952 9.25596 8.94008 8.54496 9.15701Z" fill="black"/>
<path d="M4 23.1176V24H9.25H14.5V23.1176V22.2352H9.25H4V23.1176Z" fill="black"/>
</svg>
