<svg width="24" height="24" viewBox="0 0 24 24" fill="none" xmlns="http://www.w3.org/2000/svg">
<g clip-path="url(#clip0_3179_53973)">
<path d="M11.6294 3.19212C8.87854 4.00212 7.06782 5.71212 6.23211 8.29962C5.93032 9.23337 5.90711 11.3371 6.18568 12.2371C6.84729 14.3971 8.26336 16.0734 10.225 16.9959C12.1053 17.8846 14.3687 17.9859 16.4464 17.2546C17.3401 16.9509 19 15.8371 19 15.5559C19 15.5109 18.6401 15.1171 18.2107 14.7009L17.4214 13.9359L16.9687 14.3184C14.9839 15.9834 11.8384 15.8484 9.93479 14.0146C9.308 13.4184 8.91336 12.8446 8.61157 12.0571C8.29818 11.2584 8.29818 9.45837 8.59997 8.68212C9.12229 7.37712 10.0741 6.31962 11.2232 5.79087C12.8714 5.03712 14.566 5.04837 16.0982 5.83587C16.5044 6.03837 17.1893 6.52212 17.2357 6.62337C17.3285 6.81462 17.5491 6.67962 18.2571 6.01587C18.8955 5.41962 19.1973 4.91337 18.9071 4.91337C18.8607 4.91337 18.6982 4.80087 18.5357 4.65462C17.9205 4.11462 16.841 3.56337 15.6919 3.21462C14.8098 2.94462 12.5116 2.93337 11.6294 3.19212Z" fill="black"/>
<path d="M6 19.875V21H12.5H19V19.875V18.75H12.5H6V19.875Z" fill="black"/>
</g>
<defs>
<clipPath id="clip0_3179_53973">
<rect width="13" height="18" fill="white" transform="translate(6 3)"/>
</clipPath>
</defs>
</svg>
