<svg width="24" height="25" viewBox="0 0 24 25" fill="none" xmlns="http://www.w3.org/2000/svg">
<g id="Black">
<path id="Vector" d="M11.6019 0.584568C11.3769 0.725193 10.8425 1.32988 10.5237 1.81269C10.28 2.17832 9.90499 2.86738 9.82999 3.09238C9.82062 3.12051 9.62843 3.04551 9.34718 2.90488C8.52687 2.48301 7.70655 2.26269 6.76905 2.20176C6.3378 2.17832 6.27218 2.18301 6.0753 2.27676C5.73312 2.44551 5.65343 2.60019 5.63468 3.11582C5.57843 4.55019 6.26749 6.23301 7.40655 7.45176L7.69718 7.76582H6.96593C6.14093 7.76582 5.9628 7.81269 5.75655 8.10332C5.54093 8.408 5.60655 9.26582 5.88312 9.86582C5.94874 10.0064 6.0003 10.1283 6.0003 10.1377C6.0003 10.1471 5.46124 10.1564 4.80499 10.1564C3.21124 10.1564 2.71905 10.2596 1.92687 10.7518C0.281555 11.7783 -0.379383 13.7986 0.32843 15.6361C0.473742 16.0158 0.839367 16.6158 1.02687 16.7846C1.12062 16.8689 1.11593 16.8736 0.77843 17.2064C0.417492 17.558 0.23468 17.8627 0.117492 18.3174C0.0284296 18.6502 0.0284296 19.2174 0.117492 19.5221L0.192492 19.7658H10.1909H20.1894L20.3487 19.8736C20.5831 20.033 20.7191 20.258 20.7191 20.5018C20.7191 20.858 20.48 21.1674 20.1331 21.2611C20.0019 21.2986 17.0347 21.3127 10.0644 21.3127H0.187805L0.136242 21.4393C0.0565546 21.6455 0.0284296 22.3393 0.0893671 22.6393C0.27218 23.4971 1.03155 24.2705 1.8753 24.4486C2.06749 24.4908 4.42999 24.5002 11.4612 24.4908L20.7894 24.4768L21.1175 24.3643C21.8159 24.1299 22.3644 23.7877 22.8331 23.3002C23.33 22.7752 23.5644 22.3861 23.7941 21.6877C23.9112 21.3221 23.9253 21.2283 23.9253 20.5627C23.93 19.9393 23.9159 19.7846 23.8222 19.4658C23.6816 18.9736 23.4425 18.5002 23.1425 18.1064L22.8987 17.7783L23.2316 17.4502C23.7753 16.9018 23.9862 16.3533 23.9394 15.5939C23.9159 15.1393 23.7894 14.7596 23.5456 14.3939L23.3909 14.1502L23.5503 13.9111C23.7987 13.5408 23.9159 13.1893 23.9394 12.7111C24.0097 11.5252 23.2831 10.5221 22.1394 10.2268C21.9237 10.1705 21.5206 10.1564 20.1284 10.1564H18.38L18.5112 9.86113C18.7269 9.38769 18.8347 8.78301 18.7737 8.42207C18.7362 8.19238 18.5159 7.92051 18.2956 7.83144C18.1878 7.78457 17.8925 7.76582 17.2222 7.76582H16.3034L16.5941 7.45176C17.7331 6.23301 18.4222 4.55019 18.3659 3.11582C18.3472 2.60019 18.2675 2.44551 17.9253 2.27676C17.7284 2.18301 17.6628 2.17832 17.2316 2.20176C16.2941 2.26269 15.4737 2.48301 14.6534 2.90488C14.3722 3.04551 14.18 3.12051 14.1706 3.09238C14.0956 2.86738 13.7206 2.17832 13.4769 1.80801C13.1487 1.31582 12.5769 0.673632 12.3706 0.570507C12.1831 0.472069 11.7753 0.481443 11.6019 0.584568ZM12.155 2.78769C12.3331 3.05957 12.5816 3.57519 12.7175 3.95488L12.8394 4.29238L12.6284 4.54082C12.5112 4.67676 12.3284 4.92988 12.2206 5.10332C12.1128 5.27676 12.0144 5.41738 12.0003 5.41738C11.9862 5.42207 11.9159 5.31426 11.8362 5.18301C11.7612 5.05176 11.5784 4.79394 11.4284 4.61113L11.1659 4.27832L11.2831 3.95019C11.4753 3.41113 11.9066 2.60957 12.0003 2.60957C12.0191 2.60957 12.0894 2.68926 12.155 2.78769ZM7.86593 4.06738C9.10812 4.45176 10.1675 5.38926 10.7347 6.60801C10.9222 7.00644 11.105 7.60176 11.0534 7.64863C11.0112 7.69082 10.2237 7.41894 9.88155 7.2455C9.01437 6.80957 8.27843 6.09238 7.80968 5.23457C7.64562 4.92988 7.35968 4.14238 7.35968 3.99238C7.35968 3.90801 7.3503 3.90801 7.86593 4.06738ZM16.6409 3.99707C16.6409 4.14238 16.3503 4.93457 16.1862 5.23457C15.5769 6.35019 14.5878 7.16582 13.3644 7.55019C13.1487 7.6205 12.9612 7.66269 12.9472 7.64863C12.8956 7.60176 13.0831 6.99707 13.2659 6.60801C13.8519 5.35644 14.9534 4.40957 16.2894 4.01113C16.6456 3.90801 16.6409 3.90801 16.6409 3.99707ZM21.9659 11.9189C22.1769 12.0736 22.28 12.2471 22.3034 12.4908C22.3269 12.7814 22.1862 13.0627 21.9378 13.2174L21.7737 13.3205L12.7456 13.3439L3.71749 13.3674L3.55343 13.4939C3.46437 13.5643 3.35187 13.6908 3.30968 13.7799C3.2253 13.9674 3.21124 14.333 3.28624 14.483C3.35655 14.6143 3.55812 14.8393 3.67999 14.9049C3.7503 14.9471 6.05655 14.9658 12.8066 14.9846C21.8347 15.008 21.8394 15.008 21.9659 15.1064C22.1769 15.2611 22.28 15.4346 22.3034 15.6783C22.3269 15.9643 22.205 16.2174 21.9519 16.3908L21.7784 16.508L12.8581 16.5221C5.08155 16.5314 3.89093 16.5221 3.59562 16.4611C2.48468 16.2314 1.6878 15.2611 1.6878 14.1408C1.69249 13.0955 2.42374 12.1533 3.45499 11.8674C3.6378 11.8158 5.34405 11.8064 12.7597 11.8111L21.8394 11.8205L21.9659 11.9189Z" fill="black"/>
</g>
</svg>
