<svg width="24" height="24" viewBox="0 0 24 24" fill="none" xmlns="http://www.w3.org/2000/svg">
<path d="M5.32032 4.89343C5.14689 4.96843 4.93595 5.20749 4.88439 5.38093C4.86564 5.45124 4.85157 8.45124 4.85157 12.0466C4.85157 19.3637 4.82345 18.7356 5.18907 19.0169C5.35314 19.1434 5.38595 19.1481 5.97189 19.1622C6.54376 19.1762 6.60001 19.1716 6.7922 19.0684C6.93751 18.9887 7.03595 18.8903 7.11095 18.7497L7.21876 18.5481V11.9997V5.45124L7.11095 5.24968C6.93282 4.91218 6.7172 4.82781 6.02814 4.82781C5.66251 4.83249 5.40939 4.85593 5.32032 4.89343Z" fill="black"/>
<path d="M17.2078 4.93093C17.0625 5.01062 16.9641 5.10906 16.8891 5.24968L16.7812 5.45124V11.9997V18.5481L16.8891 18.7497C16.9641 18.8903 17.0625 18.9887 17.2078 19.0684C17.4 19.1716 17.4562 19.1762 18.0281 19.1622C18.6141 19.1481 18.6469 19.1434 18.8109 19.0169C19.1766 18.7356 19.1484 19.3403 19.1625 12.2106C19.1719 8.70437 19.1625 5.72781 19.1484 5.59187C19.1156 5.32468 18.9891 5.10437 18.7828 4.94968C18.6656 4.86531 18.5719 4.85124 18.0328 4.83718C17.4562 4.82312 17.4 4.82781 17.2078 4.93093Z" fill="black"/>
<path d="M2.60156 7.6457C2.41875 7.69727 2.20781 7.89414 2.12813 8.09101C2.07188 8.22227 2.0625 8.90664 2.0625 12.0098C2.0625 15.6613 2.06719 15.7738 2.15625 15.9566C2.20781 16.0645 2.325 16.2004 2.42344 16.266C2.5875 16.3785 2.62969 16.3832 3.40781 16.3973L4.21875 16.416V12.0051V7.59414L3.48281 7.59883C3.075 7.59883 2.68125 7.62226 2.60156 7.6457Z" fill="black"/>
<path d="M19.7812 11.9953V16.4062H20.4984C20.8875 16.4062 21.2859 16.3828 21.375 16.3594C21.5672 16.3078 21.8156 16.0734 21.8859 15.8766C21.9234 15.7875 21.9375 14.5219 21.9375 11.9906C21.9375 8.33906 21.9328 8.22656 21.8438 8.04375C21.7922 7.93594 21.675 7.8 21.5766 7.73438C21.4125 7.62187 21.3703 7.61719 20.5922 7.60312L19.7812 7.58906V11.9953Z" fill="black"/>
<path d="M0 12V13.3594H0.703125H1.40625V12V10.6406H0.703125H0V12Z" fill="black"/>
<path d="M7.875 12V13.3594H12H16.125V12V10.6406H12H7.875V12Z" fill="black"/>
<path d="M22.5938 12V13.3594H23.2969H24V12V10.6406H23.2969H22.5938V12Z" fill="black"/>
</svg>
