<svg width="40" height="40" viewBox="0 0 40 40" fill="none" xmlns="http://www.w3.org/2000/svg">
<path d="M0 20C0 8.95431 8.95431 0 20 0C31.0457 0 40 8.95431 40 20C40 31.0457 31.0457 40 20 40C8.95431 40 0 31.0457 0 20Z" fill="#1BAB21"/>
<path d="M17.2962 23.3254L13.7263 19.4538C13.3285 19.0224 12.6961 19.0224 12.2983 19.4538C11.9006 19.8852 11.9006 20.5711 12.2983 21.0025L16.572 25.6373C16.9698 26.0687 17.6124 26.0687 18.0101 25.6373L27.5151 15.2605C27.9129 14.8291 27.7179 14.3546 27.3201 13.9232C26.9223 13.4918 26.29 13.4918 25.8922 13.9232L17.2962 23.3254Z" fill="white"/>
</svg>
