<svg width="24" height="25" viewBox="0 0 24 25" fill="none" xmlns="http://www.w3.org/2000/svg">
<g id="Black">
<path id="Vector" d="M15.9844 0.597851C15.8906 0.649414 15.7641 0.771288 15.7031 0.860352L15.5859 1.03379L15.5719 4.6666C15.5578 8.7541 15.5344 8.46816 15.9094 8.77285L16.0875 8.91348L17.7234 8.92754L19.3594 8.9416V10.1791V11.4213H9.84375C-0.323437 11.4213 0.1125 11.4119 0.028125 11.6322C0.0140625 11.6744 0 13.7463 0 16.2307V20.7494H0.492187C0.95625 20.7494 0.99375 20.7588 1.10156 20.8666C1.26094 21.0213 1.26094 21.2557 1.09687 21.4104C0.989062 21.5135 0.928125 21.5229 0.4875 21.5369L0 21.5557V21.8697C0 22.151 0.0140625 22.1979 0.121875 22.301C0.234375 22.4088 0.271875 22.4135 0.984375 22.4275L1.725 22.4463L1.80469 22.1697C2.0625 21.2744 2.81719 20.5525 3.68906 20.3744C4.05469 20.2947 4.69687 20.3369 5.02969 20.4588C5.72812 20.7119 6.29062 21.2744 6.55781 21.9822C6.60937 22.1322 6.65625 22.2963 6.65625 22.3432C6.65625 22.4369 6.71719 22.4369 11.5734 22.4369H16.4859L16.5187 22.2541C16.575 21.8979 16.8984 21.3447 17.2453 21.0213C17.7469 20.5432 18.2766 20.3275 18.9375 20.3275C20.0672 20.3275 21.0328 21.0635 21.3516 22.1697L21.4312 22.4416L22.3875 22.4275L23.3437 22.4135L23.4656 22.2916C23.5641 22.1885 23.5922 22.1088 23.6109 21.8604L23.6391 21.551L22.9078 21.5369C22.2094 21.5229 22.1719 21.5182 22.0594 21.4104C21.8953 21.2557 21.8953 21.0213 22.0547 20.8666C22.1672 20.7541 22.1859 20.7494 22.8984 20.7494H23.6297L23.6156 19.3057L23.6016 17.8619L21.9281 15.1807L20.25 12.4994V10.7182V8.93691H21.7969C22.9922 8.93691 23.3812 8.92285 23.4984 8.87129C23.6719 8.80098 23.9391 8.51504 23.9766 8.36035C23.9906 8.3041 23.9953 6.62129 23.9906 4.61973L23.9766 0.982225L23.85 0.818163C23.5922 0.480663 23.8078 0.499413 19.7719 0.499413C16.2047 0.499413 16.1437 0.504101 15.9844 0.597851ZM20.0719 1.93848C20.175 2.04629 20.1797 2.08848 20.1937 2.88066L20.2125 3.71035L21.2156 4.50723C21.8859 5.03691 22.2281 5.3416 22.2516 5.42129C22.3031 5.59941 22.2703 5.7166 22.1437 5.8291C21.9187 6.03066 21.8156 5.98848 20.9906 5.32754L20.2266 4.71816L20.2125 5.68848L20.2031 6.65879L20.3625 6.82285C20.6578 7.13691 20.6859 7.34785 20.4516 7.53066C20.2875 7.65723 20.1 7.64785 19.9266 7.50254L19.7812 7.38066L19.6359 7.50254C19.4531 7.65723 19.2516 7.66191 19.1016 7.50723C18.9141 7.31973 18.9422 7.12285 19.1953 6.87441L19.4062 6.66816V5.69316C19.4062 5.15879 19.3922 4.71816 19.3781 4.71816C19.3594 4.71816 19.1016 4.91504 18.8016 5.1541C17.9016 5.88066 17.8172 5.93691 17.6672 5.93691C17.3953 5.93691 17.2125 5.61816 17.3437 5.37441C17.3672 5.32754 17.8406 4.9291 18.3984 4.48379L19.4062 3.67754V2.8666C19.4062 2.12598 19.4156 2.05098 19.5 1.93848C19.6547 1.7416 19.8844 1.7416 20.0719 1.93848ZM6.22969 12.4057C6.45937 12.5182 6.64219 12.7385 6.67969 12.9354C6.69375 13.0197 6.70312 13.7322 6.69375 14.5197L6.67969 15.9541L6.54375 16.1275C6.27656 16.4791 6.25312 16.4838 4.21875 16.4838C2.2125 16.4838 2.175 16.4791 1.90781 16.1604C1.70156 15.9119 1.68281 15.7385 1.69687 14.29L1.71094 12.9447L1.8375 12.7291C1.92656 12.5791 2.02969 12.4807 2.16562 12.4104C2.3625 12.3166 2.42812 12.3119 4.20937 12.3119C5.94375 12.3119 6.06094 12.3166 6.22969 12.4057ZM12.9656 12.401C13.1859 12.5041 13.3406 12.6775 13.4109 12.9166C13.4391 13.0244 13.4531 13.5963 13.4437 14.4963L13.4297 15.9072L13.3031 16.0947C13.2281 16.2119 13.0969 16.3244 12.9703 16.3854C12.7641 16.4838 12.7266 16.4885 10.8891 16.4744L9.01875 16.4604L8.82656 16.3338C8.71406 16.2588 8.59687 16.1275 8.53594 16.0057C8.44219 15.8088 8.4375 15.7291 8.4375 14.4072C8.4375 13.2588 8.45156 12.9822 8.50781 12.8416C8.60625 12.6072 8.70469 12.5041 8.92969 12.401C9.10312 12.3213 9.27187 12.3119 10.9453 12.3119C12.6234 12.3119 12.7875 12.3213 12.9656 12.401ZM19.1859 12.415C19.3219 12.5416 21.4078 15.8838 21.4266 16.001C21.4547 16.1697 21.3703 16.3432 21.2344 16.4135C21.0281 16.5213 16.3922 16.5213 16.1391 16.4135C15.9141 16.3197 15.8062 16.2213 15.6984 16.001C15.6094 15.8369 15.6047 15.7291 15.6187 14.3322L15.6328 12.8416L15.7687 12.6682C16.0266 12.3307 16.1062 12.3119 17.6812 12.3119C19.0594 12.3119 19.0734 12.3119 19.1859 12.415ZM4.89844 17.9135C5.04844 18.0588 5.04844 18.265 4.90312 18.4385C4.79531 18.565 4.77187 18.5697 4.28906 18.5838C3.69844 18.6025 3.53437 18.5557 3.44062 18.3307C3.36562 18.1479 3.40781 17.9838 3.57187 17.8713C3.65156 17.815 3.79687 17.7963 4.23281 17.7963C4.75781 17.7963 4.79062 17.801 4.89844 17.9135ZM11.6156 17.89C11.7562 18.0213 11.7937 18.2088 11.7141 18.3541C11.5969 18.5604 11.4609 18.5979 10.8891 18.5838C10.4344 18.5697 10.35 18.5557 10.2656 18.476C10.1062 18.3166 10.0969 18.115 10.2422 17.9463L10.3687 17.7963H10.9406C11.4516 17.7963 11.5266 17.8057 11.6156 17.89ZM18.3422 17.89C18.4969 18.0119 18.5344 18.1854 18.45 18.3541C18.3422 18.5557 18.1687 18.6025 17.6016 18.5838C17.1187 18.5697 17.0953 18.565 16.9875 18.4385C16.8422 18.265 16.8422 18.0588 16.9922 17.9135C17.1 17.801 17.1328 17.7963 17.6625 17.7963C18.15 17.7963 18.2391 17.8104 18.3422 17.89ZM15.8625 20.8947C15.9281 20.9744 15.9844 21.0682 15.9844 21.1057C15.9844 21.251 15.8437 21.4432 15.6984 21.4947C15.4875 21.5697 7.66875 21.5697 7.45781 21.4947C7.3125 21.4432 7.17187 21.251 7.17187 21.1057C7.17187 21.0682 7.22812 20.9744 7.29375 20.8947L7.41562 20.7494H11.5781H15.7406L15.8625 20.8947Z" fill="black"/>
<path id="Vector_2" d="M2.48438 14.3984V15.6875H4.19531H5.90625V14.3984V13.1094H4.19531H2.48438V14.3984Z" fill="black"/>
<path id="Vector_3" d="M9.23438 14.3984V15.6875H10.9453H12.6563V14.3984V13.1094H10.9453H9.23438V14.3984Z" fill="black"/>
<path id="Vector_4" d="M16.4062 14.3984V15.6875H18.3516C19.4859 15.6875 20.2969 15.6687 20.2969 15.6453C20.2969 15.6219 19.9453 15.0406 19.5188 14.3562L18.7406 13.1094H17.5734H16.4062V14.3984Z" fill="black"/>
<path id="Vector_5" d="M3.67091 21.1904C3.22091 21.3357 2.79434 21.7482 2.62091 22.1935C2.48497 22.5591 2.48497 23.0654 2.62559 23.4451C2.77091 23.8295 3.19747 24.256 3.58653 24.4013C3.96153 24.5466 4.59903 24.5279 4.93184 24.3685C5.25528 24.2091 5.54122 23.9326 5.72403 23.5998C5.87403 23.3185 5.88341 23.281 5.88341 22.8357C5.88341 22.4279 5.86934 22.3341 5.76153 22.1045C5.59278 21.7435 5.35372 21.4951 5.00684 21.3076C4.74434 21.1716 4.66466 21.1529 4.28966 21.1388C4.02716 21.1295 3.79278 21.1482 3.67091 21.1904Z" fill="black"/>
<path id="Vector_6" d="M18.4125 21.1855C17.9297 21.3684 17.6062 21.6637 17.3953 22.109C17.2922 22.3293 17.2734 22.4324 17.2734 22.8121C17.2734 23.2246 17.2875 23.2855 17.4281 23.5715C17.5969 23.9184 17.8781 24.1996 18.225 24.3684C18.5531 24.523 19.1953 24.5465 19.5562 24.4059C19.8891 24.284 20.3062 23.9137 20.4609 23.609C20.7937 22.9527 20.6812 22.1793 20.175 21.6402C19.8469 21.2934 19.5328 21.1527 19.0125 21.1387C18.7359 21.1293 18.525 21.148 18.4125 21.1855Z" fill="black"/>
</g>
</svg>
