<svg width="24" height="19" viewBox="0 0 24 19" fill="none" xmlns="http://www.w3.org/2000/svg">
<g id="Black">
<path id="Vector" d="M0.370313 0.748632C0.285938 0.804882 0.164062 0.926757 0.107813 1.01113L0 1.17051V7.51738C0 12.8893 0.009375 13.883 0.065625 13.9908C0.159375 14.1689 0.370313 14.3518 0.557813 14.4174C0.7875 14.4924 23.2125 14.4924 23.4422 14.4174C23.6297 14.3518 23.8406 14.1689 23.9344 13.9908C23.9906 13.883 24 12.8893 24 7.51738V1.17051L23.8922 1.01113C23.8359 0.926757 23.7141 0.804882 23.6297 0.748632L23.4703 0.64082H12H0.529688L0.370313 0.748632Z" fill="black"/>
<path id="Vector_2" d="M10.075 16.3625V16.9016L8.57971 16.9156C7.15002 16.9297 7.07502 16.9344 6.95315 17.0281C6.74221 17.1828 6.63909 17.3562 6.62034 17.5953C6.5969 17.8719 6.70471 18.1016 6.92971 18.2516L7.08909 18.3594H11.9969H16.9047L17.0641 18.2516C17.4953 17.9656 17.486 17.3562 17.0406 17.0281C16.9188 16.9344 16.8438 16.9297 15.4141 16.9156L13.9188 16.9016V16.3625V15.8281H11.9969H10.075V16.3625Z" fill="black"/>
</g>
</svg>
