<svg width="43" height="43" viewBox="0 0 43 43" fill="none" xmlns="http://www.w3.org/2000/svg">
<path fill-rule="evenodd" clip-rule="evenodd" d="M21.5733 38.6992H21.5661C18.6495 38.6982 15.7836 37.97 13.2382 36.5882L4 39L6.4723 30.0128C4.94727 27.3826 4.1448 24.399 4.14611 21.3423C4.14993 11.7798 11.9676 4 21.5731 4C26.235 4.002 30.6105 5.80817 33.9007 9.08644C37.1908 12.3645 39.0018 16.7219 39 21.356C38.9961 30.9163 31.1816 38.6953 21.5733 38.6992ZM13.6677 33.4488L14.1966 33.7612C16.4205 35.0746 18.9697 35.7695 21.5688 35.7705H21.5747C29.5581 35.7705 36.0558 29.3038 36.059 21.3553C36.0605 17.5035 34.5553 13.8819 31.8206 11.1571C29.0859 8.43232 25.4492 6.93102 21.5804 6.92969C13.5908 6.92969 7.09301 13.3958 7.08984 21.3437C7.08872 24.0675 7.8545 26.7201 9.30442 29.0152L9.64882 29.5606L8.18556 34.88L13.6677 33.4488ZM29.7569 25.09C30.0606 25.2361 30.2657 25.3347 30.3533 25.4802C30.4621 25.6609 30.4621 26.5286 30.0995 27.541C29.7365 28.5532 27.9969 29.4771 27.1602 29.6015C26.4101 29.7131 25.4607 29.7597 24.4176 29.4297C23.7852 29.2301 22.9742 28.9634 21.9353 28.5169C17.8531 26.7627 15.0945 22.8252 14.5731 22.081C14.5365 22.0288 14.511 21.9924 14.4968 21.9734L14.4932 21.9688C14.2628 21.6628 12.7188 19.6125 12.7188 17.4906C12.7188 15.4944 13.704 14.4481 14.1575 13.9665C14.1886 13.9335 14.2172 13.9032 14.2427 13.8754C14.6419 13.4415 15.1136 13.3331 15.4039 13.3331C15.6942 13.3331 15.9848 13.3357 16.2385 13.3484C16.2698 13.35 16.3023 13.3498 16.336 13.3496C16.5897 13.3481 16.9061 13.3463 17.2182 14.0923C17.3382 14.3794 17.5139 14.8051 17.6992 15.254C18.0739 16.1619 18.4879 17.1649 18.5607 17.31C18.6696 17.5269 18.7421 17.7799 18.597 18.0692C18.5752 18.1126 18.5551 18.1536 18.5358 18.1927C18.4268 18.4142 18.3466 18.5771 18.1616 18.7921C18.0888 18.8767 18.0136 18.9678 17.9384 19.0589C17.7886 19.2405 17.6388 19.422 17.5084 19.5514C17.2904 19.7675 17.0635 20.0019 17.3175 20.4358C17.5715 20.8696 18.4454 22.2886 19.7399 23.4378C21.1314 24.673 22.3408 25.1951 22.9538 25.4597C23.0735 25.5114 23.1705 25.5532 23.2416 25.5887C23.6769 25.8057 23.9309 25.7694 24.1849 25.4802C24.4389 25.191 25.2734 24.2148 25.5637 23.781C25.8539 23.3473 26.1443 23.4196 26.5434 23.5641C26.9426 23.7089 29.0834 24.7571 29.5188 24.974C29.6038 25.0164 29.6833 25.0546 29.7569 25.09Z" fill="black"/>
</svg>
