<svg width="40" height="40" viewBox="0 0 40 40" fill="none" xmlns="http://www.w3.org/2000/svg">
<g id="Black">
<path id="Vector" d="M18.066 0.488121C14.4306 0.877663 11.1007 2.19141 8.1297 4.4141C7.15975 5.13972 5.16639 7.13326 4.44084 8.10329C2.45511 10.7537 1.23313 13.5874 0.683236 16.8107C0.477026 18.0023 0.400652 20.752 0.538125 21.997C0.889446 25.2661 1.95868 28.222 3.74583 30.8724L4.14298 31.4606L2.91336 35.0963C2.24127 37.0975 1.69901 38.7397 1.70665 38.7473C1.71429 38.7626 3.3716 38.2432 5.38788 37.594C7.40415 36.9447 9.12257 36.4101 9.19894 36.4101C9.27531 36.4101 9.51971 36.517 9.73356 36.6545C12.1775 38.1821 15.0034 39.1445 18.0049 39.4653C19.2498 39.6028 21.9992 39.5264 23.1907 39.3202C26.4136 38.7702 29.2548 37.5481 31.8973 35.5622C32.8672 34.8366 34.8606 32.8431 35.5862 31.873C37.6024 29.1768 38.8321 26.2819 39.3896 22.9288C39.5882 21.722 39.5882 18.2543 39.3896 17.0475C38.8321 13.6944 37.6024 10.7995 35.5862 8.10329C34.8606 7.13326 32.8672 5.13972 31.8973 4.4141C29.2548 2.43583 26.4289 1.21374 23.1907 0.656158C22.4498 0.52631 21.877 0.488121 20.319 0.472843C19.2498 0.457569 18.234 0.465206 18.066 0.488121ZM13.8654 9.55453C14.064 9.63855 14.1785 9.77604 14.3542 10.1274C14.7972 10.9981 16.4239 15.0005 16.4239 15.2144C16.4239 15.5733 16.1261 16.0469 15.3852 16.8947C14.9957 17.3301 14.6368 17.7655 14.5909 17.8419C14.3847 18.2314 14.5833 18.7508 15.347 19.8354C17.0196 22.2108 18.929 23.8759 21.3348 25.0293C23.2441 25.9535 23.4809 25.8924 24.7105 24.1891C25.5964 22.9594 25.9478 22.6691 26.4595 22.7837C26.9788 22.8983 31.4314 25.0675 31.6224 25.3043C31.8973 25.6327 31.6529 27.4353 31.2099 28.2984C30.576 29.551 28.6132 30.7044 26.8261 30.8724C24.9702 31.0558 20.5481 29.5129 17.9285 27.7714C15.2783 26.007 12.5518 23.1198 10.4286 19.843C9.35933 18.1932 8.71015 16.2837 8.71015 14.7943C8.71015 13.1903 9.20658 11.8307 10.2376 10.6162C10.7111 10.0434 11.1541 9.73021 11.7116 9.56217C12.1546 9.41705 13.5293 9.41705 13.8654 9.55453Z" fill="#1164B4"/>
</g>
</svg>
