<svg width="24" height="19" viewBox="0 0 24 19" fill="none" xmlns="http://www.w3.org/2000/svg">
<path d="M11.2031 1.02012C8.50781 1.13731 5.87344 1.90137 3.53438 3.24668C2.44688 3.87012 1.22344 4.7748 0.398438 5.57168L-0.0234375 5.97949L1.0875 7.09043L2.19844 8.20605L2.56875 7.8498C2.775 7.65293 3.15 7.32949 3.40313 7.12324C6.37031 4.76543 10.2516 3.7248 14.0016 4.27324C16.7766 4.68105 19.4766 5.98418 21.4313 7.8498L21.8016 8.20605L22.9125 7.09043L24.0234 5.97949L23.6016 5.57168C22.7766 4.7748 21.5531 3.87012 20.4656 3.24668C18.1641 1.92481 15.4453 1.12324 12.9375 1.03418C12.5625 1.02481 12.1969 1.00605 12.1172 1.00137C12.0422 0.991992 11.6297 1.00137 11.2031 1.02012Z" fill="black"/>
<path d="M11.2031 7.18398C10.6641 7.23555 9.90938 7.36211 9.375 7.48867C7.65938 7.91055 5.94844 8.82461 4.6875 10.0059L4.33594 10.3387L5.44688 11.4496L6.55313 12.5605L6.9 12.2559C7.60781 11.6277 8.51719 11.0793 9.375 10.7652C12.0141 9.8043 14.9859 10.3762 17.1 12.2559L17.4469 12.5605L18.5531 11.4496L19.6641 10.3387L19.3125 10.0059C17.7844 8.57617 15.7266 7.60117 13.5469 7.27305C13.0641 7.20273 11.6203 7.14648 11.2031 7.18398Z" fill="black"/>
<path d="M11.1703 13.4141C10.3969 13.5547 9.675 13.8875 9.04219 14.3984C8.86406 14.5437 8.71875 14.675 8.71875 14.6937C8.71875 14.7125 9.45938 15.4672 10.3594 16.3672L12 18.0078L13.6406 16.3672C14.5453 15.4672 15.2813 14.7125 15.2813 14.6937C15.2813 14.6281 14.5828 14.1031 14.2594 13.9203C13.3734 13.4234 12.1828 13.2312 11.1703 13.4141Z" fill="black"/>
</svg>
