<svg width="16" height="17" viewBox="0 0 16 17" fill="none" xmlns="http://www.w3.org/2000/svg">
<g id="&#208;&#183;&#208;&#176;&#208;&#178;&#209;&#130;&#209;&#128;&#208;&#176;&#208;&#186;">
<path id="Vector" d="M3.66667 3.57496H12.8738C13.4988 3.57496 14 4.0785 14 4.70651V11.4958C14 11.6881 14 12.1667 13.3333 12.5H11.6667L5.66667 5.83333L12.8738 5.83805V4.70651H4.20572L3.66667 3.57496ZM13.1497 14.5L11.2802 12.6273H3.86391C3.23886 12.6273 2.73768 12.1238 2.73768 11.4958L2.74331 4.70651C2.74331 4.51414 2.78836 4.3331 2.87283 4.18034L2 3.29774L2.79399 2.5L13.9437 13.7023L13.1497 14.5ZM3.86391 5.1761V5.83805H4.52276L3.86391 5.1761Z" fill="#228B22"/>
</g>
</svg>
