<svg width="220" height="220" viewBox="0 0 220 220" fill="none" xmlns="http://www.w3.org/2000/svg">
<g id="Black">
<path id="Vector" d="M59.5544 1.3519C59.1089 1.57465 57.7278 3.57941 56.4804 5.71782L54.1638 9.63822L50.3325 9.86098C46.0111 10.1283 44.8083 10.6629 43.8282 12.7122C42.759 14.9842 43.0263 15.9643 45.8775 20.9094L48.595 25.5872L48.2832 30.3095C48.0604 34.2299 48.105 35.3436 48.6841 36.4574C50.1097 39.1304 52.4263 39.3531 58.4852 37.4375L62.4947 36.1901L66.4151 37.482C71.3601 39.0858 73.4094 39.0858 75.1469 37.6157C76.8844 36.1455 77.1517 34.8536 76.5725 30.0422L76.127 26.0327L78.8 21.444C80.9384 17.7463 81.473 16.4098 81.473 14.8951C81.473 11.3311 79.1119 9.77188 73.5876 9.77188H70.8701L68.7762 6.20787C66.1923 1.75285 65.0786 0.861851 62.361 0.861851C61.2473 0.861851 59.9553 1.0846 59.5544 1.3519Z" fill="#A1A1A1"/>
<path id="Vector_2" d="M106.916 1.61953C106.381 2.06503 105 4.02523 103.842 5.98544L101.703 9.54945L97.8721 9.8613C93.5062 10.1731 92.437 10.6187 91.5014 12.4452C90.2986 14.7618 90.655 16.2765 93.5062 21.1325L96.1346 25.6766L95.8673 30.8444L95.6 36.0122L96.9811 37.3487C98.7631 39.1753 100.946 39.1753 106.114 37.4378L109.99 36.1013L113.866 37.4378C119.033 39.1753 121.216 39.1753 122.998 37.3487L124.379 36.0122L124.112 30.8444L123.845 25.6766L126.473 21.1325C129.324 16.2765 129.681 14.7618 128.478 12.4452C127.542 10.6187 126.473 10.1731 122.107 9.8613L118.276 9.54945L116.138 5.98544C113.465 1.48588 112.707 0.862175 109.99 0.862175C108.609 0.862175 107.539 1.12947 106.916 1.61953Z" fill="#A1A1A1"/>
<path id="Vector_3" d="M154.404 1.75671C153.781 2.24676 152.355 4.25152 151.241 6.21172L149.147 9.77573H146.608C140.906 9.82028 138.5 11.335 138.5 14.899C138.5 16.4582 139.035 17.7057 141.173 21.4479L143.846 26.0365L143.356 30.046C142.866 34.6792 143.044 35.8375 144.648 37.4859C146.163 39.1343 148.435 39.1343 153.558 37.4859L157.478 36.1939L161.488 37.4414C167.547 39.357 169.863 39.1343 171.289 36.4612C171.868 35.3475 171.913 34.2337 171.69 30.3133L171.378 25.591L174.096 20.9133C176.947 15.9682 177.214 14.9881 176.145 12.716C175.165 10.6667 173.962 10.1321 169.641 9.86483L165.809 9.64208L163.493 5.72167C162.245 3.53872 160.82 1.57851 160.33 1.31121C158.904 0.55386 155.652 0.776608 154.404 1.75671Z" fill="#A1A1A1"/>
<path id="Vector_4" d="M13.3138 43.4969C12.9574 43.6305 12.111 44.2542 11.4427 44.8779L10.1953 46.0363V116.114V186.191H48.2857H86.376V178.261C86.376 168.861 86.777 166.143 88.9154 161.688C93.5931 151.887 105.221 146.319 115.467 148.992C124.288 151.264 131.55 158.971 133.109 167.658C133.376 169.128 133.599 173.895 133.599 178.261V186.191H169.462H205.325V116.693C205.325 40.2893 205.503 45.3234 202.652 43.8533C201.494 43.2741 190.579 43.185 107.671 43.2296C56.1265 43.2296 13.6702 43.3632 13.3138 43.4969ZM73.902 58.5548C76.4859 59.8913 76.575 60.4259 76.575 76.5976C76.575 89.0271 76.4859 91.611 75.9067 92.8584C74.6148 95.4869 74.392 95.5314 57.5966 95.5314C42.806 95.5314 42.3159 95.4869 41.0685 94.5959C38.7965 92.903 38.6628 91.5665 38.7965 75.7066C38.9301 60.1586 38.9301 60.1141 41.3358 58.6439C43.0287 57.5747 71.8972 57.5302 73.902 58.5548ZM127.407 59.5795L128.699 61.0051V76.7758C128.699 91.9674 128.654 92.5466 127.808 93.6603C127.273 94.3286 126.115 95.0414 125.224 95.3087C123.041 95.8878 96.9344 95.8878 94.7514 95.3087C93.8604 95.0414 92.7021 94.3286 92.1675 93.6603C91.3211 92.5466 91.2765 91.9674 91.2765 76.8204C91.2765 61.4506 91.2765 61.0942 92.2121 59.9359C92.7467 59.2676 93.5931 58.5103 94.1277 58.3321C94.6178 58.1093 102.058 57.9757 110.567 58.0202L126.115 58.1093L127.407 59.5795ZM178.327 58.5548C181.045 59.8468 181.045 59.8468 181.179 75.7066C181.312 91.5665 181.179 92.903 178.907 94.5959C177.659 95.4869 177.169 95.5314 162.379 95.5314C145.583 95.5314 145.36 95.4869 144.068 92.8584C143.489 91.611 143.4 89.0271 143.4 76.5976C143.4 60.515 143.489 59.9359 145.984 58.5994C147.766 57.6193 176.234 57.5747 178.327 58.5548ZM73.902 101.323C76.4859 102.659 76.575 103.194 76.575 119.366C76.575 131.795 76.4859 134.379 75.9067 135.627C74.6148 138.255 74.392 138.3 57.5966 138.3C42.806 138.3 42.3159 138.255 41.0685 137.364C38.7965 135.671 38.6628 134.335 38.7965 118.475C38.9301 102.927 38.9301 102.882 41.3358 101.412C43.0287 100.343 71.8972 100.298 73.902 101.323ZM127.407 102.348L128.699 103.773V119.544C128.699 134.736 128.654 135.315 127.808 136.428C127.273 137.097 126.115 137.809 125.224 138.077C123.041 138.656 96.9344 138.656 94.7514 138.077C93.8604 137.809 92.7021 137.097 92.1675 136.428C91.3211 135.315 91.2765 134.736 91.2765 119.588C91.2765 104.219 91.2765 103.862 92.2121 102.704C92.7467 102.036 93.5931 101.278 94.1277 101.1C94.6178 100.877 102.058 100.744 110.567 100.788L126.115 100.877L127.407 102.348ZM178.327 101.323C181.045 102.615 181.045 102.615 181.179 118.475C181.312 134.335 181.179 135.671 178.907 137.364C177.659 138.255 177.169 138.3 162.379 138.3C145.583 138.3 145.36 138.255 144.068 135.627C143.489 134.379 143.4 131.795 143.4 119.366C143.4 103.283 143.489 102.704 145.984 101.367C147.766 100.387 176.234 100.343 178.327 101.323Z" fill="#A1A1A1"/>
<path id="Vector_5" d="M2.71114 191.359C0.572732 192.829 0.394531 193.898 0.394531 205.125C0.394531 216.708 0.572732 217.644 3.06754 218.936C4.22584 219.515 16.4326 219.604 109.988 219.604C226.264 219.604 217.398 219.827 218.913 216.886C219.537 215.773 219.626 213.812 219.492 204.412L219.358 193.23L217.888 191.938L216.463 190.646H110.077C14.4278 190.646 3.60214 190.735 2.71114 191.359Z" fill="#A1A1A1"/>
</g>
</svg>
