<svg width="24" height="22" viewBox="0 0 24 22" fill="none" xmlns="http://www.w3.org/2000/svg">
<g id="Black">
<path id="Vector" d="M11.2861 0.500781C8.98922 0.716406 6.96422 2.13672 6.00329 4.20391C5.60485 5.06641 5.44079 5.76484 5.40329 6.75859C5.3611 7.86016 5.59547 8.98516 6.05954 9.90859C6.25641 10.293 6.73922 11.0289 6.8986 11.1742L7.0111 11.2773L11.6048 6.68359L16.2033 2.08984L16.0158 1.93047C14.8298 0.91328 12.9455 0.346093 11.2861 0.500781Z" fill="black"/>
<path id="Vector_2" d="M4.30091 0.951563C2.97434 1.19063 1.78841 1.95469 0.97278 3.10313C0.654031 3.55313 0.307156 4.28906 0.152468 4.84688L0.0259055 5.30625L0.011843 13.0313C0.00246803 20.5734 0.00246803 20.7563 0.0915305 20.9297C0.283718 21.3047 0.63528 21.5156 1.05716 21.5156C1.46028 21.5156 1.81653 21.3094 2.00872 20.9625C2.08372 20.8359 2.08841 20.1891 2.11184 13.2516C2.13528 6.16875 2.14466 5.6625 2.22434 5.40469C2.42591 4.72969 2.81028 4.13438 3.30247 3.72188C3.62591 3.45469 4.21184 3.16406 4.58684 3.08438C4.95247 3.00938 5.60403 3.02344 5.96966 3.12188L6.28841 3.20625L6.52278 2.88281C6.65403 2.70938 7.00091 2.33906 7.29153 2.05781L7.82591 1.54688L7.46497 1.37813C6.47122 0.918751 5.33684 0.764063 4.30091 0.951563Z" fill="black"/>
<path id="Vector_3" d="M16.3607 2.30991C16.1217 2.46928 7.3045 11.3099 7.21543 11.4787C6.99981 11.9005 7.22481 12.3974 7.67481 12.4818C8.08731 12.5615 7.87168 12.7537 12.7373 7.89272C15.2217 5.41303 17.2842 3.31772 17.3217 3.23803C17.4811 2.90522 17.3545 2.45522 17.0639 2.30522C16.8811 2.21147 16.5061 2.21616 16.3607 2.30991Z" fill="black"/>
<path id="Vector_4" d="M16.884 5.05625C16.748 5.19219 16.823 5.35156 17.1746 5.69375C17.3668 5.88125 17.5449 6.03125 17.5777 6.03125C17.7043 6.03125 17.8121 5.92812 17.8121 5.80156C17.8121 5.70312 17.7324 5.59531 17.4652 5.3375C17.1277 5.00469 16.9965 4.94375 16.884 5.05625Z" fill="black"/>
<path id="Vector_5" d="M14.5871 7.35312C14.4512 7.48906 14.5262 7.64844 14.8777 7.99062C15.0699 8.17812 15.248 8.32812 15.2808 8.32812C15.4074 8.32812 15.5152 8.225 15.5152 8.09844C15.5152 8 15.4355 7.89219 15.1683 7.63437C14.8308 7.30156 14.6996 7.24062 14.5871 7.35312Z" fill="#262B64"/>
<path id="Vector_6" d="M17.2627 7.775C17.1502 7.8875 17.2111 8.01875 17.544 8.35625C17.8018 8.62344 17.9096 8.70312 18.008 8.70312C18.1346 8.70312 18.2377 8.59531 18.2377 8.46875C18.2377 8.43594 18.0877 8.25781 17.9002 8.06562C17.558 7.71406 17.3986 7.63906 17.2627 7.775Z" fill="#262B64"/>
<path id="Vector_7" d="M19.9777 8.15058C19.8418 8.28652 19.9168 8.44589 20.2683 8.78808C20.6058 9.12089 20.7371 9.18183 20.8496 9.06933C20.9855 8.93339 20.9105 8.77402 20.559 8.43183C20.2215 8.09902 20.0902 8.03808 19.9777 8.15058Z" fill="#262B64"/>
<path id="Vector_8" d="M12.2902 9.65025C12.1543 9.78619 12.2293 9.94556 12.5808 10.2877C12.9418 10.6393 12.9793 10.6581 13.1293 10.5784C13.3121 10.4799 13.2418 10.3018 12.8762 9.93619C12.5387 9.59869 12.4074 9.53306 12.2902 9.65025Z" fill="#262B64"/>
<path id="Vector_9" d="M14.9658 10.0719C14.8533 10.1844 14.9143 10.3156 15.2471 10.6531C15.5049 10.9203 15.6127 11 15.7111 11C15.8377 11 15.9408 10.8922 15.9408 10.7656C15.9408 10.7328 15.7908 10.5547 15.6033 10.3625C15.2611 10.0109 15.1018 9.93594 14.9658 10.0719Z" fill="#262B64"/>
<path id="Vector_10" d="M17.7094 10.4428C17.6578 10.4709 17.625 10.5459 17.625 10.6209C17.625 10.7193 17.7047 10.8271 17.9719 11.085C18.3094 11.4178 18.4406 11.4787 18.5531 11.3662C18.6891 11.2303 18.6141 11.0709 18.2625 10.7287C17.9109 10.3865 17.8547 10.3584 17.7094 10.4428Z" fill="#262B64"/>
<path id="Vector_11" d="M20.3435 10.902C20.2638 11.052 20.2826 11.0895 20.6341 11.4504C20.9763 11.802 21.1357 11.877 21.2716 11.741C21.3841 11.6285 21.3232 11.4973 20.9904 11.1598C20.7326 10.8926 20.6248 10.8129 20.5263 10.8129C20.4419 10.8129 20.3763 10.8457 20.3435 10.902Z" fill="#262B64"/>
<path id="Vector_12" d="M23.1 11.2396C23.0484 11.2678 23.0156 11.3428 23.0156 11.4178C23.0156 11.5162 23.0953 11.624 23.3625 11.8818C23.7 12.2146 23.8313 12.2756 23.9438 12.1631C24.0797 12.0271 24.0047 11.8678 23.6531 11.5256C23.3016 11.1834 23.2453 11.1553 23.1 11.2396Z" fill="#262B64"/>
<path id="Vector_13" d="M9.96941 11.9892C9.86628 12.1345 9.91316 12.2282 10.2882 12.5892C10.6444 12.9361 10.6819 12.9548 10.8319 12.8751C11.0147 12.7767 10.9444 12.5986 10.5788 12.2329C10.2132 11.872 10.0866 11.8204 9.96941 11.9892Z" fill="#262B64"/>
<path id="Vector_14" d="M12.6709 12.3684C12.5537 12.4856 12.6193 12.6215 12.9568 12.959C13.3225 13.3247 13.5006 13.3903 13.599 13.2028C13.6787 13.0575 13.6271 12.9637 13.2756 12.6215C12.9475 12.3122 12.7928 12.2465 12.6709 12.3684Z" fill="#262B64"/>
<path id="Vector_15" d="M15.4125 12.7396C15.3609 12.7678 15.3281 12.8428 15.3281 12.9178C15.3281 13.0162 15.4078 13.124 15.675 13.3818C16.0125 13.7146 16.1438 13.7756 16.2563 13.6631C16.3922 13.5271 16.3172 13.3678 15.9656 13.0256C15.6141 12.6834 15.5578 12.6553 15.4125 12.7396Z" fill="#262B64"/>
<path id="Vector_16" d="M18.0466 13.1993C17.9669 13.3493 17.9857 13.3868 18.3373 13.7477C18.6841 14.1087 18.8529 14.179 18.9841 14.0243C19.0826 13.9071 18.9982 13.7477 18.6607 13.4243C18.3138 13.0915 18.1404 13.0258 18.0466 13.1993Z" fill="#262B64"/>
<path id="Vector_17" d="M20.8266 13.5365C20.7469 13.5646 20.7188 13.6115 20.7188 13.71C20.7188 13.8131 20.7938 13.9162 21.0656 14.1787C21.4031 14.5115 21.5344 14.5725 21.6469 14.46C21.7781 14.3287 21.7078 14.1693 21.3891 13.8553C21.0375 13.5131 20.9766 13.4803 20.8266 13.5365Z" fill="#262B64"/>
<path id="Vector_18" d="M13.1156 15.0365C13.0641 15.0646 13.0312 15.1396 13.0312 15.2146C13.0312 15.3131 13.1109 15.4209 13.3781 15.6787C13.7156 16.0115 13.8469 16.0725 13.9594 15.96C14.0906 15.8287 14.0203 15.674 13.6734 15.3271C13.3266 14.9803 13.2609 14.9475 13.1156 15.0365Z" fill="#262B64"/>
<path id="Vector_19" d="M15.7498 15.4962C15.6701 15.6462 15.6888 15.6837 16.0404 16.0446C16.3873 16.4055 16.556 16.4758 16.6872 16.3212C16.7857 16.204 16.7013 16.0446 16.3638 15.7212C16.0169 15.3883 15.8435 15.3227 15.7498 15.4962Z" fill="#262B64"/>
<path id="Vector_20" d="M18.5297 15.8354C18.4547 15.8635 18.4219 15.9104 18.4219 16.0041C18.4219 16.1025 18.5063 16.215 18.7594 16.4729C19.0969 16.8104 19.2328 16.876 19.35 16.7588C19.4813 16.6275 19.4109 16.4682 19.0922 16.1541C18.7406 15.8119 18.6797 15.7791 18.5297 15.8354Z" fill="#262B64"/>
<path id="Vector_21" d="M16.2328 18.1322C16.1578 18.1604 16.125 18.2072 16.125 18.301C16.125 18.3994 16.2094 18.5119 16.4625 18.7697C16.8 19.1072 16.9359 19.1729 17.0531 19.0557C17.1844 18.9244 17.1141 18.765 16.7953 18.451C16.4438 18.1088 16.3828 18.076 16.2328 18.1322Z" fill="#262B64"/>
</g>
</svg>
