<svg width="20" height="24" viewBox="0 0 20 24" fill="none" xmlns="http://www.w3.org/2000/svg">
<g id="Black">
<path id="Vector" d="M1.11719 1.00312C1.0375 1.03594 0.915625 1.13437 0.845313 1.21406L0.71875 1.36875V6.55312C0.71875 11.6156 0.723438 11.7469 0.8125 11.8922C1.00469 12.2109 0.995313 12.2109 3.13281 12.2109C5.27031 12.2109 5.26094 12.2109 5.45312 11.8922C5.54219 11.7469 5.54688 11.6156 5.54688 6.55312V1.36875L5.42031 1.21406C5.18594 0.9375 5.16719 0.9375 3.12344 0.9375C1.67969 0.942187 1.225 0.956249 1.11719 1.00312Z" fill="black"/>
<path id="Vector_2" d="M7.40313 10.7789C7.04688 10.8867 6.86406 11.2383 6.85938 11.8195V12.232H11.8891C14.6594 12.232 17.3078 12.2461 17.7719 12.2648L18.625 12.293V11.8617C18.625 11.2383 18.4422 10.882 18.0672 10.7789C17.8563 10.7227 7.6 10.7227 7.40313 10.7789Z" fill="black"/>
<path id="Vector_3" d="M1.56553 13.0631C1.36865 13.7006 1.31709 14.1599 1.34521 15.0927C1.36396 15.7209 1.39678 16.0865 1.46709 16.4193C1.79521 17.9193 2.49834 19.274 3.50615 20.3287C4.34053 21.2052 5.16084 21.7537 6.27646 22.1756L6.74521 22.3537L3.62334 22.3584C1.16709 22.3584 0.487402 22.3724 0.421777 22.4193C0.299902 22.5084 0.309277 22.7756 0.440527 22.8834C0.538965 22.9631 0.693652 22.9677 3.20146 22.9677C4.65928 22.9677 8.91084 22.9912 12.6468 23.0146C17.2171 23.0427 19.4718 23.0427 19.528 23.0099C19.5796 22.9818 19.6358 22.9162 19.6546 22.8599C19.6968 22.7427 19.6358 22.5177 19.5468 22.4849C19.514 22.4709 17.9437 22.4474 16.064 22.424L12.6374 22.3912L12.6093 22.2506C12.5952 22.1756 12.5812 21.5146 12.5812 20.7834V19.4521H12.2343C11.8499 19.4521 11.7374 19.3912 11.7374 19.1943C11.7374 19.0115 11.8968 18.9506 12.4405 18.9224C15.2671 18.7677 17.7468 16.6443 18.3374 13.874C18.389 13.6302 18.4452 13.2881 18.464 13.1193L18.4968 12.8099L16.6546 12.7818C15.6421 12.7631 11.8546 12.749 8.24053 12.749H1.66396L1.56553 13.0631Z" fill="black"/>
</g>
</svg>
