<svg width="24" height="22" viewBox="0 0 24 22" fill="none" xmlns="http://www.w3.org/2000/svg">
<g id="Black">
<path id="Vector" d="M4.66221 0.362274C3.74346 0.526337 2.97471 1.10759 2.58565 1.92321C2.48253 2.13415 2.3794 2.42009 2.35128 2.55602C2.31846 2.72009 2.29971 3.77009 2.29971 5.60759V8.4154L1.84034 8.43415C1.45596 8.44821 1.33878 8.47165 1.11378 8.57946C0.607526 8.83259 0.345026 9.29196 0.387214 9.87321C0.415339 10.2341 0.527839 10.4873 0.785651 10.731C1.12784 11.0638 1.26378 11.0966 2.34659 11.0966C3.79971 11.0966 4.97159 11.2326 6.61221 11.5841C7.98565 11.8795 9.7669 12.4091 10.8544 12.8404C12.0028 13.2998 13.1138 13.6091 14.206 13.7685C17.37 14.2326 20.5856 13.7263 22.7653 12.4279C23.4403 12.0248 23.6231 11.7482 23.6278 11.1435C23.6278 10.7123 23.5013 10.4076 23.2153 10.1498C22.9341 9.89665 22.7232 9.81696 22.3106 9.81227C21.9919 9.80759 21.9263 9.82634 21.6778 9.96227C19.4466 11.1904 17.0231 11.5607 14.37 11.0732C13.531 10.9185 12.9075 10.7357 11.7497 10.3045C8.79659 9.20759 6.13409 8.59352 3.64971 8.44352L3.09659 8.41071V5.63571C3.09659 2.98259 3.10128 2.84196 3.19034 2.55134C3.36846 1.97477 3.84659 1.48259 4.45596 1.24821C4.77003 1.12634 5.77315 1.07009 6.21378 1.15446C6.64034 1.23415 7.05284 1.44977 7.33878 1.74509C7.59659 2.00759 7.84503 2.45759 7.90128 2.7529L7.9294 2.91696L7.61065 3.02946C6.82784 3.30134 6.26534 3.92477 6.10128 4.71227C6.0169 5.11071 6.03565 5.30759 6.16221 5.45759L6.27471 5.58884H8.34659H10.4185L10.531 5.45759C10.6575 5.30759 10.6763 5.11071 10.5919 4.71227C10.4278 3.9154 9.79503 3.22634 9.03096 3.00602L8.74034 2.92165L8.68409 2.61696C8.55284 1.89977 7.99503 1.10759 7.3669 0.737274C6.8419 0.432587 6.51378 0.3529 5.65128 0.334149C5.23878 0.329462 4.79346 0.338837 4.66221 0.362274Z" fill="black"/>
<path id="Vector_2" d="M1.875 11.8352C1.875 11.8633 2.20312 13.3492 2.60156 15.1352C3.225 17.9102 3.35625 18.4352 3.50156 18.7305C3.81094 19.368 4.40156 19.8227 5.13281 19.9773C5.625 20.0805 18.4687 20.0805 18.9609 19.9773C19.4391 19.8742 19.8422 19.6586 20.175 19.3258C20.6625 18.8336 20.7 18.7352 21.2906 16.0773C21.5766 14.7789 21.8016 13.7102 21.7875 13.6961C21.7781 13.682 21.6328 13.7242 21.4641 13.7898C20.1844 14.2914 18.5812 14.6008 17.0062 14.643C14.7891 14.7039 12.8578 14.3523 10.6172 13.4852C8.90625 12.8195 6.44531 12.1867 4.49062 11.9102C3.82969 11.8211 1.875 11.7602 1.875 11.8352Z" fill="black"/>
<path id="Vector_3" d="M5.57812 20.8276C5.57812 20.9776 5.73281 21.226 5.93906 21.4088C6.48281 21.887 7.34063 21.676 7.62656 21.001C7.65938 20.9167 7.6875 20.8276 7.6875 20.7995C7.6875 20.7713 7.32656 20.7526 6.63281 20.7526C5.69531 20.7526 5.57812 20.762 5.57812 20.8276Z" fill="black"/>
<path id="Vector_4" d="M16.3125 20.808C16.3172 20.9533 16.5047 21.2627 16.6828 21.4174C17.0438 21.7267 17.5266 21.7642 17.9391 21.5205C18.1641 21.3892 18.3563 21.1361 18.4031 20.9017L18.4359 20.7517H17.3719C16.5563 20.7517 16.3125 20.7658 16.3125 20.808Z" fill="black"/>
</g>
</svg>
