<svg width="24" height="24" viewBox="0 0 24 24" fill="none" xmlns="http://www.w3.org/2000/svg">
<g id="Black">
<path id="Vector" d="M4.40156 0.904688C4.11562 1.09219 4.07812 1.2375 4.07812 2.11875V2.90625H2.96719C1.73906 2.90625 1.69219 2.91563 1.49531 3.21563C1.41562 3.34219 1.40625 3.45938 1.40625 4.72031V6.09375H3.46875H5.53125V4.17188V2.25469L8.26406 2.24063C10.9125 2.22656 10.9969 2.22188 11.1562 2.13281C11.4937 1.93125 11.6109 1.45313 11.4 1.11563C11.1937 0.782813 11.3437 0.796875 7.76719 0.796875H4.56094L4.40156 0.904688Z" fill="black"/>
<path id="Vector_2" d="M0.678031 7.56562C0.401469 7.69687 0.171781 7.92187 0.0733436 8.16562C-0.0204064 8.38125 -0.0250939 8.90156 0.0639686 9.1125C0.153031 9.32812 0.401469 9.6 0.626469 9.71719L0.818656 9.82031H11.9983H23.178L23.3702 9.71719C23.5952 9.6 23.8437 9.32812 23.9327 9.1125C24.0218 8.90156 24.0171 8.38125 23.9233 8.16562C23.8249 7.92187 23.5952 7.69687 23.3187 7.56562L23.0843 7.45312H11.9983H0.912406L0.678031 7.56562Z" fill="black"/>
<path id="Vector_3" d="M0.972316 11.8219C0.911379 13.0781 1.06607 13.2609 2.15825 13.2656C2.8145 13.2656 2.96919 13.3172 3.14263 13.6031C3.23638 13.7531 3.23638 13.8516 3.23638 18.1875C3.23638 22.4531 3.24107 22.6266 3.33013 22.8141C3.38169 22.9312 3.48482 23.0531 3.57388 23.1094C3.72857 23.2031 3.79419 23.2031 9.92075 23.2031H16.1129L16.2723 23.0953C16.577 22.8937 16.5864 22.8375 16.6098 21.0797L16.6286 19.5H12.602C8.24263 19.5 8.45825 19.5141 8.20982 19.2469C8.04107 19.0641 8.01763 18.6891 8.16763 18.4688C8.402 18.1172 8.00825 18.1406 13.6708 18.1406C17.9176 18.1406 18.8036 18.1312 19.1317 18.0703C20.9692 17.7516 22.3708 16.4719 22.9286 14.6203C23.027 14.3016 23.0364 14.1562 23.0551 12.7359L23.0692 11.2031H12.0348H1.00044L0.972316 11.8219Z" fill="black"/>
</g>
</svg>
