<svg width="24" height="24" viewBox="0 0 24 24" fill="none" xmlns="http://www.w3.org/2000/svg">
<g id="Black">
<path id="Vector" d="M5.67031 0.117969C3.14844 0.544531 1.07188 2.34453 0.289063 4.78672C0.209375 5.03516 0.129688 5.34453 0.110938 5.47578L0.078125 5.71953L0.659375 5.44297C1.68125 4.95547 2.75469 4.63203 3.95938 4.44922C4.73281 4.32734 6.25625 4.30391 6.98281 4.39766C8.25313 4.56641 9.58438 4.95078 10.6297 5.46172L11.2484 5.76172V4.81016C11.2484 4.28984 11.225 3.73672 11.1969 3.58203C10.8922 1.84766 9.56094 0.488281 7.8125 0.117969C7.41406 0.0335937 6.17188 0.0335937 5.67031 0.117969Z" fill="black"/>
<path id="Vector_2" d="M16.1719 0.113281C14.6156 0.474218 13.4109 1.55234 12.9469 3.00078C12.7828 3.50703 12.75 3.81641 12.75 4.81016V5.76172L13.3688 5.46172C14.4141 4.95078 15.7453 4.56641 17.0156 4.39766C17.7469 4.30391 19.2656 4.32734 20.0531 4.44922C21.2438 4.63203 22.3125 4.95078 23.3391 5.44297L23.9203 5.71953L23.8875 5.47578C23.8406 5.14766 23.6063 4.41641 23.3859 3.94297C22.95 3.00078 22.0453 1.91797 21.1734 1.29453C20.4422 0.774219 19.5188 0.366406 18.6094 0.164844C18.1406 0.0617185 16.5422 0.0242186 16.1719 0.113281Z" fill="black"/>
<path id="Vector_3" d="M4.99219 5.70156C3.1125 5.88906 1.94531 6.23594 0.548438 7.02812L0 7.3375V8.01719C0 8.95 0.16875 11.4906 0.2625 12.0297L0.290625 12.1797L0.810938 11.9453C1.47188 11.65 2.40469 11.3359 3.075 11.1859C4.5 10.8625 6.26719 10.825 7.73438 11.0875C8.25 11.1812 9.24375 11.4578 9.69375 11.6312C9.89062 11.7062 10.0781 11.7672 10.1063 11.7672C10.1625 11.7672 10.5141 10.6516 10.7344 9.76094C10.9078 9.07187 11.1 7.97031 11.1188 7.55781L11.1328 7.25781L10.6078 6.96719C9.60469 6.40469 8.31094 5.97344 7.12031 5.79531C6.63281 5.72031 5.34375 5.66406 4.99219 5.70156Z" fill="black"/>
<path id="Vector_4" d="M17.4719 5.71953C16.0375 5.85078 14.5375 6.31484 13.3094 7.00859L12.8359 7.27578L12.8688 7.56641C12.9297 8.11484 13.1219 9.18359 13.2672 9.76016C13.5063 10.7258 13.8391 11.7664 13.9047 11.7664C13.9422 11.7664 14.1203 11.7055 14.3078 11.6305C14.7344 11.4617 15.7375 11.1852 16.2672 11.0867C17.6875 10.8336 19.375 10.857 20.7859 11.1523C21.625 11.3305 22.8156 11.7336 23.4906 12.0758L23.7109 12.1836L23.7391 12.0336C23.8328 11.4898 24.0016 8.94922 24.0016 8.01641V7.33672L23.4953 7.04609C22.3516 6.38984 20.9828 5.93047 19.6891 5.76641C19.1125 5.69609 18.0016 5.67266 17.4719 5.71953Z" fill="black"/>
<path id="Vector_5" d="M4.21301 12.3523C3.63645 12.432 2.87238 12.6148 2.24895 12.8258C1.73801 12.9992 0.55207 13.5429 0.49582 13.632C0.481757 13.6554 0.509882 13.9836 0.556757 14.3492C0.75832 15.8492 0.969257 17.8086 1.10051 19.4773C1.18488 20.532 1.23176 20.8086 1.39113 21.2539C1.86457 22.5851 3.02238 23.5929 4.41457 23.8836C4.93488 23.9961 5.75988 23.9773 6.29426 23.8414C7.46145 23.5461 8.42707 22.7586 8.95207 21.6804C9.34582 20.8742 9.33644 20.9633 9.37395 18.1883C9.41145 15.8867 9.43957 15.3195 9.56613 14.4383C9.62238 14.0258 9.74426 13.3226 9.77707 13.2101C9.80519 13.1164 9.68801 13.0601 8.9052 12.7976C7.78957 12.4226 6.86144 12.282 5.55832 12.2867C5.06613 12.2914 4.46145 12.3195 4.21301 12.3523Z" fill="black"/>
<path id="Vector_6" d="M16.9902 12.3523C16.4184 12.432 16.1043 12.4976 15.4527 12.6851C14.6746 12.9101 14.1918 13.1164 14.2199 13.2148C14.234 13.257 14.2762 13.4679 14.3137 13.6883C14.5527 15.0242 14.623 16.1492 14.623 18.6804C14.623 20.6914 14.6512 20.8789 15.0402 21.6804C15.5699 22.7586 16.5355 23.5461 17.7027 23.8414C18.2418 23.9773 19.0574 23.9961 19.5918 23.8836C20.9324 23.6023 22.1277 22.5758 22.5824 21.3148C22.7652 20.8086 22.8074 20.5648 22.8965 19.4773C23.0277 17.8086 23.2387 15.8492 23.4402 14.3492C23.4871 13.9836 23.5152 13.6554 23.5012 13.632C23.4496 13.5523 22.2871 13.0086 21.8184 12.8445C21.2324 12.6383 20.3699 12.432 19.7418 12.3523C19.1043 12.2679 17.5996 12.2679 16.9902 12.3523Z" fill="black"/>
</g>
</svg>
