<svg width="24" height="24" viewBox="0 0 24 24" fill="none" xmlns="http://www.w3.org/2000/svg">
<g id="Black">
<path id="Vector" d="M10.1332 0.0562496C10.1472 0.0890622 10.5644 1.34531 11.066 2.84531C11.5676 4.35 11.9847 5.57812 11.9988 5.57812C12.0129 5.57812 12.4301 4.35 12.9316 2.84531C13.4332 1.34531 13.8504 0.0890622 13.8644 0.0562496C13.8785 0.0140624 13.4894 0 11.9988 0C10.5082 0 10.1191 0.0140624 10.1332 0.0562496Z" fill="black"/>
<path id="Vector_2" d="M7.48322 0.515624C6.86916 0.670312 6.35822 0.829687 6.28791 0.881249C6.15197 0.984375 1.34729 9.66094 1.39885 9.7125C1.4551 9.76875 6.14729 12.7031 6.1801 12.7031C6.19885 12.7031 6.34416 12.4641 6.49885 12.1734L6.78947 11.6484L9.68166 11.6344C12.4051 11.625 12.5692 11.6203 12.5457 11.5406C12.5317 11.4984 11.6785 8.93906 10.652 5.85937C8.87541 0.534374 8.77697 0.257812 8.66916 0.248437C8.60822 0.24375 8.07385 0.365624 7.48322 0.515624Z" fill="black"/>
<path id="Vector_3" d="M15.2094 0.291337C15.1953 0.324149 14.6281 2.02571 13.9484 4.06477L12.7109 7.78196L13.3484 9.70384L13.9906 11.6257L15.6031 11.6351L17.2203 11.6491L17.5109 12.1648C17.6703 12.446 17.8297 12.6804 17.8625 12.6757C17.9094 12.671 22.5031 9.82571 22.6344 9.72259C22.6625 9.69915 17.9047 1.06946 17.8016 0.952274C17.6703 0.811649 17.5953 0.788212 16.4188 0.4929C15.2938 0.216337 15.2422 0.206962 15.2094 0.291337Z" fill="black"/>
<path id="Vector_4" d="M0.3375 11.5398C0.0421875 12.0836 0 12.1961 0 12.4023C0 12.5711 0.028125 12.6883 0.103125 12.7961C0.182813 12.9086 0.721875 13.2742 1.99219 14.0758C2.97188 14.6898 3.86719 15.2383 3.97969 15.2898C4.23281 15.407 4.53281 15.3742 4.72969 15.2055C4.875 15.0836 5.50313 14.0008 5.475 13.9211C5.46094 13.8742 0.764063 10.9211 0.707813 10.9211C0.689063 10.9211 0.525 11.2023 0.3375 11.5398Z" fill="black"/>
<path id="Vector_5" d="M20.8734 12.4117C19.575 13.2273 18.5156 13.9117 18.5156 13.9352C18.5156 14.0336 19.1531 15.107 19.2703 15.2055C19.4672 15.3742 19.7672 15.407 20.0203 15.2898C20.1328 15.2383 21.0281 14.6898 22.0078 14.0758C23.9625 12.8477 24 12.8148 24 12.4023C24 12.1961 23.9578 12.0836 23.6625 11.5398C23.475 11.2023 23.3016 10.9211 23.2781 10.9258C23.25 10.9258 22.1672 11.5961 20.8734 12.4117Z" fill="black"/>
<path id="Vector_6" d="M6.75 18.1969C6.75 23.2406 6.75469 23.4187 6.84375 23.6109C6.89531 23.7281 6.99844 23.85 7.0875 23.9062C7.2375 23.9953 7.31719 24 10.0453 24H12.8438V19.0781C12.8438 16.2844 12.825 14.1562 12.8016 14.1562C12.7781 14.1562 12.3563 14.6109 11.8594 15.1687C11.3672 15.7219 10.8938 16.2187 10.8141 16.2703C10.5516 16.4297 10.2328 16.3781 10.0125 16.1391C9.83906 15.9562 9.78281 15.7125 9.85313 15.4969C9.89063 15.3937 10.2984 14.8922 10.9359 14.1844C11.4938 13.5516 11.9531 13.0266 11.9531 13.0125C11.9531 12.9984 10.7812 12.9844 9.35156 12.9844H6.75V18.1969Z" fill="black"/>
<path id="Vector_7" d="M14.2031 18.4922V24H15.4875C16.7391 24 16.7719 23.9953 16.9219 23.8922C17.0063 23.8359 17.1141 23.7141 17.1609 23.625C17.2453 23.4703 17.25 23.2312 17.25 18.225V12.9844H15.7266H14.2031V18.4922Z" fill="black"/>
</g>
</svg>
