<svg width="24" height="25" viewBox="0 0 24 25" fill="none" xmlns="http://www.w3.org/2000/svg">
<g id="Black">
<path id="Vector" d="M6.56267 0.321875C6.23454 0.579687 0.211105 5.99844 0.117355 6.12031C0.00954298 6.26562 -0.027957 6.64531 0.047043 6.82812C0.0798555 6.90781 0.178293 7.03437 0.267356 7.10938L0.426731 7.25H7.04079H13.6549L13.8611 7.03906L14.072 6.82812L14.0533 6.53281C14.0439 6.34062 14.0064 6.2 13.9455 6.125C13.8564 6.00312 7.83298 0.584375 7.50017 0.321875C7.33142 0.190625 7.27048 0.171875 7.03142 0.171875C6.79236 0.171875 6.73142 0.190625 6.56267 0.321875Z" fill="black"/>
<path id="Vector_2" d="M1.40859 15.7109V22.7656H0.930469C0.400781 22.7656 0.264844 22.8172 0.0914063 23.075C-0.0304688 23.2578 -0.0304688 23.6797 0.0914063 23.8625C0.288281 24.1578 0.349219 24.1719 1.40859 24.1719C2.46797 24.1719 2.52891 24.1578 2.72578 23.8625C2.81016 23.7359 2.81484 23.6094 2.81484 21.8375V19.9531H3.51797H4.22109V21.8375C4.22109 23.6094 4.22578 23.7359 4.31016 23.8625C4.45547 24.0781 4.63359 24.1719 4.92422 24.1719C5.21484 24.1719 5.39297 24.0781 5.53828 23.8625C5.60859 23.75 5.62734 23.6375 5.62734 23.2438V22.7656H7.03359H8.43984V23.2438C8.43984 23.6375 8.45859 23.75 8.52891 23.8625C8.67422 24.0781 8.85234 24.1719 9.14297 24.1719C9.43359 24.1719 9.61172 24.0781 9.75703 23.8625C9.84141 23.7359 9.84609 23.6094 9.84609 21.8375V19.9531H10.5492H11.2523V21.8375C11.2523 23.6094 11.257 23.7359 11.3414 23.8625C11.5383 24.1578 11.5992 24.1719 12.6586 24.1719C13.718 24.1719 13.7789 24.1578 13.9758 23.8625C14.0977 23.6797 14.0977 23.2578 13.9758 23.075C13.8023 22.8172 13.6664 22.7656 13.1414 22.7656H12.6586V15.7109V8.65625H7.03359H1.40859V15.7109ZM7.71328 10.1797C8.20547 10.3063 8.57109 10.5219 8.97891 10.9297C9.56016 11.5063 9.79922 12.0781 9.79922 12.875C9.79922 13.6719 9.56016 14.2438 8.97891 14.8203C8.40234 15.4016 7.83047 15.6406 7.03359 15.6406C6.23672 15.6406 5.66484 15.4016 5.08828 14.8203C4.50703 14.2438 4.26797 13.6719 4.26797 12.875C4.26797 12.0781 4.50703 11.5063 5.08828 10.9297C5.48672 10.5266 5.85703 10.3063 6.33047 10.1844C6.67266 10.0953 7.36641 10.0906 7.71328 10.1797ZM4.22109 17.8438V18.5469H3.51797H2.81484V17.8438V17.1406H3.51797H4.22109V17.8438ZM8.43984 17.8438V18.5469H7.03359H5.62734V17.8438V17.1406H7.03359H8.43984V17.8438ZM11.2523 17.8438V18.5469H10.5492H9.84609V17.8438V17.1406H10.5492H11.2523V17.8438ZM8.43984 20.6563V21.3594H7.03359H5.62734V20.6563V19.9531H7.03359H8.43984V20.6563Z" fill="black"/>
<path id="Vector_3" d="M14.0625 14.3508V15.7758L14.2172 15.8555C14.4328 15.9633 14.7094 16.2398 14.8219 16.4602C14.8781 16.5633 15.3469 17.9555 15.8672 19.5586C16.3922 21.157 16.8703 22.568 16.9359 22.6992C17.2219 23.2523 17.8594 23.8055 18.4875 24.0398C18.7641 24.143 18.825 24.143 20.85 24.1617L22.9266 24.1758L23.175 24.0633C23.7047 23.8195 24 23.3555 24 22.7648C24 22.2023 23.7328 21.7523 23.2359 21.4898C23.0438 21.3867 22.9828 21.382 21.4453 21.3539C20.2313 21.3352 19.8094 21.3117 19.6781 21.2602C19.3922 21.1523 19.0922 20.9086 18.9656 20.6883C18.8953 20.5664 18.5016 19.3664 18.0469 17.8898C17.3344 15.5602 17.2313 15.2602 17.0297 14.9227C16.6078 14.2195 15.9188 13.5961 15.2109 13.268C14.9016 13.1273 14.2594 12.9211 14.1234 12.9211C14.0766 12.9211 14.0625 13.2258 14.0625 14.3508Z" fill="black"/>
</g>
</svg>
