<svg width="24" height="18" viewBox="0 0 24 18" fill="none" xmlns="http://www.w3.org/2000/svg">
<g id="Black">
<path id="Vector" d="M10.8921 0.687498C8.60456 0.804686 6.74362 1.23125 5.38894 1.95312C5.01394 2.15469 4.45612 2.69375 4.15144 3.1625C3.83737 3.64531 3.42956 4.45156 3.15769 5.12656L2.928 5.70312H1.66237C0.490499 5.70312 0.387374 5.7125 0.260812 5.79219C-0.0532506 6.00312 -0.0673131 6.24219 0.176437 7.39531C0.420187 8.525 0.481124 8.60469 1.14675 8.64687C1.54987 8.67031 1.60144 8.69375 1.47487 8.79687C1.34831 8.9 0.987374 9.57031 0.870187 9.92187C0.809249 10.1141 0.729562 10.4187 0.696749 10.5969C0.626437 11.0187 0.668624 12.1016 0.771749 12.4766C0.945187 13.1047 1.29675 13.7375 1.71394 14.1875L1.91081 14.3984L1.92956 15.6875C1.94362 16.9156 1.94831 16.9859 2.04675 17.1734C2.18269 17.4219 2.403 17.5906 2.67019 17.6516C2.78737 17.6797 3.378 17.7031 3.98737 17.7031C5.24362 17.7031 5.45925 17.6656 5.703 17.4125C5.94206 17.1594 5.97019 17.0656 5.98894 16.4234L6.00769 15.8281H11.9983H17.9889L18.0077 16.4234C18.0264 17.0656 18.0546 17.1594 18.2936 17.4125C18.5374 17.6656 18.753 17.7031 20.0093 17.7031C20.6186 17.7031 21.2092 17.6797 21.3264 17.6516C21.5936 17.5906 21.8139 17.4219 21.9499 17.1734C22.0483 16.9859 22.053 16.9156 22.0671 15.7109L22.0811 14.4453L22.2405 14.2812C22.7749 13.7141 23.1593 12.9359 23.2999 12.1484C23.3796 11.675 23.328 10.6437 23.2014 10.2078C23.0842 9.79531 22.8405 9.29844 22.5874 8.9375L22.4046 8.67969L22.8264 8.64687C23.5249 8.6 23.5764 8.52969 23.8202 7.39531C24.0639 6.24219 24.0499 6.00312 23.7358 5.79219C23.6092 5.7125 23.5061 5.70312 22.3342 5.70312H21.0686L20.8389 5.12656C20.5718 4.46094 20.1686 3.65937 19.8452 3.16719C19.5452 2.70312 18.9874 2.15937 18.603 1.94844C16.8967 1.02031 13.9296 0.537498 10.8921 0.687498ZM13.8546 2.63281C15.8655 2.81562 17.5577 3.33594 18.0686 3.93594C18.3827 4.30156 18.8139 5.14531 19.2124 6.16719L19.3952 6.64062H11.9983H4.60144L4.78425 6.16719C5.19675 5.1125 5.61394 4.29687 5.93269 3.93125C6.48112 3.30312 8.26237 2.77344 10.3811 2.60937C11.5811 2.51562 12.6217 2.525 13.8546 2.63281ZM5.91394 9.93125C6.72487 10.3062 7.15144 11.2062 6.90769 12.0266C6.53269 13.2922 5.03269 13.7469 4.04362 12.8984C3.27019 12.2375 3.21394 11.0937 3.92175 10.3391C4.29675 9.93594 4.68581 9.77656 5.24831 9.79531C5.55769 9.80469 5.70769 9.8375 5.91394 9.93125ZM19.3389 9.86094C20.3983 10.2125 20.8905 11.3609 20.4124 12.3453C20.1546 12.8656 19.578 13.2641 18.9967 13.325C18.1624 13.4141 17.328 12.8422 17.1077 12.0312C16.8077 10.9156 17.6467 9.8 18.7999 9.78594C18.9686 9.78125 19.2077 9.81406 19.3389 9.86094Z" fill="black"/>
</g>
</svg>
