<svg width="24" height="15" viewBox="0 0 24 15" fill="none" xmlns="http://www.w3.org/2000/svg">
<g id="Black">
<path id="Vector" d="M5.32081 0.0653057C5.14737 0.140306 4.93644 0.379369 4.88487 0.552806C4.86612 0.623118 4.85206 3.62312 4.85206 7.21843C4.85206 14.5356 4.82394 13.9075 5.18956 14.1887C5.35362 14.3153 5.38644 14.32 5.97237 14.3341C6.54425 14.3481 6.6005 14.3434 6.79269 14.2403C6.938 14.1606 7.03644 14.0622 7.11144 13.9216L7.21925 13.72V7.17156V0.623118L7.11144 0.421556C6.93331 0.0840559 6.71769 -0.000319481 6.02863 -0.000319481C5.663 0.00436878 5.40987 0.0278063 5.32081 0.0653057Z" fill="black"/>
<path id="Vector_2" d="M17.2078 0.102806C17.0625 0.182493 16.9641 0.280931 16.8891 0.421556L16.7812 0.623118V7.17156V13.72L16.8891 13.9216C16.9641 14.0622 17.0625 14.1606 17.2078 14.2403C17.4 14.3434 17.4562 14.3481 18.0281 14.3341C18.6141 14.32 18.6469 14.3153 18.8109 14.1887C19.1766 13.9075 19.1484 14.5122 19.1625 7.38249C19.1719 3.87624 19.1625 0.899681 19.1484 0.763743C19.1156 0.496556 18.9891 0.276243 18.7828 0.121556C18.6656 0.0371809 18.5719 0.023118 18.0328 0.00905609C17.4562 -0.00500679 17.4 -0.000319481 17.2078 0.102806Z" fill="black"/>
<path id="Vector_3" d="M2.60156 2.81562C2.41875 2.86719 2.20781 3.06406 2.12813 3.26094C2.07188 3.39219 2.0625 4.07656 2.0625 7.17969C2.0625 10.8312 2.06719 10.9437 2.15625 11.1266C2.20781 11.2344 2.325 11.3703 2.42344 11.4359C2.5875 11.5484 2.62969 11.5531 3.40781 11.5672L4.21875 11.5859V7.175V2.76406L3.48281 2.76875C3.075 2.76875 2.68125 2.79219 2.60156 2.81562Z" fill="black"/>
<path id="Vector_4" d="M19.7812 7.16719V11.5781H20.4984C20.8875 11.5781 21.2859 11.5547 21.375 11.5312C21.5672 11.4797 21.8156 11.2453 21.8859 11.0484C21.9234 10.9594 21.9375 9.69375 21.9375 7.1625C21.9375 3.51094 21.9328 3.39844 21.8438 3.21562C21.7922 3.10781 21.675 2.97187 21.5766 2.90625C21.4125 2.79375 21.3703 2.78906 20.5922 2.775L19.7812 2.76094V7.16719Z" fill="black"/>
<path id="Vector_5" d="M0 7.17188V8.53125H0.703125H1.40625V7.17188V5.8125H0.703125H0V7.17188Z" fill="black"/>
<path id="Vector_6" d="M7.875 7.17188V8.53125H12H16.125V7.17188V5.8125H12H7.875V7.17188Z" fill="black"/>
<path id="Vector_7" d="M22.5938 7.17188V8.53125H23.2969H24V7.17188V5.8125H23.2969H22.5938V7.17188Z" fill="black"/>
</g>
</svg>
