<svg width="18" height="25" viewBox="0 0 18 25" fill="none" xmlns="http://www.w3.org/2000/svg">
<g id="Black">
<path id="Vector" d="M14.5844 0.275C14.4391 0.36875 14.1579 0.917187 11.9922 5.27187C10.6563 7.96719 9.56881 10.175 9.57819 10.1891C9.59225 10.1984 9.7235 10.1328 9.8735 10.0437C10.6141 9.60781 11.4719 9.5375 12.2454 9.85156C12.4047 9.91719 12.9438 10.2406 13.4501 10.5781C13.961 10.9109 14.3922 11.1875 14.4204 11.1875C14.4438 11.1875 14.6454 10.9156 14.8704 10.5875C15.0907 10.2594 15.7094 9.36406 16.2391 8.59062L17.2047 7.18906V6.92656C17.2047 6.63125 17.1157 6.45312 16.8954 6.30781C16.7688 6.22344 16.6422 6.21875 14.9688 6.21875C13.9797 6.21875 13.1735 6.20937 13.1735 6.19531C13.1735 6.18125 13.7454 5.03281 14.4391 3.64062C15.6157 1.2875 15.7047 1.09062 15.7047 0.865624C15.7047 0.589062 15.611 0.401562 15.3954 0.260937C15.1985 0.134375 14.7954 0.143749 14.5844 0.275Z" fill="black"/>
<path id="Vector_2" d="M1.10625 6.30781C0.885937 6.45312 0.796875 6.63125 0.796875 6.92656V7.18906L2.17031 9.18594C2.92031 10.2875 3.55781 11.1828 3.58125 11.1875C3.60937 11.1875 4.04062 10.9109 4.55156 10.5781C5.05781 10.2406 5.60156 9.9125 5.76094 9.85156C6.51094 9.54687 7.17656 9.58906 8.08594 9.99687C8.11875 10.0109 9.84844 6.58906 9.975 6.26094C9.98437 6.2375 8.1 6.21875 5.61562 6.21875C1.41094 6.21875 1.2375 6.22344 1.10625 6.30781Z" fill="black"/>
<path id="Vector_3" d="M6.49219 11.0281C6.24844 11.0891 6.06094 11.1969 5.27344 11.7172C4.80938 12.0266 4.41094 12.2937 4.39219 12.3125C4.36875 12.3312 5.24063 13.6344 6.32344 15.2094L8.29688 18.0687V20.4172V22.7656H5.89688C3.61875 22.7656 3.48281 22.7703 3.35625 22.8547C3.14062 23 3.04688 23.1781 3.04688 23.4688C3.04688 23.7594 3.14062 23.9375 3.35625 24.0828C3.4875 24.1672 3.68438 24.1719 9 24.1719C14.3156 24.1719 14.5125 24.1672 14.6438 24.0828C14.8594 23.9375 14.9531 23.7594 14.9531 23.4688C14.9531 23.1781 14.8594 23 14.6438 22.8547C14.5172 22.7703 14.3813 22.7656 12.1078 22.7656H9.70313V20.4172V18.0734L11.6766 15.2094C12.7594 13.6344 13.6313 12.3312 13.6078 12.3125C13.4859 12.2 11.8547 11.15 11.7188 11.0891C11.5078 11.0047 10.9922 11.0047 10.7813 11.0937C10.6922 11.1312 10.5 11.2297 10.3594 11.3094C10.0031 11.5203 9.59531 11.6469 9.15469 11.6844L8.77969 11.7172L8.38594 12.5094C8.17031 12.9453 7.94531 13.3438 7.88906 13.3953C7.55156 13.7141 7.03594 13.6203 6.81563 13.1937C6.69375 12.9641 6.74063 12.8047 7.125 12.0266C7.33125 11.6141 7.49063 11.2578 7.47656 11.2297C7.39219 11.0984 6.74531 10.9672 6.49219 11.0281Z" fill="black"/>
</g>
</svg>
