<svg width="24" height="18" viewBox="0 0 24 18" fill="none" xmlns="http://www.w3.org/2000/svg">
<g id="Black">
<path id="Vector" d="M11.2031 0.692969C8.50781 0.810157 5.87344 1.57422 3.53438 2.91953C2.44688 3.54297 1.22344 4.44766 0.398438 5.24453L-0.0234375 5.65234L1.0875 6.76328L2.19844 7.87891L2.56875 7.52266C2.775 7.32578 3.15 7.00234 3.40313 6.79609C6.37031 4.43828 10.2516 3.39766 14.0016 3.94609C16.7766 4.35391 19.4766 5.65703 21.4313 7.52266L21.8016 7.87891L22.9125 6.76328L24.0234 5.65234L23.6016 5.24453C22.7766 4.44766 21.5531 3.54297 20.4656 2.91953C18.1641 1.59766 15.4453 0.796094 12.9375 0.707032C12.5625 0.697657 12.1969 0.678906 12.1172 0.674219C12.0422 0.664844 11.6297 0.674219 11.2031 0.692969Z" fill="black"/>
<path id="Vector_2" d="M11.2031 6.85781C10.6641 6.90937 9.90938 7.03594 9.375 7.1625C7.65938 7.58437 5.94844 8.49844 4.6875 9.67969L4.33594 10.0125L5.44688 11.1234L6.55313 12.2344L6.9 11.9297C7.60781 11.3016 8.51719 10.7531 9.375 10.4391C12.0141 9.47812 14.9859 10.05 17.1 11.9297L17.4469 12.2344L18.5531 11.1234L19.6641 10.0125L19.3125 9.67969C17.7844 8.25 15.7266 7.275 13.5469 6.94687C13.0641 6.87656 11.6203 6.82031 11.2031 6.85781Z" fill="black"/>
<path id="Vector_3" d="M11.1703 13.0859C10.3969 13.2266 9.675 13.5594 9.04219 14.0703C8.86406 14.2156 8.71875 14.3469 8.71875 14.3656C8.71875 14.3844 9.45938 15.1391 10.3594 16.0391L12 17.6797L13.6406 16.0391C14.5453 15.1391 15.2813 14.3844 15.2813 14.3656C15.2813 14.3 14.5828 13.775 14.2594 13.5922C13.3734 13.0953 12.1828 12.9031 11.1703 13.0859Z" fill="black"/>
</g>
</svg>
