<svg width="24" height="18" viewBox="0 0 24 18" fill="none" xmlns="http://www.w3.org/2000/svg">
<g id="Black">
<path id="Vector" d="M17.938 0.529039C17.6708 0.627478 17.4598 0.800915 17.3145 1.05404L17.1833 1.27435L17.1692 3.8056C17.1552 6.63216 17.1458 6.56654 17.4833 6.93685C17.7927 7.28373 17.9333 7.31654 19.0911 7.33529L20.113 7.35404L20.1223 12.4306L20.1364 17.5072L20.2489 17.629C20.3895 17.7744 20.5911 17.8259 20.7739 17.7509C21.0645 17.629 21.0505 17.9103 21.0505 12.3884V7.35404L22.0723 7.33529C23.2208 7.31654 23.3614 7.28373 23.6895 6.94623C24.0177 6.60873 24.0083 6.67904 23.9942 3.8056C23.9802 1.34935 23.9755 1.22279 23.8911 1.08685C23.7364 0.852478 23.5677 0.683727 23.3708 0.580603C23.188 0.477478 23.1458 0.477478 20.652 0.468102C18.538 0.458727 18.0927 0.468102 17.938 0.529039ZM21.252 1.90248C21.7817 2.03373 22.1286 2.47435 22.1661 3.0556C22.2036 3.64623 21.9552 4.11967 21.4817 4.34935C21.2989 4.43841 21.163 4.45716 20.652 4.47591C20.3192 4.48529 20.0052 4.51342 19.963 4.53685C19.888 4.57904 19.8786 4.65873 19.8786 5.20248C19.8786 5.62435 19.8598 5.84467 19.8223 5.88216C19.7895 5.91498 19.6302 5.93842 19.4239 5.93842C19.138 5.93842 19.077 5.92435 19.0348 5.84935C19.0067 5.78841 18.988 5.08529 18.988 3.8806C18.988 2.02435 18.988 2.00091 19.0864 1.90248C19.1848 1.80404 19.213 1.79935 20.1317 1.82748C20.652 1.84154 21.1536 1.87435 21.252 1.90248Z" fill="black"/>
<path id="Vector_2" d="M19.9078 2.59587C19.8891 2.60993 19.875 2.86306 19.875 3.149C19.875 3.80993 19.8703 3.80525 20.4375 3.76775C21.1359 3.71618 21.2859 3.60837 21.2859 3.149C21.2859 2.67087 21.1266 2.56306 20.4 2.56306C20.1469 2.56306 19.9219 2.57712 19.9078 2.59587Z" fill="black"/>
<path id="Vector_3" d="M4.09219 4.46094C3.73594 4.55937 3.51563 4.68125 3.225 4.94844C2.90625 5.23906 2.82656 5.38906 2.29688 6.6875C2.05781 7.26875 1.85156 7.75625 1.83281 7.775C1.81875 7.79375 1.61719 7.75156 1.38281 7.68594C0.642188 7.475 0.365625 7.52187 0.103125 7.90625C0.009375 8.04219 0 8.11719 0 8.59531C0 9.17188 0.05625 9.36406 0.290625 9.57969C0.426563 9.70625 0.707813 9.82812 0.871875 9.82812C0.970313 9.82812 0.989063 9.84687 0.960938 9.90781C0.834375 10.2312 0.646875 10.8641 0.557813 11.2578C0.459375 11.7031 0.454688 11.8484 0.435938 14.3562C0.421875 16.2031 0.43125 17.0469 0.46875 17.1828C0.534375 17.4266 0.764063 17.6937 1.00781 17.8016C1.16719 17.8766 1.32188 17.8906 2.01562 17.8906C2.94375 17.8906 3.09375 17.8484 3.36094 17.5484C3.54844 17.3328 3.60938 17.0469 3.60938 16.3672V15.8281H8.87813H14.1516L14.1656 16.55C14.1797 17.2672 14.1797 17.2766 14.3203 17.4734C14.4 17.5812 14.5547 17.7219 14.6719 17.7828C14.8781 17.8906 14.9109 17.8953 15.7828 17.8812L16.6781 17.8672L16.8844 17.7266C17.0016 17.6422 17.1281 17.4969 17.1938 17.375L17.2969 17.1687V14.5625C17.2969 11.6141 17.2781 11.3891 16.9266 10.3625L16.7531 9.8375L16.9594 9.81406C17.2313 9.78594 17.5172 9.57969 17.6578 9.31719C17.7516 9.13906 17.7656 9.04062 17.7656 8.62344C17.7656 8.06094 17.7094 7.87812 17.4797 7.70937C17.2359 7.52656 17.0484 7.5125 16.5188 7.64844C16.2656 7.71406 16.0219 7.77969 15.9797 7.79375C15.9188 7.8125 15.8063 7.57812 15.4219 6.64062C15.1547 5.99375 14.8781 5.37031 14.8031 5.25781C14.625 4.99062 14.325 4.75156 13.9359 4.56406L13.6172 4.41406L8.97656 4.40469C5.08594 4.39531 4.29844 4.40469 4.09219 4.46094ZM13.1953 5.30937C13.6266 5.54375 13.6641 5.60937 14.4469 7.5125C14.85 8.49219 15.1969 9.35 15.2109 9.42031C15.2625 9.61719 15.2016 9.77656 15.0328 9.875C14.8875 9.96875 14.7656 9.96875 8.86875 9.96875C2.20781 9.96875 2.63906 9.9875 2.53125 9.66406C2.47031 9.48125 2.45625 9.52812 3.52969 6.92656C4.10156 5.55312 4.21406 5.38906 4.73438 5.22969C4.8 5.21094 6.68906 5.19687 8.92969 5.20156C13.0031 5.21094 13.0078 5.21094 13.1953 5.30937ZM5.53594 12.1203C5.61563 12.2188 5.625 12.3125 5.625 12.9969C5.625 13.7 5.61563 13.775 5.53125 13.8594C5.47969 13.9109 5.39062 13.9625 5.33438 13.9766C5.27344 13.9906 4.60781 14 3.85781 13.9906C2.13281 13.9719 2.27813 14.0562 2.25938 13.0484C2.24531 12.2797 2.27344 12.1531 2.48438 12.0453C2.57344 11.9984 2.94375 11.9844 4.02188 11.9937L5.44688 12.0078L5.53594 12.1203ZM15.3375 12.1156C15.4406 12.2188 15.4453 12.2516 15.4453 12.9922C15.4453 14.0703 15.6 13.9719 13.8328 13.9906C12.9516 14 12.3891 13.9859 12.3094 13.9531C12.0891 13.8687 12.0375 13.6531 12.0563 12.8984C12.0703 12.2 12.0984 12.1156 12.3047 12.0266C12.3563 12.0078 13.0359 11.9937 13.8141 11.9984C15.2203 12.0078 15.2344 12.0078 15.3375 12.1156Z" fill="black"/>
</g>
</svg>
