<svg width="24" height="24" viewBox="0 0 24 24" fill="none" xmlns="http://www.w3.org/2000/svg">
<g id="Black">
<path id="Vector" d="M6.04705 0.716774C5.90643 0.754274 5.62049 0.866775 5.41424 0.969899C4.75799 1.29334 4.30799 1.74334 3.98455 2.39959C3.63768 3.10271 3.65643 2.71365 3.65643 8.84021V14.3433L3.77362 14.5449C3.94705 14.8402 4.21893 14.9855 4.59393 14.9855C4.96893 14.9855 5.2408 14.8402 5.41424 14.5449C5.52674 14.3527 5.53143 14.3199 5.53143 13.4949V12.6418H9.75018H13.9689V13.4949C13.9689 14.3199 13.9736 14.3527 14.0861 14.5449C14.4283 15.1262 15.3564 15.1449 15.7127 14.5777L15.8205 14.3996L15.8439 8.98553L15.8674 3.57146L15.9752 3.33709C16.2049 2.84021 16.6267 2.56365 17.1564 2.56365C17.8689 2.56365 18.3611 3.05115 18.4455 3.82927C18.5111 4.43865 18.8486 4.76677 19.4064 4.76677C19.7814 4.76677 20.0533 4.62146 20.2267 4.32615C20.3252 4.15271 20.3439 4.06834 20.3439 3.73084C20.3439 3.23865 20.2549 2.88709 20.0158 2.39959C19.6924 1.74334 19.2424 1.29334 18.5861 0.969899C18.0752 0.716774 17.7471 0.641774 17.1564 0.641774C16.5658 0.641774 16.2377 0.716774 15.7267 0.969899C15.0705 1.29334 14.6205 1.74334 14.2971 2.39959C13.983 3.03709 13.9689 3.13552 13.9689 4.94021V6.54803H9.74549H5.52205L5.5408 5.0574C5.55487 3.62302 5.55955 3.56209 5.66268 3.33709C5.89237 2.84021 6.31424 2.56365 6.84393 2.56365C7.55643 2.56365 8.04862 3.04646 8.13299 3.82927C8.19862 4.43865 8.53612 4.76677 9.09393 4.76677C9.46893 4.76677 9.7408 4.62146 9.91424 4.32615C10.0127 4.15271 10.0314 4.06834 10.0314 3.73084C10.0314 3.23865 9.94237 2.88709 9.7033 2.39959C9.37987 1.74334 8.92987 1.29334 8.27362 0.969899C8.06737 0.866775 7.77205 0.749587 7.61737 0.712087C7.2658 0.623024 6.39393 0.623024 6.04705 0.716774ZM13.9689 9.5949V10.7668H9.75018H5.53143V9.5949V8.42303H9.75018H13.9689V9.5949Z" fill="black"/>
<path id="Vector_2" d="M0.435938 16.0431C0.140625 16.2166 0 16.4884 0 16.8681C0 17.1494 0.01875 17.2009 0.1875 17.4587C0.407813 17.7869 0.946875 18.3119 1.32188 18.5556C2.25938 19.1791 3.34219 19.4837 4.61719 19.4837C5.93438 19.4837 7.00781 19.1791 7.95 18.5369L8.325 18.2791L8.46563 18.3916C8.91094 18.7572 9.70312 19.1228 10.4813 19.3291C10.9641 19.4556 11.0438 19.4603 12 19.4603C12.9563 19.4603 13.0359 19.4556 13.5141 19.3291C14.3109 19.1181 14.9719 18.8181 15.4688 18.4431L15.675 18.2791L16.0359 18.5275C16.7109 18.9869 17.4328 19.2681 18.3188 19.4134C19.0828 19.54 20.2359 19.4931 20.9625 19.3056C21.5484 19.1556 22.2234 18.8603 22.6734 18.5603C23.0531 18.3119 23.5922 17.7916 23.8125 17.4587C23.9813 17.2009 24 17.1494 24 16.8681C24 16.2822 23.6438 15.9212 23.0625 15.9212C22.6969 15.9212 22.4438 16.0525 22.2375 16.3478C22.0359 16.6384 21.6094 16.9712 21.1734 17.1822C20.5406 17.4869 20.2922 17.5384 19.3828 17.5384C18.6891 17.5384 18.5391 17.5244 18.2156 17.4306C17.5406 17.2384 17.1422 16.9947 16.6406 16.4791C16.3969 16.2259 16.1344 15.9962 16.0641 15.9728C15.8484 15.8884 15.4406 15.9119 15.2438 16.0103C15.15 16.0619 14.9156 16.2728 14.7281 16.4791C14.0531 17.2244 13.1953 17.5619 11.9766 17.5619C11.3719 17.5619 10.9453 17.4869 10.4203 17.2806C9.92813 17.0931 9.63281 16.8869 9.25313 16.4603C9.075 16.2634 8.85 16.0619 8.75625 16.0103C8.55938 15.9119 8.15156 15.8884 7.93594 15.9728C7.86563 15.9962 7.60313 16.2259 7.35938 16.4791C6.85781 16.9947 6.45938 17.2384 5.78438 17.4306C5.46094 17.5244 5.31094 17.5384 4.61719 17.5384C3.70781 17.5384 3.45938 17.4869 2.82656 17.1822C2.39062 16.9712 1.96406 16.6384 1.7625 16.3478C1.55625 16.0525 1.30313 15.9212 0.932813 15.9212C0.69375 15.9212 0.590625 15.9447 0.435938 16.0431Z" fill="black"/>
<path id="Vector_3" d="M0.745313 20.14C0.496875 20.1822 0.248438 20.3556 0.117188 20.5806C0.0234375 20.74 0 20.8431 0 21.0869C0 21.3681 0.01875 21.4197 0.1875 21.6775C0.407813 22.0056 0.946875 22.5306 1.32188 22.7744C2.25938 23.3978 3.34219 23.7025 4.61719 23.7025C5.93906 23.7025 7.00313 23.3978 7.96406 22.7462L8.325 22.4978L8.46563 22.6103C8.90625 22.9712 9.69844 23.3416 10.4578 23.5384C11.1141 23.7119 12.3469 23.7541 13.0594 23.6369C13.9266 23.4869 14.8922 23.1025 15.45 22.6759L15.675 22.4978L16.0359 22.7462C16.7109 23.2056 17.4328 23.4869 18.3188 23.6322C19.0828 23.7587 20.2359 23.7119 20.9625 23.5244C21.5484 23.3744 22.2234 23.0791 22.6734 22.7791C23.0531 22.5306 23.5922 22.0103 23.8125 21.6775C23.9813 21.4197 24 21.3681 24 21.0869C24 20.5056 23.6297 20.1306 23.0625 20.1353C22.7063 20.1353 22.4531 20.2712 22.2188 20.5853C21.8719 21.0541 21.1781 21.4806 20.4609 21.6728C19.95 21.8041 18.7172 21.7947 18.2156 21.6494C17.5406 21.4572 17.1422 21.2134 16.6406 20.6978C16.3969 20.4447 16.1344 20.215 16.0641 20.1916C15.8484 20.1072 15.4406 20.1306 15.2438 20.2291C15.15 20.2806 14.9156 20.4916 14.7281 20.6978C14.0531 21.4431 13.1953 21.7806 11.9766 21.7806C11.3719 21.7806 10.9453 21.7056 10.4203 21.4994C9.92813 21.3119 9.63281 21.1056 9.25313 20.6791C9.075 20.4822 8.85 20.2806 8.75625 20.2291C8.55938 20.1306 8.15156 20.1072 7.93594 20.1916C7.86563 20.215 7.60313 20.4447 7.35938 20.6978C6.8625 21.2087 6.45938 21.4525 5.8125 21.64C5.31094 21.7853 4.28906 21.8228 3.74531 21.7103C2.95312 21.5509 2.19844 21.1244 1.80469 20.6181C1.49063 20.215 1.17188 20.0697 0.745313 20.14Z" fill="black"/>
</g>
</svg>
