<svg width="24" height="25" viewBox="0 0 24 25" fill="none" xmlns="http://www.w3.org/2000/svg">
<g id="Black">
<path id="Vector" d="M11.6019 0.25449C11.3769 0.395115 10.8425 0.999804 10.5237 1.48262C10.28 1.84824 9.90499 2.5373 9.82999 2.7623C9.82062 2.79043 9.62843 2.71543 9.34718 2.5748C8.52687 2.15293 7.70655 1.93262 6.76905 1.87168C6.3378 1.84824 6.27218 1.85293 6.0753 1.94668C5.73312 2.11543 5.65343 2.27011 5.63468 2.78574C5.57843 4.22012 6.26749 5.90293 7.40655 7.12168L7.69718 7.43574H6.96593C6.14093 7.43574 5.9628 7.48261 5.75655 7.77324C5.54093 8.07793 5.60655 8.93574 5.88312 9.53574C5.94874 9.67636 6.0003 9.79824 6.0003 9.80761C6.0003 9.81699 5.46124 9.82636 4.80499 9.82636C3.21124 9.82636 2.71905 9.92949 1.92687 10.4217C0.281555 11.4482 -0.379383 13.4686 0.32843 15.3061C0.473742 15.6857 0.839367 16.2857 1.02687 16.4545C1.12062 16.5389 1.11593 16.5436 0.77843 16.8764C0.417492 17.2279 0.23468 17.5326 0.117492 17.9873C0.0284296 18.3201 0.0284296 18.8873 0.117492 19.192L0.192492 19.4357H10.1909H20.1894L20.3487 19.5436C20.5831 19.7029 20.7191 19.9279 20.7191 20.1717C20.7191 20.5279 20.48 20.8373 20.1331 20.9311C20.0019 20.9686 17.0347 20.9826 10.0644 20.9826H0.187805L0.136242 21.1092C0.0565546 21.3154 0.0284296 22.0092 0.0893671 22.3092C0.27218 23.167 1.03155 23.9404 1.8753 24.1186C2.06749 24.1607 4.42999 24.1701 11.4612 24.1607L20.7894 24.1467L21.1175 24.0342C21.8159 23.7998 22.3644 23.4576 22.8331 22.9701C23.33 22.4451 23.5644 22.0561 23.7941 21.3576C23.9112 20.992 23.9253 20.8982 23.9253 20.2326C23.93 19.6092 23.9159 19.4545 23.8222 19.1357C23.6816 18.6436 23.4425 18.1701 23.1425 17.7764L22.8987 17.4482L23.2316 17.1201C23.7753 16.5717 23.9862 16.0232 23.9394 15.2639C23.9159 14.8092 23.7894 14.4295 23.5456 14.0639L23.3909 13.8201L23.5503 13.5811C23.7987 13.2107 23.9159 12.8592 23.9394 12.3811C24.0097 11.1951 23.2831 10.192 22.1394 9.89668C21.9237 9.84043 21.5206 9.82636 20.1284 9.82636H18.38L18.5112 9.53105C18.7269 9.05761 18.8347 8.45293 18.7737 8.09199C18.7362 7.8623 18.5159 7.59043 18.2956 7.50136C18.1878 7.45449 17.8925 7.43574 17.2222 7.43574H16.3034L16.5941 7.12168C17.7331 5.90293 18.4222 4.22012 18.3659 2.78574C18.3472 2.27011 18.2675 2.11543 17.9253 1.94668C17.7284 1.85293 17.6628 1.84824 17.2316 1.87168C16.2941 1.93262 15.4737 2.15293 14.6534 2.5748C14.3722 2.71543 14.18 2.79043 14.1706 2.7623C14.0956 2.5373 13.7206 1.84824 13.4769 1.47793C13.1487 0.985741 12.5769 0.343554 12.3706 0.240429C12.1831 0.141991 11.7753 0.151365 11.6019 0.25449ZM12.155 2.45761C12.3331 2.72949 12.5816 3.24512 12.7175 3.6248L12.8394 3.9623L12.6284 4.21074C12.5112 4.34668 12.3284 4.5998 12.2206 4.77324C12.1128 4.94668 12.0144 5.0873 12.0003 5.0873C11.9862 5.09199 11.9159 4.98418 11.8362 4.85293C11.7612 4.72168 11.5784 4.46387 11.4284 4.28105L11.1659 3.94824L11.2831 3.62012C11.4753 3.08105 11.9066 2.27949 12.0003 2.27949C12.0191 2.27949 12.0894 2.35918 12.155 2.45761ZM7.86593 3.7373C9.10812 4.12168 10.1675 5.05918 10.7347 6.27793C10.9222 6.67636 11.105 7.27168 11.0534 7.31855C11.0112 7.36074 10.2237 7.08887 9.88155 6.91543C9.01437 6.47949 8.27843 5.7623 7.80968 4.90449C7.64562 4.5998 7.35968 3.8123 7.35968 3.6623C7.35968 3.57793 7.3503 3.57793 7.86593 3.7373ZM16.6409 3.66699C16.6409 3.8123 16.3503 4.60449 16.1862 4.90449C15.5769 6.02011 14.5878 6.83574 13.3644 7.22011C13.1487 7.29043 12.9612 7.33261 12.9472 7.31855C12.8956 7.27168 13.0831 6.66699 13.2659 6.27793C13.8519 5.02637 14.9534 4.07949 16.2894 3.68105C16.6456 3.57793 16.6409 3.57793 16.6409 3.66699ZM21.9659 11.5889C22.1769 11.7436 22.28 11.917 22.3034 12.1607C22.3269 12.4514 22.1862 12.7326 21.9378 12.8873L21.7737 12.9904L12.7456 13.0139L3.71749 13.0373L3.55343 13.1639C3.46437 13.2342 3.35187 13.3607 3.30968 13.4498C3.2253 13.6373 3.21124 14.0029 3.28624 14.1529C3.35655 14.2842 3.55812 14.5092 3.67999 14.5748C3.7503 14.617 6.05655 14.6357 12.8066 14.6545C21.8347 14.6779 21.8394 14.6779 21.9659 14.7764C22.1769 14.9311 22.28 15.1045 22.3034 15.3482C22.3269 15.6342 22.205 15.8873 21.9519 16.0607L21.7784 16.1779L12.8581 16.192C5.08155 16.2014 3.89093 16.192 3.59562 16.1311C2.48468 15.9014 1.6878 14.9311 1.6878 13.8107C1.69249 12.7654 2.42374 11.8232 3.45499 11.5373C3.6378 11.4857 5.34405 11.4764 12.7597 11.4811L21.8394 11.4904L21.9659 11.5889Z" fill="black"/>
</g>
</svg>
