<svg width="24" height="16" viewBox="0 0 24 16" fill="none" xmlns="http://www.w3.org/2000/svg">
<g id="Black">
<path id="Vector" d="M10.0406 0.606251C9.81094 0.765626 9.74063 1.075 9.87188 1.35156C9.98906 1.6 10.1672 1.65625 10.8469 1.65625H11.4375V2.18594V2.71094L10.7953 2.79063C6.19688 3.35781 2.65313 7.00469 2.20312 11.6359C2.17969 11.9031 2.15625 12.2219 2.15625 12.3484V12.5781H12H21.8438V12.3484C21.8438 11.5563 21.6422 10.3891 21.3469 9.48438C20.1609 5.85625 17.0063 3.25938 13.2328 2.79531L12.5625 2.71094V2.18594V1.65625H13.1531C13.8328 1.65625 14.0109 1.6 14.1281 1.35156C14.2219 1.15938 14.2219 0.985938 14.1328 0.812501C13.9828 0.526564 14.0297 0.531251 12 0.531251C10.3969 0.531251 10.1297 0.540626 10.0406 0.606251ZM10.6313 6.10938C10.9172 6.2875 10.9594 6.64375 10.725 6.87813C10.5844 7.01875 10.5328 7.0375 10.1953 7.06563C8.94844 7.17344 8.01094 7.7875 7.64062 8.73438C7.51406 9.05781 7.3875 9.19375 7.18594 9.23125C6.88594 9.2875 6.5625 9.03438 6.5625 8.74375C6.5625 8.60313 6.83438 8.0125 7.02656 7.73125C7.72969 6.71406 8.97188 6.03438 10.1484 6.02031C10.3969 6.01563 10.5141 6.03906 10.6313 6.10938Z" fill="black"/>
<path id="Vector_2" d="M0.684375 13.6797C0.267188 13.8297 0 14.2328 0 14.725C0 15.0016 0.01875 15.0766 0.154688 15.2969C0.271875 15.4937 0.360938 15.5828 0.557813 15.6812L0.80625 15.8125H12H23.1938L23.4422 15.6812C23.8078 15.4937 24 15.1609 24 14.7344C24 14.5422 23.9672 14.3594 23.9109 14.2422C23.8031 14.0031 23.4938 13.7219 23.2641 13.6609C23.1422 13.6234 19.6688 13.6094 11.9766 13.6094C2.64844 13.6141 0.839063 13.6234 0.684375 13.6797Z" fill="black"/>
</g>
</svg>
