<svg width="22" height="24" viewBox="0 0 22 24" fill="none" xmlns="http://www.w3.org/2000/svg">
<g id="Black">
<path id="Vector" d="M3.73438 0.825C2.96563 1.02656 2.25313 1.60781 1.90625 2.32031C1.62032 2.90156 1.625 2.85 1.625 6.45469V9.75H3.38282H5.13594L5.15001 7.36875L5.16407 4.99219L5.31875 4.67812C5.56251 4.17656 5.98438 3.87656 6.55625 3.79219C6.72032 3.76875 8.71719 3.75 11 3.75C13.2828 3.75 15.2797 3.76875 15.4438 3.79219C16.0156 3.87656 16.4375 4.17656 16.6813 4.67812L16.8359 4.99219L16.85 7.36875L16.8641 9.75H18.6219H20.3797L20.3656 6.3375L20.3516 2.92969L20.2438 2.63906C19.9484 1.85156 19.2734 1.17656 18.4859 0.881249L18.1953 0.773438L11.0938 0.764062C5 0.754687 3.95469 0.764062 3.73438 0.825Z" fill="black"/>
<path id="Vector_2" d="M6.33594 4.56562C6.15313 4.64531 6.00781 4.80937 5.91406 5.025C5.85313 5.175 5.84375 5.52656 5.84375 7.47656V9.75H8.23438H10.625V7.125V4.5H8.55313C6.92656 4.50469 6.44375 4.51875 6.33594 4.56562Z" fill="black"/>
<path id="Vector_3" d="M11.375 7.125V9.75H13.7656H16.1563V7.4625C16.1563 5.34375 16.1469 5.16562 16.0672 4.99219C15.9688 4.77656 15.8141 4.62187 15.6266 4.55156C15.5375 4.51875 14.7781 4.5 13.4328 4.5H11.375V7.125Z" fill="black"/>
<path id="Vector_4" d="M0.218912 10.5937C0.12985 10.6828 0.125162 10.7484 0.125162 11.625C0.125162 12.7969 0.0970372 12.75 0.781412 12.75H1.25016V16.875V21H0.781412C0.0970372 21 0.125162 20.9531 0.125162 22.125C0.125162 23.0016 0.12985 23.0672 0.218912 23.1562C0.312662 23.25 0.3736 23.25 11.0002 23.25C21.6267 23.25 21.6877 23.25 21.7814 23.1562C21.8705 23.0672 21.8752 23.0016 21.8752 22.125C21.8752 20.9531 21.9033 21 21.2189 21H20.7502V16.875V12.75H21.2189C21.9033 12.75 21.8752 12.7969 21.8752 11.625C21.8752 10.7484 21.8705 10.6828 21.7814 10.5937C21.6877 10.5 21.6267 10.5 11.0002 10.5C0.3736 10.5 0.312662 10.5 0.218912 10.5937ZM3.12516 16.875V21H2.56266H2.00016V16.875V12.75H2.56266H3.12516V16.875ZM5.00016 16.875V21H4.43766H3.87516V16.875V12.75H4.43766H5.00016V16.875ZM6.87516 16.875V21H6.31266H5.75016V16.875V12.75H6.31266H6.87516V16.875ZM8.75016 16.875V21H8.18766H7.62516V16.875V12.75H8.18766H8.75016V16.875ZM10.6252 16.875V21H10.0627H9.50016V16.875V12.75H10.0627H10.6252V16.875ZM12.5002 16.875V21H11.9377H11.3752V16.875V12.75H11.9377H12.5002V16.875ZM14.3752 16.875V21H13.8127H13.2502V16.875V12.75H13.8127H14.3752V16.875ZM16.2502 16.875V21H15.6877H15.1252V16.875V12.75H15.6877H16.2502V16.875ZM18.1252 16.875V21H17.5627H17.0002V16.875V12.75H17.5627H18.1252V16.875ZM20.0002 16.875V21H19.4377H18.8752V16.875V12.75H19.4377H20.0002V16.875Z" fill="black"/>
</g>
</svg>
