<svg width="24" height="24" viewBox="0 0 24 24" fill="none" xmlns="http://www.w3.org/2000/svg">
<g id="Black">
<path id="Vector" d="M0.309375 0.0890617C0.239062 0.135937 0.135937 0.239063 0.0890625 0.309376C0.0046875 0.440626 0 0.759375 0 12C0 23.2406 0.0046875 23.5594 0.0890625 23.6906C0.229687 23.9016 0.417188 24 0.684375 24C0.9 24 1.275 23.8453 4.09219 22.5938L7.25625 21.1875H12H16.7438L19.9078 22.5938C22.725 23.8453 23.1 24 23.3156 24C23.5828 24 23.7703 23.9016 23.9109 23.6906C23.9953 23.5594 24 23.2406 24 12C24 0.759375 23.9953 0.440626 23.9109 0.309376C23.7703 0.0984383 23.5828 0 23.3156 0C23.1 0 22.725 0.154688 19.9078 1.40625L16.7438 2.8125H12H7.25625L4.09219 1.40625C1.275 0.154688 0.9 0 0.684375 0C0.529688 0 0.398438 0.0328121 0.309375 0.0890617ZM2.33437 2.23594L3.14062 2.59219V5.1375C3.14062 7.15313 3.12656 7.67813 3.08438 7.66406C3.01875 7.64062 1.97812 7.35469 1.65469 7.26562L3.53906 7.99219L3.86719 5.39062C3.86719 3.91875 4.06875 2.59219 4.09219 2.59219C4.11094 2.59219 1.88906 2.03437 2.33437 2.23594ZM20.0391 8.09063C20.0391 10.5938 22.5422 7.21406 22.4672 7.2375C22.4203 7.25156 22.0688 7.34531 21.6797 7.45312C21.2953 7.56094 20.9484 7.65469 20.9203 7.66406C20.8734 7.68281 20.8594 7.15313 20.8594 5.1375V2.59219L20.0391 8.09063C20.4703 7.89375 20.8875 7.66406 20.9203 7.66406C20.9625 7.65937 20.0391 5.98594 20.0391 8.09063ZM5.99063 3.85781L4.09219 2.59219L3.86719 5.39062L3.53906 7.99219L5.46094 8.325L4.59375 8.08594V5.6625V3.23906L5.12344 3.47344C5.40938 3.60469 5.80313 3.77812 5.99063 3.85781ZM19.4062 5.6625V8.09063L18.8578 8.24062C18.5531 8.32031 18.1641 8.43281 17.9906 8.47969L19.4062 8.09063V5.6625L20.2734 4.59375L19.3969 3.23906L18.8906 2.90625L18.5297 3.62344C18.9984 3.4125 19.3875 3.23906 19.3969 3.23906C19.4016 3.23438 19.4062 4.32656 19.4062 5.6625ZM16.2188 12V19.7344H12H7.78125V12V4.26562H12H16.2188V12ZM3.10781 9.1875C3.12656 9.1875 3.14062 10.4531 3.14062 12C3.14062 13.5469 3.12656 14.8125 3.10781 14.8125C3.08438 14.8125 2.70469 14.9156 2.26406 15.0422H3.91406V12V9.02344L2.26406 8.95781C2.70469 9.08438 3.08438 9.1875 3.10781 9.1875ZM20.0156 11.9531L20.8594 9.20156L21.6938 8.96719C22.1484 8.83594 20.85 9.20625 20.8594 9.20156C20.8641 9.20156 20.0156 10.1531 20.0156 11.9531ZM5.34375 9.81562C5.66719 9.90469 6.01875 9.99844 6.13125 10.0312L3.91406 9.02344V12V15.0422L6.13125 13.9688C5.91563 14.0297 4.81406 14.3344 4.67813 14.3719C4.59844 14.3953 4.59375 14.2594 4.59375 12C4.59375 9.74063 4.59844 9.60469 4.67813 9.62812C4.72031 9.64219 5.02031 9.72656 5.34375 9.81562ZM19.4062 12.0047C18.6328 14.0859 19.4016 14.3953 19.3266 14.3719C19.1953 14.3344 18.0938 14.0297 17.8734 13.9688L19.3266 14.3719L19.4062 12.0047L19.7812 8.67188L17.8031 10.05C17.8734 10.0312 18.2484 9.92812 18.6328 9.81562C19.0219 9.70781 19.7578 8.67188 19.7812 8.67188C19.8 8.66719 19.4062 10.6875 19.4062 12.0047ZM3.91406 18.5156V21.5859L5.99063 20.1422C5.80313 20.2219 5.40938 20.3953 5.12344 20.5266L4.59375 20.7609V18.3375V15.9141L5.45156 15.675C5.92031 15.5391 6.30938 15.4312 6.31875 15.4266C3.91406 15.0422 3.91406 17.2594 3.91406 18.5156ZM18.8578 15.7594L19.4062 15.9094V18.3375V20.7609L19.125 19.9688C18.8344 19.8375 18.1969 20.2219 18.0141 20.1422L19.4062 20.7609V18.3375V15.9094L17.9906 15.5203C18.1641 15.5672 18.5531 15.6797 18.8578 15.7594ZM3.14062 18.8578V21.4078L2.33437 21.7641C1.88906 21.9656 3.93281 21.5859 3.91406 21.5859C3.89062 21.5859 3.91406 19.9875 3.91406 18.5156V15.0422L1.58437 16.7531C1.67344 16.7297 2.97188 16.3641 3.13125 16.3172C3.13594 16.3125 3.14062 17.4609 3.14062 18.8578ZM21.6797 16.5469C22.0688 16.6547 22.4203 16.7484 22.4672 16.7625C22.5422 16.7859 20.6719 16.5281 20.6719 19.0312C20.6719 20.4984 22.5328 22.125 22.5141 22.125C23.4375 20.7891 22.1109 21.9656 21.6703 21.7641L22.5141 22.125L20.6719 19.0312C20.6719 17.0156 22.7344 16.7437 22.7812 16.7625C22.8094 16.7719 21.2953 16.4391 21.6797 16.5469Z" fill="black"/>
</g>
</svg>
