<svg width="24" height="24" viewBox="0 0 24 24" fill="none" xmlns="http://www.w3.org/2000/svg">
<g id="Black">
<path id="Vector" d="M2.30273 0.0748863C1.92773 0.173325 1.61367 0.360825 1.25273 0.698324C0.887109 1.0452 0.605859 1.55614 0.521484 2.03426C0.451172 2.4327 0.451172 21.5764 0.521484 21.9655C0.610547 22.453 0.849609 22.8889 1.2293 23.2686C1.4168 23.4514 1.6793 23.6577 1.81055 23.728C2.34023 24.0139 2.00273 23.9999 9.00117 23.9999C15.9996 23.9999 15.6621 24.0139 16.1918 23.728C16.323 23.6577 16.5855 23.4514 16.773 23.2686C17.1527 22.8889 17.3918 22.453 17.4809 21.9655C17.5512 21.5764 17.5512 2.4327 17.4809 2.03426C17.3965 1.55614 17.1152 1.0452 16.7496 0.698324C16.384 0.356136 16.0746 0.173325 15.6809 0.0702C15.273 -0.0329266 2.69648 -0.0329266 2.30273 0.0748863ZM14.4855 5.48426V7.96864H9.00117H3.5168V5.48426V2.99989H9.00117H14.4855V5.48426ZM8.30742 10.1671L8.46211 10.303L8.49492 11.2124C8.51367 11.7889 8.55117 12.2249 8.59805 12.4124C8.68711 12.7686 8.94492 13.4061 9.00117 13.4061C9.05742 13.4061 9.31523 12.7686 9.4043 12.4124C9.45117 12.2249 9.48867 11.7889 9.50742 11.2124L9.54023 10.303L9.69492 10.1671L9.84492 10.0311H10.9746C12.2074 10.0311 12.3199 10.0499 12.4137 10.2983C12.4418 10.3686 12.4746 10.7858 12.484 11.2264C12.5074 12.1546 12.5918 12.5389 12.9105 13.2561C13.4309 14.428 13.459 14.5968 13.4871 17.1468C13.5012 18.3093 13.4965 19.3639 13.4777 19.4858C13.459 19.6311 13.4027 19.7436 13.3137 19.8374L13.1824 19.9686H9.00117H4.81992L4.68867 19.8374C4.59961 19.7436 4.54336 19.6311 4.52461 19.4858C4.50586 19.3639 4.50117 18.3093 4.51523 17.1468C4.54336 14.5921 4.5668 14.4468 5.09648 13.2514C5.40586 12.5483 5.49023 12.1593 5.51367 11.2264C5.52773 10.7858 5.56055 10.3686 5.58867 10.2983C5.68242 10.0546 5.78086 10.0358 7.01836 10.0311H8.15742L8.30742 10.1671Z" fill="black"/>
<path id="Vector_2" d="M6.45469 11.5875C6.41719 12.4266 6.3 12.8578 5.83594 13.9125C5.51719 14.6344 5.48438 14.9109 5.48438 17.0953V19.0312H7.0125H8.53594L8.51719 17.0016C8.49844 14.7 8.48906 14.6391 8.09062 13.7344C7.70625 12.8766 7.58437 12.3656 7.52344 11.4234L7.49062 10.9688H6.98906H6.48281L6.45469 11.5875Z" fill="black"/>
<path id="Vector_3" d="M10.4781 11.4234C10.4172 12.3656 10.2859 12.9141 9.91094 13.7391C9.50781 14.6391 9.50781 14.6578 9.48438 16.9781L9.46094 19.0312H10.9891H12.5172V17.0953C12.5172 14.9109 12.4844 14.6344 12.1656 13.9125C11.7016 12.8578 11.5844 12.4266 11.5469 11.5875L11.5188 10.9688H11.0125H10.5109L10.4781 11.4234Z" fill="black"/>
<path id="Vector_4" d="M19.4863 0.065876C19.205 0.169001 18.9519 0.356501 18.7785 0.60025C18.4457 1.05494 18.4691 0.183064 18.4691 12.0002C18.4691 23.8268 18.4457 22.9456 18.7785 23.4049C18.9566 23.6487 19.28 23.8784 19.5472 23.9534C19.805 24.0284 20.2972 24.0096 20.5504 23.9206C20.8457 23.8127 21.2066 23.4893 21.366 23.1846L21.4925 22.9456L21.5066 18.4784L21.516 14.0159H22.3504C23.2597 14.0159 23.3254 14.0018 23.4613 13.7346C23.5691 13.5284 23.5691 4.47213 23.4613 4.26587C23.3254 3.99869 23.2597 3.98462 22.3504 3.98462H21.5207L21.5066 2.51744L21.4925 1.05494L21.366 0.815876C21.2066 0.511189 20.8269 0.169001 20.5457 0.0752506C20.2785 -0.0138111 19.73 -0.0184994 19.4863 0.065876Z" fill="black"/>
</g>
</svg>
