<svg width="24" height="24" viewBox="0 0 24 24" fill="none" xmlns="http://www.w3.org/2000/svg">
<g id="Black">
<path id="Vector" d="M3.09375 0.0749998C2.025 0.35625 1.13438 1.275 0.914062 2.33437C0.8625 2.57344 0.84375 3.05156 0.84375 4.32187V6H12H23.1562V4.32187C23.1562 2.475 23.1281 2.24531 22.875 1.71094C22.4953 0.914062 21.7359 0.285937 20.8828 0.0703125C20.475 -0.0328126 3.49219 -0.0328126 3.09375 0.0749998ZM17.4094 1.0125L17.5312 1.13906V3V4.86094L17.4094 4.9875L17.2828 5.10937H12H6.71719L6.59063 4.9875L6.46875 4.86094V3V1.13906L6.59063 1.0125L6.71719 0.890625H12H17.2828L17.4094 1.0125Z" fill="black"/>
<path id="Vector_2" d="M7.26562 3V4.3125H12H16.7344V3V1.6875H12H7.26562V3Z" fill="black"/>
<path id="Vector_3" d="M2.53125 13.7109V20.5781L6.85781 20.5687C9.23438 20.5641 11.0953 20.5547 10.9922 20.5453C9.24844 20.4 7.94531 19.3594 7.44375 17.7141C7.34063 17.3766 7.34063 17.3016 7.32188 14.8875C7.3125 13.1344 7.32188 12.3703 7.35938 12.2812C7.47188 12.0141 7.28438 12.0234 12 12.0234C16.6828 12.0234 16.5234 12.0141 16.6359 12.2672C16.6641 12.3281 16.6875 12.4922 16.6875 12.6328V12.8812L17.3344 12.9C17.9156 12.9141 18 12.9281 18.2438 13.0406C18.7781 13.2891 19.1156 13.7297 19.2234 14.3062C19.3734 15.1266 18.8109 15.9797 17.9766 16.1953C17.8125 16.2375 17.4938 16.2656 17.1984 16.2656H16.7016L16.6734 16.8141C16.6313 17.7281 16.3734 18.4219 15.8203 19.1062C15.1172 19.9781 14.2078 20.4422 13.0078 20.5453C12.9047 20.5547 14.7656 20.5641 17.1469 20.5687L21.4688 20.5781V13.7109V6.84375H18.8672H16.2656V7.94531C16.2656 9.17344 16.2469 9.27656 15.9797 9.37031C15.8953 9.39844 15.7359 9.42188 15.6281 9.42188H15.4219V10.0547C15.4219 10.7344 15.3703 10.9641 15.1969 11.0578C15.1359 11.0906 14.7328 11.1094 14.1188 11.1094H13.1391L13.0125 10.9875C12.8906 10.8609 12.8906 10.8562 12.8906 10.1437V9.42188H12.2109H11.5312V10.1437C11.5312 10.8562 11.5312 10.8609 11.4094 10.9875L11.2828 11.1094H10.3031C9.20156 11.1094 9.13125 11.0906 9.04688 10.7859C9.02344 10.6922 9 10.35 9 10.0172V9.42188H8.58281C8.35781 9.42188 8.10469 9.39844 8.02031 9.37031C7.75313 9.27656 7.73438 9.17344 7.73438 7.94531V6.84375H5.13281H2.53125V13.7109Z" fill="black"/>
<path id="Vector_4" d="M8.53125 7.71094V8.57812H12H15.4688V7.71094V6.84375H12H8.53125V7.71094Z" fill="black"/>
<path id="Vector_5" d="M9.84375 9.86719V10.3125H10.2891H10.7344V9.86719V9.42187H10.2891H9.84375V9.86719Z" fill="black"/>
<path id="Vector_6" d="M13.6875 9.86719V10.3125H14.1328H14.5781V9.86719V9.42187H14.1328H13.6875V9.86719Z" fill="black"/>
<path id="Vector_7" d="M8.11563 15.0582C8.13906 17.5051 8.12969 17.4441 8.45781 18.0957C8.86563 18.8973 9.5875 19.4598 10.4828 19.6613C10.9656 19.7691 13.0281 19.7691 13.5109 19.6613C14.4063 19.4598 15.1281 18.8973 15.5359 18.0957C15.8641 17.4441 15.8547 17.5051 15.8781 15.0582L15.8922 12.8457H11.9969H8.10156L8.11563 15.0582Z" fill="black"/>
<path id="Vector_8" d="M16.6875 14.5781V15.4688H17.1469C17.9297 15.4688 18.2625 15.3 18.3984 14.8406C18.5391 14.3672 18.3422 13.9453 17.8969 13.7578C17.775 13.7109 17.5641 13.6875 17.2031 13.6875H16.6875V14.5781Z" fill="black"/>
<path id="Vector_9" d="M0.84375 22.1859C0.84375 23.0578 0.890625 23.2641 1.15313 23.5687C1.24219 23.6719 1.42031 23.8125 1.55625 23.8781L1.8 24H12H22.2L22.4438 23.8781C22.5797 23.8125 22.7578 23.6719 22.8469 23.5687C23.1094 23.2641 23.1562 23.0578 23.1562 22.1859V21.4219H12H0.84375V22.1859ZM22.1063 22.425C22.2891 22.5797 22.2891 22.8422 22.1063 22.9969L21.9797 23.1094H12H2.02031L1.89375 22.9969C1.79531 22.9125 1.7625 22.8469 1.7625 22.7109C1.7625 22.575 1.79531 22.5094 1.89375 22.425L2.02031 22.3125H12H21.9797L22.1063 22.425Z" fill="black"/>
</g>
</svg>
