<svg width="24" height="16" viewBox="0 0 24 16" fill="none" xmlns="http://www.w3.org/2000/svg">
<g id="Black">
<path id="Vector" d="M0.492187 0.339747C0.15 0.517873 0 0.756935 0 1.11787C0 1.27256 0.328125 2.85225 0.839062 5.13975L1.67812 8.91319L1.26094 11.796C1.03125 13.3804 0.848437 14.7679 0.84375 14.8804C0.84375 15.0913 0.960937 15.3772 1.11094 15.5085C1.47187 15.8366 2.11406 15.7804 2.40469 15.396C2.53594 15.2272 2.5875 15.0444 2.67187 14.4116L2.72812 13.9991H5.20781H7.6875V14.5241C7.6875 14.9601 7.70156 15.0819 7.78594 15.2554C7.96875 15.6304 8.46094 15.8272 8.87344 15.6913C9.08906 15.6163 9.35625 15.321 9.42187 15.0819C9.45469 14.9554 9.46875 13.9007 9.45937 11.7632C9.44531 8.80069 9.44062 8.62256 9.35625 8.45381C9.30937 8.35537 9.19219 8.21944 9.10312 8.14912L8.93906 8.02256L6.1125 8.0085L3.29062 7.99912L3.26719 7.89131C3.24844 7.83506 2.90156 6.26006 2.48437 4.38975C2.07187 2.51943 1.71094 0.925685 1.68281 0.841311C1.53281 0.377248 0.914062 0.119435 0.492187 0.339747Z" fill="black"/>
<path id="Vector_2" d="M22.8294 0.31631C22.6091 0.405373 22.4169 0.592873 22.3419 0.789748C22.2997 0.902247 21.9294 2.51943 21.5169 4.38975C21.0997 6.26006 20.7529 7.83506 20.7341 7.89131L20.7107 7.99912L17.8888 8.0085L15.0622 8.02256L14.8982 8.14912C14.8091 8.21944 14.6919 8.35537 14.645 8.45381C14.5607 8.62256 14.556 8.80069 14.5419 11.7632C14.5325 13.9007 14.5466 14.9554 14.5794 15.0819C14.645 15.321 14.9122 15.6163 15.1279 15.6913C15.5404 15.8272 16.0325 15.6304 16.2154 15.2554C16.2997 15.0819 16.3138 14.9601 16.3138 14.5241V13.9991H18.7935H21.2732L21.3247 14.3882C21.4185 15.0679 21.4747 15.2601 21.6013 15.4147C21.9153 15.7851 22.5341 15.8319 22.8904 15.5085C23.0403 15.3772 23.1575 15.0913 23.1575 14.8804C23.1529 14.7679 22.97 13.3804 22.7403 11.796L22.3232 8.91319L23.1622 5.13975C23.6732 2.85225 24.0013 1.27256 24.0013 1.11787C24.0013 0.845998 23.931 0.672561 23.7575 0.513186C23.5232 0.292872 23.1107 0.203811 22.8294 0.31631Z" fill="black"/>
<path id="Vector_3" d="M6.48972 3.77656C6.11472 3.94531 5.96472 4.24531 6.0069 4.71875C6.03503 4.99531 6.19909 5.22969 6.45222 5.35625C6.61628 5.44062 6.78503 5.44531 8.87097 5.45937L11.1069 5.47344V9.73438V14H10.9803C10.6663 14 10.31 14.3797 10.2725 14.7453C10.235 15.1578 10.4132 15.4906 10.7507 15.6453C10.9194 15.7203 11.0694 15.7344 11.9975 15.7344C12.9257 15.7344 13.0757 15.7203 13.2444 15.6453C13.5819 15.4906 13.76 15.1578 13.7225 14.7453C13.685 14.3797 13.3288 14 13.0194 14H12.8882V9.73438V5.47344L15.1288 5.45937C17.21 5.44531 17.3788 5.44062 17.5428 5.35625C17.796 5.22969 17.96 4.99531 17.9882 4.71875C18.0303 4.24531 17.8803 3.94531 17.5053 3.77656C17.3272 3.69219 17.06 3.6875 11.9975 3.6875C6.93503 3.6875 6.66784 3.69219 6.48972 3.77656Z" fill="black"/>
</g>
</svg>
