<svg width="24" height="24" viewBox="0 0 24 24" fill="none" xmlns="http://www.w3.org/2000/svg">
<g id="Black">
<path id="Vector" d="M4.08288 0.0890617C3.89069 0.135937 3.55319 0.267187 3.33288 0.379687C3.00944 0.54375 2.84069 0.670312 2.47976 1.03125C2.08601 1.42031 2.00163 1.5375 1.81413 1.92188C1.43913 2.70469 1.45319 2.53125 1.45319 6.52969V10.0781H2.15632H2.85944V6.85312C2.85944 5.0625 2.88288 3.47812 2.90632 3.28594C3.03288 2.32031 3.77351 1.57969 4.73913 1.45312C5.18444 1.39687 6.15476 1.39687 6.60944 1.45312C7.10163 1.51875 7.56101 1.74844 7.87507 2.09062C8.08601 2.325 8.34382 2.7375 8.34382 2.85C8.34382 2.86875 8.20319 2.93437 8.02976 2.99062C7.53288 3.15 7.14382 3.40312 6.67976 3.86719C5.95788 4.58437 5.67194 5.31562 5.67194 6.43125V7.03125H9.19226H12.7126L12.6938 6.31406C12.6751 5.70469 12.6516 5.54531 12.5485 5.22656C12.3704 4.68281 12.1219 4.29375 11.6719 3.84375C11.2079 3.37969 10.8188 3.13594 10.261 2.96719L9.86257 2.84062L9.73601 2.44219C9.56726 1.88437 9.32351 1.49531 8.85944 1.03125C8.40944 0.581249 8.02507 0.3375 7.47663 0.154687C7.10632 0.0281248 7.07819 0.0281248 5.76569 0.0140619C4.59851 0.00468731 4.38757 0.0140619 4.08288 0.0890617Z" fill="black"/>
<path id="Vector_2" d="M14.8688 10.2234C14.5453 10.3828 14.3813 10.5562 14.2219 10.8984L14.1094 11.1328V13.7672V16.4062H16.2188H18.3281V13.7672V11.1328L18.2156 10.8984C18.0563 10.5562 17.8922 10.3828 17.5688 10.2234L17.2828 10.0781H16.2188H15.1547L14.8688 10.2234Z" fill="black"/>
<path id="Vector_3" d="M0.759375 11.6297C0.253125 11.8781 0 12.3047 0 12.8906C0 13.4766 0.253125 13.9031 0.759375 14.1516L1.04531 14.2969H6.87656H12.7031V12.8906V11.4844H6.87656H1.04531L0.759375 11.6297Z" fill="black"/>
<path id="Vector_4" d="M19.7344 12.8906V14.2969H21.3422H22.9547L23.2406 14.1516C23.7469 13.9031 24 13.4766 24 12.8906C24 12.3047 23.7469 11.8781 23.2406 11.6297L22.9547 11.4844H21.3422H19.7344V12.8906Z" fill="black"/>
<path id="Vector_5" d="M1.45938 17.2125C1.47813 18.7031 1.47813 18.7312 1.60469 19.1484C1.95625 20.3016 2.65 21.2578 3.60625 21.9094C3.74688 22.0078 3.87344 22.0969 3.88281 22.1062C3.89688 22.1203 3.70938 22.3266 3.46563 22.5703L3.02031 23.0156L3.5125 23.5078C3.78438 23.7797 4.02344 24 4.05156 24C4.075 24 4.38438 23.7141 4.73125 23.3672L5.36875 22.7297H11.9969H18.625L19.2625 23.3672C19.6094 23.7141 19.9188 24 19.9422 24C19.9703 24 20.2094 23.7797 20.4813 23.5078L20.9734 23.0156L20.5281 22.5703C20.2844 22.3266 20.0969 22.1203 20.1109 22.1062C20.1203 22.0969 20.2469 22.0078 20.3875 21.9094C21.3438 21.2578 22.0375 20.3016 22.3891 19.1484C22.5156 18.7312 22.5156 18.7031 22.5344 17.2125L22.5484 15.7031H21.1422H19.7313V16.7578V17.8125H16.2156H12.7V16.7578V15.7031H7.07031H1.44531L1.45938 17.2125Z" fill="black"/>
</g>
</svg>
