<svg width="24" height="24" viewBox="0 0 24 24" fill="none" xmlns="http://www.w3.org/2000/svg">
<path d="M3.95781 3.5353C3.00156 3.74155 2.2375 4.51499 2.03125 5.47593C1.9375 5.92593 1.9375 8.97749 2.03125 9.20718C2.15313 9.4978 2.22813 9.51187 3.70938 9.50718C4.81094 9.50718 5.00781 9.49312 4.87656 9.44624C4.66563 9.37124 4.54375 9.21187 4.54375 9.0103C4.54375 8.78999 4.85313 7.57124 4.97031 7.34624C5.11563 7.0603 5.37344 6.80718 5.65938 6.66655L5.92656 6.5353H7.87188H9.81719L10.0844 6.66187C10.3938 6.80718 10.6844 7.08843 10.8344 7.39312C10.9328 7.58999 10.9422 7.69312 10.9563 8.36343C10.9703 9.08062 10.9656 9.1228 10.8672 9.24937C10.8109 9.32437 10.6984 9.40874 10.6188 9.44624C10.4922 9.4978 10.6797 9.50718 11.9969 9.50718C13.3141 9.50718 13.5016 9.4978 13.375 9.44624C13.2953 9.40874 13.1828 9.32437 13.1266 9.24937C13.0281 9.1228 13.0234 9.08062 13.0375 8.36343C13.0516 7.69312 13.0609 7.58999 13.1594 7.39312C13.3094 7.08843 13.6 6.80718 13.9094 6.66187L14.1766 6.5353H16.1219H18.0672L18.3344 6.66655C18.6203 6.80718 18.8781 7.0603 19.0234 7.34624C19.1406 7.57124 19.45 8.78999 19.45 9.0103C19.45 9.21187 19.3281 9.37124 19.1172 9.44624C18.9859 9.49312 19.1828 9.50718 20.2844 9.50718C21.7656 9.51187 21.8406 9.4978 21.9625 9.20718C22.0563 8.97749 22.0563 5.92593 21.9625 5.47593C21.7563 4.50093 20.9922 3.73687 20.0172 3.53062C19.5719 3.43687 4.38906 3.44155 3.95781 3.5353Z" fill="black"/>
<path d="M1.69688 10.6153C1.275 10.7606 1.03594 10.9106 0.721875 11.22C0.407813 11.5341 0.2625 11.7778 0.117188 12.2044L0 12.5559V16.3716V20.1919L0.117188 20.3325C0.267188 20.5106 0.50625 20.5622 0.721875 20.4591C0.989063 20.3325 1.03125 20.1778 1.03125 19.2919V18.5138H12H22.9688V19.2919C22.9688 20.1778 23.0109 20.3325 23.2781 20.4591C23.4938 20.5622 23.7328 20.5106 23.8828 20.3325L24 20.1919V16.3716V12.5559L23.8828 12.2044C23.7375 11.7778 23.5922 11.5341 23.2781 11.22C22.9641 10.9059 22.7203 10.7606 22.2938 10.6153L21.9422 10.4981H11.9906L2.03906 10.5028L1.69688 10.6153ZM22.9688 16.9903V17.4825H12H1.03125V16.9903V16.4981H12H22.9688V16.9903Z" fill="black"/>
</svg>
