<svg width="24" height="24" viewBox="0 0 24 24" fill="none" xmlns="http://www.w3.org/2000/svg">
<g id="Black">
<path id="Vector" d="M0.308426 0.0890617C0.238114 0.135937 0.134989 0.239061 0.088114 0.309374C-0.155636 0.679688 0.134989 2.29219 0.608426 3.22969L0.749051 3.51094L2.58655 3.525C4.38655 3.53906 4.43343 3.54375 4.5928 3.64219C4.80843 3.77344 4.92093 3.975 4.92093 4.21875C4.92093 4.4625 4.80843 4.66406 4.5928 4.79531C4.43343 4.89375 4.37718 4.89844 2.9428 4.9125L1.45218 4.92656V11.9578V18.9844H2.90999H4.3678L4.32561 18.6891C4.30686 18.5297 4.28811 18.1031 4.28811 17.7422C4.28811 17.1 4.2928 17.0812 4.43811 16.7672C4.72874 16.1578 5.38968 15.6469 5.99436 15.5766C6.12561 15.5625 6.23343 15.5344 6.23343 15.5203C6.23343 15.5016 6.13499 15.4125 6.00843 15.3187C5.3803 14.8359 4.76155 14.0344 4.49905 13.35C3.89436 11.7797 4.2928 10.2141 5.61468 8.94375C6.27561 8.31562 7.06311 7.84687 8.00999 7.52344C8.85843 7.23281 9.57093 7.12031 10.5694 7.12031C12.1631 7.12031 13.5928 7.51406 14.7787 8.29219C15.2241 8.58281 15.9366 9.26719 16.1897 9.64219L16.3725 9.91406H17.2209C18.1866 9.91406 18.5616 9.98438 19.3256 10.3125L19.7334 10.4906V7.71094V4.92656L18.2475 4.9125C16.8553 4.89844 16.7475 4.89375 16.6022 4.80469C16.3912 4.67812 16.2647 4.4625 16.2647 4.22344C16.2647 3.96562 16.3631 3.78281 16.5787 3.64687C16.7569 3.53906 16.7616 3.53906 18.5944 3.525C20.7178 3.50625 20.4506 3.59062 20.7319 2.88281C20.9709 2.28281 21.1397 1.56094 21.1725 0.979687C21.2053 0.417187 21.1537 0.262499 20.8772 0.0890617C20.7319 0 20.5256 0 10.5881 0C0.730301 0 0.439676 0.00468636 0.308426 0.0890617ZM9.51468 3.64219C9.7303 3.77344 9.8428 3.975 9.8428 4.21875C9.8428 4.4625 9.7303 4.66406 9.51468 4.79531C9.3553 4.89375 9.30374 4.89844 8.13186 4.89844C6.99749 4.89844 6.90374 4.89375 6.75843 4.80469C6.33655 4.55156 6.29905 3.93281 6.68811 3.67969C6.90374 3.53437 7.05843 3.52031 8.22561 3.52969C9.29436 3.53906 9.35999 3.54375 9.51468 3.64219ZM14.4366 3.64219C14.6522 3.77344 14.7647 3.975 14.7647 4.21875C14.7647 4.4625 14.6522 4.66406 14.4366 4.79531C14.2772 4.89375 14.2256 4.89844 13.0537 4.89844C11.9194 4.89844 11.8256 4.89375 11.6803 4.80469C11.2584 4.55156 11.2209 3.93281 11.61 3.67969C11.8256 3.53437 11.9803 3.52031 13.1475 3.52969C14.2162 3.53906 14.2819 3.54375 14.4366 3.64219Z" fill="black"/>
<path id="Vector_2" d="M9.65313 8.51867C8.85156 8.64992 8.275 8.82336 7.70781 9.10929C6.68594 9.62023 5.9875 10.3327 5.70625 11.1484C5.55625 11.5843 5.55625 12.3155 5.70625 12.7374C5.86563 13.1827 6.12344 13.5859 6.48438 13.9468C6.77969 14.2374 7.43125 14.7155 7.46875 14.6687C7.47344 14.6593 7.54844 14.5046 7.63281 14.3218C8.14844 13.2062 9.175 12.203 10.3094 11.7155C11.0781 11.3827 11.3922 11.3218 12.3484 11.3218C12.8688 11.3218 13.2625 11.3452 13.375 11.378L13.5578 11.4343L13.9141 11.1343C14.1109 10.9655 14.4438 10.7312 14.6547 10.6093C14.8703 10.4827 15.0438 10.3702 15.0438 10.3468C15.0438 10.2765 14.3969 9.66711 14.1156 9.47492C13.4547 9.02961 12.5875 8.70148 11.6922 8.55617C11.3031 8.49054 9.9625 8.46711 9.65313 8.51867Z" fill="black"/>
<path id="Vector_3" d="M16.5517 11.3016C16.2095 11.3672 15.8861 11.4844 15.5157 11.6812C15.1501 11.8687 14.9673 11.9859 15.0048 12.0141C15.0142 12.0234 15.1407 12.1078 15.2814 12.2109C15.422 12.3094 15.6564 12.4922 15.8017 12.6141C15.947 12.7406 16.0782 12.8438 16.0923 12.8438C16.1064 12.8438 16.3782 12.5531 16.6923 12.1969C17.0064 11.8453 17.3298 11.4844 17.4095 11.4L17.5501 11.25L17.1517 11.2547C16.9361 11.2594 16.6642 11.2781 16.5517 11.3016Z" fill="black"/>
<path id="Vector_4" d="M17.9991 12.7547C17.4695 13.35 17.0101 13.8703 16.9773 13.9172C16.9304 13.9875 16.9445 14.0578 17.0851 14.3531C17.1741 14.5453 17.296 14.8828 17.3616 15.0984C17.4695 15.4781 17.4788 15.4922 17.6148 15.4922C17.7366 15.4922 17.8866 15.3469 18.9413 14.1516C19.5976 13.4156 20.1601 12.7781 20.1976 12.7312C20.2585 12.6609 20.2398 12.6234 20.0101 12.3937C19.757 12.1312 19.1148 11.6719 19.0163 11.6719C18.9835 11.6719 18.5288 12.1594 17.9991 12.7547Z" fill="black"/>
<path id="Vector_5" d="M11.4344 12.75C10.1266 13.0734 9.04844 14.1 8.65 15.4078L8.61719 15.5156H9.34375H10.0703L11.2047 14.2359C11.8281 13.5375 12.4047 12.8906 12.4844 12.8062L12.625 12.6562L12.2031 12.6609C11.9641 12.6609 11.6359 12.6984 11.4344 12.75Z" fill="black"/>
<path id="Vector_6" d="M13.075 14.1609C12.5453 14.7563 12.0672 15.3047 12.0062 15.3797L11.8984 15.5156H12.9766H14.0547L14.6266 14.8688C14.9453 14.5172 15.2312 14.1891 15.2734 14.1422C15.3344 14.0672 15.325 14.0391 15.1328 13.8469C14.7953 13.4953 14.2141 13.0734 14.0734 13.0781C14.0547 13.0781 13.6047 13.5656 13.075 14.1609Z" fill="black"/>
<path id="Vector_7" d="M20.3625 14.5875C20.0578 14.9297 19.7437 15.2812 19.6641 15.3609L19.5234 15.5156H20.3297H21.1359V15.1219C21.1359 14.7328 21.0281 14.0766 20.9531 14.0016C20.9344 13.9828 20.6672 14.2453 20.3625 14.5875Z" fill="black"/>
<path id="Vector_8" d="M5.93555 17.0109C5.6543 17.1984 5.61211 17.3344 5.64023 17.9672C5.67773 18.8344 5.88867 19.575 6.35742 20.4844C6.97617 21.675 8.07305 22.8844 9.27773 23.6953L9.72773 24H14.8184H19.9043L20.3262 23.7141C20.9402 23.2922 21.3152 22.9734 21.8777 22.3875C23.1762 21.0375 23.9121 19.5047 23.9871 18.0047C24.0199 17.3437 23.973 17.1844 23.6965 17.0156C23.5465 16.9219 23.4293 16.9219 14.809 16.9219C6.2918 16.9219 6.0668 16.9266 5.93555 17.0109Z" fill="black"/>
<path id="Vector_9" d="M0.582836 20.7281C0.264086 21.4266 0.0484613 22.2937 0.00627382 23.0344C-0.0218512 23.5687 0.0390863 23.7469 0.301586 23.9062C0.446899 23.9953 0.550024 24 3.95784 24H7.4594L7.09846 23.6625C6.34377 22.9594 5.52815 21.8531 5.05471 20.8922L4.80159 20.3906H2.7719H0.742211L0.582836 20.7281Z" fill="black"/>
</g>
</svg>
