<svg width="24" height="24" viewBox="0 0 24 24" fill="none" xmlns="http://www.w3.org/2000/svg">
<g id="Black">
<path id="Vector" d="M2.14874 0.815625C2.00343 0.848438 1.85343 0.9 1.81593 0.932813C1.6753 1.04531 1.53936 1.55156 1.51593 2.03906C1.49718 2.45156 1.50655 2.52656 1.59093 2.6625C1.64718 2.74688 1.75499 2.85469 1.83936 2.90625C1.99405 3 2.09718 3 12.0019 3C21.9065 3 22.0097 3 22.1644 2.90625C22.2487 2.85469 22.3566 2.74688 22.4128 2.6625C22.4972 2.52656 22.5065 2.45156 22.4878 2.0625C22.4597 1.53281 22.3144 1.01719 22.1597 0.91875C22.1034 0.88125 21.93 0.829688 21.78 0.801563C21.3581 0.721875 2.50968 0.735938 2.14874 0.815625Z" fill="black"/>
<path id="Vector_2" d="M1.0875 4.59375C0.773438 4.78594 0.75 4.875 0.75 6C0.75 7.125 0.773438 7.21406 1.0875 7.40625C1.24219 7.5 1.35 7.5 12 7.5C22.65 7.5 22.7578 7.5 22.9125 7.40625C23.2266 7.21406 23.25 7.125 23.25 6C23.25 4.875 23.2266 4.78594 22.9125 4.59375C22.7578 4.5 22.65 4.5 12 4.5C1.35 4.5 1.24219 4.5 1.0875 4.59375Z" fill="black"/>
<path id="Vector_3" d="M1.84219 9.09375C1.75781 9.14062 1.65469 9.23906 1.60781 9.31406C1.52813 9.43594 1.52344 9.75469 1.5 15.3281L1.47656 21.2109L1.36406 21.4359C1.30313 21.5625 1.13906 21.7594 1.00313 21.8812L0.75 22.1016V22.5047C0.75 22.7953 0.76875 22.9266 0.815625 22.9641C0.853125 22.9922 1.0875 23.0719 1.33594 23.1328L1.79531 23.25H12H22.2047L22.6641 23.1328C22.9125 23.0719 23.1469 22.9922 23.1844 22.9641C23.2313 22.9266 23.25 22.7953 23.25 22.5047V22.1016L23.0156 21.9C22.8844 21.7875 22.7203 21.5859 22.65 21.4547L22.5234 21.2109L22.5 15.3281C22.4766 9.75469 22.4719 9.43594 22.3922 9.31406C22.3453 9.23906 22.2422 9.14062 22.1578 9.09375C22.0125 9 21.8391 9 12 9C2.16094 9 1.9875 9 1.84219 9.09375ZM17.3625 11.2969C17.5922 11.3484 17.7609 11.4703 17.8828 11.6766C17.9766 11.8312 17.9766 11.9203 17.9766 16.5C17.9766 21.0797 17.9766 21.1687 17.8828 21.3234C17.7609 21.5297 17.5922 21.6516 17.3625 21.7031C17.1188 21.7594 6.88125 21.7594 6.6375 21.7031C6.40781 21.6516 6.23906 21.5297 6.11719 21.3234C6.02344 21.1687 6.02344 21.0797 6.02344 16.5C6.02344 11.9203 6.02344 11.8312 6.11719 11.6766C6.23438 11.4797 6.40781 11.3438 6.61406 11.2969C6.83906 11.2453 17.1375 11.2406 17.3625 11.2969Z" fill="black"/>
<path id="Vector_4" d="M11.2529 13.8984C11.0935 13.9828 10.3622 14.8969 9.95442 15.5156C9.3263 16.4766 9.04505 17.175 9.01224 17.8641C8.9888 18.3797 9.05442 18.6703 9.30755 19.1766C9.57005 19.6922 10.2357 20.4375 10.4325 20.4375C10.4747 20.4375 10.5075 20.3531 10.5263 20.2125C10.606 19.6547 10.7935 19.3078 11.1779 19.0453C11.445 18.8625 11.6607 18.7969 12.0029 18.7969C12.345 18.7969 12.5607 18.8625 12.8279 19.0453C13.2122 19.3078 13.3997 19.6547 13.4794 20.2172C13.4982 20.3531 13.531 20.4375 13.5732 20.4375C13.77 20.4375 14.4357 19.6922 14.6982 19.1766C14.9794 18.6141 15.0169 18.4031 14.9888 17.5828C14.9419 16.1953 14.6935 15.6797 14.0747 15.6797C13.831 15.6797 13.7794 15.6984 13.5029 15.9C13.1279 16.1672 12.9966 16.2047 12.8044 16.1062C12.6029 15.9984 12.57 15.9375 12.195 14.9297C11.8435 13.9875 11.7404 13.8281 11.4966 13.8281C11.4263 13.8328 11.3185 13.8609 11.2529 13.8984Z" fill="black"/>
</g>
</svg>
