<svg width="24" height="24" viewBox="0 0 24 24" fill="none" xmlns="http://www.w3.org/2000/svg">
<g id="Black">
<path id="Vector" d="M0.703125 5.4375V10.875H12H23.2969V5.4375V0H12H0.703125V5.4375ZM10.2703 3.01406C10.3125 3.04687 10.4578 3.25781 10.5891 3.48281L10.8328 3.89062L12.0094 3.88125L13.1906 3.86719L13.4297 3.45469C13.6922 3 13.7391 2.95312 13.9547 2.95312C14.0625 2.95312 14.1328 2.99062 14.2219 3.09844C14.2875 3.17812 14.3438 3.27656 14.3438 3.32344C14.3438 3.42656 13.7531 4.45312 13.6313 4.55625C13.5469 4.63125 13.3969 4.64062 12 4.64062C10.6031 4.64062 10.4531 4.63125 10.3688 4.55625C10.2469 4.45312 9.65625 3.42656 9.65625 3.32344C9.65625 3.27656 9.7125 3.17812 9.77813 3.09844C9.90938 2.93906 10.125 2.90625 10.2703 3.01406Z" fill="black"/>
<path id="Vector_2" d="M0.703125 17.1332V22.5942H1.84688H2.98594L3.04219 23.1895C3.12656 24.1082 3.02344 24.0051 3.85781 23.991L4.57031 23.977L4.63594 23.2832L4.70625 22.5942H12H19.2984L19.3594 23.2973L19.4203 24.0004H20.1375C20.9766 24.0004 20.8734 24.1035 20.9578 23.1895L21.0141 22.5942H22.1531H23.2969V17.1332V11.6723H12H0.703125V17.1332ZM10.3031 14.7285C10.3313 14.7567 10.4578 14.9535 10.5844 15.1692L10.8047 15.5629H12H13.1953L13.4297 15.1504C13.7016 14.6817 13.8375 14.5785 14.0672 14.677C14.2313 14.7426 14.3625 14.9629 14.3203 15.0988C14.2547 15.3004 13.7203 16.177 13.6078 16.266C13.4906 16.3551 13.4203 16.3598 12 16.3598C10.2656 16.3598 10.4062 16.3973 10.0641 15.8067C9.65156 15.0942 9.6375 15.0613 9.70312 14.902C9.80625 14.6582 10.1109 14.5692 10.3031 14.7285Z" fill="black"/>
</g>
</svg>
