<svg width="20" height="20" viewBox="0 0 20 20" fill="none" xmlns="http://www.w3.org/2000/svg">
<g id="Black">
<path id="Vector" d="M12.625 1.06094V1.86719L11.875 2.24219L11.125 2.61719V3.30625V4H14.5H17.875V3.30625V2.61719L17.125 2.24219L16.375 1.86719V1.06094V0.25H14.5H12.625V1.06094Z" fill="black"/>
<path id="Vector_2" d="M2.5 1.00195V1.37695H1.9375H1.375V1.75195V2.12695H1.9375H2.5V3.8332C2.5 5.53008 2.5 5.54414 2.40156 5.57227C2.2375 5.62383 1.92813 5.9332 1.83906 6.13477C1.72188 6.38789 1.72188 6.8707 1.83906 7.11914C2.02188 7.51758 2.42031 7.76133 2.875 7.76133C3.32969 7.76133 3.72813 7.51758 3.91094 7.11914C4.02813 6.8707 4.02813 6.38789 3.91094 6.13477C3.82188 5.9332 3.5125 5.62383 3.34844 5.57227C3.25 5.54414 3.25 5.53008 3.25 3.8332V2.12695H4.9375H6.625V2.87227V3.61289L6.32031 3.71602C5.33594 4.03477 4.75469 4.83633 4.75 5.86758C4.75 6.72539 5.14844 7.43789 5.875 7.85508C6.5125 8.22539 7.4875 8.22539 8.125 7.85508C8.85156 7.43789 9.25 6.73008 9.25 5.87227C9.25 4.81758 8.58906 3.9457 7.57656 3.67852L7.375 3.62227V2.87695V2.12695H8.3125H9.25V1.75195V1.37695H8.3125H7.375V1.00195V0.626953H7H6.625V1.00195V1.37695H4.9375H3.25V1.00195V0.626953H2.875H2.5V1.00195Z" fill="black"/>
<path id="Vector_3" d="M12.625 9.0625V9.625H6.4375H0.25V10V10.375H0.4375H0.625V15.0625V19.75H10H19.375V15.0625V10.375H19.5625H19.75V10V9.625H18.0625H16.375V9.0625V8.5H15.625H14.875V8.875V9.25H15.25H15.625V9.4375V9.625H14.5H13.375V9.4375V9.25H13.75H14.125V8.875V8.5H13.375H12.625V9.0625ZM15.0438 11.3312C15.175 11.4625 15.2031 11.5281 15.2031 11.6875C15.2031 11.8469 15.175 11.9125 15.0438 12.0437C14.9125 12.175 14.8469 12.2031 14.6875 12.2031C14.5281 12.2031 14.4625 12.175 14.3313 12.0437C14.2 11.9125 14.1719 11.8469 14.1719 11.6875C14.1719 11.5281 14.2 11.4625 14.3313 11.3312C14.4625 11.2 14.5281 11.1719 14.6875 11.1719C14.8469 11.1719 14.9125 11.2 15.0438 11.3312ZM16.9188 11.3312C17.05 11.4625 17.0781 11.5281 17.0781 11.6875C17.0781 11.8469 17.05 11.9125 16.9188 12.0437C16.7875 12.175 16.7219 12.2031 16.5625 12.2031C16.4031 12.2031 16.3375 12.175 16.2063 12.0437C16.075 11.9125 16.0469 11.8469 16.0469 11.6875C16.0469 11.5281 16.075 11.4625 16.2063 11.3312C16.3375 11.2 16.4031 11.1719 16.5625 11.1719C16.7219 11.1719 16.7875 11.2 16.9188 11.3312ZM10 14.875V18.25H6.0625H2.125V14.875V11.5H6.0625H10V14.875ZM17.875 15.4375V17.875H14.5H11.125V15.4375V13H14.5H17.875V15.4375Z" fill="black"/>
<path id="Vector_4" d="M2.875 13.375V14.5H6.0625H9.25V13.375V12.25H6.0625H2.875V13.375ZM6.625 13.375V13.75H5.875H5.125V13.375V13H5.875H6.625V13.375Z" fill="black"/>
<path id="Vector_5" d="M2.875 16.375V17.5H6.0625H9.25V16.375V15.25H6.0625H2.875V16.375ZM6.625 16.375V16.75H5.875H5.125V16.375V16H5.875H6.625V16.375Z" fill="black"/>
<path id="Vector_6" d="M11.875 15.4375V17.125H14.5H17.125V15.4375V13.75H14.5H11.875V15.4375ZM15.25 14.5V14.875H14.5H13.75V14.5V14.125H14.5H15.25V14.5Z" fill="black"/>
</g>
</svg>
