<svg width="22" height="24" viewBox="0 0 22 24" fill="none" xmlns="http://www.w3.org/2000/svg">
<g id="Black">
<path id="Vector" d="M1.08553 0.112499C0.794901 0.248436 0.583964 0.46875 0.443339 0.773438L0.335526 1.00781L0.321464 10.5C0.316776 16.3453 0.326151 20.1047 0.354276 20.2828C0.377714 20.4422 0.433964 20.6437 0.476151 20.7328C0.579276 20.9578 0.846464 21.2109 1.10428 21.3375L1.3199 21.4453H11.023H20.7262L20.9746 21.3328C21.1152 21.2672 21.298 21.1312 21.4058 21.0141C21.7621 20.6062 21.734 21.4875 21.7246 10.6406L21.7105 0.914062L21.5933 0.689062C21.4621 0.426561 21.2371 0.210938 20.9652 0.0890617C20.7824 0.00468636 20.4027 0 11.0465 0H1.3199L1.08553 0.112499ZM18.7855 2.27812C19.273 2.50312 19.498 2.86875 19.5215 3.47812L19.5402 3.89062H19.6855C20.0933 3.89062 20.6371 4.34062 20.7683 4.78594C20.8762 5.1375 20.8762 7.69687 20.773 8.04844C20.6324 8.52656 20.2433 8.87812 19.7793 8.94375L19.5543 8.97656L19.5402 10.7156L19.5308 12.4547L19.7324 12.4781C20.1496 12.525 20.534 12.8109 20.7215 13.2141C20.8152 13.4203 20.8199 13.5 20.8199 15C20.8199 16.5 20.8152 16.5797 20.7215 16.7859C20.534 17.1891 20.1496 17.475 19.7324 17.5219L19.5308 17.5453V17.8828C19.5308 18.4688 19.3246 18.8531 18.8652 19.1062L18.6168 19.2422H10.9996H3.3824L3.13396 19.1062C2.99334 19.0266 2.8199 18.8859 2.7449 18.7922C2.47303 18.4453 2.46834 18.4219 2.46834 16.1016V13.9781L2.61365 13.8562C2.80115 13.6969 2.96053 13.7016 3.12928 13.8703L3.26521 14.0062V16.05C3.26521 17.2875 3.28396 18.1359 3.31209 18.2109C3.41521 18.4828 3.03084 18.4688 10.9996 18.4688C18.9683 18.4688 18.584 18.4828 18.6871 18.2109C18.7152 18.1406 18.734 17.9625 18.734 17.8078V17.5312H18.584C18.2137 17.5266 17.7683 17.2031 17.5808 16.8047C17.4683 16.5703 17.4683 16.5562 17.4683 15C17.4683 13.5234 17.4777 13.4156 17.5668 13.2188C17.6183 13.1016 17.7308 12.9375 17.8105 12.8484C17.9933 12.6562 18.373 12.4688 18.584 12.4688H18.734L18.7246 10.725L18.7105 8.98125L18.5137 8.94375C18.1012 8.87344 17.7402 8.59219 17.5668 8.20312C17.4777 8.00625 17.4683 7.89844 17.4683 6.43125C17.4683 4.74375 17.473 4.71094 17.7355 4.36875C17.9043 4.14375 18.2418 3.94219 18.509 3.90937L18.734 3.87656V3.6C18.734 3.30937 18.6496 3.07969 18.523 3.02812C18.4199 2.99062 3.57928 2.99062 3.47615 3.02812C3.26053 3.1125 3.26521 3.05156 3.26521 7.6875C3.26521 12.4594 3.27928 12.2531 2.99334 12.3703C2.82928 12.4406 2.65115 12.3797 2.54334 12.225C2.47771 12.1312 2.46834 11.6719 2.46834 7.65937C2.46834 4.37812 2.4824 3.15937 2.52459 3.04219C2.66053 2.64844 2.96521 2.35312 3.36834 2.22656C3.53709 2.175 4.86834 2.16562 11.0699 2.17031L18.5699 2.17969L18.7855 2.27812ZM6.98709 4.0125C7.16053 4.19062 7.15584 4.40625 6.96365 4.56562L6.81834 4.6875H5.91365H5.00896L4.99021 5.62969L4.97615 6.57187L4.82146 6.70781C4.64803 6.8625 4.5824 6.87187 4.3949 6.77344C4.1699 6.65625 4.15115 6.54375 4.16521 5.27812L4.17928 4.11562L4.31053 4.00312L4.44178 3.89062H5.65115H6.86053L6.98709 4.0125ZM11.8715 5.67656C12.5605 5.79844 13.2637 6.08437 13.8824 6.49219C14.2527 6.73594 14.9652 7.44844 15.2183 7.82344C15.509 8.25937 15.8137 8.93437 15.9543 9.45469C16.0668 9.86719 16.0808 9.99844 16.0808 10.7109C16.0808 11.4281 16.0668 11.5547 15.9543 11.9766C15.6496 13.1156 14.9652 14.1234 14.0277 14.8219C12.0402 16.3031 9.29334 16.1297 7.48865 14.4141C6.7949 13.7531 6.29334 12.9094 6.0449 11.9766C5.9324 11.5547 5.91834 11.4281 5.91834 10.7109C5.91834 9.99844 5.9324 9.86719 6.0449 9.45469C6.60271 7.38281 8.27146 5.92031 10.4137 5.62969C10.7793 5.57812 11.4543 5.60156 11.8715 5.67656Z" fill="black"/>
<path id="Vector_2" d="M18.5188 4.73437C18.2703 4.83281 18.2656 4.87969 18.2656 6.43594V7.88437L18.4016 8.02031L18.5375 8.15625H19.1563C19.7469 8.15625 19.775 8.15156 19.8828 8.03906L20 7.92656V6.42656V4.93125L19.8547 4.80937C19.7188 4.69219 19.6859 4.6875 19.1656 4.69219C18.8656 4.69219 18.5703 4.71094 18.5188 4.73437Z" fill="black"/>
<path id="Vector_3" d="M18.4016 13.4016L18.2656 13.5375V15V16.4625L18.4016 16.5984C18.5375 16.7344 18.5422 16.7344 19.1094 16.7344C19.7 16.7344 19.9109 16.6828 19.9719 16.5234C20.0094 16.4203 20.0094 13.5797 19.9719 13.4766C19.9109 13.3172 19.7 13.2656 19.1094 13.2656C18.5422 13.2656 18.5375 13.2656 18.4016 13.4016Z" fill="black"/>
<path id="Vector_4" d="M10.0859 6.50078C9.90781 6.53828 9.75312 6.57578 9.74375 6.58516C9.73906 6.58984 9.77187 6.70703 9.82812 6.83828C9.95 7.15703 9.94531 7.29297 9.80469 7.42891C9.55625 7.68203 9.21406 7.53672 9.07812 7.12422C9.04531 7.02109 8.98906 6.93672 8.95625 6.93672C8.82969 6.93672 8.1875 7.41953 7.88281 7.73828C7.59687 8.04297 7.20312 8.58672 7.20312 8.67578C7.20312 8.69453 7.29687 8.74609 7.41406 8.79297C7.63437 8.87266 7.85937 9.09297 7.85937 9.21484C7.85937 9.35547 7.71875 9.54766 7.58281 9.60859C7.45625 9.66016 7.40469 9.65078 7.175 9.56172C7.025 9.50078 6.89844 9.47266 6.875 9.49609C6.80937 9.56172 6.6875 10.3398 6.6875 10.7102C6.6875 11.0805 6.80937 11.8586 6.875 11.9242C6.89844 11.9477 7.025 11.9289 7.17969 11.868C7.41406 11.7742 7.46094 11.7742 7.59687 11.8305C7.69062 11.868 7.77031 11.9477 7.8125 12.0414C7.91094 12.2852 7.79375 12.4727 7.46562 12.6133C7.32031 12.6695 7.20312 12.7352 7.20312 12.7492C7.20312 12.768 7.2875 12.9133 7.39531 13.0773C7.71406 13.5742 8.28594 14.1227 8.80625 14.432L8.975 14.5352L9.09687 14.268C9.16719 14.1227 9.25625 13.9727 9.30312 13.9398C9.43906 13.8367 9.65937 13.8602 9.8 13.9961C9.95 14.1461 9.95469 14.3008 9.82344 14.6008C9.77187 14.718 9.73437 14.8258 9.74375 14.8352C9.82344 14.9055 10.5453 15.0039 11 15.0039C11.4547 15.0039 12.1766 14.9055 12.2562 14.8352C12.2656 14.8258 12.2281 14.718 12.1766 14.6008C12.1203 14.4789 12.0781 14.3148 12.0781 14.2398C12.0781 14.0523 12.2656 13.8742 12.4672 13.8742C12.6594 13.8742 12.7812 13.9961 12.9172 14.3102L13.0156 14.5398L13.1891 14.432C13.7281 14.1086 14.2859 13.5742 14.6047 13.0773C14.7125 12.9133 14.7969 12.768 14.7969 12.7492C14.7969 12.7305 14.6797 12.6648 14.5344 12.6086C14.3375 12.5242 14.2531 12.4633 14.2016 12.3461C14.0984 12.1398 14.1875 11.9195 14.4031 11.8305C14.5437 11.7695 14.5859 11.7742 14.8016 11.8586C14.9375 11.9148 15.0734 11.9477 15.1016 11.9336C15.2656 11.8727 15.3547 10.4055 15.2281 9.84297C15.1391 9.43984 15.1297 9.43516 14.825 9.56172C14.5953 9.65078 14.5437 9.66016 14.4172 9.60859C14.2812 9.54766 14.1406 9.35547 14.1406 9.21484C14.1406 9.09297 14.3656 8.87266 14.5859 8.78828C14.7312 8.73672 14.7969 8.68516 14.7781 8.64297C14.7078 8.46484 14.3937 8.03359 14.1125 7.73828C13.8172 7.42422 13.1703 6.93672 13.0484 6.93672C13.0156 6.93672 12.9547 7.03516 12.9031 7.15234C12.7906 7.43359 12.6594 7.54609 12.4672 7.54609C12.275 7.54609 12.0781 7.36797 12.0781 7.19922C12.0781 7.13359 12.1203 6.96953 12.1719 6.83828C12.2281 6.70703 12.2609 6.58984 12.2562 6.58516C12.2469 6.57578 12.0781 6.53828 11.8812 6.49609C11.4266 6.40234 10.5312 6.40234 10.0859 6.50078ZM11.7547 8.29609C12.4812 8.51641 13.0859 9.09297 13.3812 9.82891C13.4891 10.1148 13.5031 10.2086 13.5031 10.7102C13.5031 11.1742 13.4844 11.3242 13.4 11.5539C12.9781 12.6883 11.8016 13.4008 10.6391 13.2273C9.3875 13.0352 8.46875 11.9664 8.46875 10.7008C8.46875 9.90859 8.82969 9.18672 9.47187 8.69922C10.1375 8.19297 10.9531 8.04766 11.7547 8.29609Z" fill="black"/>
<path id="Vector_5" d="M10.4055 9.08565C9.23834 9.49347 8.88677 11.0591 9.76334 11.9357C10.2836 12.4607 11.1227 12.6013 11.7743 12.2732C12.618 11.8466 12.9602 10.8622 12.5711 9.99503C12.4024 9.62003 12.004 9.23565 11.6336 9.09972C11.3008 8.97315 10.7524 8.96847 10.4055 9.08565Z" fill="black"/>
<path id="Vector_6" d="M2.04688 22.7906C2.05156 23.4984 2.1875 23.8031 2.57656 23.9484C2.66563 23.9812 3.50938 24 5.06094 24H7.41406L7.60156 23.8922C7.70469 23.8312 7.83125 23.7047 7.89219 23.6016C7.98594 23.4375 8 23.3484 8 22.8375V22.2656H5.02344H2.04688V22.7906Z" fill="black"/>
<path id="Vector_7" d="M14 22.8375C14 23.3484 14.0141 23.4375 14.1078 23.6016C14.1688 23.7047 14.2953 23.8312 14.3984 23.8922L14.5859 24H16.9391C18.4906 24 19.3344 23.9812 19.4234 23.9484C19.8125 23.8031 19.9484 23.4984 19.9531 22.7906V22.2656H16.9766H14V22.8375Z" fill="black"/>
</g>
</svg>
