<svg width="18" height="22" viewBox="0 0 18 22" fill="none" xmlns="http://www.w3.org/2000/svg">
<g id="Black">
<path id="Vector" d="M1.5375 0.589062C0.857813 0.809374 0.276563 1.40469 0.075 2.08906C0.009375 2.31875 0 3.2375 0 11.0047C0 19.3719 0.0046875 19.6719 0.0890625 19.9484C0.304688 20.6375 0.895313 21.2234 1.58906 21.425C1.81875 21.4906 2.60625 21.5 9 21.5C15.3938 21.5 16.1813 21.4906 16.4109 21.425C17.1047 21.2234 17.6953 20.6375 17.9109 19.9484C17.9953 19.6719 18 19.3719 18 11C18 2.62812 17.9953 2.32812 17.9109 2.05156C17.6953 1.3625 17.1047 0.776562 16.4109 0.574999C16.1813 0.509375 15.3938 0.5 8.98125 0.504686C2.15156 0.504686 1.79063 0.509375 1.5375 0.589062ZM5.57812 2.87187C5.81719 3.0125 5.95312 3.2375 5.95312 3.5C5.95312 3.7625 5.81719 3.9875 5.57812 4.12812C5.42344 4.22187 5.33906 4.22656 4.125 4.22656C2.91094 4.22656 2.82656 4.22187 2.67188 4.12812C2.08125 3.78594 2.20781 2.96094 2.87344 2.79219C2.95312 2.77344 3.5625 2.75937 4.21875 2.76406C5.32969 2.77344 5.42344 2.77812 5.57812 2.87187ZM13.1156 2.89062C13.725 3.26094 13.4625 4.20312 12.75 4.20312C12.3516 4.20312 12.0469 3.89844 12.0469 3.5C12.0469 3.10156 12.3516 2.79688 12.75 2.79688C12.8766 2.79688 13.0219 2.83437 13.1156 2.89062ZM15.3656 2.89062C15.975 3.26094 15.7125 4.20312 15 4.20312C14.6016 4.20312 14.2969 3.89844 14.2969 3.5C14.2969 3.10156 14.6016 2.79688 15 2.79688C15.1266 2.79688 15.2719 2.83437 15.3656 2.89062ZM10.0266 7.37187C12.5109 7.8125 14.4469 9.75781 14.8828 12.2516C14.9719 12.7672 14.9719 13.7328 14.8828 14.2531C14.7281 15.125 14.3578 16.0109 13.8469 16.7234C13.5328 17.1547 12.8484 17.8344 12.4172 18.1391C10.9313 19.1891 8.95781 19.4891 7.20469 18.9359C5.53594 18.4109 4.14375 17.1312 3.4875 15.5328C3.39844 15.3078 3.26719 14.9187 3.19688 14.6656C3.08438 14.2437 3.075 14.1406 3.075 13.25C3.075 12.3641 3.08438 12.2562 3.19688 11.8438C3.51563 10.6719 3.99375 9.82812 4.78594 9.03594C6.17344 7.64844 8.10469 7.03437 10.0266 7.37187Z" fill="black"/>
<path id="Vector_2" d="M6.11563 12.7352C5.73125 12.7867 5.3 12.9039 4.85469 13.0727L4.48438 13.218L4.5125 13.668C4.55469 14.4273 4.85 15.2383 5.31875 15.9039C5.59531 16.2883 6.24219 16.8883 6.63594 17.1227C7.40938 17.5773 8.10313 17.7695 8.99844 17.7695C9.88906 17.7695 10.5922 17.5773 11.3469 17.132C11.7547 16.8883 12.3969 16.293 12.6781 15.9039C13.0203 15.4211 13.3203 14.732 13.4328 14.1883C13.4703 13.982 13.5312 13.2508 13.5078 13.2508C13.4984 13.2508 13.2922 13.3258 13.0484 13.4148C11.6938 13.9211 10.4516 13.8695 9.08281 13.2461C8.0375 12.768 7.1 12.6086 6.11563 12.7352Z" fill="black"/>
</g>
</svg>
