<svg width="24" height="18" viewBox="0 0 24 18" fill="none" xmlns="http://www.w3.org/2000/svg">
<g id="Black">
<path id="Vector" d="M0.370313 0.247656C0.285938 0.303905 0.164062 0.42578 0.107813 0.510156L0 0.669531V7.01641C0 12.3883 0.009375 13.382 0.065625 13.4898C0.159375 13.668 0.370313 13.8508 0.557813 13.9164C0.7875 13.9914 23.2125 13.9914 23.4422 13.9164C23.6297 13.8508 23.8406 13.668 23.9344 13.4898C23.9906 13.382 24 12.3883 24 7.01641V0.669531L23.8922 0.510156C23.8359 0.42578 23.7141 0.303905 23.6297 0.247656L23.4703 0.139843H12H0.529688L0.370313 0.247656Z" fill="black"/>
<path id="Vector_2" d="M10.075 15.8625V16.4016L8.57971 16.4156C7.15002 16.4297 7.07502 16.4344 6.95315 16.5281C6.74221 16.6828 6.63909 16.8562 6.62034 17.0953C6.5969 17.3719 6.70471 17.6016 6.92971 17.7516L7.08909 17.8594H11.9969H16.9047L17.0641 17.7516C17.4953 17.4656 17.486 16.8562 17.0406 16.5281C16.9188 16.4344 16.8438 16.4297 15.4141 16.4156L13.9188 16.4016V15.8625V15.3281H11.9969H10.075V15.8625Z" fill="black"/>
</g>
</svg>
