<svg width="24" height="20" viewBox="0 0 24 20" fill="none" xmlns="http://www.w3.org/2000/svg">
<g id="Black">
<path id="Vector" d="M9.65469 0.160938C5.67031 0.390625 3.02188 1.36563 1.55 3.1375C0.598438 4.28594 0.115625 5.63594 0.0171875 7.44531L-0.015625 8.03125L2.46406 8.02188L4.94375 8.00781L4.99531 7.58125C5.12656 6.52656 5.44063 5.67813 5.92344 5.06875C6.47188 4.37969 7.41875 3.95781 8.74063 3.8125C9.08281 3.775 10.0484 3.75625 11.6422 3.76094C15.4438 3.77031 16.25 3.85469 17.2203 4.36563C17.9844 4.76406 18.4859 5.45781 18.7719 6.50313C18.8656 6.85 19.0203 7.75938 19.0297 7.99375C19.0297 8.01719 20.15 8.03125 21.5141 8.03125H23.9984V7.73125C23.9984 7.29063 23.9141 6.52656 23.8063 6.01563C23.4875 4.45938 22.7234 3.175 21.5844 2.28906C19.9484 1.01406 17.675 0.353126 14.2297 0.15625C13.2828 0.104688 10.6063 0.104688 9.65469 0.160938Z" fill="black"/>
<path id="Vector_2" d="M7.33125 6.33384C6.85781 6.3854 6.84375 6.41353 6.84375 7.25259V7.9604L6.6 8.24165C5.25938 9.77915 2.30625 13.7917 1.85156 14.6917L1.73438 14.9167V17.1573C1.73438 19.3088 1.73906 19.4026 1.82812 19.5526C1.87969 19.637 1.9875 19.7448 2.07188 19.7963C2.22656 19.8901 2.32969 19.8901 11.7563 19.8901C22.3734 19.8901 21.4969 19.9182 21.7125 19.5667C21.8203 19.3979 21.8203 19.3932 21.8344 17.1854L21.8484 14.9729L21.7219 14.7245C21.2766 13.8432 18.4266 9.96197 17.0766 8.40103L16.6875 7.94634V7.25259C16.6875 6.86822 16.6688 6.53072 16.65 6.50259C16.575 6.39009 16.4016 6.3479 15.8672 6.31978C15.1875 6.28228 14.5078 6.3479 14.3953 6.45572C14.3344 6.51665 14.3156 6.65259 14.3063 7.11665L14.2875 7.70259H11.7609H9.23906L9.225 7.11197C9.20625 6.33384 9.22969 6.35259 8.29688 6.32447C7.92188 6.31509 7.48594 6.31978 7.33125 6.33384ZM9.28125 9.65728C9.44063 9.75103 9.60938 10.037 9.60938 10.2104C9.60938 10.3838 9.44063 10.6698 9.28125 10.7635C9.09844 10.8713 8.78906 10.8667 8.60156 10.7495C8.43281 10.6463 8.29688 10.4073 8.29688 10.2104C8.29688 10.0417 8.46094 9.75572 8.61563 9.65728C8.77969 9.55884 9.1125 9.55415 9.28125 9.65728ZM12.1594 9.71822C12.4875 10.0042 12.4875 10.412 12.1641 10.6979C11.7563 11.0542 11.1094 10.7588 11.1094 10.2198C11.1094 9.84009 11.3813 9.57759 11.775 9.57759C11.9531 9.57759 12.0281 9.60572 12.1594 9.71822ZM14.8641 9.6479C15.2719 9.86353 15.2953 10.4729 14.9063 10.7495C14.7469 10.862 14.4188 10.8854 14.2547 10.801C14.0813 10.7073 13.9172 10.4401 13.9125 10.2432C13.9078 9.74165 14.4188 9.4229 14.8641 9.6479ZM9.1875 11.9495C9.65625 12.137 9.74063 12.6854 9.35156 13.0463C9.24844 13.1448 9.17813 13.1635 8.95313 13.1635C8.72813 13.1635 8.65781 13.1448 8.55469 13.0463C8.175 12.6901 8.24063 12.1698 8.69531 11.9635C8.925 11.8557 8.95313 11.8557 9.1875 11.9495ZM12.1078 12.0057C12.2859 12.1135 12.4406 12.437 12.3984 12.6338C12.2719 13.2385 11.5359 13.3885 11.1984 12.8776C11.025 12.6151 11.1141 12.212 11.3766 12.0245C11.6063 11.8604 11.8453 11.8557 12.1078 12.0057ZM14.7234 11.9213C15.2484 12.0667 15.3563 12.812 14.8922 13.0932C14.4516 13.3651 13.9219 13.051 13.9219 12.5213C13.9219 12.1979 14.1656 11.9401 14.5313 11.8792C14.5453 11.8745 14.6297 11.8979 14.7234 11.9213ZM9.30469 14.3307C9.69844 14.5885 9.68906 15.1557 9.28594 15.4229C8.85938 15.7088 8.25938 15.3479 8.31094 14.8323C8.3625 14.3401 8.90156 14.0682 9.30469 14.3307ZM12.0516 14.3167C12.2906 14.4385 12.4406 14.7385 12.3938 14.9963C12.3516 15.2213 12.1125 15.4698 11.8922 15.5073C11.6531 15.5542 11.5078 15.5073 11.3109 15.3292C10.9828 15.0292 11.0719 14.5088 11.4844 14.3026C11.6953 14.1948 11.8219 14.1948 12.0516 14.3167ZM14.7797 14.2838C15.0281 14.387 15.1875 14.612 15.1875 14.8604C15.1875 15.3667 14.7188 15.6667 14.2641 15.451C13.9125 15.287 13.8047 14.7901 14.0484 14.4948C14.175 14.3448 14.3953 14.2229 14.5453 14.2182C14.5922 14.2182 14.6953 14.2463 14.7797 14.2838Z" fill="black"/>
<path id="Vector_3" d="M0 8.83839C0.0046875 9.38682 0.220313 9.79932 0.609375 10.0149C0.960938 10.2118 1.27031 10.2446 2.64844 10.2259C4.01719 10.2071 4.125 10.1884 4.49063 9.9212C4.74844 9.72901 4.96875 9.15714 4.96875 8.67901V8.54776H2.48438H0V8.83839Z" fill="black"/>
<path id="Vector_4" d="M19.0312 8.76519C19.0312 8.88706 19.0688 9.11206 19.1109 9.26675C19.2094 9.61831 19.4719 9.89956 19.8094 10.0168C20.3906 10.223 22.7063 10.2089 23.2594 9.998C23.7281 9.82456 24 9.37925 24 8.79331V8.54488H21.5156H19.0312V8.76519Z" fill="black"/>
</g>
</svg>
