<svg width="24" height="14" viewBox="0 0 24 14" fill="none" xmlns="http://www.w3.org/2000/svg">
<g id="Black">
<path id="Vector" d="M21.4313 0.273437C21.2156 0.390625 20.8547 0.601562 20.6344 0.746875C20.1984 1.02812 19.3594 1.68906 19.3594 1.75C19.3594 1.76875 19.575 1.83906 19.8422 1.90937C20.1047 1.97969 20.4563 2.07812 20.6203 2.12969L20.9203 2.21875L21.2438 1.99844C21.4219 1.87187 21.7828 1.65625 22.0453 1.51562L22.5234 1.25781L22.5375 0.985937C22.5469 0.779687 22.5281 0.657812 22.4484 0.503125C22.3453 0.282812 22.0734 0.0625 21.9141 0.0625C21.8625 0.0625 21.6469 0.15625 21.4313 0.273437Z" fill="black"/>
<path id="Vector_2" d="M14.1797 1.98906C11.0578 2.28437 8.37656 3.48438 6.00937 5.65C4.87969 6.68125 3.70781 8.14375 2.78437 9.6625C2.45156 10.2062 1.6875 11.6031 1.6875 11.6594C1.6875 11.6734 5.99062 11.6875 11.2547 11.6875H20.8219L21.225 11.5422C21.45 11.4625 21.9281 11.3266 22.2891 11.2422C22.8703 11.1016 22.9594 11.0641 23.0812 10.9328C23.2078 10.7875 23.2125 10.7734 23.1797 10.4266C23.1328 9.85469 22.9734 8.84687 22.8469 8.3125C22.6359 7.40312 22.3641 6.7 21.7734 5.52344C21.2953 4.57187 20.3156 2.70625 20.2687 2.64531C20.2406 2.6125 18.9703 2.3125 18.4406 2.21875C18.1406 2.1625 17.6625 2.0875 17.3766 2.05C16.725 1.96562 14.8078 1.92812 14.1797 1.98906ZM16.5797 4.23906C17.1328 4.30469 17.6625 4.45 17.8406 4.58594C18.2297 4.88125 18.2906 5.45781 17.9953 6.05312C17.8031 6.45156 17.2219 7.04219 16.725 7.34687C15.8156 7.90937 14.7 8.21406 13.1953 8.31719C12.1922 8.38281 8.10469 8.35 7.87031 8.275C7.62187 8.19062 7.45312 8.01719 7.45312 7.84375C7.45312 7.19219 8.93437 6.00625 10.7109 5.2375C12.7312 4.36094 14.7422 4.01875 16.5797 4.23906Z" fill="black"/>
<path id="Vector_3" d="M11.6016 6.87813C11.3391 6.99531 11.0625 7.39375 11.0625 7.65625C11.0625 7.74531 11.0906 7.75 11.7797 7.75C12.7125 7.74531 13.7953 7.67969 14.3203 7.58594C14.55 7.54375 14.7469 7.50625 14.7516 7.49688C14.7844 7.46406 14.6625 7.20625 14.5641 7.09844C14.325 6.83594 14.1891 6.8125 12.9141 6.81719C12.0375 6.81719 11.7047 6.83125 11.6016 6.87813Z" fill="black"/>
<path id="Vector_4" d="M1.07534 12.9859C0.831588 13.5484 0.789401 13.6937 0.822213 13.7922L0.864401 13.9141L9.75659 13.9281L18.6441 13.9375L18.8222 13.6234C19.0519 13.1969 19.3519 12.7844 19.5863 12.5547C19.6894 12.4516 19.7785 12.3531 19.7785 12.3297C19.7785 12.3109 15.6347 12.2969 10.5722 12.2969H1.37065L1.07534 12.9859Z" fill="black"/>
</g>
</svg>
