<svg width="22" height="22" viewBox="0 0 22 22" fill="none" xmlns="http://www.w3.org/2000/svg">
<g id="Black">
<path id="Vector" d="M3.84219 0.863945L1.625 1.50144V10.9983V20.4952L3.81875 21.1186C5.02344 21.4655 6.03594 21.7561 6.06875 21.7655C6.11094 21.7843 6.125 19.6139 6.125 11.003C6.125 5.06863 6.11094 0.21707 6.09219 0.221758C6.06875 0.226444 5.05625 0.512383 3.84219 0.863945ZM5.09375 9.17488C5.36094 9.26863 5.375 9.36707 5.375 10.9983C5.375 12.6296 5.36094 12.728 5.09375 12.8218C4.89219 12.8921 3.60781 12.8921 3.40625 12.8218C3.13906 12.728 3.125 12.6296 3.125 11.0077C3.125 9.40926 3.13906 9.29207 3.37813 9.18894C3.56094 9.10926 4.86875 9.09988 5.09375 9.17488Z" fill="black"/>
<path id="Vector_2" d="M3.875 11V12.125H4.25H4.625V11V9.875H4.25H3.875V11Z" fill="black"/>
<path id="Vector_3" d="M15.875 10.9983C15.875 19.6139 15.8891 21.7843 15.9359 21.7655C15.9641 21.7561 16.9766 21.4655 18.1859 21.1186L20.375 20.4952V10.9983V1.50144L18.1859 0.878008C16.9766 0.531132 15.9641 0.240507 15.9359 0.231133C15.8891 0.212381 15.875 2.38269 15.875 10.9983ZM18.5938 9.17488C18.8609 9.26863 18.875 9.36707 18.875 10.9983C18.875 12.6296 18.8609 12.728 18.5938 12.8218C18.3922 12.8921 17.1078 12.8921 16.9062 12.8218C16.6391 12.728 16.625 12.6296 16.625 11.0077C16.625 9.40926 16.6391 9.29207 16.8781 9.18894C17.0609 9.10926 18.3688 9.09988 18.5938 9.17488Z" fill="black"/>
<path id="Vector_4" d="M17.375 11V12.125H17.75H18.125V11V9.875H17.75H17.375V11Z" fill="black"/>
<path id="Vector_5" d="M0.125 11V20.375H0.5H0.875V11V1.625H0.5H0.125V11Z" fill="black"/>
<path id="Vector_6" d="M6.875 2V2.375H11H15.125V2V1.625H11H6.875V2Z" fill="black"/>
<path id="Vector_7" d="M21.125 11V20.375H21.5H21.875V11V1.625H21.5H21.125V11Z" fill="black"/>
<path id="Vector_8" d="M6.875 3.875V4.625H8.75H10.625V4.46562C10.625 4.38125 10.6484 4.24062 10.6766 4.15625C10.775 3.87969 10.8172 3.875 13.0859 3.875H15.125V3.5V3.125H11H6.875V3.875Z" fill="black"/>
<path id="Vector_9" d="M11.375 5.75V6.875H13.25H15.125V6.5V6.125H14.2156C13.6625 6.125 13.25 6.10625 13.1563 6.07344C12.9313 5.99375 12.875 5.81094 12.875 5.16406V4.625H12.125H11.375V5.75Z" fill="black"/>
<path id="Vector_10" d="M13.625 5V5.375H14.375H15.125V5V4.625H14.375H13.625V5Z" fill="black"/>
<path id="Vector_11" d="M6.875 6.125V6.875H8.75H10.625V6.125V5.375H8.75H6.875V6.125Z" fill="black"/>
<path id="Vector_12" d="M6.875 8V8.375H11H15.125V8V7.625H11H6.875V8Z" fill="black"/>
<path id="Vector_13" d="M6.875 11V12.875H8.75H10.625V11.5906C10.625 10.7562 10.6438 10.2594 10.6766 10.1562C10.775 9.87969 10.8172 9.875 13.0859 9.875H15.125V9.5V9.125H11H6.875V11Z" fill="black"/>
<path id="Vector_14" d="M11.375 11.75V12.875H11.75H12.125V11.75V10.625H11.75H11.375V11.75Z" fill="black"/>
<path id="Vector_15" d="M12.875 11.75V12.875H13.25H13.625V11.75V10.625H13.25H12.875V11.75Z" fill="black"/>
<path id="Vector_16" d="M14.375 11.75V12.875H14.75H15.125V11.75V10.625H14.75H14.375V11.75Z" fill="black"/>
<path id="Vector_17" d="M6.875 14V14.375H11H15.125V14V13.625H11H6.875V14Z" fill="black"/>
<path id="Vector_18" d="M6.875 15.5V15.875H8.91406C11.1828 15.875 11.225 15.8797 11.3234 16.1562C11.3563 16.2594 11.375 16.7562 11.375 17.5906V18.875H13.25H15.125V17V15.125H11H6.875V15.5Z" fill="black"/>
<path id="Vector_19" d="M6.875 17.75V18.875H7.25H7.625V17.75V16.625H7.25H6.875V17.75Z" fill="black"/>
<path id="Vector_20" d="M8.375 17.75V18.875H8.75H9.125V17.75V16.625H8.75H8.375V17.75Z" fill="black"/>
<path id="Vector_21" d="M9.875 17.75V18.875H10.25H10.625V17.75V16.625H10.25H9.875V17.75Z" fill="black"/>
<path id="Vector_22" d="M6.875 20V20.375H11H15.125V20V19.625H11H6.875V20Z" fill="black"/>
<path id="Vector_23" d="M0.875 21.5V21.875H1.4375H2V21.6031V21.3266L1.65313 21.2281C1.46094 21.1719 1.20781 21.125 1.09063 21.125H0.875V21.5Z" fill="black"/>
<path id="Vector_24" d="M20.3188 21.2281L20 21.3266V21.5984V21.875H20.5625H21.125V21.5V21.125L20.8813 21.1297C20.7453 21.1344 20.4922 21.1766 20.3188 21.2281Z" fill="black"/>
</g>
</svg>
