<svg width="151" height="150" viewBox="0 0 151 150" fill="none" xmlns="http://www.w3.org/2000/svg">
<path d="M67.6195 17.2416C53.5795 20.2816 42.2195 31.8016 39.3395 45.8816C38.9795 47.6416 38.6995 50.9216 38.6995 53.5616V58.1616L36.4995 59.6016C32.8995 62.0016 30.3795 65.9616 29.4995 70.6016C28.9795 73.3216 28.9795 110.802 29.4995 113.922C30.3395 119.202 33.8595 123.962 38.6595 126.322L41.2995 127.602H75.4995H109.699L112.339 126.322C117.139 123.962 120.659 119.202 121.499 113.922C122.019 110.802 122.019 73.3216 121.499 70.6016C120.619 65.9616 118.099 62.0016 114.499 59.6016L112.299 58.1616V53.5616C112.299 42.7216 108.459 33.7616 100.579 26.3616C95.5795 21.6416 89.7395 18.6016 82.9795 17.1616C79.5795 16.4416 71.0195 16.4816 67.6195 17.2416ZM80.8995 29.4816C82.0195 29.6816 84.4195 30.6016 86.2595 31.4816C88.9395 32.7616 90.2595 33.7216 92.6595 36.1616C97.5395 41.0416 99.8995 46.6416 99.8995 53.2816V56.6016H75.4995H51.0995V53.2816C51.0995 46.6416 53.4595 41.0016 58.2995 36.2016C64.5395 29.9616 72.2595 27.6816 80.8995 29.4816ZM78.4595 83.3616C80.8595 84.9616 81.0995 85.8016 81.0995 92.4816C81.0995 98.4416 81.0995 98.5616 80.0595 99.8016C77.3395 103.002 73.6595 103.002 70.9395 99.8016C69.8995 98.5616 69.8995 98.4416 69.8995 92.4816C69.8995 85.8016 70.1395 84.9616 72.5395 83.3616C74.0595 82.3616 76.9395 82.3616 78.4595 83.3616Z" fill="#FFC506"/>
<rect x="2.5" y="2" width="146" height="146" rx="73" stroke="#5785DE" stroke-opacity="0.5" stroke-width="4"/>
</svg>
