<svg width="151" height="150" viewBox="0 0 151 150" fill="none" xmlns="http://www.w3.org/2000/svg">
<path d="M67.6196 17.2416C53.5796 20.2816 42.2196 31.8016 39.3396 45.8816C38.9796 47.6416 38.6996 50.9216 38.6996 53.5616V58.1616L36.4996 59.6016C32.8996 62.0016 30.3796 65.9616 29.4996 70.6016C28.9796 73.3216 28.9796 110.802 29.4996 113.922C30.3396 119.202 33.8596 123.962 38.6596 126.322L41.2996 127.602H75.4996H109.7L112.34 126.322C117.14 123.962 120.66 119.202 121.5 113.922C122.02 110.802 122.02 73.3216 121.5 70.6016C120.62 65.9616 118.1 62.0016 114.5 59.6016L112.3 58.1616V53.5616C112.3 42.7216 108.46 33.7616 100.58 26.3616C95.5796 21.6416 89.7396 18.6016 82.9796 17.1616C79.5796 16.4416 71.0196 16.4816 67.6196 17.2416ZM80.8996 29.4816C82.0196 29.6816 84.4196 30.6016 86.2596 31.4816C88.9396 32.7616 90.2596 33.7216 92.6596 36.1616C97.5396 41.0416 99.8996 46.6416 99.8996 53.2816V56.6016H75.4996H51.0996V53.2816C51.0996 46.6416 53.4596 41.0016 58.2996 36.2016C64.5396 29.9616 72.2596 27.6816 80.8996 29.4816ZM78.4596 83.3616C80.8596 84.9616 81.0996 85.8016 81.0996 92.4816C81.0996 98.4416 81.0996 98.5616 80.0596 99.8016C77.3396 103.002 73.6596 103.002 70.9396 99.8016C69.8996 98.5616 69.8996 98.4416 69.8996 92.4816C69.8996 85.8016 70.1396 84.9616 72.5396 83.3616C74.0596 82.3616 76.9396 82.3616 78.4596 83.3616Z" fill="#FFC506"/>
<rect x="90" y="102" width="32" height="32" rx="16" fill="#1164B4"/>
<path d="M102.623 114.81C102.057 114.57 101.817 113.87 102.156 113.361C102.842 112.342 103.987 111.6 105.5 111.6C107.162 111.6 108.3 112.357 108.88 113.304C109.375 114.117 109.665 115.637 108.901 116.768C108.053 118.02 107.24 118.402 106.801 119.208C106.695 119.398 106.631 119.554 106.589 119.872C106.525 120.388 106.101 120.791 105.578 120.791C104.963 120.791 104.461 120.261 104.532 119.646C104.574 119.285 104.659 118.911 104.857 118.557C105.401 117.574 106.448 116.995 107.056 116.125C107.699 115.213 107.338 113.509 105.514 113.509C104.687 113.509 104.15 113.94 103.818 114.456C103.57 114.859 103.054 114.987 102.623 114.81ZM106.921 123.619C106.921 124.397 106.285 125.033 105.507 125.033C104.73 125.033 104.093 124.397 104.093 123.619C104.093 122.842 104.73 122.205 105.507 122.205C106.285 122.205 106.921 122.842 106.921 123.619Z" fill="white"/>
<rect x="2.5" y="2" width="146" height="146" rx="73" stroke="#1164B4" stroke-opacity="0.25" stroke-width="4"/>
</svg>
