<svg width="22" height="23" viewBox="0 0 22 23" fill="none" xmlns="http://www.w3.org/2000/svg">
<g id="Black">
<path id="Vector" d="M3.84219 1.3659L1.625 2.0034V11.5003V20.9971L3.81875 21.6206C5.02344 21.9675 6.03594 22.2581 6.06875 22.2675C6.11094 22.2862 6.125 20.1159 6.125 11.505C6.125 5.57058 6.11094 0.719023 6.09219 0.723711C6.06875 0.728397 5.05625 1.01434 3.84219 1.3659ZM5.09375 9.67683C5.36094 9.77058 5.375 9.86902 5.375 11.5003C5.375 13.1315 5.36094 13.23 5.09375 13.3237C4.89219 13.394 3.60781 13.394 3.40625 13.3237C3.13906 13.23 3.125 13.1315 3.125 11.5096C3.125 9.91121 3.13906 9.79402 3.37813 9.6909C3.56094 9.61121 4.86875 9.60183 5.09375 9.67683Z" fill="black"/>
<path id="Vector_2" d="M3.875 11.5V12.625H4.25H4.625V11.5V10.375H4.25H3.875V11.5Z" fill="black"/>
<path id="Vector_3" d="M15.875 11.5003C15.875 20.1159 15.8891 22.2862 15.9359 22.2675C15.9641 22.2581 16.9766 21.9675 18.1859 21.6206L20.375 20.9971V11.5003V2.0034L18.1859 1.37996C16.9766 1.03308 15.9641 0.74246 15.9359 0.733086C15.8891 0.714334 15.875 2.88465 15.875 11.5003ZM18.5938 9.67683C18.8609 9.77058 18.875 9.86902 18.875 11.5003C18.875 13.1315 18.8609 13.23 18.5938 13.3237C18.3922 13.394 17.1078 13.394 16.9062 13.3237C16.6391 13.23 16.625 13.1315 16.625 11.5096C16.625 9.91121 16.6391 9.79402 16.8781 9.6909C17.0609 9.61121 18.3688 9.60183 18.5938 9.67683Z" fill="black"/>
<path id="Vector_4" d="M17.375 11.5V12.625H17.75H18.125V11.5V10.375H17.75H17.375V11.5Z" fill="black"/>
<path id="Vector_5" d="M0.125 11.5V20.875H0.5H0.875V11.5V2.125H0.5H0.125V11.5Z" fill="black"/>
<path id="Vector_6" d="M6.875 2.5V2.875H11H15.125V2.5V2.125H11H6.875V2.5Z" fill="black"/>
<path id="Vector_7" d="M21.125 11.5V20.875H21.5H21.875V11.5V2.125H21.5H21.125V11.5Z" fill="black"/>
<path id="Vector_8" d="M6.875 4.375V5.125H8.75H10.625V4.96562C10.625 4.88125 10.6484 4.74062 10.6766 4.65625C10.775 4.37969 10.8172 4.375 13.0859 4.375H15.125V4V3.625H11H6.875V4.375Z" fill="black"/>
<path id="Vector_9" d="M11.375 6.25V7.375H13.25H15.125V7V6.625H14.2156C13.6625 6.625 13.25 6.60625 13.1563 6.57344C12.9313 6.49375 12.875 6.31094 12.875 5.66406V5.125H12.125H11.375V6.25Z" fill="black"/>
<path id="Vector_10" d="M13.625 5.5V5.875H14.375H15.125V5.5V5.125H14.375H13.625V5.5Z" fill="black"/>
<path id="Vector_11" d="M6.875 6.625V7.375H8.75H10.625V6.625V5.875H8.75H6.875V6.625Z" fill="black"/>
<path id="Vector_12" d="M6.875 8.5V8.875H11H15.125V8.5V8.125H11H6.875V8.5Z" fill="black"/>
<path id="Vector_13" d="M6.875 11.5V13.375H8.75H10.625V12.0906C10.625 11.2562 10.6438 10.7594 10.6766 10.6562C10.775 10.3797 10.8172 10.375 13.0859 10.375H15.125V10V9.625H11H6.875V11.5Z" fill="black"/>
<path id="Vector_14" d="M11.375 12.25V13.375H11.75H12.125V12.25V11.125H11.75H11.375V12.25Z" fill="black"/>
<path id="Vector_15" d="M12.875 12.25V13.375H13.25H13.625V12.25V11.125H13.25H12.875V12.25Z" fill="black"/>
<path id="Vector_16" d="M14.375 12.25V13.375H14.75H15.125V12.25V11.125H14.75H14.375V12.25Z" fill="black"/>
<path id="Vector_17" d="M6.875 14.5V14.875H11H15.125V14.5V14.125H11H6.875V14.5Z" fill="black"/>
<path id="Vector_18" d="M6.875 16V16.375H8.91406C11.1828 16.375 11.225 16.3797 11.3234 16.6562C11.3563 16.7594 11.375 17.2562 11.375 18.0906V19.375H13.25H15.125V17.5V15.625H11H6.875V16Z" fill="black"/>
<path id="Vector_19" d="M6.875 18.25V19.375H7.25H7.625V18.25V17.125H7.25H6.875V18.25Z" fill="black"/>
<path id="Vector_20" d="M8.375 18.25V19.375H8.75H9.125V18.25V17.125H8.75H8.375V18.25Z" fill="black"/>
<path id="Vector_21" d="M9.875 18.25V19.375H10.25H10.625V18.25V17.125H10.25H9.875V18.25Z" fill="black"/>
<path id="Vector_22" d="M6.875 20.5V20.875H11H15.125V20.5V20.125H11H6.875V20.5Z" fill="black"/>
<path id="Vector_23" d="M0.875 22V22.375H1.4375H2V22.1031V21.8266L1.65313 21.7281C1.46094 21.6719 1.20781 21.625 1.09063 21.625H0.875V22Z" fill="black"/>
<path id="Vector_24" d="M20.3188 21.7281L20 21.8266V22.0984V22.375H20.5625H21.125V22V21.625L20.8813 21.6297C20.7453 21.6344 20.4922 21.6766 20.3188 21.7281Z" fill="black"/>
</g>
</svg>
