<svg width="24" height="19" viewBox="0 0 24 19" fill="none" xmlns="http://www.w3.org/2000/svg">
<g id="Black">
<path id="Vector" d="M1.65001 0.645313C0.942195 0.781251 0.33282 1.325 0.0890697 2.03281C0.00469471 2.28594 7.20877e-06 2.45 7.20877e-06 6.02656C7.20877e-06 9.99219 -0.00468029 9.92656 0.225007 10.3719C0.360945 10.6344 0.665632 10.9672 0.937507 11.1406C1.32188 11.3844 1.66407 11.4688 2.30157 11.4688C2.60626 11.4688 2.85938 11.4594 2.85938 11.45C2.85938 11.4406 3.09376 10.4047 3.37501 9.14375C3.75469 7.45156 3.91876 6.81875 3.99844 6.70156C4.21407 6.3875 3.66563 6.40625 12 6.40625C20.3344 6.40625 19.7859 6.3875 20.0016 6.70156C20.0813 6.81875 20.2453 7.45156 20.625 9.14375C20.9063 10.4047 21.1406 11.4406 21.1406 11.45C21.1406 11.4594 21.3938 11.4688 21.6984 11.4688C22.3359 11.4688 22.6781 11.3844 23.0625 11.1406C23.3344 10.9672 23.6391 10.6344 23.775 10.3719C24.0047 9.92656 24 9.99219 24 6.02656C24 2.45 23.9953 2.28594 23.9109 2.03281C23.6578 1.30625 23.0578 0.781251 22.3125 0.640626C22.0031 0.584375 1.94532 0.584375 1.65001 0.645313ZM16.0359 4.21719C16.3406 4.41875 16.4391 4.79844 16.2656 5.08438C16.0781 5.38906 15.9516 5.42656 15.1781 5.4125C14.5172 5.39844 14.4844 5.39375 14.3672 5.28125C14.0016 4.93906 14.0391 4.45156 14.4469 4.20313C14.5828 4.12344 14.6859 4.10938 15.2391 4.10938C15.825 4.10938 15.8906 4.11875 16.0359 4.21719ZM19.2703 4.21719C19.6922 4.49844 19.6828 5.06563 19.2516 5.33281C19.1156 5.41719 19.0313 5.42188 18.4125 5.4125L17.7188 5.39844L17.55 5.225C17.2359 4.91094 17.2969 4.4375 17.6813 4.20313C17.8172 4.12344 17.9203 4.10938 18.4734 4.10938C19.0594 4.10938 19.125 4.11875 19.2703 4.21719Z" fill="black"/>
<path id="Vector_2" d="M5.04072 7.82188C5.03134 7.85469 4.84853 8.65156 4.64228 9.59375C4.43134 10.5359 4.24853 11.3422 4.23916 11.3844C4.21572 11.4641 4.60947 11.4688 11.997 11.4688H19.7829L19.7548 11.3375C19.7407 11.2672 19.5532 10.4422 19.3423 9.5L18.9579 7.78906L12.0063 7.775C6.47509 7.76563 5.05947 7.775 5.04072 7.82188Z" fill="black"/>
<path id="Vector_3" d="M8.21118 12.4391C8.00024 12.5422 7.87837 12.7344 7.8268 13.025C7.80805 13.161 7.7143 13.4235 7.62055 13.6016C7.27837 14.2766 7.28305 14.9563 7.64399 15.6782C7.86899 16.1329 7.86899 16.1891 7.61587 16.6954C7.34399 17.2344 7.28774 17.7454 7.46587 18.05C7.81274 18.6547 8.6893 18.4485 8.78774 17.7407C8.80649 17.6047 8.89087 17.3563 8.97524 17.1875C9.18149 16.7844 9.23305 16.5782 9.23305 16.1516C9.23305 15.7438 9.14399 15.3922 8.94712 15.05C8.75493 14.7125 8.76899 14.5297 9.00805 14.0563C9.18618 13.7094 9.20493 13.6297 9.22368 13.2594C9.23774 12.8891 9.23305 12.8375 9.12993 12.6875C8.92837 12.3829 8.53462 12.2797 8.21118 12.4391Z" fill="black"/>
<path id="Vector_4" d="M11.9063 12.4398C11.6906 12.5523 11.55 12.7726 11.5125 13.0539C11.4984 13.1804 11.4188 13.4054 11.3391 13.5507C11.1469 13.9023 11.0625 14.2304 11.0625 14.6336C11.0625 15.0086 11.1328 15.2711 11.3438 15.6882C11.4281 15.8523 11.4938 16.0539 11.4984 16.1382C11.5031 16.2273 11.4188 16.4664 11.2969 16.7242C11.1234 17.0898 11.0906 17.207 11.0766 17.5117C11.0625 17.7929 11.0766 17.9007 11.1422 18.0273C11.2594 18.2523 11.4422 18.3695 11.7047 18.3929C12.1172 18.4304 12.4266 18.1679 12.4828 17.732C12.5016 17.6148 12.5813 17.3851 12.6609 17.2257C12.8578 16.832 12.9375 16.532 12.9375 16.1336C12.9375 15.7539 12.8672 15.4961 12.6563 15.0742C12.4594 14.6898 12.4641 14.5257 12.6703 14.1179C12.7594 13.9351 12.8578 13.7054 12.8859 13.6023C12.9563 13.3445 12.9516 12.9507 12.8719 12.7632C12.7313 12.4304 12.2438 12.2664 11.9063 12.4398Z" fill="black"/>
<path id="Vector_5" d="M15.6321 12.4251C15.3977 12.5283 15.2852 12.697 15.2149 13.0345C15.1774 13.2033 15.1024 13.4236 15.0508 13.5126C14.6571 14.1736 14.6664 15.0642 15.0649 15.7486C15.2336 16.0345 15.2289 16.2876 15.0461 16.6017C14.7461 17.1267 14.6664 17.7783 14.8727 18.0829C15.2524 18.6501 16.1711 18.3923 16.1711 17.7173C16.1711 17.647 16.2555 17.4173 16.3586 17.2064C16.7242 16.4564 16.7242 15.8329 16.3539 15.0876C16.1289 14.6423 16.1289 14.5673 16.3774 14.0939C16.6399 13.5923 16.7102 13.0345 16.5414 12.7345C16.3586 12.4158 15.9602 12.2798 15.6321 12.4251Z" fill="black"/>
</g>
</svg>
