<svg width="24" height="19" viewBox="0 0 24 19" fill="none" xmlns="http://www.w3.org/2000/svg">
<g id="Black">
<path id="Vector" d="M3.96172 1.03921C3.00547 1.24546 2.24141 2.0189 2.03516 2.97984C1.94141 3.42984 1.94141 6.4814 2.03516 6.71109C2.15703 7.00171 2.23203 7.01577 3.71328 7.01109C4.81484 7.01109 5.01172 6.99702 4.88047 6.95015C4.66953 6.87515 4.54766 6.71577 4.54766 6.51421C4.54766 6.2939 4.85703 5.07515 4.97422 4.85015C5.11953 4.56421 5.37734 4.31109 5.66328 4.17046L5.93047 4.03921H7.87578H9.82109L10.0883 4.16577C10.3977 4.31109 10.6883 4.59234 10.8383 4.89702C10.9367 5.0939 10.9461 5.19702 10.9602 5.86734C10.9742 6.58452 10.9695 6.62671 10.8711 6.75327C10.8148 6.82827 10.7023 6.91265 10.6227 6.95015C10.4961 7.00171 10.6836 7.01109 12.0008 7.01109C13.318 7.01109 13.5055 7.00171 13.3789 6.95015C13.2992 6.91265 13.1867 6.82827 13.1305 6.75327C13.032 6.62671 13.0273 6.58452 13.0414 5.86734C13.0555 5.19702 13.0648 5.0939 13.1633 4.89702C13.3133 4.59234 13.6039 4.31109 13.9133 4.16577L14.1805 4.03921H16.1258H18.0711L18.3383 4.17046C18.6242 4.31109 18.882 4.56421 19.0273 4.85015C19.1445 5.07515 19.4539 6.2939 19.4539 6.51421C19.4539 6.71577 19.332 6.87515 19.1211 6.95015C18.9898 6.99702 19.1867 7.01109 20.2883 7.01109C21.7695 7.01577 21.8445 7.00171 21.9664 6.71109C22.0602 6.4814 22.0602 3.42984 21.9664 2.97984C21.7602 2.00484 20.9961 1.24077 20.0211 1.03452C19.5758 0.940773 4.39297 0.945461 3.96172 1.03921Z" fill="black"/>
<path id="Vector_2" d="M1.69688 8.11727C1.275 8.26258 1.03594 8.41258 0.721875 8.72195C0.407813 9.03602 0.2625 9.27977 0.117188 9.70633L0 10.0579V13.8735V17.6938L0.117188 17.8345C0.267188 18.0126 0.50625 18.0641 0.721875 17.961C0.989063 17.8345 1.03125 17.6798 1.03125 16.7938V16.0157H12H22.9688V16.7938C22.9688 17.6798 23.0109 17.8345 23.2781 17.961C23.4938 18.0641 23.7328 18.0126 23.8828 17.8345L24 17.6938V13.8735V10.0579L23.8828 9.70633C23.7375 9.27977 23.5922 9.03602 23.2781 8.72195C22.9641 8.40789 22.7203 8.26258 22.2938 8.11727L21.9422 8.00008H11.9906L2.03906 8.00477L1.69688 8.11727ZM22.9688 14.4923V14.9845H12H1.03125V14.4923V14.0001H12H22.9688V14.4923Z" fill="black"/>
</g>
</svg>
