<svg width="30" height="31" viewBox="0 0 30 31" fill="none" xmlns="http://www.w3.org/2000/svg">
<g id="Black">
<path id="Vector" d="M1.86238 1.0875C1.66863 1.13125 1.46863 1.2 1.41863 1.24375C1.23113 1.39375 1.04988 2.06875 1.01863 2.71875C0.993632 3.26875 1.00613 3.36875 1.11863 3.55C1.19363 3.6625 1.33738 3.80625 1.44988 3.875C1.65613 4 1.79363 4 14.9999 4C28.2061 4 28.3436 4 28.5499 3.875C28.6624 3.80625 28.8061 3.6625 28.8811 3.55C28.9936 3.36875 29.0061 3.26875 28.9811 2.75C28.9436 2.04375 28.7499 1.35625 28.5436 1.225C28.4686 1.175 28.2374 1.10625 28.0374 1.06875C27.4749 0.9625 2.34363 0.98125 1.86238 1.0875Z" fill="black"/>
<path id="Vector_2" d="M0.45 6.125C0.03125 6.38125 0 6.5 0 8C0 9.5 0.03125 9.61875 0.45 9.875C0.65625 10 0.8 10 15 10C29.2 10 29.3438 10 29.55 9.875C29.9688 9.61875 30 9.5 30 8C30 6.5 29.9688 6.38125 29.55 6.125C29.3438 6 29.2 6 15 6C0.8 6 0.65625 6 0.45 6.125Z" fill="black"/>
<path id="Vector_3" d="M1.45625 12.125C1.34375 12.1875 1.20625 12.3188 1.14375 12.4187C1.0375 12.5812 1.03125 13.0063 1 20.4375L0.96875 28.2812L0.81875 28.5812C0.7375 28.75 0.51875 29.0125 0.3375 29.175L0 29.4688V30.0062C0 30.3938 0.025 30.5687 0.0875 30.6188C0.1375 30.6562 0.45 30.7625 0.78125 30.8438L1.39375 31H15H28.6063L29.2188 30.8438C29.55 30.7625 29.8625 30.6562 29.9125 30.6188C29.975 30.5687 30 30.3938 30 30.0062V29.4688L29.6875 29.2C29.5125 29.05 29.2938 28.7812 29.2 28.6063L29.0312 28.2812L29 20.4375C28.9688 13.0063 28.9625 12.5812 28.8563 12.4187C28.7938 12.3188 28.6562 12.1875 28.5438 12.125C28.35 12 28.1187 12 15 12C1.88125 12 1.65 12 1.45625 12.125ZM22.15 15.0625C22.4563 15.1312 22.6812 15.2937 22.8438 15.5687C22.9688 15.775 22.9688 15.8938 22.9688 22C22.9688 28.1063 22.9688 28.225 22.8438 28.4312C22.6812 28.7062 22.4563 28.8687 22.15 28.9375C21.825 29.0125 8.175 29.0125 7.85 28.9375C7.54375 28.8687 7.31875 28.7062 7.15625 28.4312C7.03125 28.225 7.03125 28.1063 7.03125 22C7.03125 15.8938 7.03125 15.775 7.15625 15.5687C7.3125 15.3062 7.54375 15.125 7.81875 15.0625C8.11875 14.9937 21.85 14.9875 22.15 15.0625Z" fill="black"/>
<path id="Vector_4" d="M14.0012 18.5312C13.7887 18.6438 12.8137 19.8625 12.27 20.6875C11.4325 21.9688 11.0575 22.9 11.0137 23.8187C10.9825 24.5062 11.07 24.8937 11.4075 25.5688C11.7575 26.2562 12.645 27.25 12.9075 27.25C12.9637 27.25 13.0075 27.1375 13.0325 26.95C13.1387 26.2062 13.3887 25.7437 13.9012 25.3937C14.2575 25.15 14.545 25.0625 15.0012 25.0625C15.4575 25.0625 15.745 25.15 16.1012 25.3937C16.6137 25.7437 16.8637 26.2062 16.97 26.9562C16.995 27.1375 17.0387 27.25 17.095 27.25C17.3575 27.25 18.245 26.2562 18.595 25.5688C18.97 24.8187 19.02 24.5375 18.9825 23.4437C18.92 21.5938 18.5887 20.9062 17.7637 20.9062C17.4387 20.9062 17.37 20.9313 17.0012 21.2C16.5012 21.5563 16.3262 21.6062 16.07 21.475C15.8012 21.3312 15.7575 21.25 15.2575 19.9062C14.7887 18.65 14.6512 18.4375 14.3262 18.4375C14.2325 18.4437 14.0887 18.4812 14.0012 18.5312Z" fill="black"/>
</g>
</svg>
