<svg width="24" height="24" viewBox="0 0 24 24" fill="none" xmlns="http://www.w3.org/2000/svg">
<g id="Black">
<path id="Vector" d="M9.9375 0.0937502C9.85781 0.16875 9.825 0.328125 9.79688 0.39375C9.76875 0.46875 9.75 1.01719 9.75 1.71563V2.90625H11.4422H13.1297L13.1156 1.65C13.0969 -0.107812 13.2094 2.38419e-07 11.4094 2.38419e-07H10.1344L9.9375 0.0937502Z" fill="black"/>
<path id="Vector_2" d="M9.17031 3.75469C8.78125 4.05 8.43437 4.4625 8.22344 4.89844C7.90937 5.53125 7.90469 5.5875 7.88125 7.67344L7.86719 9.5625H11.4344H15.0062L14.9875 7.69687C14.9641 5.64844 14.9594 5.59219 14.65 4.94531C14.3922 4.39687 14.0359 3.98438 13.5109 3.61875C13.3656 3.51562 13.3516 3.51562 11.425 3.51562H9.48906L9.17031 3.75469Z" fill="black"/>
<path id="Vector_3" d="M18.4125 9.02344C18.1266 9.11719 17.8828 9.39375 17.8172 9.7125C17.7891 9.83906 17.7656 10.3734 17.7656 10.8984V11.8594H19.4531H21.1406V10.8609C21.1406 9.71719 21.0984 9.4875 20.85 9.24844C20.5688 8.98594 20.5312 8.97656 19.5469 8.96719C18.8438 8.95781 18.5813 8.97188 18.4125 9.02344Z" fill="black"/>
<path id="Vector_4" d="M7.875 13.1906V16.2047L8.26406 16.2375C9.05156 16.3031 10.0828 16.5047 10.6641 16.7016C11.475 16.9828 11.9813 17.3484 12.0891 17.7469C12.1219 17.8594 12.1406 18.4406 12.1406 19.2047V20.4844H13.5703H15V15.3281V10.1719H11.4375H7.875V13.1906Z" fill="black"/>
<path id="Vector_5" d="M17.2172 12.7219C16.5281 13.2281 16.0641 14.0109 15.9375 14.8828C15.9094 15.075 15.8906 16.65 15.8906 18.7359V22.2656H19.4531H23.0156V18.6891C23.0109 14.8922 23.0063 14.7281 22.7813 14.1469C22.5797 13.6031 22.1203 13.0219 21.6141 12.6609L21.4078 12.5156H19.4531H17.4938L17.2172 12.7219ZM19.8141 16.4297C20.7656 16.7109 21.0797 17.9109 20.3813 18.5953C19.8234 19.1437 18.9891 19.1203 18.4828 18.5437C17.8453 17.8219 18.1594 16.7156 19.0875 16.4297C19.3547 16.3453 19.5281 16.3453 19.8141 16.4297Z" fill="black"/>
<path id="Vector_6" d="M5.67188 16.7674C4.12031 16.8049 2.50781 17.0674 1.63594 17.4377C1.26562 17.5924 0.984375 17.8034 0.984375 17.9252C0.984375 18.0424 1.32188 18.2768 1.71094 18.4268C4.15781 19.3737 9.46875 19.2612 11.2031 18.2252C11.6063 17.9815 11.5734 17.7893 11.0859 17.5409C10.05 17.0159 7.95 16.7159 5.67188 16.7674Z" fill="black"/>
<path id="Vector_7" d="M0.984375 20.8608V22.928L1.10625 23.0405C1.52813 23.4343 2.90156 23.7952 4.56563 23.9546C5.31563 24.0249 7.26563 24.0108 8.08594 23.9312C9.61875 23.7812 10.8281 23.4671 11.3297 23.0827L11.4844 22.9655V20.8796C11.4844 19.7358 11.475 18.7983 11.4656 18.7983C11.4563 18.7983 11.2922 18.8733 11.0953 18.9624C10.5 19.2343 9.54844 19.4593 8.32031 19.6046C7.50938 19.6983 4.8375 19.6843 3.98906 19.5812C2.84531 19.4358 1.78594 19.178 1.25625 18.9108C1.13438 18.8499 1.02188 18.7983 1.00781 18.7983C0.99375 18.7983 0.984375 19.7265 0.984375 20.8608Z" fill="black"/>
</g>
</svg>
