<svg width="14" height="25" viewBox="0 0 14 25" fill="none" xmlns="http://www.w3.org/2000/svg">
<g id="Black">
<path id="Vector" d="M1.78281 0.785938C1.39375 0.879688 1.02344 1.17031 0.83125 1.53125C0.746875 1.68594 0.742188 1.89219 0.728125 5.3375L0.71875 8.98438H2.10156H3.48438V8.53438C3.48438 7.82656 3.03438 7.90625 7 7.90625C10.9656 7.90625 10.5156 7.82656 10.5156 8.53438V8.98438H11.8984H13.2813L13.2719 5.3375C13.2578 1.70469 13.2578 1.69531 13.1547 1.50781C13.0141 1.25 12.7422 0.992188 12.4609 0.865625L12.2266 0.757813L7.09375 0.748438C4.19219 0.743751 1.88594 0.762501 1.78281 0.785938ZM2.50938 2.78281C2.58906 2.85313 2.59375 2.98906 2.59375 5.14531V7.4375L2.47656 7.5125C2.36875 7.58281 2.35 7.58281 2.24219 7.5125L2.125 7.4375V5.15469C2.125 3.09688 2.13438 2.86719 2.20469 2.7875C2.29844 2.68438 2.39688 2.67969 2.50938 2.78281Z" fill="black"/>
<path id="Vector_2" d="M4 8.67969V8.98438H7H10V8.67969V8.375H7H4V8.67969Z" fill="black"/>
<path id="Vector_3" d="M0.719333 15.7715C0.719333 22.8965 0.686521 22.3152 1.11308 22.7465C1.53965 23.1684 1.09902 23.1402 7.00058 23.1402C12.9021 23.1402 12.4615 23.1684 12.8881 22.7465C13.3146 22.3152 13.2818 22.8965 13.2818 15.7715V9.49961H7.00058H0.719333V15.7715ZM2.50527 10.6715C2.58965 10.7184 2.59433 10.8027 2.59433 13.7184V16.7184L2.47715 16.7934C2.36933 16.8637 2.35058 16.8637 2.24277 16.7934L2.12558 16.7184V13.7418C2.12558 11.1027 2.13496 10.7652 2.20058 10.6996C2.28496 10.6105 2.37871 10.6059 2.50527 10.6715Z" fill="black"/>
<path id="Vector_4" d="M1.79692 23.8573C1.79692 24.2464 1.76879 24.2417 3.15161 24.2558C4.32817 24.2698 4.37504 24.2652 4.46879 24.1714C4.53442 24.1058 4.56254 24.0167 4.56254 23.8667V23.6558H3.17973H1.79692V23.8573Z" fill="black"/>
<path id="Vector_5" d="M9.4375 23.8667C9.4375 24.0167 9.46562 24.1058 9.53125 24.1714C9.625 24.2652 9.67187 24.2698 10.8484 24.2558C12.2312 24.2417 12.2031 24.2464 12.2031 23.8573V23.6558H10.8203H9.4375V23.8667Z" fill="black"/>
</g>
</svg>
