<svg width="14" height="24" viewBox="0 0 14 24" fill="none" xmlns="http://www.w3.org/2000/svg">
<g id="Black">
<path id="Vector" d="M1.78281 0.285938C1.39375 0.379688 1.02344 0.670313 0.83125 1.03125C0.746875 1.18594 0.742188 1.39219 0.728125 4.8375L0.71875 8.48438H2.10156H3.48438V8.03438C3.48438 7.32656 3.03438 7.40625 7 7.40625C10.9656 7.40625 10.5156 7.32656 10.5156 8.03438V8.48438H11.8984H13.2813L13.2719 4.8375C13.2578 1.20469 13.2578 1.19531 13.1547 1.00781C13.0141 0.75 12.7422 0.492188 12.4609 0.365625L12.2266 0.257813L7.09375 0.248438C4.19219 0.243751 1.88594 0.262501 1.78281 0.285938ZM2.50938 2.28281C2.58906 2.35313 2.59375 2.48906 2.59375 4.64531V6.9375L2.47656 7.0125C2.36875 7.08281 2.35 7.08281 2.24219 7.0125L2.125 6.9375V4.65469C2.125 2.59688 2.13438 2.36719 2.20469 2.2875C2.29844 2.18438 2.39688 2.17969 2.50938 2.28281Z" fill="black"/>
<path id="Vector_2" d="M4 8.17969V8.48438H7H10V8.17969V7.875H7H4V8.17969Z" fill="black"/>
<path id="Vector_3" d="M0.719333 15.2715C0.719333 22.3965 0.686521 21.8152 1.11308 22.2465C1.53965 22.6684 1.09902 22.6402 7.00058 22.6402C12.9021 22.6402 12.4615 22.6684 12.8881 22.2465C13.3146 21.8152 13.2818 22.3965 13.2818 15.2715V8.99961H7.00058H0.719333V15.2715ZM2.50527 10.1715C2.58965 10.2184 2.59433 10.3027 2.59433 13.2184V16.2184L2.47715 16.2934C2.36933 16.3637 2.35058 16.3637 2.24277 16.2934L2.12558 16.2184V13.2418C2.12558 10.6027 2.13496 10.2652 2.20058 10.1996C2.28496 10.1105 2.37871 10.1059 2.50527 10.1715Z" fill="black"/>
<path id="Vector_4" d="M1.79692 23.3573C1.79692 23.7464 1.76879 23.7417 3.15161 23.7558C4.32817 23.7698 4.37504 23.7652 4.46879 23.6714C4.53442 23.6058 4.56254 23.5167 4.56254 23.3667V23.1558H3.17973H1.79692V23.3573Z" fill="black"/>
<path id="Vector_5" d="M9.4375 23.3667C9.4375 23.5167 9.46562 23.6058 9.53125 23.6714C9.625 23.7652 9.67187 23.7698 10.8484 23.7558C12.2312 23.7417 12.2031 23.7464 12.2031 23.3573V23.1558H10.8203H9.4375V23.3667Z" fill="black"/>
</g>
</svg>
