<svg width="24" height="23" viewBox="0 0 24 23" fill="none" xmlns="http://www.w3.org/2000/svg">
<g id="Black">
<path id="Vector" d="M5.05893 0.0518627C3.60112 0.314363 2.37768 0.989363 1.48706 2.02061C0.793309 2.82218 0.394872 3.58624 0.137059 4.62686C-0.00825334 5.19405 -0.0457533 6.36592 0.0620592 6.98467C0.263622 8.16592 0.812059 9.26749 1.61831 10.1112L1.96518 10.4722V14.6159C1.96987 17.869 1.98393 18.8347 2.03081 19.1112C2.24643 20.3159 3.09018 21.3472 4.21987 21.7831C6.09487 22.505 8.19487 21.5159 8.84643 19.6034L8.973 19.2284L8.98706 15.4503L9.00112 11.6675L14.3074 10.3456C17.2277 9.61436 19.6699 8.99092 19.7402 8.95811C20.0214 8.8128 20.0121 8.93467 20.0121 6.0003V3.31436L19.8808 3.16905C19.7589 3.02843 19.5996 2.98624 14.1433 1.62686C10.4683 0.708113 8.31206 0.192488 7.8855 0.126863C7.05112 0.000301361 5.56518 -0.037199 5.05893 0.0518627ZM6.80268 2.11436C8.26987 2.42843 9.45112 3.5628 9.84487 5.02999C9.98081 5.54092 9.99018 6.38468 9.86831 6.87686C9.67143 7.65499 9.32925 8.26905 8.79956 8.78467C8.27456 9.3003 7.78706 9.6003 7.098 9.81592C6.71831 9.93311 6.6105 9.94717 5.99643 9.94717C5.38237 9.94717 5.27456 9.93311 4.89487 9.81592C3.48393 9.3753 2.49018 8.32061 2.12456 6.87686C2.00268 6.38468 2.01206 5.54092 2.148 5.02999C2.53706 3.57217 3.71831 2.43311 5.17143 2.11905C5.55112 2.03468 6.41362 2.03468 6.80268 2.11436ZM6.73706 14.0956C6.98081 14.2597 6.9855 14.2972 6.97143 16.5847L6.95737 18.6987L6.80268 18.8347L6.65268 18.9706H5.49956H4.34643L4.18706 18.8112L4.02768 18.6519V16.5378C4.02768 14.0909 4.01362 14.1847 4.44956 14.03C4.48706 14.0159 4.99331 14.0112 5.57456 14.0159C6.41831 14.0253 6.65268 14.0394 6.73706 14.0956Z" fill="black"/>
<path id="Vector_2" d="M5.30569 3.05624C4.251 3.2953 3.34163 4.19062 3.06975 5.25937C2.96663 5.6578 2.98069 6.36093 3.09319 6.80624C3.29475 7.59843 3.90413 8.34374 4.64475 8.6953C5.30569 9.01405 5.91975 9.09843 6.59944 8.9578C7.18069 8.84062 7.68225 8.57343 8.10881 8.15155C8.77444 7.48593 9.02756 6.8203 8.98538 5.84999C8.97131 5.45624 8.93381 5.22655 8.85881 5.01561C8.55413 4.14843 7.8135 3.41718 6.93694 3.12187C6.54319 2.99061 5.73225 2.9578 5.30569 3.05624Z" fill="black"/>
<path id="Vector_3" d="M4.96875 15.5V16.0156H5.48438H6V15.5V14.9844H5.48438H4.96875V15.5Z" fill="black"/>
<path id="Vector_4" d="M22.2663 3.2632C21.3522 3.49758 21.2022 3.54914 21.1038 3.66164C20.8647 3.9382 21.0335 4.44445 21.385 4.51008C21.5444 4.54289 23.5178 4.07414 23.7569 3.94758C24.0757 3.78352 24.0757 3.24914 23.7616 3.06633C23.5647 2.94914 23.4147 2.96789 22.2663 3.2632Z" fill="black"/>
<path id="Vector_5" d="M21.3422 5.50156C21.1594 5.53906 21 5.77812 21 6.01719C21 6.18594 21.0281 6.25156 21.1359 6.36406L21.2719 6.5H22.5H23.7281L23.8641 6.36406C24.0563 6.16719 24.0563 5.8625 23.8641 5.64687L23.7281 5.49219L22.5844 5.4875C21.9609 5.48281 21.3984 5.4875 21.3422 5.50156Z" fill="black"/>
<path id="Vector_6" d="M21.2191 7.56202C20.9097 7.73077 20.9332 8.31671 21.2566 8.46202C21.5379 8.58858 23.4597 9.03858 23.6097 9.01046C23.9754 8.94483 24.1347 8.41514 23.8722 8.14796C23.7597 8.04014 23.5816 7.97921 22.6769 7.75421C22.091 7.60889 21.5519 7.48702 21.4816 7.48702C21.4066 7.49171 21.2894 7.52452 21.2191 7.56202Z" fill="black"/>
</g>
</svg>
