<svg width="24" height="23" viewBox="0 0 24 23" fill="none" xmlns="http://www.w3.org/2000/svg">
<g id="Black">
<path id="Vector" d="M5.06284 0.54991C3.60503 0.81241 2.38159 1.48741 1.49097 2.51866C0.797215 3.32022 0.398778 4.08428 0.140965 5.12491C-0.00434709 5.6921 -0.0418471 6.86397 0.0659654 7.48272C0.267528 8.66397 0.815965 9.76553 1.62222 10.6093L1.96909 10.9702V15.114C1.97378 18.3671 1.98784 19.3327 2.03472 19.6093C2.25034 20.814 3.09409 21.8452 4.22378 22.2812C6.09878 23.003 8.19878 22.014 8.85034 20.1015L8.9769 19.7265L8.99096 15.9483L9.00503 12.1655L14.3113 10.8437C17.2316 10.1124 19.6738 9.48897 19.7441 9.45616C20.0253 9.31085 20.016 9.43272 20.016 6.49835V3.81241L19.8847 3.6671C19.7628 3.52647 19.6035 3.48429 14.1472 2.12491C10.4722 1.20616 8.31596 0.690535 7.8894 0.62491C7.05503 0.498348 5.56909 0.460848 5.06284 0.54991ZM6.80659 2.61241C8.27378 2.92647 9.45503 4.06085 9.84878 5.52803C9.98471 6.03897 9.99409 6.88272 9.87221 7.37491C9.67534 8.15303 9.33315 8.7671 8.80346 9.28272C8.27846 9.79835 7.79096 10.0983 7.1019 10.314C6.72221 10.4312 6.6144 10.4452 6.00034 10.4452C5.38628 10.4452 5.27846 10.4312 4.89878 10.314C3.48784 9.87335 2.49409 8.81866 2.12847 7.37491C2.00659 6.88272 2.01597 6.03897 2.1519 5.52803C2.54097 4.07022 3.72221 2.93116 5.17534 2.6171C5.55503 2.53272 6.41753 2.53272 6.80659 2.61241ZM6.74096 14.5937C6.98471 14.7577 6.9894 14.7952 6.97534 17.0827L6.96128 19.1968L6.80659 19.3327L6.65659 19.4687H5.50347H4.35034L4.19097 19.3093L4.03159 19.1499V17.0358C4.03159 14.589 4.01753 14.6827 4.45347 14.528C4.49097 14.514 4.99721 14.5093 5.57846 14.514C6.42221 14.5233 6.65659 14.5374 6.74096 14.5937Z" fill="black"/>
<path id="Vector_2" d="M5.30569 3.55429C4.251 3.79335 3.34163 4.68866 3.06975 5.75741C2.96663 6.15585 2.98069 6.85897 3.09319 7.30429C3.29475 8.09647 3.90413 8.84179 4.64475 9.19335C5.30569 9.5121 5.91975 9.59647 6.59944 9.45585C7.18069 9.33866 7.68225 9.07147 8.10881 8.6496C8.77444 7.98397 9.02756 7.31835 8.98538 6.34804C8.97131 5.95429 8.93381 5.7246 8.85881 5.51366C8.55413 4.64647 7.8135 3.91522 6.93694 3.61991C6.54319 3.48866 5.73225 3.45585 5.30569 3.55429Z" fill="black"/>
<path id="Vector_3" d="M4.96875 16V16.5156H5.48438H6V16V15.4844H5.48438H4.96875V16Z" fill="black"/>
<path id="Vector_4" d="M22.2702 3.76125C21.3561 3.99562 21.2061 4.04719 21.1077 4.15969C20.8686 4.43625 21.0374 4.9425 21.3889 5.00812C21.5483 5.04094 23.5218 4.57219 23.7608 4.44562C24.0796 4.28156 24.0796 3.74719 23.7655 3.56437C23.5686 3.44719 23.4186 3.46594 22.2702 3.76125Z" fill="black"/>
<path id="Vector_5" d="M21.3422 6.00156C21.1594 6.03906 21 6.27812 21 6.51719C21 6.68594 21.0281 6.75156 21.1359 6.86406L21.2719 7H22.5H23.7281L23.8641 6.86406C24.0563 6.66719 24.0563 6.3625 23.8641 6.14687L23.7281 5.99219L22.5844 5.9875C21.9609 5.98281 21.3984 5.9875 21.3422 6.00156Z" fill="black"/>
<path id="Vector_6" d="M21.2191 8.06007C20.9097 8.22882 20.9332 8.81475 21.2566 8.96007C21.5379 9.08663 23.4597 9.53663 23.6097 9.5085C23.9754 9.44288 24.1347 8.91319 23.8722 8.646C23.7597 8.53819 23.5816 8.47725 22.6769 8.25225C22.091 8.10694 21.5519 7.98507 21.4816 7.98507C21.4066 7.98975 21.2894 8.02257 21.2191 8.06007Z" fill="black"/>
</g>
</svg>
