<svg width="24" height="15" viewBox="0 0 24 15" fill="none" xmlns="http://www.w3.org/2000/svg">
<g id="Black">
<path id="Vector" d="M21.4313 0.773437C21.2156 0.890625 20.8547 1.10156 20.6344 1.24687C20.1984 1.52812 19.3594 2.18906 19.3594 2.25C19.3594 2.26875 19.575 2.33906 19.8422 2.40937C20.1047 2.47969 20.4563 2.57812 20.6203 2.62969L20.9203 2.71875L21.2438 2.49844C21.4219 2.37187 21.7828 2.15625 22.0453 2.01562L22.5234 1.75781L22.5375 1.48594C22.5469 1.27969 22.5281 1.15781 22.4484 1.00312C22.3453 0.782812 22.0734 0.5625 21.9141 0.5625C21.8625 0.5625 21.6469 0.65625 21.4313 0.773437Z" fill="black"/>
<path id="Vector_2" d="M14.1797 2.48906C11.0578 2.78437 8.37656 3.98438 6.00937 6.15C4.87969 7.18125 3.70781 8.64375 2.78437 10.1625C2.45156 10.7062 1.6875 12.1031 1.6875 12.1594C1.6875 12.1734 5.99062 12.1875 11.2547 12.1875H20.8219L21.225 12.0422C21.45 11.9625 21.9281 11.8266 22.2891 11.7422C22.8703 11.6016 22.9594 11.5641 23.0812 11.4328C23.2078 11.2875 23.2125 11.2734 23.1797 10.9266C23.1328 10.3547 22.9734 9.34687 22.8469 8.8125C22.6359 7.90312 22.3641 7.2 21.7734 6.02344C21.2953 5.07187 20.3156 3.20625 20.2687 3.14531C20.2406 3.1125 18.9703 2.8125 18.4406 2.71875C18.1406 2.6625 17.6625 2.5875 17.3766 2.55C16.725 2.46562 14.8078 2.42812 14.1797 2.48906ZM16.5797 4.73906C17.1328 4.80469 17.6625 4.95 17.8406 5.08594C18.2297 5.38125 18.2906 5.95781 17.9953 6.55312C17.8031 6.95156 17.2219 7.54219 16.725 7.84687C15.8156 8.40937 14.7 8.71406 13.1953 8.81719C12.1922 8.88281 8.10469 8.85 7.87031 8.775C7.62187 8.69062 7.45312 8.51719 7.45312 8.34375C7.45312 7.69219 8.93437 6.50625 10.7109 5.7375C12.7312 4.86094 14.7422 4.51875 16.5797 4.73906Z" fill="black"/>
<path id="Vector_3" d="M11.6016 7.37813C11.3391 7.49531 11.0625 7.89375 11.0625 8.15625C11.0625 8.24531 11.0906 8.25 11.7797 8.25C12.7125 8.24531 13.7953 8.17969 14.3203 8.08594C14.55 8.04375 14.7469 8.00625 14.7516 7.99688C14.7844 7.96406 14.6625 7.70625 14.5641 7.59844C14.325 7.33594 14.1891 7.3125 12.9141 7.31719C12.0375 7.31719 11.7047 7.33125 11.6016 7.37813Z" fill="black"/>
<path id="Vector_4" d="M1.07924 13.4859C0.835494 14.0484 0.793307 14.1937 0.826119 14.2922L0.868307 14.4141L9.7605 14.4281L18.648 14.4375L18.8261 14.1234C19.0558 13.6969 19.3558 13.2844 19.5902 13.0547C19.6933 12.9516 19.7824 12.8531 19.7824 12.8297C19.7824 12.8109 15.6386 12.7969 10.5761 12.7969H1.37456L1.07924 13.4859Z" fill="black"/>
</g>
</svg>
