<svg width="24" height="24" viewBox="0 0 24 24" fill="none" xmlns="http://www.w3.org/2000/svg">
<g id="Black">
<path id="Vector" d="M10.0547 0.09375C9.25781 0.304687 8.60156 0.721875 7.79531 1.53281C7.47656 1.84687 7.21875 2.12812 7.21875 2.15625C7.21875 2.18906 8.40469 2.20312 10.9219 2.20312C13.3125 2.20312 14.625 2.18906 14.625 2.15625C14.625 2.13281 14.3672 1.85156 14.0531 1.53281C13.2328 0.707812 12.5156 0.2625 11.7094 0.0703125C11.2922 -0.028125 10.4672 -0.0187502 10.0547 0.09375Z" fill="black"/>
<path id="Vector_2" d="M18.7078 2.58281C18.3844 2.63437 17.7656 2.93906 17.4984 3.17344L17.2969 3.35156L17.5547 3.9C18.8203 6.57656 19.6641 9.81562 19.9969 13.2891C20.0813 14.1891 20.1609 15.4875 20.1609 16.0172C20.1609 16.2328 20.175 16.4062 20.1984 16.4062C20.2734 16.4062 20.7609 16.0453 20.9859 15.8203C21.9703 14.8359 22.6641 13.2047 22.9547 11.1797C23.0672 10.4109 23.0672 8.85469 22.9547 8.08594C22.7812 6.86719 22.5 5.89219 22.0641 4.99687C21.225 3.26719 19.9734 2.36719 18.7078 2.58281Z" fill="black"/>
<path id="Vector_3" d="M1.01875 3.92798C1.81563 5.14673 3.0625 6.93267 3.1 6.91392C3.12344 6.89517 3.14219 6.85298 3.14219 6.81548C3.14219 6.69829 3.70469 5.20298 3.99531 4.54673C4.15 4.19985 4.28594 3.88579 4.3 3.85298C4.31875 3.81079 3.96719 3.79673 2.62656 3.79673H0.929688L1.01875 3.92798Z" fill="black"/>
<path id="Vector_4" d="M6.10249 3.85449C6.07905 3.8873 5.9478 4.13105 5.81655 4.39355C4.79468 6.4373 3.99311 9.18418 3.60874 11.9545C3.34155 13.8951 3.25717 15.4045 3.29936 17.5795C3.33217 19.2389 3.36967 19.9326 3.43061 19.9936C3.49624 20.0592 5.33374 20.2607 6.87593 20.3686C9.97905 20.5842 13.7572 20.5326 16.6494 20.2279C18.1541 20.0686 18.3416 20.0451 18.3978 19.9889C18.5572 19.8295 18.5947 15.4842 18.4494 13.9232C18.1025 10.1123 17.315 6.9998 16.0681 4.50136L15.7259 3.82167L10.94 3.80761C7.14311 3.79824 6.13999 3.8123 6.10249 3.85449ZM11.8447 6.09511C12.9931 6.6623 13.8416 8.23261 14.1837 10.4076C14.3056 11.1717 14.3056 13.0654 14.1837 13.8295C13.8416 16.0232 12.9931 17.5748 11.8306 18.1514C11.4228 18.3529 11.4181 18.3529 10.9212 18.3529C10.4291 18.3529 10.4197 18.3529 10.0119 18.1514C8.84468 17.5701 8.00093 16.0186 7.65405 13.8201C7.53686 13.0701 7.53686 11.167 7.65405 10.417C7.98686 8.28886 8.82593 6.70449 9.9228 6.13261C10.3587 5.90293 10.5322 5.86074 11.0291 5.87949C11.4087 5.89355 11.4837 5.9123 11.8447 6.09511Z" fill="black"/>
<path id="Vector_5" d="M10.6495 7.53088C9.98859 7.86838 9.35578 9.41994 9.18703 11.1074C8.95734 13.4559 9.60422 16.0199 10.598 16.6762C11.3105 17.1496 12.2058 15.8465 12.5667 13.8074C12.6605 13.2871 12.6745 13.0387 12.6745 12.1199C12.6745 10.859 12.5855 10.2028 12.2761 9.26994C11.8355 7.91994 11.2073 7.24963 10.6495 7.53088Z" fill="black"/>
<path id="Vector_6" d="M2.10938 22.4967C2.10938 23.0686 2.12344 23.5327 2.14688 23.5327C2.16563 23.5327 2.58281 23.5749 3.07031 23.6264C4.34531 23.7577 6.28594 23.8936 7.8 23.9592C9.28594 24.0202 13.9969 23.992 15.2344 23.9124C16.5516 23.828 17.8922 23.7202 18.8203 23.6264C19.3078 23.5749 19.7156 23.5327 19.7203 23.5327C19.7297 23.5327 19.7344 23.0686 19.7344 22.5014V21.4655L19.5844 21.4889C19.0266 21.578 17.4703 21.7608 16.5234 21.8452C13.2703 22.1311 9.33281 22.1592 6.16406 21.9108C4.86563 21.8124 2.66719 21.5733 2.24063 21.4889L2.10938 21.4608V22.4967Z" fill="black"/>
</g>
</svg>
