<svg width="24" height="16" viewBox="0 0 24 16" fill="none" xmlns="http://www.w3.org/2000/svg">
<g id="Black">
<path id="Vector" d="M1.1584 0.0819674C0.741208 0.180406 0.366208 0.48978 0.192771 0.874155C0.0990208 1.08509 0.0943333 1.15072 0.0943333 7.46478C0.0943333 14.707 0.0615208 14.1117 0.488083 14.5429C0.830271 14.8804 1.02715 14.9367 1.85683 14.9367H2.52715L2.54121 15.3913C2.55527 15.8273 2.55996 15.8507 2.67715 15.9163C2.78965 15.9773 2.81308 15.9773 2.92558 15.907C3.04277 15.8273 3.04746 15.8085 3.04746 15.382V14.9367H12.0006H20.949L20.9631 15.3913C20.9771 15.8273 20.9818 15.8507 21.099 15.9163C21.2115 15.9773 21.235 15.9773 21.3475 15.907C21.4646 15.8273 21.4693 15.8085 21.4693 15.382V14.9367H22.1396C22.974 14.9367 23.1709 14.8804 23.5131 14.5429C23.9396 14.1117 23.9068 14.707 23.9068 7.46478V1.08509L23.7943 0.850718C23.6584 0.560093 23.3912 0.30228 23.0865 0.161655L22.8521 0.0538425L12.0943 0.0444679C5.9209 0.0444679 1.26152 0.0585299 1.1584 0.0819674ZM22.9131 0.691342C23.035 0.75228 23.1662 0.869468 23.2412 0.981968L23.3678 1.17416L23.3818 7.40853C23.3959 14.3367 23.4146 13.8913 23.0865 14.182C22.9975 14.257 22.8475 14.346 22.749 14.3695C22.5006 14.4398 1.50058 14.4398 1.25215 14.3695C1.15371 14.346 1.00371 14.257 0.914646 14.182C0.586521 13.8913 0.605271 14.3367 0.619333 7.40853L0.633396 1.17416L0.759958 0.981968C0.830271 0.874155 0.966208 0.75228 1.08808 0.691342L1.28965 0.592905H11.9959H22.7068L22.9131 0.691342Z" fill="black"/>
<path id="Vector_2" d="M1.80938 1.82187C1.74375 1.91562 1.73438 2.53437 1.73438 7.51719C1.73438 13.0484 1.73438 13.1094 1.82812 13.2031C1.92188 13.2969 1.98281 13.2969 9.84375 13.2969C17.7047 13.2969 17.7656 13.2969 17.8594 13.2031C17.9531 13.1094 17.9531 13.0484 17.9531 7.51719C17.9531 2.53437 17.9438 1.91562 17.8781 1.82187L17.8078 1.71875H9.84375H1.87969L1.80938 1.82187ZM6.525 3.53281C6.57188 3.575 6.60938 3.64062 6.60938 3.68281C6.60938 3.79531 3.93281 6.45312 3.82031 6.45312C3.69375 6.45312 7.875 7.83125 7.875 7.70469C7.875 7.59687 7.0125 3.53281 7.125 3.53281C7.15781 3.53281 6.47813 3.48594 6.525 3.53281ZM5.025 3.57969C5.07188 3.62187 5.10938 3.6875 5.10938 3.725C5.10938 3.8375 3.97969 4.95312 3.86719 4.95312C3.74062 4.95312 4.125 5.87187 4.125 5.75C4.125 5.6375 6.26719 4.25 6.375 4.25C6.4125 4.25 4.97813 3.53281 5.025 3.57969ZM16.1625 3.68281C16.3781 3.79062 16.4766 3.89844 16.5703 4.12344C16.6313 4.26875 16.6406 4.72344 16.6406 7.51719C16.6406 10.7 16.6406 10.7375 16.5422 10.9437C16.3031 11.4312 15.6984 11.5531 15.2719 11.1969C14.9906 10.9578 15 11.0703 15 7.475C15 4.19844 15 4.17969 15.0984 4.01562C15.3375 3.62656 15.7781 3.48594 16.1625 3.68281Z" fill="black"/>
<path id="Vector_3" d="M15.675 4.05999C15.4125 4.16311 15.4219 4.04124 15.4219 7.51936V10.7209L15.5391 10.8334C15.6797 10.9787 15.9235 10.9881 16.0688 10.8569L16.1719 10.7584V7.50999C16.1719 4.48186 16.1672 4.25217 16.0922 4.16311C15.9938 4.05061 15.811 4.00842 15.675 4.05999Z" fill="black"/>
<path id="Vector_4" d="M18.9188 1.79375C18.8531 1.85469 18.8438 2.04688 18.8438 3.17188C18.8438 4.47031 18.8438 4.47969 18.9469 4.55C19.0359 4.61562 19.2844 4.625 20.7188 4.625C22.1531 4.625 22.4016 4.61562 22.4906 4.55C22.5938 4.47969 22.5938 4.47031 22.5938 3.17188C22.5938 2.04688 22.5844 1.85469 22.5188 1.79375C22.4578 1.72812 22.2281 1.71875 20.7188 1.71875C19.2094 1.71875 18.9797 1.72812 18.9188 1.79375Z" fill="black"/>
<path id="Vector_5" d="M18.9797 5.72188C18.8906 5.76406 18.8625 5.82031 18.8531 5.99375C18.8391 6.2375 18.9188 6.35938 19.1016 6.35938C19.2703 6.35938 19.3594 6.2375 19.3594 6.0125C19.3594 5.74063 19.1953 5.61406 18.9797 5.72188Z" fill="black"/>
<path id="Vector_6" d="M20.6254 5.68906C20.3254 5.79687 20.4051 6.35938 20.7192 6.35938C21.052 6.35938 21.1129 5.77344 20.7895 5.68906C20.7379 5.675 20.6629 5.675 20.6254 5.68906Z" fill="black"/>
<path id="Vector_7" d="M22.2141 5.72188C22.125 5.76406 22.0969 5.82031 22.0875 5.99375C22.0735 6.2375 22.1531 6.35938 22.336 6.35938C22.5047 6.35938 22.5938 6.2375 22.5938 6.0125C22.5938 5.74063 22.4297 5.61406 22.2141 5.72188Z" fill="black"/>
<path id="Vector_8" d="M18.9 7.49375C18.825 7.56875 18.825 7.9625 18.9 8.0375C18.9328 8.07031 19.0219 8.09375 19.1016 8.09375C19.2984 8.09375 19.3594 8.01875 19.3594 7.76562C19.3594 7.5125 19.2984 7.4375 19.1016 7.4375C19.0219 7.4375 18.9328 7.46094 18.9 7.49375Z" fill="black"/>
<path id="Vector_9" d="M20.5161 7.52207C20.4082 7.63926 20.4129 7.92051 20.5207 8.01426C20.7176 8.19239 20.9989 8.05176 20.9989 7.78457C20.9989 7.48457 20.6989 7.32051 20.5161 7.52207Z" fill="black"/>
<path id="Vector_10" d="M22.1344 7.49375C22.0594 7.56875 22.0594 7.9625 22.1344 8.0375C22.1672 8.07031 22.2563 8.09375 22.3359 8.09375C22.5328 8.09375 22.5938 8.01875 22.5938 7.76562C22.5938 7.5125 22.5328 7.4375 22.3359 7.4375C22.2563 7.4375 22.1672 7.46094 22.1344 7.49375Z" fill="black"/>
<path id="Vector_11" d="M18.9234 9.25541C18.8766 9.30697 18.8438 9.41947 18.8438 9.53666C18.8438 9.69603 18.8672 9.74759 18.9656 9.81322C19.0781 9.88353 19.1016 9.88353 19.2141 9.82259C19.3125 9.76634 19.3406 9.71478 19.35 9.55072C19.3734 9.22259 19.1156 9.04447 18.9234 9.25541Z" fill="black"/>
<path id="Vector_12" d="M20.5306 9.26562C20.3384 9.45781 20.4649 9.875 20.7181 9.875C20.8681 9.875 20.9993 9.70625 20.9993 9.52344C20.9993 9.34062 20.8681 9.17188 20.7181 9.17188C20.6665 9.17188 20.5821 9.21406 20.5306 9.26562Z" fill="black"/>
<path id="Vector_13" d="M22.1531 9.24603C22.1062 9.28822 22.0781 9.40072 22.0781 9.52259C22.0781 9.69603 22.0969 9.74291 22.2 9.81322C22.3125 9.88353 22.3359 9.88353 22.4484 9.82259C22.5469 9.76634 22.575 9.71478 22.5844 9.55072C22.6078 9.23197 22.35 9.04916 22.1531 9.24603Z" fill="black"/>
<path id="Vector_14" d="M18.9797 10.9719C18.8906 11.0141 18.8625 11.0703 18.8531 11.2438C18.8391 11.4875 18.9188 11.6094 19.1016 11.6094C19.2703 11.6094 19.3594 11.4875 19.3594 11.2625C19.3594 10.9906 19.1953 10.8641 18.9797 10.9719Z" fill="black"/>
<path id="Vector_15" d="M20.6254 10.9391C20.3254 11.0469 20.4051 11.6094 20.7192 11.6094C21.052 11.6094 21.1129 11.0234 20.7895 10.9391C20.7379 10.925 20.6629 10.925 20.6254 10.9391Z" fill="black"/>
<path id="Vector_16" d="M22.2153 10.9719C22.1215 11.0141 22.0981 11.0656 22.0887 11.2578C22.07 11.5109 22.145 11.6094 22.3418 11.6094C22.5059 11.6094 22.595 11.4875 22.595 11.2625C22.595 10.9906 22.4309 10.8641 22.2153 10.9719Z" fill="black"/>
<path id="Vector_17" d="M18.9205 12.8187C18.808 12.9406 18.822 13.1375 18.9439 13.2219C19.033 13.2875 19.2814 13.2969 20.7158 13.2969C22.5533 13.2969 22.5908 13.2922 22.5908 13.0203C22.5908 12.7344 22.5908 12.7344 20.7064 12.7344C19.108 12.7344 18.9908 12.7391 18.9205 12.8187Z" fill="black"/>
</g>
</svg>
