<svg width="20" height="21" viewBox="0 0 20 21" fill="none" xmlns="http://www.w3.org/2000/svg">
<g id="Black">
<path id="Vector" d="M12.625 1.56094V2.36719L11.875 2.74219L11.125 3.11719V3.80625V4.5H14.5H17.875V3.80625V3.11719L17.125 2.74219L16.375 2.36719V1.56094V0.75H14.5H12.625V1.56094Z" fill="black"/>
<path id="Vector_2" d="M2.5 1.5V1.875H1.9375H1.375V2.25V2.625H1.9375H2.5V4.33125C2.5 6.02812 2.5 6.04219 2.40156 6.07031C2.2375 6.12187 1.92813 6.43125 1.83906 6.63281C1.72188 6.88594 1.72188 7.36875 1.83906 7.61719C2.02188 8.01562 2.42031 8.25937 2.875 8.25937C3.32969 8.25937 3.72813 8.01562 3.91094 7.61719C4.02813 7.36875 4.02813 6.88594 3.91094 6.63281C3.82188 6.43125 3.5125 6.12187 3.34844 6.07031C3.25 6.04219 3.25 6.02812 3.25 4.33125V2.625H4.9375H6.625V3.37031V4.11094L6.32031 4.21406C5.33594 4.53281 4.75469 5.33437 4.75 6.36562C4.75 7.22344 5.14844 7.93594 5.875 8.35312C6.5125 8.72344 7.4875 8.72344 8.125 8.35312C8.85156 7.93594 9.25 7.22812 9.25 6.37031C9.25 5.31562 8.58906 4.44375 7.57656 4.17656L7.375 4.12031V3.375V2.625H8.3125H9.25V2.25V1.875H8.3125H7.375V1.5V1.125H7H6.625V1.5V1.875H4.9375H3.25V1.5V1.125H2.875H2.5V1.5Z" fill="black"/>
<path id="Vector_3" d="M12.625 9.5625V10.125H6.4375H0.25V10.5V10.875H0.4375H0.625V15.5625V20.25H10H19.375V15.5625V10.875H19.5625H19.75V10.5V10.125H18.0625H16.375V9.5625V9H15.625H14.875V9.375V9.75H15.25H15.625V9.9375V10.125H14.5H13.375V9.9375V9.75H13.75H14.125V9.375V9H13.375H12.625V9.5625ZM15.0438 11.8312C15.175 11.9625 15.2031 12.0281 15.2031 12.1875C15.2031 12.3469 15.175 12.4125 15.0438 12.5437C14.9125 12.675 14.8469 12.7031 14.6875 12.7031C14.5281 12.7031 14.4625 12.675 14.3313 12.5437C14.2 12.4125 14.1719 12.3469 14.1719 12.1875C14.1719 12.0281 14.2 11.9625 14.3313 11.8312C14.4625 11.7 14.5281 11.6719 14.6875 11.6719C14.8469 11.6719 14.9125 11.7 15.0438 11.8312ZM16.9188 11.8312C17.05 11.9625 17.0781 12.0281 17.0781 12.1875C17.0781 12.3469 17.05 12.4125 16.9188 12.5437C16.7875 12.675 16.7219 12.7031 16.5625 12.7031C16.4031 12.7031 16.3375 12.675 16.2063 12.5437C16.075 12.4125 16.0469 12.3469 16.0469 12.1875C16.0469 12.0281 16.075 11.9625 16.2063 11.8312C16.3375 11.7 16.4031 11.6719 16.5625 11.6719C16.7219 11.6719 16.7875 11.7 16.9188 11.8312ZM10 15.375V18.75H6.0625H2.125V15.375V12H6.0625H10V15.375ZM17.875 15.9375V18.375H14.5H11.125V15.9375V13.5H14.5H17.875V15.9375Z" fill="black"/>
<path id="Vector_4" d="M2.875 13.875V15H6.0625H9.25V13.875V12.75H6.0625H2.875V13.875ZM6.625 13.875V14.25H5.875H5.125V13.875V13.5H5.875H6.625V13.875Z" fill="black"/>
<path id="Vector_5" d="M2.875 16.875V18H6.0625H9.25V16.875V15.75H6.0625H2.875V16.875ZM6.625 16.875V17.25H5.875H5.125V16.875V16.5H5.875H6.625V16.875Z" fill="black"/>
<path id="Vector_6" d="M11.875 15.9375V17.625H14.5H17.125V15.9375V14.25H14.5H11.875V15.9375ZM15.25 15V15.375H14.5H13.75V15V14.625H14.5H15.25V15Z" fill="black"/>
</g>
</svg>
