<svg width="24" height="25" viewBox="0 0 24 25" fill="none" xmlns="http://www.w3.org/2000/svg">
<g id="Black">
<path id="Vector" d="M0.703125 5.9375V11.375H12H23.2969V5.9375V0.5H12H0.703125V5.9375ZM10.2703 3.51406C10.3125 3.54687 10.4578 3.75781 10.5891 3.98281L10.8328 4.39062L12.0094 4.38125L13.1906 4.36719L13.4297 3.95469C13.6922 3.5 13.7391 3.45312 13.9547 3.45312C14.0625 3.45312 14.1328 3.49062 14.2219 3.59844C14.2875 3.67812 14.3438 3.77656 14.3438 3.82344C14.3438 3.92656 13.7531 4.95312 13.6313 5.05625C13.5469 5.13125 13.3969 5.14062 12 5.14062C10.6031 5.14062 10.4531 5.13125 10.3688 5.05625C10.2469 4.95312 9.65625 3.92656 9.65625 3.82344C9.65625 3.77656 9.7125 3.67812 9.77813 3.59844C9.90938 3.43906 10.125 3.40625 10.2703 3.51406Z" fill="black"/>
<path id="Vector_2" d="M0.703125 17.6332V23.0942H1.84688H2.98594L3.04219 23.6895C3.12656 24.6082 3.02344 24.5051 3.85781 24.491L4.57031 24.477L4.63594 23.7832L4.70625 23.0942H12H19.2984L19.3594 23.7973L19.4203 24.5004H20.1375C20.9766 24.5004 20.8734 24.6035 20.9578 23.6895L21.0141 23.0942H22.1531H23.2969V17.6332V12.1723H12H0.703125V17.6332ZM10.3031 15.2285C10.3313 15.2567 10.4578 15.4535 10.5844 15.6692L10.8047 16.0629H12H13.1953L13.4297 15.6504C13.7016 15.1817 13.8375 15.0785 14.0672 15.177C14.2313 15.2426 14.3625 15.4629 14.3203 15.5988C14.2547 15.8004 13.7203 16.677 13.6078 16.766C13.4906 16.8551 13.4203 16.8598 12 16.8598C10.2656 16.8598 10.4062 16.8973 10.0641 16.3067C9.65156 15.5942 9.6375 15.5613 9.70312 15.402C9.80625 15.1582 10.1109 15.0692 10.3031 15.2285Z" fill="black"/>
</g>
</svg>
