<svg width="24" height="21" viewBox="0 0 24 21" fill="none" xmlns="http://www.w3.org/2000/svg">
<g id="Black">
<path id="Vector" d="M9.65469 0.660938C5.67031 0.890625 3.02188 1.86563 1.55 3.6375C0.598438 4.78594 0.115625 6.13594 0.0171875 7.94531L-0.015625 8.53125L2.46406 8.52188L4.94375 8.50781L4.99531 8.08125C5.12656 7.02656 5.44063 6.17813 5.92344 5.56875C6.47188 4.87969 7.41875 4.45781 8.74063 4.3125C9.08281 4.275 10.0484 4.25625 11.6422 4.26094C15.4438 4.27031 16.25 4.35469 17.2203 4.86563C17.9844 5.26406 18.4859 5.95781 18.7719 7.00313C18.8656 7.35 19.0203 8.25938 19.0297 8.49375C19.0297 8.51719 20.15 8.53125 21.5141 8.53125H23.9984V8.23125C23.9984 7.79063 23.9141 7.02656 23.8063 6.51563C23.4875 4.95938 22.7234 3.675 21.5844 2.78906C19.9484 1.51406 17.675 0.853126 14.2297 0.65625C13.2828 0.604688 10.6063 0.604688 9.65469 0.660938Z" fill="black"/>
<path id="Vector_2" d="M7.33125 6.83384C6.85781 6.8854 6.84375 6.91353 6.84375 7.75259V8.4604L6.6 8.74165C5.25938 10.2792 2.30625 14.2917 1.85156 15.1917L1.73438 15.4167V17.6573C1.73438 19.8088 1.73906 19.9026 1.82812 20.0526C1.87969 20.137 1.9875 20.2448 2.07188 20.2963C2.22656 20.3901 2.32969 20.3901 11.7563 20.3901C22.3734 20.3901 21.4969 20.4182 21.7125 20.0667C21.8203 19.8979 21.8203 19.8932 21.8344 17.6854L21.8484 15.4729L21.7219 15.2245C21.2766 14.3432 18.4266 10.462 17.0766 8.90103L16.6875 8.44634V7.75259C16.6875 7.36822 16.6688 7.03072 16.65 7.00259C16.575 6.89009 16.4016 6.8479 15.8672 6.81978C15.1875 6.78228 14.5078 6.8479 14.3953 6.95572C14.3344 7.01665 14.3156 7.15259 14.3063 7.61665L14.2875 8.20259H11.7609H9.23906L9.225 7.61197C9.20625 6.83384 9.22969 6.85259 8.29688 6.82447C7.92188 6.81509 7.48594 6.81978 7.33125 6.83384ZM9.28125 10.1573C9.44063 10.251 9.60938 10.537 9.60938 10.7104C9.60938 10.8838 9.44063 11.1698 9.28125 11.2635C9.09844 11.3713 8.78906 11.3667 8.60156 11.2495C8.43281 11.1463 8.29688 10.9073 8.29688 10.7104C8.29688 10.5417 8.46094 10.2557 8.61563 10.1573C8.77969 10.0588 9.1125 10.0542 9.28125 10.1573ZM12.1594 10.2182C12.4875 10.5042 12.4875 10.912 12.1641 11.1979C11.7563 11.5542 11.1094 11.2588 11.1094 10.7198C11.1094 10.3401 11.3813 10.0776 11.775 10.0776C11.9531 10.0776 12.0281 10.1057 12.1594 10.2182ZM14.8641 10.1479C15.2719 10.3635 15.2953 10.9729 14.9063 11.2495C14.7469 11.362 14.4188 11.3854 14.2547 11.301C14.0813 11.2073 13.9172 10.9401 13.9125 10.7432C13.9078 10.2417 14.4188 9.9229 14.8641 10.1479ZM9.1875 12.4495C9.65625 12.637 9.74063 13.1854 9.35156 13.5463C9.24844 13.6448 9.17813 13.6635 8.95313 13.6635C8.72813 13.6635 8.65781 13.6448 8.55469 13.5463C8.175 13.1901 8.24063 12.6698 8.69531 12.4635C8.925 12.3557 8.95313 12.3557 9.1875 12.4495ZM12.1078 12.5057C12.2859 12.6135 12.4406 12.937 12.3984 13.1338C12.2719 13.7385 11.5359 13.8885 11.1984 13.3776C11.025 13.1151 11.1141 12.712 11.3766 12.5245C11.6063 12.3604 11.8453 12.3557 12.1078 12.5057ZM14.7234 12.4213C15.2484 12.5667 15.3563 13.312 14.8922 13.5932C14.4516 13.8651 13.9219 13.551 13.9219 13.0213C13.9219 12.6979 14.1656 12.4401 14.5313 12.3792C14.5453 12.3745 14.6297 12.3979 14.7234 12.4213ZM9.30469 14.8307C9.69844 15.0885 9.68906 15.6557 9.28594 15.9229C8.85938 16.2088 8.25938 15.8479 8.31094 15.3323C8.3625 14.8401 8.90156 14.5682 9.30469 14.8307ZM12.0516 14.8167C12.2906 14.9385 12.4406 15.2385 12.3938 15.4963C12.3516 15.7213 12.1125 15.9698 11.8922 16.0073C11.6531 16.0542 11.5078 16.0073 11.3109 15.8292C10.9828 15.5292 11.0719 15.0088 11.4844 14.8026C11.6953 14.6948 11.8219 14.6948 12.0516 14.8167ZM14.7797 14.7838C15.0281 14.887 15.1875 15.112 15.1875 15.3604C15.1875 15.8667 14.7188 16.1667 14.2641 15.951C13.9125 15.787 13.8047 15.2901 14.0484 14.9948C14.175 14.8448 14.3953 14.7229 14.5453 14.7182C14.5922 14.7182 14.6953 14.7463 14.7797 14.7838Z" fill="black"/>
<path id="Vector_3" d="M0 9.33643C0.0046875 9.88487 0.220313 10.2974 0.609375 10.513C0.960938 10.7099 1.27031 10.7427 2.64844 10.7239C4.01719 10.7052 4.125 10.6864 4.49063 10.4192C4.74844 10.2271 4.96875 9.65518 4.96875 9.17706V9.04581H2.48438H0V9.33643Z" fill="black"/>
<path id="Vector_4" d="M19.0312 9.26714C19.0312 9.38902 19.0688 9.61402 19.1109 9.7687C19.2094 10.1203 19.4719 10.4015 19.8094 10.5187C20.3906 10.725 22.7063 10.7109 23.2594 10.5C23.7281 10.3265 24 9.8812 24 9.29527V9.04683H21.5156H19.0312V9.26714Z" fill="black"/>
</g>
</svg>
