<svg width="24" height="25" viewBox="0 0 24 25" fill="none" xmlns="http://www.w3.org/2000/svg">
<g id="Black">
<path id="Vector" d="M10.1332 0.55625C10.1472 0.589062 10.5644 1.84531 11.066 3.34531C11.5676 4.85 11.9847 6.07812 11.9988 6.07812C12.0129 6.07812 12.4301 4.85 12.9316 3.34531C13.4332 1.84531 13.8504 0.589062 13.8644 0.55625C13.8785 0.514062 13.4894 0.5 11.9988 0.5C10.5082 0.5 10.1191 0.514062 10.1332 0.55625Z" fill="black"/>
<path id="Vector_2" d="M7.47932 1.01562C6.86526 1.17031 6.35432 1.32969 6.28401 1.38125C6.14807 1.48438 1.34338 10.1609 1.39494 10.2125C1.45119 10.2687 6.14338 13.2031 6.17619 13.2031C6.19494 13.2031 6.34026 12.9641 6.49494 12.6734L6.78557 12.1484L9.67776 12.1344C12.4012 12.125 12.5653 12.1203 12.5418 12.0406C12.5278 11.9984 11.6746 9.43906 10.6481 6.35937C8.87151 1.03437 8.77307 0.757812 8.66526 0.748437C8.60432 0.74375 8.06994 0.865624 7.47932 1.01562Z" fill="black"/>
<path id="Vector_3" d="M15.2094 0.791337C15.1953 0.824149 14.6281 2.52571 13.9484 4.56477L12.7109 8.28196L13.3484 10.2038L13.9906 12.1257L15.6031 12.1351L17.2203 12.1491L17.5109 12.6648C17.6703 12.946 17.8297 13.1804 17.8625 13.1757C17.9094 13.171 22.5031 10.3257 22.6344 10.2226C22.6625 10.1991 17.9047 1.56946 17.8016 1.45227C17.6703 1.31165 17.5953 1.28821 16.4188 0.9929C15.2938 0.716337 15.2422 0.706962 15.2094 0.791337Z" fill="black"/>
<path id="Vector_4" d="M0.3375 12.0398C0.0421875 12.5836 0 12.6961 0 12.9023C0 13.0711 0.028125 13.1883 0.103125 13.2961C0.182813 13.4086 0.721875 13.7742 1.99219 14.5758C2.97188 15.1898 3.86719 15.7383 3.97969 15.7898C4.23281 15.907 4.53281 15.8742 4.72969 15.7055C4.875 15.5836 5.50313 14.5008 5.475 14.4211C5.46094 14.3742 0.764063 11.4211 0.707813 11.4211C0.689063 11.4211 0.525 11.7023 0.3375 12.0398Z" fill="black"/>
<path id="Vector_5" d="M20.8734 12.9117C19.575 13.7273 18.5156 14.4117 18.5156 14.4352C18.5156 14.5336 19.1531 15.607 19.2703 15.7055C19.4672 15.8742 19.7672 15.907 20.0203 15.7898C20.1328 15.7383 21.0281 15.1898 22.0078 14.5758C23.9625 13.3477 24 13.3148 24 12.9023C24 12.6961 23.9578 12.5836 23.6625 12.0398C23.475 11.7023 23.3016 11.4211 23.2781 11.4258C23.25 11.4258 22.1672 12.0961 20.8734 12.9117Z" fill="black"/>
<path id="Vector_6" d="M6.75 18.6969C6.75 23.7406 6.75469 23.9187 6.84375 24.1109C6.89531 24.2281 6.99844 24.35 7.0875 24.4062C7.2375 24.4953 7.31719 24.5 10.0453 24.5H12.8438V19.5781C12.8438 16.7844 12.825 14.6562 12.8016 14.6562C12.7781 14.6562 12.3563 15.1109 11.8594 15.6687C11.3672 16.2219 10.8938 16.7187 10.8141 16.7703C10.5516 16.9297 10.2328 16.8781 10.0125 16.6391C9.83906 16.4562 9.78281 16.2125 9.85313 15.9969C9.89063 15.8937 10.2984 15.3922 10.9359 14.6844C11.4938 14.0516 11.9531 13.5266 11.9531 13.5125C11.9531 13.4984 10.7812 13.4844 9.35156 13.4844H6.75V18.6969Z" fill="black"/>
<path id="Vector_7" d="M14.2031 18.9922V24.5H15.4875C16.7391 24.5 16.7719 24.4953 16.9219 24.3922C17.0063 24.3359 17.1141 24.2141 17.1609 24.125C17.2453 23.9703 17.25 23.7312 17.25 18.725V13.4844H15.7266H14.2031V18.9922Z" fill="black"/>
</g>
</svg>
