<svg width="22" height="25" viewBox="0 0 22 25" fill="none" xmlns="http://www.w3.org/2000/svg">
<g id="Black">
<path id="Vector" d="M1.08553 0.612499C0.794901 0.748436 0.583964 0.96875 0.443339 1.27344L0.335526 1.50781L0.321464 11C0.316776 16.8453 0.326151 20.6047 0.354276 20.7828C0.377714 20.9422 0.433964 21.1437 0.476151 21.2328C0.579276 21.4578 0.846464 21.7109 1.10428 21.8375L1.3199 21.9453H11.023H20.7262L20.9746 21.8328C21.1152 21.7672 21.298 21.6312 21.4058 21.5141C21.7621 21.1062 21.734 21.9875 21.7246 11.1406L21.7105 1.41406L21.5933 1.18906C21.4621 0.926561 21.2371 0.710938 20.9652 0.589062C20.7824 0.504686 20.4027 0.5 11.0465 0.5H1.3199L1.08553 0.612499ZM18.7855 2.77812C19.273 3.00312 19.498 3.36875 19.5215 3.97812L19.5402 4.39062H19.6855C20.0933 4.39062 20.6371 4.84062 20.7683 5.28594C20.8762 5.6375 20.8762 8.19687 20.773 8.54844C20.6324 9.02656 20.2433 9.37812 19.7793 9.44375L19.5543 9.47656L19.5402 11.2156L19.5308 12.9547L19.7324 12.9781C20.1496 13.025 20.534 13.3109 20.7215 13.7141C20.8152 13.9203 20.8199 14 20.8199 15.5C20.8199 17 20.8152 17.0797 20.7215 17.2859C20.534 17.6891 20.1496 17.975 19.7324 18.0219L19.5308 18.0453V18.3828C19.5308 18.9688 19.3246 19.3531 18.8652 19.6062L18.6168 19.7422H10.9996H3.3824L3.13396 19.6062C2.99334 19.5266 2.8199 19.3859 2.7449 19.2922C2.47303 18.9453 2.46834 18.9219 2.46834 16.6016V14.4781L2.61365 14.3562C2.80115 14.1969 2.96053 14.2016 3.12928 14.3703L3.26521 14.5062V16.55C3.26521 17.7875 3.28396 18.6359 3.31209 18.7109C3.41521 18.9828 3.03084 18.9688 10.9996 18.9688C18.9683 18.9688 18.584 18.9828 18.6871 18.7109C18.7152 18.6406 18.734 18.4625 18.734 18.3078V18.0312H18.584C18.2137 18.0266 17.7683 17.7031 17.5808 17.3047C17.4683 17.0703 17.4683 17.0562 17.4683 15.5C17.4683 14.0234 17.4777 13.9156 17.5668 13.7188C17.6183 13.6016 17.7308 13.4375 17.8105 13.3484C17.9933 13.1562 18.373 12.9688 18.584 12.9688H18.734L18.7246 11.225L18.7105 9.48125L18.5137 9.44375C18.1012 9.37344 17.7402 9.09219 17.5668 8.70312C17.4777 8.50625 17.4683 8.39844 17.4683 6.93125C17.4683 5.24375 17.473 5.21094 17.7355 4.86875C17.9043 4.64375 18.2418 4.44219 18.509 4.40937L18.734 4.37656V4.1C18.734 3.80937 18.6496 3.57969 18.523 3.52812C18.4199 3.49062 3.57928 3.49062 3.47615 3.52812C3.26053 3.6125 3.26521 3.55156 3.26521 8.1875C3.26521 12.9594 3.27928 12.7531 2.99334 12.8703C2.82928 12.9406 2.65115 12.8797 2.54334 12.725C2.47771 12.6312 2.46834 12.1719 2.46834 8.15937C2.46834 4.87812 2.4824 3.65937 2.52459 3.54219C2.66053 3.14844 2.96521 2.85312 3.36834 2.72656C3.53709 2.675 4.86834 2.66562 11.0699 2.67031L18.5699 2.67969L18.7855 2.77812ZM6.98709 4.5125C7.16053 4.69062 7.15584 4.90625 6.96365 5.06562L6.81834 5.1875H5.91365H5.00896L4.99021 6.12969L4.97615 7.07187L4.82146 7.20781C4.64803 7.3625 4.5824 7.37187 4.3949 7.27344C4.1699 7.15625 4.15115 7.04375 4.16521 5.77812L4.17928 4.61562L4.31053 4.50312L4.44178 4.39062H5.65115H6.86053L6.98709 4.5125ZM11.8715 6.17656C12.5605 6.29844 13.2637 6.58437 13.8824 6.99219C14.2527 7.23594 14.9652 7.94844 15.2183 8.32344C15.509 8.75937 15.8137 9.43437 15.9543 9.95469C16.0668 10.3672 16.0808 10.4984 16.0808 11.2109C16.0808 11.9281 16.0668 12.0547 15.9543 12.4766C15.6496 13.6156 14.9652 14.6234 14.0277 15.3219C12.0402 16.8031 9.29334 16.6297 7.48865 14.9141C6.7949 14.2531 6.29334 13.4094 6.0449 12.4766C5.9324 12.0547 5.91834 11.9281 5.91834 11.2109C5.91834 10.4984 5.9324 10.3672 6.0449 9.95469C6.60271 7.88281 8.27146 6.42031 10.4137 6.12969C10.7793 6.07812 11.4543 6.10156 11.8715 6.17656Z" fill="black"/>
<path id="Vector_2" d="M18.5188 5.23437C18.2703 5.33281 18.2656 5.37969 18.2656 6.93594V8.38437L18.4016 8.52031L18.5375 8.65625H19.1563C19.7469 8.65625 19.775 8.65156 19.8828 8.53906L20 8.42656V6.92656V5.43125L19.8547 5.30937C19.7188 5.19219 19.6859 5.1875 19.1656 5.19219C18.8656 5.19219 18.5703 5.21094 18.5188 5.23437Z" fill="black"/>
<path id="Vector_3" d="M18.4016 13.9016L18.2656 14.0375V15.5V16.9625L18.4016 17.0984C18.5375 17.2344 18.5422 17.2344 19.1094 17.2344C19.7 17.2344 19.9109 17.1828 19.9719 17.0234C20.0094 16.9203 20.0094 14.0797 19.9719 13.9766C19.9109 13.8172 19.7 13.7656 19.1094 13.7656C18.5422 13.7656 18.5375 13.7656 18.4016 13.9016Z" fill="black"/>
<path id="Vector_4" d="M10.0859 7.00078C9.90781 7.03828 9.75312 7.07578 9.74375 7.08516C9.73906 7.08984 9.77187 7.20703 9.82812 7.33828C9.95 7.65703 9.94531 7.79297 9.80469 7.92891C9.55625 8.18203 9.21406 8.03672 9.07812 7.62422C9.04531 7.52109 8.98906 7.43672 8.95625 7.43672C8.82969 7.43672 8.1875 7.91953 7.88281 8.23828C7.59687 8.54297 7.20312 9.08672 7.20312 9.17578C7.20312 9.19453 7.29687 9.24609 7.41406 9.29297C7.63437 9.37266 7.85937 9.59297 7.85937 9.71484C7.85937 9.85547 7.71875 10.0477 7.58281 10.1086C7.45625 10.1602 7.40469 10.1508 7.175 10.0617C7.025 10.0008 6.89844 9.97266 6.875 9.99609C6.80937 10.0617 6.6875 10.8398 6.6875 11.2102C6.6875 11.5805 6.80937 12.3586 6.875 12.4242C6.89844 12.4477 7.025 12.4289 7.17969 12.368C7.41406 12.2742 7.46094 12.2742 7.59687 12.3305C7.69062 12.368 7.77031 12.4477 7.8125 12.5414C7.91094 12.7852 7.79375 12.9727 7.46562 13.1133C7.32031 13.1695 7.20312 13.2352 7.20312 13.2492C7.20312 13.268 7.2875 13.4133 7.39531 13.5773C7.71406 14.0742 8.28594 14.6227 8.80625 14.932L8.975 15.0352L9.09687 14.768C9.16719 14.6227 9.25625 14.4727 9.30312 14.4398C9.43906 14.3367 9.65937 14.3602 9.8 14.4961C9.95 14.6461 9.95469 14.8008 9.82344 15.1008C9.77187 15.218 9.73437 15.3258 9.74375 15.3352C9.82344 15.4055 10.5453 15.5039 11 15.5039C11.4547 15.5039 12.1766 15.4055 12.2562 15.3352C12.2656 15.3258 12.2281 15.218 12.1766 15.1008C12.1203 14.9789 12.0781 14.8148 12.0781 14.7398C12.0781 14.5523 12.2656 14.3742 12.4672 14.3742C12.6594 14.3742 12.7812 14.4961 12.9172 14.8102L13.0156 15.0398L13.1891 14.932C13.7281 14.6086 14.2859 14.0742 14.6047 13.5773C14.7125 13.4133 14.7969 13.268 14.7969 13.2492C14.7969 13.2305 14.6797 13.1648 14.5344 13.1086C14.3375 13.0242 14.2531 12.9633 14.2016 12.8461C14.0984 12.6398 14.1875 12.4195 14.4031 12.3305C14.5437 12.2695 14.5859 12.2742 14.8016 12.3586C14.9375 12.4148 15.0734 12.4477 15.1016 12.4336C15.2656 12.3727 15.3547 10.9055 15.2281 10.343C15.1391 9.93984 15.1297 9.93516 14.825 10.0617C14.5953 10.1508 14.5437 10.1602 14.4172 10.1086C14.2812 10.0477 14.1406 9.85547 14.1406 9.71484C14.1406 9.59297 14.3656 9.37266 14.5859 9.28828C14.7312 9.23672 14.7969 9.18516 14.7781 9.14297C14.7078 8.96484 14.3937 8.53359 14.1125 8.23828C13.8172 7.92422 13.1703 7.43672 13.0484 7.43672C13.0156 7.43672 12.9547 7.53516 12.9031 7.65234C12.7906 7.93359 12.6594 8.04609 12.4672 8.04609C12.275 8.04609 12.0781 7.86797 12.0781 7.69922C12.0781 7.63359 12.1203 7.46953 12.1719 7.33828C12.2281 7.20703 12.2609 7.08984 12.2562 7.08516C12.2469 7.07578 12.0781 7.03828 11.8812 6.99609C11.4266 6.90234 10.5312 6.90234 10.0859 7.00078ZM11.7547 8.79609C12.4812 9.01641 13.0859 9.59297 13.3812 10.3289C13.4891 10.6148 13.5031 10.7086 13.5031 11.2102C13.5031 11.6742 13.4844 11.8242 13.4 12.0539C12.9781 13.1883 11.8016 13.9008 10.6391 13.7273C9.3875 13.5352 8.46875 12.4664 8.46875 11.2008C8.46875 10.4086 8.82969 9.68672 9.47187 9.19922C10.1375 8.69297 10.9531 8.54766 11.7547 8.79609Z" fill="black"/>
<path id="Vector_5" d="M10.4055 9.5837C9.23834 9.99151 8.88677 11.5571 9.76334 12.4337C10.2836 12.9587 11.1227 13.0993 11.7743 12.7712C12.618 12.3446 12.9602 11.3603 12.5711 10.4931C12.4024 10.1181 12.004 9.7337 11.6336 9.59776C11.3008 9.4712 10.7524 9.46651 10.4055 9.5837Z" fill="black"/>
<path id="Vector_6" d="M2.04688 23.2906C2.05156 23.9984 2.1875 24.3031 2.57656 24.4484C2.66563 24.4812 3.50938 24.5 5.06094 24.5H7.41406L7.60156 24.3922C7.70469 24.3312 7.83125 24.2047 7.89219 24.1016C7.98594 23.9375 8 23.8484 8 23.3375V22.7656H5.02344H2.04688V23.2906Z" fill="black"/>
<path id="Vector_7" d="M14 23.3375C14 23.8484 14.0141 23.9375 14.1078 24.1016C14.1688 24.2047 14.2953 24.3312 14.3984 24.3922L14.5859 24.5H16.9391C18.4906 24.5 19.3344 24.4812 19.4234 24.4484C19.8125 24.3031 19.9484 23.9984 19.9531 23.2906V22.7656H16.9766H14V23.3375Z" fill="black"/>
</g>
</svg>
