<svg width="24" height="25" viewBox="0 0 24 25" fill="none" xmlns="http://www.w3.org/2000/svg">
<g id="Black">
<path id="Vector" d="M5.67031 0.617969C3.14844 1.04453 1.07188 2.84453 0.289063 5.28672C0.209375 5.53516 0.129688 5.84453 0.110938 5.97578L0.078125 6.21953L0.659375 5.94297C1.68125 5.45547 2.75469 5.13203 3.95938 4.94922C4.73281 4.82734 6.25625 4.80391 6.98281 4.89766C8.25313 5.06641 9.58438 5.45078 10.6297 5.96172L11.2484 6.26172V5.31016C11.2484 4.78984 11.225 4.23672 11.1969 4.08203C10.8922 2.34766 9.56094 0.988281 7.8125 0.617969C7.41406 0.533594 6.17188 0.533594 5.67031 0.617969Z" fill="black"/>
<path id="Vector_2" d="M16.1719 0.613281C14.6156 0.974218 13.4109 2.05234 12.9469 3.50078C12.7828 4.00703 12.75 4.31641 12.75 5.31016V6.26172L13.3688 5.96172C14.4141 5.45078 15.7453 5.06641 17.0156 4.89766C17.7469 4.80391 19.2656 4.82734 20.0531 4.94922C21.2438 5.13203 22.3125 5.45078 23.3391 5.94297L23.9203 6.21953L23.8875 5.97578C23.8406 5.64766 23.6063 4.91641 23.3859 4.44297C22.95 3.50078 22.0453 2.41797 21.1734 1.79453C20.4422 1.27422 19.5188 0.866406 18.6094 0.664844C18.1406 0.561718 16.5422 0.524219 16.1719 0.613281Z" fill="black"/>
<path id="Vector_3" d="M4.99219 6.20156C3.1125 6.38906 1.94531 6.73594 0.548438 7.52812L0 7.8375V8.51719C0 9.45 0.16875 11.9906 0.2625 12.5297L0.290625 12.6797L0.810938 12.4453C1.47188 12.15 2.40469 11.8359 3.075 11.6859C4.5 11.3625 6.26719 11.325 7.73438 11.5875C8.25 11.6812 9.24375 11.9578 9.69375 12.1312C9.89062 12.2062 10.0781 12.2672 10.1063 12.2672C10.1625 12.2672 10.5141 11.1516 10.7344 10.2609C10.9078 9.57187 11.1 8.47031 11.1188 8.05781L11.1328 7.75781L10.6078 7.46719C9.60469 6.90469 8.31094 6.47344 7.12031 6.29531C6.63281 6.22031 5.34375 6.16406 4.99219 6.20156Z" fill="black"/>
<path id="Vector_4" d="M17.4719 6.21953C16.0375 6.35078 14.5375 6.81484 13.3094 7.50859L12.8359 7.77578L12.8688 8.06641C12.9297 8.61484 13.1219 9.68359 13.2672 10.2602C13.5063 11.2258 13.8391 12.2664 13.9047 12.2664C13.9422 12.2664 14.1203 12.2055 14.3078 12.1305C14.7344 11.9617 15.7375 11.6852 16.2672 11.5867C17.6875 11.3336 19.375 11.357 20.7859 11.6523C21.625 11.8305 22.8156 12.2336 23.4906 12.5758L23.7109 12.6836L23.7391 12.5336C23.8328 11.9898 24.0016 9.44922 24.0016 8.51641V7.83672L23.4953 7.54609C22.3516 6.88984 20.9828 6.43047 19.6891 6.26641C19.1125 6.19609 18.0016 6.17266 17.4719 6.21953Z" fill="black"/>
<path id="Vector_5" d="M4.21301 12.8523C3.63645 12.932 2.87238 13.1148 2.24895 13.3258C1.73801 13.4992 0.55207 14.0429 0.49582 14.132C0.481757 14.1554 0.509882 14.4836 0.556757 14.8492C0.75832 16.3492 0.969257 18.3086 1.10051 19.9773C1.18488 21.032 1.23176 21.3086 1.39113 21.7539C1.86457 23.0851 3.02238 24.0929 4.41457 24.3836C4.93488 24.4961 5.75988 24.4773 6.29426 24.3414C7.46145 24.0461 8.42707 23.2586 8.95207 22.1804C9.34582 21.3742 9.33644 21.4633 9.37395 18.6883C9.41145 16.3867 9.43957 15.8195 9.56613 14.9383C9.62238 14.5258 9.74426 13.8226 9.77707 13.7101C9.80519 13.6164 9.68801 13.5601 8.9052 13.2976C7.78957 12.9226 6.86144 12.782 5.55832 12.7867C5.06613 12.7914 4.46145 12.8195 4.21301 12.8523Z" fill="black"/>
<path id="Vector_6" d="M16.9941 12.8523C16.4223 12.932 16.1082 12.9976 15.4566 13.1851C14.6785 13.4101 14.1957 13.6164 14.2238 13.7148C14.2379 13.757 14.2801 13.9679 14.3176 14.1883C14.5566 15.5242 14.6269 16.6492 14.6269 19.1804C14.6269 21.1914 14.6551 21.3789 15.0441 22.1804C15.5738 23.2586 16.5394 24.0461 17.7066 24.3414C18.2457 24.4773 19.0613 24.4961 19.5957 24.3836C20.9363 24.1023 22.1316 23.0758 22.5863 21.8148C22.7691 21.3086 22.8113 21.0648 22.9004 19.9773C23.0316 18.3086 23.2426 16.3492 23.4441 14.8492C23.491 14.4836 23.5191 14.1554 23.5051 14.132C23.4535 14.0523 22.291 13.5086 21.8223 13.3445C21.2363 13.1383 20.3738 12.932 19.7457 12.8523C19.1082 12.7679 17.6035 12.7679 16.9941 12.8523Z" fill="black"/>
</g>
</svg>
