<svg width="24" height="25" viewBox="0 0 24 25" fill="none" xmlns="http://www.w3.org/2000/svg">
<g id="Black">
<path id="Vector" d="M0.308426 0.589062C0.238114 0.635937 0.134989 0.739061 0.088114 0.809374C-0.155636 1.17969 0.134989 2.79219 0.608426 3.72969L0.749051 4.01094L2.58655 4.025C4.38655 4.03906 4.43343 4.04375 4.5928 4.14219C4.80843 4.27344 4.92093 4.475 4.92093 4.71875C4.92093 4.9625 4.80843 5.16406 4.5928 5.29531C4.43343 5.39375 4.37718 5.39844 2.9428 5.4125L1.45218 5.42656V12.4578V19.4844H2.90999H4.3678L4.32561 19.1891C4.30686 19.0297 4.28811 18.6031 4.28811 18.2422C4.28811 17.6 4.2928 17.5812 4.43811 17.2672C4.72874 16.6578 5.38968 16.1469 5.99436 16.0766C6.12561 16.0625 6.23343 16.0344 6.23343 16.0203C6.23343 16.0016 6.13499 15.9125 6.00843 15.8187C5.3803 15.3359 4.76155 14.5344 4.49905 13.85C3.89436 12.2797 4.2928 10.7141 5.61468 9.44375C6.27561 8.81562 7.06311 8.34687 8.00999 8.02344C8.85843 7.73281 9.57093 7.62031 10.5694 7.62031C12.1631 7.62031 13.5928 8.01406 14.7787 8.79219C15.2241 9.08281 15.9366 9.76719 16.1897 10.1422L16.3725 10.4141H17.2209C18.1866 10.4141 18.5616 10.4844 19.3256 10.8125L19.7334 10.9906V8.21094V5.42656L18.2475 5.4125C16.8553 5.39844 16.7475 5.39375 16.6022 5.30469C16.3912 5.17812 16.2647 4.9625 16.2647 4.72344C16.2647 4.46562 16.3631 4.28281 16.5787 4.14687C16.7569 4.03906 16.7616 4.03906 18.5944 4.025C20.7178 4.00625 20.4506 4.09062 20.7319 3.38281C20.9709 2.78281 21.1397 2.06094 21.1725 1.47969C21.2053 0.917187 21.1537 0.762499 20.8772 0.589062C20.7319 0.5 20.5256 0.5 10.5881 0.5C0.730301 0.5 0.439676 0.504686 0.308426 0.589062ZM9.51468 4.14219C9.7303 4.27344 9.8428 4.475 9.8428 4.71875C9.8428 4.9625 9.7303 5.16406 9.51468 5.29531C9.3553 5.39375 9.30374 5.39844 8.13186 5.39844C6.99749 5.39844 6.90374 5.39375 6.75843 5.30469C6.33655 5.05156 6.29905 4.43281 6.68811 4.17969C6.90374 4.03437 7.05843 4.02031 8.22561 4.02969C9.29436 4.03906 9.35999 4.04375 9.51468 4.14219ZM14.4366 4.14219C14.6522 4.27344 14.7647 4.475 14.7647 4.71875C14.7647 4.9625 14.6522 5.16406 14.4366 5.29531C14.2772 5.39375 14.2256 5.39844 13.0537 5.39844C11.9194 5.39844 11.8256 5.39375 11.6803 5.30469C11.2584 5.05156 11.2209 4.43281 11.61 4.17969C11.8256 4.03437 11.9803 4.02031 13.1475 4.02969C14.2162 4.03906 14.2819 4.04375 14.4366 4.14219Z" fill="black"/>
<path id="Vector_2" d="M9.65703 9.01672C8.85547 9.14797 8.27891 9.3214 7.71172 9.60734C6.68984 10.1183 5.99141 10.8308 5.71016 11.6464C5.56016 12.0823 5.56016 12.8136 5.71016 13.2355C5.86953 13.6808 6.12734 14.0839 6.48828 14.4448C6.78359 14.7355 7.43516 15.2136 7.47266 15.1667C7.47734 15.1573 7.55234 15.0027 7.63672 14.8198C8.15234 13.7042 9.17891 12.7011 10.3133 12.2136C11.082 11.8808 11.3961 11.8198 12.3523 11.8198C12.8727 11.8198 13.2664 11.8433 13.3789 11.8761L13.5617 11.9323L13.918 11.6323C14.1148 11.4636 14.4477 11.2292 14.6586 11.1073C14.8742 10.9808 15.0477 10.8683 15.0477 10.8448C15.0477 10.7745 14.4008 10.1652 14.1195 9.97297C13.4586 9.52765 12.5914 9.19953 11.6961 9.05422C11.307 8.98859 9.96641 8.96515 9.65703 9.01672Z" fill="black"/>
<path id="Vector_3" d="M16.5517 11.8016C16.2095 11.8672 15.8861 11.9844 15.5157 12.1812C15.1501 12.3687 14.9673 12.4859 15.0048 12.5141C15.0142 12.5234 15.1407 12.6078 15.2814 12.7109C15.422 12.8094 15.6564 12.9922 15.8017 13.1141C15.947 13.2406 16.0782 13.3438 16.0923 13.3438C16.1064 13.3438 16.3782 13.0531 16.6923 12.6969C17.0064 12.3453 17.3298 11.9844 17.4095 11.9L17.5501 11.75L17.1517 11.7547C16.9361 11.7594 16.6642 11.7781 16.5517 11.8016Z" fill="black"/>
<path id="Vector_4" d="M17.9991 13.2547C17.4695 13.85 17.0101 14.3703 16.9773 14.4172C16.9304 14.4875 16.9445 14.5578 17.0851 14.8531C17.1741 15.0453 17.296 15.3828 17.3616 15.5984C17.4695 15.9781 17.4788 15.9922 17.6148 15.9922C17.7366 15.9922 17.8866 15.8469 18.9413 14.6516C19.5976 13.9156 20.1601 13.2781 20.1976 13.2312C20.2585 13.1609 20.2398 13.1234 20.0101 12.8937C19.757 12.6312 19.1148 12.1719 19.0163 12.1719C18.9835 12.1719 18.5288 12.6594 17.9991 13.2547Z" fill="black"/>
<path id="Vector_5" d="M11.4383 13.25C10.1305 13.5734 9.05234 14.6 8.65391 15.9078L8.62109 16.0156H9.34766H10.0742L11.2086 14.7359C11.832 14.0375 12.4086 13.3906 12.4883 13.3062L12.6289 13.1562L12.207 13.1609C11.968 13.1609 11.6398 13.1984 11.4383 13.25Z" fill="black"/>
<path id="Vector_6" d="M13.0789 14.6609C12.5492 15.2563 12.0711 15.8047 12.0102 15.8797L11.9023 16.0156H12.9805H14.0586L14.6305 15.3688C14.9492 15.0172 15.2352 14.6891 15.2773 14.6422C15.3383 14.5672 15.3289 14.5391 15.1367 14.3469C14.7992 13.9953 14.218 13.5734 14.0773 13.5781C14.0586 13.5781 13.6086 14.0656 13.0789 14.6609Z" fill="black"/>
<path id="Vector_7" d="M20.3664 15.0875C20.0617 15.4297 19.7477 15.7812 19.668 15.8609L19.5273 16.0156H20.3336H21.1398V15.6219C21.1398 15.2328 21.032 14.5766 20.957 14.5016C20.9383 14.4828 20.6711 14.7453 20.3664 15.0875Z" fill="black"/>
<path id="Vector_8" d="M5.93164 17.5109C5.65039 17.6984 5.6082 17.8344 5.63633 18.4672C5.67383 19.3344 5.88477 20.075 6.35352 20.9844C6.97227 22.175 8.06914 23.3844 9.27383 24.1953L9.72383 24.5H14.8145H19.9004L20.3223 24.2141C20.9363 23.7922 21.3113 23.4734 21.8738 22.8875C23.1723 21.5375 23.9082 20.0047 23.9832 18.5047C24.016 17.8437 23.9691 17.6844 23.6926 17.5156C23.5426 17.4219 23.4254 17.4219 14.8051 17.4219C6.28789 17.4219 6.06289 17.4266 5.93164 17.5109Z" fill="black"/>
<path id="Vector_9" d="M0.586743 21.2281C0.267993 21.9266 0.0523676 22.7937 0.0101801 23.5344C-0.0179449 24.0687 0.0429926 24.2469 0.305493 24.4062C0.450805 24.4953 0.55393 24.5 3.96174 24.5H7.4633L7.10237 24.1625C6.34768 23.4594 5.53205 22.3531 5.05862 21.3922L4.80549 20.8906H2.7758H0.746117L0.586743 21.2281Z" fill="black"/>
</g>
</svg>
