<svg width="24" height="24" viewBox="0 0 24 24" fill="none" xmlns="http://www.w3.org/2000/svg">
<g id="Black">
<path id="Vector" d="M2.63451 0.0749998C2.3767 0.253124 2.39076 -0.0187502 2.39076 5.71875V11.0156H3.96107H5.53607L5.87357 10.8562C8.40482 9.64687 10.3267 7.29844 11.0204 4.56562C11.2501 3.64687 11.297 3.14531 11.297 1.5V0H7.01732C3.21576 0 2.72826 0.00937462 2.63451 0.0749998Z" fill="black"/>
<path id="Vector_2" d="M12.7031 1.50938C12.7031 3.09375 12.7453 3.57656 12.9375 4.40156C13.3453 6.13594 14.2547 7.75313 15.5484 9.02813C16.2938 9.76875 17.2734 10.4578 18.1547 10.8656L18.4734 11.0156H20.0438H21.6094V5.71875C21.6094 1.10625 21.6 0.398438 21.5391 0.281251C21.3844 -0.0187492 21.6844 9.53674e-07 16.9828 9.53674e-07H12.7031V1.50938Z" fill="black"/>
<path id="Vector_3" d="M0.304688 12.4402C0.028125 12.5621 0 12.6605 0 13.5324C0 14.4137 0.0234375 14.484 0.309375 14.6059C0.54375 14.7043 23.4563 14.7043 23.6906 14.6059C23.9766 14.484 24 14.4137 24 13.5324C24 12.6559 23.9719 12.5574 23.6859 12.4402C23.4609 12.3465 0.520313 12.3465 0.304688 12.4402Z" fill="black"/>
<path id="Vector_4" d="M1.59375 18.375V20.7188H2.69531H3.79688V18.375V16.0312H2.69531H1.59375V18.375Z" fill="black"/>
<path id="Vector_5" d="M7.82812 18.375V20.7188H8.90625H9.98438V18.375V16.0312H8.90625H7.82812V18.375Z" fill="black"/>
<path id="Vector_6" d="M14.0156 18.375V20.7188H15.0938H16.1719V18.375V16.0312H15.0938H14.0156V18.375Z" fill="black"/>
<path id="Vector_7" d="M20.2031 18.375V20.7188H21.3047H22.4062V18.375V16.0312H21.3047H20.2031V18.375Z" fill="black"/>
<path id="Vector_8" d="M1.59375 22.7531C1.59375 23.5687 1.6125 23.6859 1.79063 23.8641L1.93125 24H12H22.0688L22.2094 23.8641C22.3875 23.6859 22.4062 23.5687 22.4062 22.7531V22.0781H12H1.59375V22.7531Z" fill="black"/>
</g>
</svg>
