<svg width="24" height="24" viewBox="0 0 24 24" fill="none" xmlns="http://www.w3.org/2000/svg">
<g id="Black">
<path id="Vector" d="M22.8996 0.0890617C22.6418 0.2625 22.5902 0.398437 22.5902 0.923437V1.40625H13.8059C4.24805 1.40625 4.68398 1.39687 3.86367 1.66875C3.06211 1.93125 2.09648 2.53594 1.56211 3.09844C0.807422 3.89531 0.249609 4.99219 0.0667969 6.0375C-0.0222656 6.54375 -0.0222656 7.51875 0.0667969 8.025C0.212109 8.87344 0.624609 9.79219 1.16836 10.4906C1.70273 11.1797 2.26992 11.6484 3.0293 12.0375C3.92461 12.4922 4.62305 12.6562 5.69648 12.6562H6.3668L6.41836 12.9281C6.53555 13.4859 6.84023 14.0625 7.02773 14.0625C7.23867 14.0625 7.51992 13.5281 7.66055 12.8672C7.74961 12.4406 7.74961 11.4656 7.66055 11.0391C7.51992 10.3781 7.23867 9.84375 7.02773 9.84375C6.84023 9.84375 6.53555 10.4203 6.41836 10.9875L6.36211 11.2641L5.74336 11.2312C5.40586 11.2125 4.96992 11.1656 4.77773 11.1281C3.13711 10.7906 1.85273 9.49219 1.51992 7.83281C1.41211 7.30781 1.44492 6.4125 1.59023 5.90625C1.98398 4.52344 3.13711 3.37031 4.50117 3C4.69336 2.94844 5.06367 2.8875 5.32148 2.85938C5.59805 2.83125 9.1418 2.8125 14.1902 2.8125H22.5902V3.29062C22.5902 3.68437 22.609 3.79688 22.6793 3.90937C22.8246 4.125 23.0027 4.21875 23.2934 4.21875C23.584 4.21875 23.7621 4.125 23.9074 3.90937C23.9918 3.78281 23.9965 3.66094 23.9965 2.10938C23.9965 0.557812 23.9918 0.435937 23.9074 0.309375C23.7621 0.093749 23.584 -9.53674e-07 23.2934 -9.53674e-07C23.1199 -9.53674e-07 22.9934 0.0281248 22.8996 0.0890617Z" fill="black"/>
<path id="Vector_2" d="M6.32736 4.30781C5.8258 4.46719 5.47893 4.69219 5.01018 5.15625C4.30236 5.85938 3.8383 6.65625 3.43986 7.85625L3.22424 8.50313L3.30861 8.6625C3.53361 9.07969 4.30705 9.61406 4.90236 9.76875C5.34299 9.88125 5.34768 9.88125 5.53049 9.53438C5.72268 9.16875 6.11643 8.76094 6.41643 8.61563C6.56174 8.54531 6.74455 8.50313 6.96955 8.49375C7.26955 8.475 7.34455 8.48906 7.60237 8.61563C8.0383 8.82188 8.35237 9.15938 8.62424 9.72656C9.00393 10.5047 9.06487 10.8234 9.06487 11.9531C9.06487 13.0828 9.00393 13.4016 8.62424 14.1797C7.91643 15.6375 6.6133 15.8484 5.69924 14.6531C5.6008 14.5219 5.47893 14.3297 5.42736 14.2219L5.33361 14.0344L4.83205 13.9781C4.31174 13.9219 3.62268 13.7578 3.19611 13.5938C2.87736 13.4719 2.85861 13.4766 2.88205 13.6266C2.89611 13.7016 2.94768 14.0109 2.99924 14.3203C3.45861 17.0813 4.74768 19.1625 6.3133 19.6828C6.51955 19.7531 6.7258 19.7812 7.02111 19.7812C7.7758 19.7812 8.36174 19.5141 9.01799 18.8672C10.1711 17.7281 10.9727 15.6891 11.2071 13.275C11.2774 12.5484 11.2352 10.5891 11.1321 9.96094C10.9211 8.64844 10.6352 7.70156 10.1664 6.75C9.51018 5.42344 8.65705 4.57969 7.69143 4.29375C7.34455 4.19063 6.66486 4.2 6.32736 4.30781Z" fill="black"/>
<path id="Vector_3" d="M10.3203 4.50937C11.5672 5.94844 12.3734 8.22187 12.5844 10.8797L12.6078 11.2359L13.0672 11.2594C13.4281 11.2781 13.5641 11.3016 13.6859 11.3812C14.1219 11.6484 14.1219 12.2578 13.6859 12.525C13.5687 12.6 13.4281 12.6281 13.0906 12.6469L12.65 12.6703V17.7656V22.8609L12.7812 23.0437C12.9687 23.2969 13.6109 23.9016 13.7562 23.9531C13.9109 24.0141 14.2062 24.0141 14.3609 23.9531C14.4266 23.9297 14.7031 23.6906 14.975 23.4281L15.4625 22.9547L15.9219 23.4C16.4469 23.9156 16.5875 24 16.9156 24C17.2437 24 17.3844 23.9156 17.9141 23.4L18.3687 22.95L18.8281 23.4C19.4094 23.9719 19.4562 24 19.775 24C20.0937 24 20.1406 23.9719 20.7266 23.3953L21.1812 22.9453L21.6406 23.3953C22.2219 23.9719 22.2687 24 22.5922 24C22.8078 24 22.8875 23.9766 23.0375 23.8641C23.2437 23.7141 23.8016 23.1469 23.9187 22.9688C23.9891 22.8656 23.9937 22.3266 23.9937 16.65C23.9937 12.6234 23.975 10.2891 23.9422 9.99375C23.6609 7.37344 22.4937 5.22656 20.9422 4.47187C20.4078 4.20937 20.5766 4.21875 15.1109 4.21875H10.0625L10.3203 4.50937ZM17.9844 11.3672C18.4344 11.6391 18.4344 12.3047 17.9844 12.5484C17.8484 12.6234 17.7078 12.6328 16.9156 12.6328C16.0859 12.6328 15.9875 12.6234 15.8469 12.5391C15.3125 12.2156 15.4344 11.4469 16.0437 11.2922C16.1234 11.2734 16.5594 11.2594 17.0094 11.2641C17.7359 11.2734 17.8484 11.2828 17.9844 11.3672ZM22.2031 11.3672C22.6531 11.6391 22.6531 12.3047 22.2031 12.5484C22.0719 12.6187 21.9266 12.6328 21.1812 12.6328C20.3984 12.6328 20.3 12.6234 20.1594 12.5391C19.625 12.2156 19.7469 11.4469 20.3562 11.2922C20.4359 11.2734 20.8484 11.2594 21.275 11.2641C21.9547 11.2734 22.0672 11.2875 22.2031 11.3672Z" fill="black"/>
<path id="Vector_4" d="M10.9453 18.6281C10.7953 18.8719 10.5375 19.2328 10.3734 19.425L10.0781 19.7812H10.6641H11.25V18.9844C11.25 18.5437 11.2453 18.1875 11.2359 18.1875C11.2266 18.1875 11.0953 18.3844 10.9453 18.6281Z" fill="black"/>
</g>
</svg>
