<svg width="24" height="19" viewBox="0 0 24 19" fill="none" xmlns="http://www.w3.org/2000/svg">
<g id="Black">
<path id="Vector" d="M0.370313 0.747656C0.285938 0.803905 0.164062 0.92578 0.107813 1.01016L0 1.16953V7.51641C0 12.8883 0.009375 13.882 0.065625 13.9898C0.159375 14.168 0.370313 14.3508 0.557813 14.4164C0.7875 14.4914 23.2125 14.4914 23.4422 14.4164C23.6297 14.3508 23.8406 14.168 23.9344 13.9898C23.9906 13.882 24 12.8883 24 7.51641V1.16953L23.8922 1.01016C23.8359 0.92578 23.7141 0.803905 23.6297 0.747656L23.4703 0.639843H12H0.529688L0.370313 0.747656Z" fill="black"/>
<path id="Vector_2" d="M10.0789 16.3625V16.9016L8.58362 16.9156C7.15393 16.9297 7.07893 16.9344 6.95706 17.0281C6.74612 17.1828 6.64299 17.3562 6.62424 17.5953C6.60081 17.8719 6.70862 18.1016 6.93362 18.2516L7.09299 18.3594H12.0008H16.9086L17.068 18.2516C17.4992 17.9656 17.4899 17.3562 17.0446 17.0281C16.9227 16.9344 16.8477 16.9297 15.418 16.9156L13.9227 16.9016V16.3625V15.8281H12.0008H10.0789V16.3625Z" fill="black"/>
</g>
</svg>
