<svg width="24" height="25" viewBox="0 0 24 25" fill="none" xmlns="http://www.w3.org/2000/svg">
<g id="Black">
<path id="Vector" d="M6.03297 2.65625C2.89234 3.8375 0.281406 4.84063 0.225156 4.8875C-0.0139067 5.10781 0.000155817 4.70469 0.000155817 12.5094C0.000155817 19.6437 0.000155818 19.7937 0.0939058 19.9391C0.140781 20.0234 0.229843 20.1219 0.290781 20.1594C0.351718 20.1969 2.96266 21.1906 6.09859 22.3625C10.533 24.0266 11.8455 24.5 12.0095 24.5C12.1736 24.5 13.4814 24.0266 17.9111 22.3625C21.0423 21.1906 23.6486 20.1969 23.7095 20.1594C23.7705 20.1219 23.8595 20.0234 23.9064 19.9391C24.0002 19.7937 24.0002 19.6438 24.0002 12.5C24.0002 5.35625 24.0002 5.20625 23.9064 5.06094C23.8595 4.97656 23.7705 4.87813 23.7095 4.84063C23.6486 4.80313 21.0377 3.80938 17.9017 2.6375C13.0689 0.823439 12.1689 0.500002 11.972 0.504688C11.7892 0.509377 10.5564 0.954689 6.03297 2.65625ZM11.2502 3.25625V4.23125L11.2173 2.28594L0.8 6.1L1.47672 7.89688L1.46266 6.93594C1.45797 6.40625 1.45797 5.96094 1.46734 5.95156C1.49078 5.93282 11.1611 2.29531 11.2173 2.28594C11.2361 2.28125 11.2502 2.72188 11.2502 3.25625ZM17.6439 4.10469C20.3205 5.10781 22.5142 5.9375 22.5283 5.95156C22.5377 5.96094 22.5423 6.40625 22.5377 6.93594L22.5236 7.89688L22.8 5.85781L17.6 3.7L12.4 1.5L12.7502 3.25625C12.7502 2.72188 12.7595 2.28125 12.7642 2.28125C12.7736 2.28125 14.972 3.10156 17.6439 4.10469ZM11.2502 10.3109V14.8203L6.5064 16.5969C3.89547 17.5766 1.68766 18.4063 1.60328 18.4391L1.45328 18.5V13.9906V9.47657L6.34234 7.63906C9.02828 6.63125 11.2314 5.80157 11.2408 5.80157C11.2455 5.79688 11.2502 7.82656 11.2502 10.3109ZM17.8033 7.7L22.547 9.47657V13.9859V18.5L22.3267 18.4109C22.2002 18.3641 21.5814 18.1297 20.9439 17.8906L19.7814 17.4547V13.9109C19.7814 10.5406 19.7767 10.3578 19.6923 10.2031C19.6455 10.1141 19.5423 10.0016 19.4673 9.95469C19.3923 9.9125 18.5111 9.57032 17.5173 9.19532C15.5814 8.46875 15.4361 8.43594 15.1548 8.60938C14.8173 8.81094 14.8408 8.58594 14.8127 12.2703L14.7892 15.5844L13.772 15.2047L12.7502 14.8203V10.3109V5.79688L12.9048 5.85781C12.9845 5.89063 15.1923 6.72032 17.8033 7.7ZM16.8 17.3H19L18.3283 13.9906C18.3283 16.7562 18.3236 16.9156 18.2486 16.8828C18.2017 16.8641 17.7377 16.6906 17.2173 16.4938L16.2658 16.1422V13.2172V10.2969L15.4 15.7C15.5594 15.7609 16.3922 17.15 16.8 17.3ZM12.0002 23.5C14.4845 24.4328 21.0611 19.5078 21.1127 19.5266C21.1736 19.55 19.7955 20.0891 16.5986 21.2844L12.0002 23.0141L7.39703 21.2844C4.86578 20.3375 2.81734 19.5547 2.84078 19.5453C2.86422 19.5359 9.50172 24.4422 12.0002 23.5C14.5033 22.5625 11.9955 23.0187 12.0002 23.0141C12.0095 23.0141 9.52047 22.5672 12.0002 23.5Z" fill="black"/>
<path id="Vector_2" d="M6.05156 9.71094C4.44375 10.3156 3.08437 10.85 3.03281 10.8922C2.8125 11.0938 2.8125 11.1125 2.8125 13.2125C2.8125 15.1062 2.81719 15.2 2.90625 15.35C3.03281 15.5562 3.2625 15.6875 3.50625 15.6875C3.65156 15.6875 4.48125 15.3969 6.6 14.6047C8.18906 14.0094 9.53906 13.4937 9.6 13.4562C9.66094 13.4188 9.75 13.3203 9.79688 13.2359C9.88594 13.0953 9.89062 12.9875 9.89062 11.0938C9.89062 9.19062 9.88594 9.09687 9.79688 8.94688C9.66563 8.73594 9.44063 8.60938 9.1875 8.60938C9.02813 8.60938 8.26406 8.87656 6.05156 9.71094ZM8.4375 11.3703V12.35L7 13.5C5.4 13.1 4.39219 13.8641 4.35 13.8828C4.27031 13.9156 4.26562 13.85 4.26562 12.9312L3.8 14.3L7 13.5C8.125 13.0734 9.00156 12.75 8.96875 10.7953C9.00156 12.75 8.4375 10.8312 8.4375 11.3703Z" fill="black"/>
</g>
</svg>
