<svg width="18" height="21" viewBox="0 0 18 21" fill="none" xmlns="http://www.w3.org/2000/svg">
<g id="Black">
<path id="Vector" d="M1.5375 0.0890617C0.857813 0.309374 0.276563 0.904686 0.075 1.58906C0.009375 1.81875 0 2.7375 0 10.5047C0 18.8719 0.0046875 19.1719 0.0890625 19.4484C0.304688 20.1375 0.895313 20.7234 1.58906 20.925C1.81875 20.9906 2.60625 21 9 21C15.3938 21 16.1813 20.9906 16.4109 20.925C17.1047 20.7234 17.6953 20.1375 17.9109 19.4484C17.9953 19.1719 18 18.8719 18 10.5C18 2.12812 17.9953 1.82812 17.9109 1.55156C17.6953 0.862499 17.1047 0.276562 16.4109 0.0749989C16.1813 0.00937462 15.3938 0 8.98125 0.00468636C2.15156 0.00468636 1.79063 0.00937462 1.5375 0.0890617ZM5.57812 2.37187C5.81719 2.5125 5.95312 2.7375 5.95312 3C5.95312 3.2625 5.81719 3.4875 5.57812 3.62812C5.42344 3.72187 5.33906 3.72656 4.125 3.72656C2.91094 3.72656 2.82656 3.72187 2.67188 3.62812C2.08125 3.28594 2.20781 2.46094 2.87344 2.29219C2.95312 2.27344 3.5625 2.25937 4.21875 2.26406C5.32969 2.27344 5.42344 2.27812 5.57812 2.37187ZM13.1156 2.39062C13.725 2.76094 13.4625 3.70312 12.75 3.70312C12.3516 3.70312 12.0469 3.39844 12.0469 3C12.0469 2.60156 12.3516 2.29688 12.75 2.29688C12.8766 2.29688 13.0219 2.33437 13.1156 2.39062ZM15.3656 2.39062C15.975 2.76094 15.7125 3.70312 15 3.70312C14.6016 3.70312 14.2969 3.39844 14.2969 3C14.2969 2.60156 14.6016 2.29688 15 2.29688C15.1266 2.29688 15.2719 2.33437 15.3656 2.39062ZM10.0266 6.87187C12.5109 7.3125 14.4469 9.25781 14.8828 11.7516C14.9719 12.2672 14.9719 13.2328 14.8828 13.7531C14.7281 14.625 14.3578 15.5109 13.8469 16.2234C13.5328 16.6547 12.8484 17.3344 12.4172 17.6391C10.9313 18.6891 8.95781 18.9891 7.20469 18.4359C5.53594 17.9109 4.14375 16.6312 3.4875 15.0328C3.39844 14.8078 3.26719 14.4187 3.19688 14.1656C3.08438 13.7437 3.075 13.6406 3.075 12.75C3.075 11.8641 3.08438 11.7562 3.19688 11.3438C3.51563 10.1719 3.99375 9.32812 4.78594 8.53594C6.17344 7.14844 8.10469 6.53437 10.0266 6.87187Z" fill="black"/>
<path id="Vector_2" d="M6.11563 12.2352C5.73125 12.2867 5.3 12.4039 4.85469 12.5727L4.48438 12.718L4.5125 13.168C4.55469 13.9273 4.85 14.7383 5.31875 15.4039C5.59531 15.7883 6.24219 16.3883 6.63594 16.6227C7.40938 17.0773 8.10313 17.2695 8.99844 17.2695C9.88906 17.2695 10.5922 17.0773 11.3469 16.632C11.7547 16.3883 12.3969 15.793 12.6781 15.4039C13.0203 14.9211 13.3203 14.232 13.4328 13.6883C13.4703 13.482 13.5312 12.7508 13.5078 12.7508C13.4984 12.7508 13.2922 12.8258 13.0484 12.9148C11.6938 13.4211 10.4516 13.3695 9.08281 12.7461C8.0375 12.268 7.1 12.1086 6.11563 12.2352Z" fill="black"/>
</g>
</svg>
