<svg width="28" height="32" viewBox="0 0 28 32" fill="none" xmlns="http://www.w3.org/2000/svg">
<g id="Black">
<path id="Vector" d="M1.6875 1.3125V2.625H0.9375H0.1875V17.3125V32H14H27.8125V31.0312V30.0625H26.25H24.6875V29.1063V28.1562L24.9062 28.0375C25.0312 27.9688 25.2375 27.7937 25.375 27.65C26.4062 26.525 26.0688 24.7562 24.6875 24.075C24.3875 23.925 24.2688 23.9062 23.75 23.9062C23.2375 23.9062 23.1063 23.9312 22.8062 24.0687C22.325 24.2937 21.9937 24.6125 21.75 25.075C21.2313 26.0375 21.5312 27.3125 22.4125 27.925L22.7437 28.1562L22.75 29.1063V30.0562L22.375 29.925C21.5188 29.6375 20.6 28.8375 20.1625 28C19.0063 25.8 20.0375 23.1687 22.3938 22.3C22.9688 22.0875 23.9375 22 24.425 22.1125L24.6875 22.175V14.275V6.375H21.3125H17.9375V18.2188V30.0625H17.0312H16.125V16.3438V2.625H15.3438H14.5625V1.3125V0H8.125H1.6875V1.3125ZM6.6875 7.75V9.0625H5.78125H4.875V7.75V6.4375H5.78125H6.6875V7.75ZM11.375 7.75V9.0625H10.4688H9.5625V7.75V6.4375H10.4688H11.375V7.75ZM6.6875 13.0625V14.375H5.78125H4.875V13.0625V11.75H5.78125H6.6875V13.0625ZM11.375 13.0625V14.375H10.4688H9.5625V13.0625V11.75H10.4688H11.375V13.0625ZM22.25 13.0625V14.375H21.3125H20.375V13.0625V11.75H21.3125H22.25V13.0625ZM6.6875 18.4062V19.6875H5.78125H4.875V18.4062V17.125H5.78125H6.6875V18.4062ZM11.375 18.4062V19.6875H10.4688H9.5625V18.4062V17.125H10.4688H11.375V18.4062ZM22.25 18.4062V19.6875H21.3125H20.375V18.4062V17.125H21.3125H22.25V18.4062ZM6.6875 23.75V25.0625H5.78125H4.875V23.75V22.4375H5.78125H6.6875V23.75ZM11.375 23.75V25.0625H10.4688H9.5625V23.75V22.4375H10.4688H11.375V23.75Z" fill="#1164B4"/>
</g>
</svg>
