<svg width="420" height="420" viewBox="0 0 420 420" fill="none" xmlns="http://www.w3.org/2000/svg">
<path d="M145.845 88.8515H50.7734C50.7734 88.8515 60.1982 63.1055 74.705 63.1055C89.2118 63.1055 93.7562 80.8799 93.7562 80.8799C93.7562 80.8799 103.542 71.2199 111.581 71.2199C119.62 71.2199 126.617 83.9963 126.617 83.9963C126.617 83.9963 137.974 77.1167 145.845 88.8515Z" fill="#EDEEF2"/>
<path d="M369.217 145.702H324.789C324.789 145.702 334.718 131.312 342.538 131.312C350.359 131.312 352.669 140.905 352.669 140.905C352.669 140.905 358.196 136.428 363.303 137.226C368.41 138.024 369.217 145.702 369.217 145.702Z" fill="#EDEEF2"/>
<path d="M208.74 53.4628H164.312C164.312 53.4628 174.241 39.082 182.062 39.082C189.882 39.082 192.192 48.6664 192.192 48.6664C192.192 48.6664 197.719 44.1892 202.827 44.9956C207.934 45.802 208.74 53.4628 208.74 53.4628Z" fill="#EDEEF2"/>
<path d="M323.262 93.9329H236.742C236.742 93.9329 248.595 67.4729 261.27 65.8181C273.946 64.1633 280.019 85.4825 280.019 85.4825C280.019 85.4825 288.192 77.9225 294.618 77.9225C301.044 77.9225 306.017 87.8429 306.017 87.8429C306.017 87.8429 318.852 81.0725 323.262 93.9329Z" fill="#EDEEF2"/>
<path d="M286.503 382.328C336.986 382.328 377.911 377.615 377.911 371.803C377.911 365.99 336.986 361.277 286.503 361.277C236.019 361.277 195.094 365.99 195.094 371.803C195.094 377.615 236.019 382.328 286.503 382.328Z" fill="#EDEEF2"/>
<path d="M215.166 144.09H141.977V243.882H215.166V144.09Z" fill="#1164B4"/>
<path d="M61.4531 243.878H141.976V144.086L61.4531 114.09V147.261V243.878Z" fill="#1164B4"/>
<g opacity="0.3">
<path d="M61.4531 243.878H141.976V144.086L61.4531 114.09V147.261V243.878Z" fill="white"/>
</g>
<path d="M134.51 110.531H57.2891L145.707 143.451H222.937L134.51 110.531Z" fill="#455A64"/>
<path d="M222.924 143.441H145.703V145.457H222.924V143.441Z" fill="#263238"/>
<path d="M145.707 145.458L57.2891 112.547V110.531L145.707 143.451V145.458Z" fill="#37474F"/>
<path d="M208.983 152.168H141.977V171.723H208.983V152.168Z" fill="#455A64"/>
<path d="M208.986 152.168H205.953V171.723H208.986V152.168Z" fill="#263238"/>
<path d="M155.628 152.168H154.25V171.723H155.628V152.168Z" fill="#1164B4"/>
<path d="M169.315 152.168H167.938V171.723H169.315V152.168Z" fill="#1164B4"/>
<path d="M183.01 152.168H181.633V171.723H183.01V152.168Z" fill="#1164B4"/>
<path d="M196.706 152.168H195.328V171.723H196.706V152.168Z" fill="#1164B4"/>
<path d="M128.46 186.347H61.4531V127.992L128.46 152.167V186.347Z" fill="#455A64"/>
<path d="M75.1126 132.926V186.35H73.7266V132.422L75.1126 132.926Z" fill="#1164B4"/>
<path d="M128.46 171.727H61.4531V173.113H128.46V171.727Z" fill="#1164B4"/>
<path d="M88.7917 137.867V186.352H87.4141V137.363L88.7917 137.867Z" fill="#1164B4"/>
<path d="M102.495 142.809V186.354H101.117V142.305L102.495 142.809Z" fill="#1164B4"/>
<path d="M116.191 147.75V186.348H114.805V147.246L116.191 147.75Z" fill="#1164B4"/>
<path d="M137.909 186.348H48.7344V243.879H137.909V186.348Z" fill="#1164B4"/>
<path opacity="0.5" d="M132.256 186.348H48.7344V243.879H132.256V186.348Z" fill="white"/>
<path d="M123.337 203.047H105.344V243.879H123.337V203.047Z" fill="white"/>
<path d="M122.264 225.133H118.93V226.057H122.264V225.133Z" fill="#EDEEF2"/>
<path d="M120.993 205.141H107.688V224.209H120.993V205.141Z" fill="#37474F"/>
<path d="M120.767 226.66H107.461V241.461H120.767V226.66Z" fill="#37474F"/>
<g opacity="0.1">
<path d="M120.993 205.965V212.735L109.519 224.21H107.688V219.27L120.993 205.965Z" fill="white"/>
<path d="M120.599 226.672L107.453 239.818V236.424L117.214 226.672H120.599Z" fill="white"/>
<path d="M120.991 222.891V224.209H119.664L120.991 222.891Z" fill="white"/>
<path d="M115.5 205.148L107.688 212.96V209.567L112.114 205.148H115.5Z" fill="white"/>
<path d="M120.759 229.164V230.021L109.318 241.462H108.461L120.759 229.164Z" fill="white"/>
</g>
<path d="M105.34 203.047H102.828V243.879H105.34V203.047Z" fill="#1164B4"/>
<path d="M55.3135 222.598H67.5859V203.042H55.3135V222.598Z" fill="#455A64"/>
<path d="M55.3113 222.598H58.3438V203.042H55.3113V222.598Z" fill="#263238"/>
<path d="M69.7589 222.598H82.0312V203.042H69.7589V222.598Z" fill="#455A64"/>
<path d="M69.7567 222.598H72.7891V203.042H69.7567V222.598Z" fill="#263238"/>
<path d="M84.2042 222.598H96.4766V203.042H84.2042V222.598Z" fill="#455A64"/>
<path d="M84.2098 222.598H87.2422V203.042H84.2098V222.598Z" fill="#263238"/>
<path d="M217.782 186.348H158.352V243.879H217.782V186.348Z" fill="#1164B4"/>
<path opacity="0.3" d="M217.782 186.348H158.352V243.879H217.782V186.348Z" fill="white"/>
<path d="M260.705 186.348H217.781V243.879H260.705V186.348Z" fill="#1164B4"/>
<path d="M211.042 202.992H165.094V243.883H211.042V202.992Z" fill="#455A64"/>
<path d="M211.049 205.492H167.898V206.332H211.049V205.492Z" fill="#37474F"/>
<path d="M211.049 208.418H167.898V209.258H211.049V208.418Z" fill="#37474F"/>
<path d="M211.049 211.332H167.898V212.172H211.049V211.332Z" fill="#37474F"/>
<path d="M211.049 214.254H167.898V215.094H211.049V214.254Z" fill="#37474F"/>
<path d="M211.049 217.176H167.898V218.016H211.049V217.176Z" fill="#37474F"/>
<path d="M211.049 220.094H167.898V220.934H211.049V220.094Z" fill="#37474F"/>
<path d="M211.049 223.016H167.898V223.856H211.049V223.016Z" fill="#37474F"/>
<path d="M211.049 225.941H167.898V226.781H211.049V225.941Z" fill="#37474F"/>
<path d="M211.049 228.859H167.898V229.699H211.049V228.859Z" fill="#37474F"/>
<path d="M211.049 231.773H167.898V232.613H211.049V231.773Z" fill="#37474F"/>
<path d="M211.049 234.703H167.898V235.543H211.049V234.703Z" fill="#37474F"/>
<path d="M211.049 237.625H167.898V238.465H211.049V237.625Z" fill="#37474F"/>
<path d="M211.049 240.539H167.898V241.379H211.049V240.539Z" fill="#37474F"/>
<path d="M167.891 202.992H165.094V243.883H167.891V202.992Z" fill="#263238"/>
<path d="M165.101 198.211H176.617V193.297H165.101V198.211Z" fill="#455A64"/>
<path d="M165.101 198.211H167.898V193.297H165.101V198.211Z" fill="#263238"/>
<path d="M182.312 198.211H193.828V193.297H182.312V198.211Z" fill="#455A64"/>
<path d="M182.312 198.211H185.109V193.297H182.312V198.211Z" fill="#263238"/>
<path d="M199.53 198.211H211.047V193.297H199.53V198.211Z" fill="#455A64"/>
<path d="M199.531 198.211H202.328V193.297H199.531V198.211Z" fill="#263238"/>
<path d="M256.463 193.305H247.836V198.219H256.463V193.305Z" fill="#455A64"/>
<path d="M256.467 193.305H254.367V198.219H256.467V193.305Z" fill="#263238"/>
<path d="M243.557 193.305H234.93V198.219H243.557V193.305Z" fill="#455A64"/>
<path d="M243.569 193.305H241.469V198.219H243.569V193.305Z" fill="#263238"/>
<path d="M230.65 193.305H222.023V198.219H230.65V193.305Z" fill="#455A64"/>
<path d="M230.663 193.305H228.562V198.219H230.663V193.305Z" fill="#263238"/>
<path d="M104.037 243.883H123.399L173.622 359.274H90.8906L104.037 243.883Z" fill="#EDEEF2"/>
<path d="M90.8906 359.272L101.231 359.113L111.571 359.029L132.252 358.953L152.933 359.029L163.273 359.113L173.622 359.272L163.273 359.424L152.933 359.516L132.252 359.583L111.571 359.508L101.231 359.424L90.8906 359.272Z" fill="#D0D0D0"/>
<path d="M161.129 330.561L152.762 330.72L144.388 330.804L127.646 330.88L110.905 330.804L102.53 330.72L94.1641 330.561L102.53 330.41L110.905 330.326L127.646 330.25L144.388 330.326L152.762 330.41L161.129 330.561Z" fill="#D0D0D0"/>
<path d="M150.126 305.261C145.708 305.387 141.281 305.445 136.854 305.496L123.591 305.571L110.319 305.504C105.892 305.454 101.474 305.387 97.0469 305.261C101.474 305.126 105.892 305.067 110.319 305.017L123.591 304.941L136.854 305.017C141.281 305.067 145.708 305.126 150.126 305.261Z" fill="#D0D0D0"/>
<path d="M139.844 281.631C136.484 281.757 133.124 281.824 129.814 281.875L119.793 281.942L109.763 281.875C106.403 281.824 103.043 281.766 99.7422 281.631C103.102 281.497 106.462 281.438 109.763 281.388L119.793 281.32L129.814 281.388C133.157 281.438 136.501 281.505 139.844 281.631Z" fill="#D0D0D0"/>
<path d="M132.163 264.008C129.643 264.142 127.123 264.201 124.561 264.251C121.999 264.302 119.521 264.293 116.951 264.327C114.381 264.361 111.911 264.327 109.391 264.251C106.871 264.176 104.351 264.142 101.789 264.008C104.309 263.882 106.829 263.815 109.391 263.764C111.953 263.714 114.431 263.722 116.951 263.697C119.471 263.672 121.991 263.697 124.561 263.764C127.132 263.831 129.635 263.882 132.163 264.008Z" fill="#D0D0D0"/>
<path d="M126.28 250.473C124.357 250.599 122.442 250.666 120.526 250.717C118.611 250.767 116.696 250.717 114.781 250.784C112.866 250.851 110.942 250.784 109.027 250.717C107.112 250.65 105.196 250.599 103.281 250.473C105.196 250.339 107.112 250.28 109.027 250.23C110.942 250.179 112.866 250.179 114.781 250.154C116.696 250.129 118.611 250.154 120.526 250.23C122.442 250.305 124.357 250.314 126.28 250.473Z" fill="#D0D0D0"/>
<path d="M40.0078 243.881L82.5034 243.679L125.007 243.604L209.999 243.461L294.99 243.604L337.494 243.679L379.989 243.881L337.494 244.083L294.99 244.158L209.999 244.301L125.007 244.158L82.5034 244.083L40.0078 243.881Z" fill="#263238"/>
<path d="M93.7768 258.27H64.0156C64.0156 258.27 64.0828 253.844 67.006 252.668C67.8002 252.321 68.6855 252.243 69.5281 252.445C70.3707 252.646 71.1248 253.117 71.6764 253.785C71.6764 253.785 72.8692 245.637 78.3208 245.637C83.7724 245.637 86.3848 252.668 86.3848 252.668C86.8491 251.998 87.4981 251.478 88.2528 251.17C89.0075 250.863 89.8353 250.782 90.6352 250.937C93.6592 251.332 93.7768 258.27 93.7768 258.27Z" fill="#37474F"/>
<path d="M244.957 329.092C244.957 329.092 243.462 322.12 240.471 321.044C237.481 319.969 235.666 323.102 235.666 323.102C235.666 323.102 234.969 316.433 230.727 314.442C226.485 312.451 223.318 316.525 223.318 316.525C223.318 316.525 220.068 308.066 214.263 308.066C208.459 308.066 205.536 320.448 205.536 320.448C205.536 320.448 202.108 316.76 198.597 318.844C195.086 320.927 195.086 329.092 195.086 329.092H244.957Z" fill="#37474F"/>
<path d="M69.3496 258.269H41.8984C41.8984 258.269 42.8056 254.397 44.62 254.128C45.1675 254.077 45.7174 254.195 46.1953 254.467C46.6732 254.739 47.0558 255.152 47.2912 255.649C47.2912 255.649 47.2072 250.247 50.6512 249.332C54.0952 248.416 56.9008 253.179 56.9008 253.179C56.9008 253.179 59.0344 250.457 61.9408 250.659C64.8472 250.861 65.5192 255.296 65.5192 255.296C65.5192 255.296 68.182 253.742 69.3496 258.269Z" fill="#455A64"/>
<path d="M199.981 329.09H165.625C165.625 329.09 165.709 323.982 169.086 322.622C170.002 322.224 171.023 322.135 171.994 322.368C172.966 322.602 173.835 323.145 174.47 323.915C174.47 323.915 175.848 314.516 182.139 314.516C188.431 314.516 191.447 322.622 191.447 322.622C191.981 321.847 192.73 321.246 193.602 320.893C194.473 320.539 195.429 320.448 196.352 320.631C199.847 321.084 199.981 329.09 199.981 329.09Z" fill="#455A64"/>
<path d="M138.398 249.826C138.398 249.826 139.314 245.551 141.137 244.896C142.96 244.24 144.077 246.156 144.077 246.156C144.077 246.156 144.514 242.073 147.101 240.855C149.688 239.637 151.637 242.132 151.637 242.132C151.637 242.132 153.628 236.949 157.181 236.949C160.734 236.949 162.532 244.509 162.532 244.509C162.532 244.509 164.623 242.258 166.732 243.526C168.84 244.795 168.882 249.81 168.882 249.81L138.398 249.826Z" fill="#37474F"/>
<path d="M166.945 249.827H183.863C183.863 249.827 183.863 247.307 182.183 246.635C181.731 246.44 181.228 246.397 180.749 246.512C180.271 246.627 179.842 246.894 179.529 247.273C179.529 247.273 178.848 242.645 175.749 242.645C172.649 242.645 171.171 246.635 171.171 246.635C170.906 246.254 170.536 245.959 170.107 245.784C169.677 245.61 169.206 245.564 168.751 245.652C167.021 245.879 166.945 249.827 166.945 249.827Z" fill="#455A64"/>
<path d="M299.694 216.203H292.781V360.734H299.694V216.203Z" fill="#EDEEF2"/>
<path d="M299.696 360.742H301.25V216.212H299.696V360.742Z" fill="#898989"/>
<path d="M377.134 223.125H378.688V216.212H377.134V223.125Z" fill="#898989"/>
<path d="M292.781 216.204V223.117H377.142V216.204H292.781Z" fill="#EDEEF2"/>
<path d="M371.875 227.367H306.195V265.646H371.875V227.367Z" fill="#FFC506"/>
<g opacity="0.2">
<path d="M368.741 230.613H309.336V262.416H368.741V230.613Z" fill="white"/>
</g>
<path d="M312.79 247.861C313.537 247.861 314.142 247.256 314.142 246.509C314.142 245.762 313.537 245.156 312.79 245.156C312.043 245.156 311.438 245.762 311.438 246.509C311.438 247.256 312.043 247.861 312.79 247.861Z" fill="#FFC506"/>
<path d="M365.29 247.861C366.037 247.861 366.642 247.256 366.642 246.509C366.642 245.762 366.037 245.156 365.29 245.156C364.543 245.156 363.938 245.762 363.938 246.509C363.938 247.256 364.543 247.861 365.29 247.861Z" fill="#FFC506"/>
<path d="M319.94 223.117H316.773V227.368H319.94V223.117Z" fill="#FFC506"/>
<path d="M361.307 223.117H358.141V227.368H361.307V223.117Z" fill="#FFC506"/>
<path d="M373.924 227.367H371.883V265.646H373.924V227.367Z" fill="#FFC506"/>
<path opacity="0.1" d="M373.924 227.367H371.883V265.646H373.924V227.367Z" fill="#0E0D0D"/>
<path d="M276.892 295.461L300.269 314.344C304.755 317.931 308.619 321.157 310.467 323.013C311.164 323.71 311.567 324.206 311.584 324.449C311.584 324.449 311.584 324.449 311.584 324.5C311.424 326.558 283.805 363.241 282.411 364.19C281.016 365.139 278.211 361.25 278.118 358.973C278.026 356.697 282.318 337.915 282.318 337.915L259.227 318.855L276.892 295.461Z" fill="#EB9481"/>
<path d="M295.475 310.469L300.272 314.341C304.757 317.928 308.621 321.154 310.469 323.01C310.897 323.443 311.272 323.925 311.586 324.446C311.586 324.446 311.586 324.446 311.586 324.497C311.427 326.555 283.808 363.238 282.413 364.187C281.019 365.136 278.213 361.247 278.121 358.97C278.028 356.694 282.321 337.912 282.321 337.912L277.398 334.048L295.475 310.469Z" fill="#EDEEF2"/>
<path d="M282.455 364.23C283.85 363.273 311.469 326.59 311.629 324.523C311.704 323.742 306.589 319.408 300.272 314.351L300.07 314.191L281.993 337.678L282.397 337.972C282.397 337.972 278.113 356.746 278.197 359.031C278.281 361.315 281.061 365.188 282.455 364.23Z" fill="#263238"/>
<path d="M281.344 362.743C285.846 356.443 304.603 331.47 309.534 325.581C309.576 325.539 309.61 325.581 309.534 325.581C305.208 331.923 286.249 356.745 281.411 362.785C281.344 362.944 281.251 362.877 281.344 362.743Z" fill="#1164B4"/>
<path d="M280.973 339.988C282.35 337.216 284.963 334.519 288.096 333.965C288.213 333.965 288.247 334.116 288.163 334.175C285.66 335.936 283.354 337.961 281.283 340.214C281.252 340.251 281.207 340.273 281.159 340.279C281.112 340.284 281.064 340.271 281.025 340.243C280.986 340.214 280.959 340.172 280.949 340.125C280.94 340.078 280.948 340.029 280.973 339.988Z" fill="white"/>
<path d="M280.702 342.538C282.079 339.766 284.692 337.07 287.825 336.516C287.951 336.516 287.976 336.667 287.892 336.726C285.392 338.487 283.088 340.512 281.021 342.765C280.987 342.795 280.944 342.812 280.899 342.814C280.854 342.816 280.809 342.803 280.772 342.777C280.736 342.751 280.709 342.713 280.696 342.67C280.683 342.627 280.685 342.58 280.702 342.538Z" fill="white"/>
<path d="M280.441 345.097C281.819 342.325 284.431 339.629 287.565 339.074C287.682 339.074 287.716 339.225 287.632 339.284C285.131 341.048 282.825 343.072 280.752 345.324C280.72 345.36 280.676 345.383 280.628 345.388C280.58 345.393 280.532 345.38 280.493 345.352C280.454 345.324 280.428 345.282 280.418 345.235C280.408 345.187 280.417 345.138 280.441 345.097Z" fill="white"/>
<path d="M264.257 272.998C265.937 281.171 299.822 313.78 299.822 313.78L276.185 341.038C276.185 341.038 228.044 292.982 230.556 274.93C232.74 259.222 256.251 196.062 256.251 196.062H283.383C283.383 196.062 262.635 264.926 264.257 272.998Z" fill="#37474F"/>
<path d="M273.493 334.543C276.627 330.629 275.677 331.704 278.861 327.823C280.415 325.917 290.638 313.485 292.435 311.973C292.435 311.973 292.536 311.973 292.511 312.04C291.327 314.039 280.86 326.32 279.264 328.176C276.005 331.99 276.904 330.856 273.603 334.636C273.544 334.703 273.435 334.611 273.493 334.543Z" fill="#263238"/>
<path d="M259.563 270.268C259.957 268.236 260.403 266.203 260.831 264.17C261.71 260.02 262.643 255.882 263.628 251.755C265.577 243.573 267.699 235.436 269.995 227.344C272.314 219.222 274.758 211.124 277.555 203.161C277.9 202.178 278.261 201.195 278.622 200.221C278.622 200.145 278.765 200.179 278.74 200.221C276.304 208.192 273.792 216.181 271.499 224.169C269.206 232.158 267.123 240.18 265.132 248.244C264.132 252.292 263.208 256.358 262.301 260.432C261.859 262.431 261.422 264.433 260.991 266.438C260.462 268.471 260.083 270.54 259.857 272.629C259.79 274.607 260.348 276.556 261.453 278.198C262.469 279.878 263.662 281.432 264.813 282.994C267.131 286.144 289.215 310.714 289.92 311.412C289.979 311.47 289.92 311.546 289.836 311.496C286.871 308.833 268.139 288.555 265.762 285.456C264.586 283.902 263.435 282.322 262.309 280.735C261.187 279.291 260.278 277.692 259.613 275.989C259.105 274.118 259.088 272.148 259.563 270.268Z" fill="#263238"/>
<path d="M272.581 329.133C272.581 329.133 266.701 357.642 266.701 357.693C266.617 363.43 266.449 368.47 266.121 371.066C266.109 371.68 265.956 372.283 265.676 372.83C263.945 373.964 218.039 374.678 216.427 374.165C214.814 373.653 216.158 369.024 217.913 367.571C219.669 366.118 237.141 357.995 237.141 357.995L243.281 329.494L272.581 329.133Z" fill="#EB9481"/>
<path d="M216.41 374.219C218.015 374.732 263.929 374.018 265.651 372.892L265.693 372.85C265.978 372.305 266.13 371.701 266.138 371.086C266.142 371.07 266.142 371.052 266.138 371.036C266.466 368.449 266.634 363.417 266.718 357.671L267.734 352.707H238.276L237.125 358.041C237.125 358.041 219.67 366.181 217.897 367.634C216.125 369.087 214.789 373.715 216.41 374.219Z" fill="#EDEEF2"/>
<path d="M216.411 374.218C218.023 374.739 263.929 374.025 265.66 372.882C266.323 372.462 266.609 365.768 266.727 357.67V357.418L237.1 357.544V358.048C237.1 358.048 219.653 366.179 217.881 367.632C216.108 369.086 214.798 373.714 216.411 374.218Z" fill="#263238"/>
<path d="M216.904 372.429C224.632 372.118 255.863 371.589 263.533 371.883C263.6 371.883 263.6 371.883 263.533 371.933C255.872 372.404 224.641 372.672 216.904 372.555C216.719 372.555 216.719 372.437 216.904 372.429Z" fill="#1164B4"/>
<path d="M234.626 358.175C237.667 357.561 241.397 357.965 243.757 360.098C243.85 360.182 243.757 360.317 243.631 360.283C240.708 359.39 237.698 358.813 234.652 358.561C234.6 358.564 234.55 358.547 234.511 358.513C234.473 358.479 234.449 358.432 234.446 358.38C234.442 358.329 234.46 358.279 234.493 358.24C234.527 358.201 234.575 358.178 234.626 358.175Z" fill="white"/>
<path d="M232.456 359.518C235.497 358.896 239.226 359.308 241.587 361.442C241.679 361.526 241.587 361.652 241.461 361.626C238.534 360.745 235.52 360.181 232.473 359.946C232.445 359.948 232.417 359.943 232.39 359.933C232.364 359.924 232.34 359.909 232.319 359.89C232.298 359.87 232.281 359.847 232.27 359.822C232.258 359.796 232.251 359.769 232.25 359.741C232.249 359.712 232.254 359.684 232.263 359.658C232.273 359.632 232.288 359.607 232.307 359.587C232.326 359.566 232.349 359.549 232.375 359.538C232.4 359.526 232.428 359.519 232.456 359.518Z" fill="white"/>
<path d="M230.278 360.897C233.311 360.275 237.049 360.687 239.409 362.82C239.502 362.904 239.409 363.03 239.283 363.005C236.358 362.107 233.345 361.526 230.295 361.275C230.251 361.268 230.211 361.246 230.182 361.213C230.152 361.179 230.135 361.137 230.133 361.093C230.131 361.048 230.144 361.005 230.171 360.969C230.197 360.933 230.235 360.908 230.278 360.897Z" fill="white"/>
<path d="M258.87 196.052C259.942 200.512 260.733 205.035 261.239 209.593C261.81 215.263 262.516 220.286 263.272 220.916C264.028 221.546 268.413 224.377 269.857 225.251C269.857 225.251 256.493 265.772 253.057 279.28C248.001 298.86 236.039 357.61 236.039 357.61H267.959C267.959 357.61 277.661 301.682 281.903 283.043C285.54 267.083 299.476 219.119 299.476 219.119C300.947 215.418 301.608 211.445 301.413 207.468C301.219 203.49 300.175 199.6 298.35 196.061C298.35 196.061 258.862 196.027 258.87 196.052Z" fill="#37474F"/>
<path d="M237.185 351.396C242.225 351.396 240.755 351.312 245.77 351.337C248.223 351.337 264.351 351.463 266.644 351.874C266.655 351.879 266.664 351.886 266.671 351.896C266.677 351.906 266.681 351.917 266.681 351.929C266.681 351.941 266.677 351.952 266.671 351.962C266.664 351.972 266.655 351.979 266.644 351.984C264.351 352.328 248.223 351.933 245.77 351.874C240.73 351.748 242.2 351.732 237.185 351.547C237.165 351.547 237.146 351.539 237.132 351.525C237.117 351.51 237.109 351.491 237.109 351.471C237.109 351.451 237.117 351.432 237.132 351.418C237.146 351.403 237.165 351.396 237.185 351.396Z" fill="#263238"/>
<path d="M260.97 219.313C264.069 221.015 267.014 222.982 269.773 225.193C269.79 225.211 269.8 225.234 269.802 225.258C269.804 225.283 269.797 225.307 269.784 225.327C269.77 225.347 269.75 225.363 269.727 225.37C269.704 225.378 269.679 225.378 269.656 225.369C266.674 223.505 263.616 221.682 260.735 219.649C260.703 219.614 260.683 219.568 260.68 219.521C260.677 219.473 260.69 219.426 260.718 219.386C260.745 219.347 260.785 219.319 260.831 219.305C260.877 219.292 260.926 219.295 260.97 219.313Z" fill="#263238"/>
<path d="M263.409 197.269C263.409 197.16 263.636 197.16 263.611 197.269C263.057 200.835 262.684 204.426 262.494 208.03C262.384 209.71 262.3 219.009 265.257 218.782C265.753 218.782 266.097 218.32 266.257 217.606C266.387 216.662 266.404 215.706 266.307 214.758C266.307 212.801 266.307 210.852 266.467 208.878C266.688 205.244 267.287 201.644 268.256 198.135C268.262 198.116 268.274 198.099 268.289 198.088C268.305 198.076 268.325 198.07 268.344 198.07C268.364 198.07 268.383 198.076 268.399 198.088C268.415 198.099 268.427 198.116 268.432 198.135C267.581 203.09 267.101 208.102 266.996 213.129C266.996 215.556 267.626 219.303 265.098 219.286C262.569 219.269 261.813 213.036 261.738 211.356C261.686 206.608 262.248 201.873 263.409 197.269Z" fill="#263238"/>
<path d="M265.137 219.04C265.301 219.694 265.419 220.359 265.49 221.03C265.586 221.555 265.586 222.093 265.49 222.618C265.482 222.638 265.468 222.655 265.45 222.667C265.432 222.679 265.411 222.685 265.389 222.685C265.367 222.685 265.346 222.679 265.328 222.667C265.31 222.655 265.297 222.638 265.288 222.618C265.062 222.109 264.914 221.568 264.851 221.014C264.725 220.392 264.591 219.779 264.482 219.157C264.466 219.07 264.486 218.981 264.536 218.908C264.587 218.836 264.664 218.786 264.751 218.771C264.837 218.755 264.927 218.775 264.999 218.825C265.072 218.876 265.121 218.953 265.137 219.04Z" fill="#263238"/>
<path d="M271.65 333.814C271.734 333.075 271.835 332.344 271.936 331.605C272.137 330.194 272.373 328.782 272.591 327.405C273.028 324.566 273.515 321.743 274.019 318.912C275.019 313.276 276.178 307.665 277.379 302.07C278.068 298.912 278.866 295.787 279.714 292.662C279.773 292.444 280.084 292.553 280.042 292.763C279.529 295.619 279.034 298.484 278.446 301.323C277.858 304.162 277.287 307.001 276.724 309.84C275.607 315.452 274.565 321.08 273.456 326.699C273.145 328.278 272.86 329.874 272.549 331.454C272.398 332.252 272.238 333.041 272.062 333.822C271.885 334.604 271.65 335.385 271.524 336.174C271.524 336.25 271.398 336.216 271.407 336.174C271.549 335.351 271.566 334.578 271.65 333.814Z" fill="#263238"/>
<path d="M249.646 291.418C250.704 286.118 252.166 280.893 253.577 275.693C256.475 265.219 259.894 254.903 263.296 244.613L266.278 235.667C266.765 234.181 269.176 226.175 269.47 225.411C269.475 225.398 269.483 225.387 269.494 225.379C269.506 225.371 269.519 225.367 269.533 225.367C269.546 225.367 269.56 225.371 269.571 225.379C269.582 225.387 269.591 225.398 269.596 225.411C268.907 228.141 267.916 232.131 267.16 234.827C266.404 237.524 265.48 240.145 264.69 242.807C263.061 248.032 261.397 253.249 259.818 258.482C256.685 268.839 253.585 279.188 251.04 289.713C250.335 292.653 249.621 295.593 248.974 298.558C248.327 301.523 247.773 304.489 247.151 307.445C247.151 307.529 247 307.504 247.008 307.445C247.618 302.062 248.499 296.713 249.646 291.418Z" fill="#263238"/>
<path d="M269.482 319.113C271.238 309.033 273.346 298.953 275.673 288.982C278 279.012 280.629 268.982 283.502 259.087C286.374 249.192 289.558 239.389 292.977 229.687C294.702 225.113 296.149 220.44 297.311 215.692C298.361 210.98 298.899 205.873 297.798 201.11C297.526 199.902 297.161 198.717 296.706 197.565C296.706 197.49 296.79 197.422 296.824 197.498C300.663 206.444 298.176 216.23 295.253 225.042C293.649 229.872 291.944 234.668 290.364 239.506C288.785 244.345 287.189 249.46 285.711 254.467C282.762 264.387 280.024 274.375 277.58 284.43C275.135 294.484 272.951 304.59 271.028 314.779C269.104 324.968 267.483 335.233 265.836 345.489C265.626 346.825 265.458 348.16 265.282 349.504C265.282 349.58 265.156 349.572 265.164 349.504C266.391 339.357 267.726 329.202 269.482 319.113Z" fill="#263238"/>
<path d="M263.671 158.988C257.111 164.028 233.918 179.266 226.064 176.695C220.907 175.015 204.149 161.214 201.822 158.56C200.024 156.502 212.742 141.491 214.867 143.44C216.992 145.389 230.701 156.04 232.835 156.603C234.968 157.165 257.825 149.437 265.208 148.522C277.943 147.001 267.208 156.241 263.671 158.988Z" fill="#EB9481"/>
<path d="M203.987 160.44C202.097 159.003 191.799 151.3 190.009 148.747C188.22 146.193 183.609 138.457 185.423 136.894C187.237 135.332 188.783 137.482 188.783 137.482C188.783 137.482 187.355 133.904 189.329 132.493C191.303 131.082 193.571 134.517 193.571 134.517C193.571 134.517 192.37 130.737 194.411 129.477C196.452 128.217 198.183 132.048 198.183 132.048C198.183 132.048 196.923 128.688 199.073 128.318C201.652 127.923 203.273 134.458 205.449 137.13C205.944 137.734 216.369 148.722 216.369 148.722L203.987 160.44Z" fill="#EB9481"/>
<path d="M198.057 131.744C199.258 136.54 200.577 138.464 204.13 141.824C204.197 141.891 204.13 142.009 204.037 141.95C200.291 138.968 198.25 136.834 197.821 131.811C197.805 131.542 197.998 131.517 198.057 131.744Z" fill="#263238"/>
<path d="M193.481 134.161C195.161 139.041 196.614 141.108 200.041 144.905C200.092 144.955 200.041 145.047 199.949 144.997C196.27 141.553 194.287 139.377 193.229 134.287C193.204 134.052 193.405 133.943 193.481 134.161Z" fill="#263238"/>
<path d="M189.005 137.701C190.971 142.304 192.466 144.639 196.263 147.898C196.276 147.904 196.287 147.913 196.296 147.923C196.305 147.934 196.312 147.946 196.315 147.96C196.318 147.973 196.319 147.988 196.316 148.001C196.313 148.015 196.307 148.028 196.299 148.039C196.29 148.05 196.28 148.059 196.267 148.065C196.255 148.072 196.241 148.075 196.227 148.075C196.213 148.075 196.199 148.072 196.186 148.067C196.174 148.061 196.163 148.052 196.154 148.041C191.954 145.101 190.072 142.161 188.871 137.776C188.745 137.474 188.837 137.407 189.005 137.701Z" fill="#263238"/>
<path d="M220.306 149.266C220.306 149.266 219.146 143.176 218.046 140.614C216.946 138.052 209.327 130.013 207.479 131.559C205.118 133.558 208.596 139.069 210.662 141.538C210.662 141.538 205.186 146.15 206.832 150.644C208.478 155.138 220.306 149.266 220.306 149.266Z" fill="#EB9481"/>
<path d="M207.027 132.323C206.187 135.683 209.102 138.774 210.916 141.32C210.946 141.356 210.966 141.399 210.975 141.444C210.985 141.49 210.983 141.537 210.969 141.582C210.956 141.627 210.932 141.668 210.899 141.701C210.867 141.734 210.826 141.759 210.782 141.773C208.614 143.856 206.17 147.435 206.674 150.568C206.669 150.583 206.659 150.596 206.646 150.605C206.634 150.614 206.618 150.619 206.603 150.619C206.587 150.619 206.572 150.614 206.559 150.605C206.546 150.596 206.536 150.583 206.531 150.568C205.54 147.284 207.648 143.571 210.168 141.437C208.262 138.85 205.481 135.641 206.993 132.281C207.002 132.29 207.035 132.298 207.027 132.323Z" fill="#263238"/>
<path d="M221.021 145.785L208.32 166.567C208.32 166.567 222.038 176.79 229.724 178.041C239.056 179.562 263.702 161.409 267.44 158.251C273.563 153.076 275 148.708 270.8 147.7C269.17 147.297 266.692 147.415 263.307 148.196C259.77 149.036 238.602 155.244 232.848 155.479C229.614 155.613 221.021 145.785 221.021 145.785Z" fill="#D0D0D0"/>
<path opacity="0.2" d="M221.021 145.785L208.32 166.567C208.32 166.567 222.038 176.79 229.724 178.041C239.056 179.562 263.702 161.409 267.44 158.251C273.563 153.076 275 148.708 270.8 147.7C269.17 147.297 266.692 147.415 263.307 148.196C259.77 149.036 238.602 155.244 232.848 155.479C229.614 155.613 221.021 145.785 221.021 145.785Z" fill="#0E0D0D"/>
<path d="M212.65 167.765C214.524 164.909 221.773 152.905 223.167 150.209C223.26 150.024 223.167 149.915 223.041 150.099C217.212 158.541 214.238 164.791 212.541 167.689C212.524 167.765 212.608 167.84 212.65 167.765Z" fill="#263238"/>
<path opacity="0.1" d="M228.555 177.79C228.927 177.899 229.305 177.984 229.689 178.042C239.029 179.571 263.667 161.41 267.405 158.252C273.209 153.355 274.805 149.171 271.386 147.895C262.171 154.304 242.028 168.382 228.555 177.79Z" fill="#0E0D0D"/>
<path d="M255.605 197.651C256.622 198.634 300.083 203.162 300.302 202.868C300.873 202.078 292.742 161.296 275.354 147.243C272.288 144.765 267.172 145.806 264.854 147.293C263.694 148.041 260.494 153.896 259.57 159.104C258.646 164.312 254.967 197.021 255.605 197.651Z" fill="#EDEEF2"/>
<path d="M274.216 146.223C274.216 146.223 269.47 170.86 269.319 171.868C269.167 172.876 269.856 200.31 269.856 200.31L302.129 204.292C302.129 204.292 298.483 190.675 298.29 190.012C298.097 189.348 291.259 166.744 283.909 156.613C277.156 147.306 274.216 146.223 274.216 146.223Z" fill="#D0D0D0"/>
<path opacity="0.2" d="M274.216 146.223C274.216 146.223 269.47 170.86 269.319 171.868C269.167 172.876 269.856 200.31 269.856 200.31L302.129 204.292C302.129 204.292 298.483 190.675 298.29 190.012C298.097 189.348 291.259 166.744 283.909 156.613C277.156 147.306 274.216 146.223 274.216 146.223Z" fill="#0E0D0D"/>
<path d="M264.192 147.652C264.192 147.652 260.933 169.492 260.832 170.895C260.731 172.298 258.312 198.867 258.312 198.867L254.297 197.397C254.297 197.397 256.523 180.085 256.817 178.59C257.111 177.094 258.934 160.95 259.631 157.976C260.698 153.196 264.192 147.652 264.192 147.652Z" fill="#D0D0D0"/>
<path opacity="0.2" d="M264.192 147.652C264.192 147.652 260.933 169.492 260.832 170.895C260.731 172.298 258.312 198.867 258.312 198.867L254.297 197.397C254.297 197.397 256.523 180.085 256.817 178.59C257.111 177.094 258.934 160.95 259.631 157.976C260.698 153.196 264.192 147.652 264.192 147.652Z" fill="#0E0D0D"/>
<path d="M238.031 201.067V201.176L239.098 201.05V200.941L238.031 201.067ZM241.106 198.547C240.748 198.572 240.388 198.572 240.03 198.547L240.114 199.278C240.473 199.299 240.832 199.299 241.19 199.278L241.106 198.547Z" fill="#D0D0D0"/>
<path d="M235.57 197.209L236.066 201.409L238.048 201.174V201.065L239.124 200.939V201.048L241.375 200.788L241.198 199.301C240.84 199.322 240.481 199.322 240.123 199.301L240.182 199.805L237.015 200.175L236.772 198.1L239.938 197.73L240.039 198.57C240.397 198.595 240.756 198.595 241.114 198.57L240.879 196.562L235.57 197.209Z" fill="#D0D0D0"/>
<path d="M239.091 200.957L238.023 201.082L239.422 212.987L240.49 212.862L239.091 200.957Z" fill="#D0D0D0"/>
<path d="M239.988 212.901L242.633 212.59L242.531 211.722L239.886 212.033L239.988 212.901Z" fill="#D0D0D0"/>
<path d="M239.816 211.494L242.461 211.184L242.359 210.316L239.714 210.627L239.816 211.494Z" fill="#D0D0D0"/>
<path d="M244.914 199.794L244.964 199.887L245.897 199.341L245.838 199.24L244.914 199.794ZM246.485 195.922C246.245 196.202 245.981 196.461 245.695 196.695L246.073 197.316C246.35 197.081 246.628 196.837 246.913 196.577L246.485 195.922Z" fill="white"/>
<path d="M244.914 199.793L244.964 199.885L251.054 210.083L251.978 209.537V209.528L251.533 208.789L251.256 208.327L250.811 207.579L245.897 199.339L245.838 199.238L244.914 199.793Z" fill="white"/>
<path d="M251.51 209.833L253.797 208.469L253.349 207.718L251.062 209.082L251.51 209.833Z" fill="white"/>
<path d="M250.96 207.815L253.25 206.457L252.804 205.706L250.514 207.064L250.96 207.815Z" fill="white"/>
<path d="M231.526 191.45C231.683 192.778 232.137 194.053 232.854 195.182C233.57 196.31 234.532 197.263 235.668 197.969L235.575 197.204H235.768C234.385 196.26 233.322 194.916 232.723 193.351C232.124 191.787 232.017 190.077 232.417 188.45C232.816 186.823 233.703 185.357 234.959 184.248C236.215 183.138 237.779 182.439 239.443 182.244C241.107 182.048 242.791 182.365 244.269 183.153C245.748 183.941 246.951 185.161 247.717 186.651C248.483 188.141 248.775 189.829 248.556 191.49C248.336 193.151 247.614 194.705 246.487 195.944C246.247 196.225 245.983 196.483 245.697 196.717C244.881 197.411 243.936 197.936 242.917 198.263L243.286 198.893C244.302 198.547 245.247 198.021 246.075 197.339C246.352 197.104 246.63 196.86 246.915 196.6C247.952 195.509 248.696 194.175 249.08 192.721C249.463 191.267 249.474 189.739 249.11 188.28C248.746 186.82 248.02 185.476 246.998 184.372C245.977 183.268 244.693 182.44 243.267 181.963C241.84 181.487 240.316 181.379 238.836 181.649C237.357 181.918 235.969 182.557 234.801 183.505C233.634 184.454 232.725 185.681 232.158 187.075C231.592 188.468 231.386 189.982 231.56 191.476L231.526 191.45ZM237.406 198.061L236.743 198.145L236.793 198.582C237.836 199.042 238.956 199.301 240.094 199.346C240.453 199.367 240.812 199.367 241.17 199.346H241.422C241.678 199.317 241.934 199.275 242.186 199.22L241.8 198.574L241.338 198.641H241.086C240.728 198.666 240.368 198.666 240.01 198.641C239.124 198.596 238.252 198.4 237.432 198.061H237.406Z" fill="#EDEEF2"/>
<path d="M241.078 197.271L241.817 198.506L242.204 199.153L243.245 200.908L244.925 199.884L244.875 199.791L245.799 199.237L245.858 199.338L247.79 198.178L246.874 196.557C246.622 196.818 246.345 197.061 246.034 197.296L246.32 197.784L243.581 199.464L243.245 198.892L242.876 198.262L242.515 197.658L245.253 196.036L245.656 196.717C245.942 196.483 246.206 196.224 246.446 195.944L245.606 194.566L241.078 197.271Z" fill="white"/>
<path d="M281.18 153.458C294.015 168.191 308.32 192.896 301.894 197.978C296.014 202.623 276.459 197.978 263.296 192.509C260.776 191.476 264.069 171.509 266.908 172.039C272.142 173.047 281.701 176.491 282.028 176.591C282.751 176.801 278.198 165.848 274.015 155.23C269.353 143.395 273.838 145.033 281.18 153.458Z" fill="#EB9481"/>
<path d="M270.665 172.954C270.665 172.954 262.719 171.056 257.486 170.098C254.571 169.561 249.489 169.09 247.171 169.678C243.693 170.518 229.724 176.449 231.076 179.867C232.311 182.959 243.676 176.373 243.676 176.373C243.676 176.373 231.622 182.009 233.789 185.462C235.957 188.914 247.801 179.758 247.801 179.758C247.801 179.758 235.553 185.823 238.342 188.998C240.459 191.417 251.648 183.74 251.648 183.74C251.648 183.74 241.156 189.023 243.248 191.611C245.524 194.467 256.301 188.032 256.301 188.032C262.66 193.719 268.011 193.837 271.825 193.459C272.707 193.408 270.665 172.954 270.665 172.954Z" fill="#EB9481"/>
<path d="M247.712 174.153C246.275 174.767 244.814 175.371 243.428 176.111C242.042 176.85 240.698 177.631 239.387 178.496C237.659 179.584 236.064 180.87 234.633 182.327C237.363 179.933 242.268 177.219 243.646 176.447C245.024 175.674 246.368 174.909 247.737 174.17C247.804 174.187 247.745 174.145 247.712 174.153Z" fill="#263238"/>
<path d="M250.455 179.094C248.649 179.934 246.827 180.774 245.063 181.673C243.299 182.571 240.863 184.008 239.183 185.033C239.048 185.108 239.115 185.335 239.25 185.259C240.98 184.277 243.509 182.966 245.247 182C246.986 181.034 248.7 180.001 250.464 179.111C250.506 179.119 250.481 179.077 250.455 179.094Z" fill="#263238"/>
<path d="M253.577 182.899C250.778 184.151 248.115 185.688 245.63 187.485C245.504 187.569 245.63 187.611 245.756 187.535C248.369 185.965 250.41 184.705 253.619 182.999C253.677 182.974 253.678 182.873 253.577 182.899Z" fill="#263238"/>
<path d="M274.861 146.946C284.235 152.826 308.184 187.266 303.639 196.641C299.095 206.015 268.805 195.389 268.805 195.389L271.199 171.651C271.199 171.651 279.666 174.414 279.935 174.011C280.203 173.608 275.642 161.898 273.786 157.136C271.929 152.373 269.871 143.813 274.861 146.946Z" fill="#D0D0D0"/>
<path opacity="0.2" d="M274.861 146.946C284.235 152.826 308.184 187.266 303.639 196.641C299.095 206.015 268.805 195.389 268.805 195.389L271.199 171.651C271.199 171.651 279.666 174.414 279.935 174.011C280.203 173.608 275.642 161.898 273.786 157.136C271.929 152.373 269.871 143.813 274.861 146.946Z" fill="#0E0D0D"/>
<path d="M272.658 193.978C273.246 190.618 275.178 176.716 275.38 173.692C275.38 173.482 275.262 173.424 275.22 173.642C273.949 180.355 273.049 187.133 272.524 193.945C272.515 194.037 272.641 194.037 272.658 193.978Z" fill="#263238"/>
<path d="M271.03 171.357C271.957 171.524 272.87 171.763 273.76 172.071C274.6 172.314 275.373 172.549 276.171 172.801C277.918 173.361 279.651 173.941 281.371 174.54C283.09 175.139 284.806 175.761 286.52 176.405C288.2 177.043 289.88 177.783 291.56 178.429C291.57 178.43 291.581 178.434 291.59 178.44C291.599 178.445 291.606 178.453 291.611 178.462C291.617 178.471 291.62 178.481 291.621 178.492C291.621 178.502 291.62 178.513 291.615 178.523C291.611 178.532 291.605 178.541 291.597 178.548C291.589 178.555 291.579 178.559 291.569 178.562C291.558 178.564 291.548 178.564 291.537 178.561C291.527 178.559 291.517 178.554 291.51 178.547C289.779 177.934 288.015 177.438 286.276 176.867L281.161 175.187L276.045 173.507L273.525 172.667C272.685 172.39 271.921 172.096 271.123 171.768C271.103 172.207 271.061 172.644 270.997 173.079C270.871 172.969 270.829 171.306 271.03 171.357Z" fill="#263238"/>
<path d="M274.629 162.561C275.116 163.191 275.587 163.821 276.04 164.476L276.284 164.854L275.914 163.846C275.438 162.683 275.026 161.494 274.68 160.285C274.68 160.271 274.685 160.259 274.694 160.249C274.704 160.24 274.717 160.234 274.73 160.234C274.743 160.234 274.756 160.24 274.766 160.249C274.775 160.259 274.78 160.271 274.78 160.285C275.368 161.459 275.89 162.665 276.343 163.897C276.838 165.073 277.334 166.257 277.804 167.442C278.275 168.626 278.754 169.827 279.199 171.02C279.679 172.186 280.075 173.384 280.383 174.607C280.377 174.617 280.369 174.626 280.359 174.632C280.348 174.638 280.336 174.641 280.324 174.641C280.312 174.641 280.301 174.638 280.29 174.632C280.28 174.626 280.271 174.617 280.266 174.607C279.637 173.453 279.095 172.254 278.644 171.02C278.166 169.836 277.712 168.634 277.25 167.442C277.057 166.946 276.872 166.442 276.687 165.938L276.444 165.594C276.217 165.283 276.007 164.964 275.797 164.636C275.377 163.956 274.957 163.267 274.587 162.578C274.579 162.561 274.612 162.536 274.629 162.561Z" fill="#263238"/>
<path d="M268.743 194.826C268.743 194.658 268.852 194.625 268.877 194.826C268.902 195.028 268.877 195.112 268.919 195.213C269.952 195.498 273.724 196.683 274.648 196.968C276.58 197.556 278.537 198.077 280.528 198.531C282.519 198.984 284.493 199.371 286.492 199.715C290.353 200.159 294.243 200.294 298.126 200.118C298.21 200.118 298.201 200.228 298.126 200.244C294.221 200.744 290.267 200.73 286.366 200.202C284.367 199.959 282.376 199.606 280.41 199.178C278.445 198.749 276.412 198.203 274.455 197.59C273.472 197.288 272.506 196.952 271.54 196.599C270.596 196.318 269.684 195.941 268.818 195.473C268.785 195.454 268.759 195.425 268.743 195.391C268.726 195.356 268.72 195.318 268.726 195.28C268.709 195.12 268.726 194.978 268.743 194.826Z" fill="#263238"/>
<path d="M266.228 154.207C268.748 154.753 272.948 150.847 274.628 147.756C274.745 147.537 273.72 139.087 273.687 137.39C273.687 137.046 263.086 140.154 263.086 140.154C263.726 142.264 264.106 144.444 264.22 146.647C264.186 146.899 263.808 153.669 266.228 154.207Z" fill="#EB9481"/>
<path d="M263.047 140.151C263.047 140.202 263.122 140.403 263.215 140.739C263.374 141.31 263.61 142.226 263.803 143.259C264.027 144.366 264.154 145.49 264.181 146.619C264.185 146.697 264.185 146.776 264.181 146.854C264.181 146.997 264.181 147.182 264.181 147.4C264.525 147.427 264.87 147.427 265.214 147.4C271.01 147.174 272.841 140.025 273.337 137.32H273.152C272.875 137.371 272.505 137.455 272.06 137.564L271.724 137.648C271.01 137.824 270.17 138.043 269.296 138.278L268.456 138.522L266.6 139.034C266.348 139.118 266.104 139.185 265.861 139.252L265.113 139.462L264.769 139.563L264.601 139.614L263.761 139.866L263.341 139.983L263.156 140.042L263.047 140.151Z" fill="#263238"/>
<path d="M261.707 120.805C261.707 120.805 258.154 121.981 257.272 125.433C256.39 128.885 256.91 132.623 257.196 132.825C257.482 133.027 261.707 120.805 261.707 120.805Z" fill="#898989"/>
<path d="M275.171 126.157C276.187 129.971 273.793 140.79 271.021 143.117C266.998 146.477 260.614 146.594 257.791 141.815C255.053 137.178 258.421 123.133 261.504 121.042C266.031 117.95 273.675 120.529 275.171 126.157Z" fill="#EB9481"/>
<path d="M266.345 132.34C266.345 132.34 266.387 132.39 266.345 132.415C266.143 133.138 266.034 133.995 266.63 134.398C266.63 134.398 266.63 134.448 266.63 134.44C265.874 134.129 266.034 132.987 266.345 132.34Z" fill="#263238"/>
<path d="M267.183 131.743C268.368 131.944 267.889 134.263 266.788 134.12C265.688 133.977 266.184 131.575 267.183 131.743Z" fill="#263238"/>
<path d="M261.856 131.477C261.856 131.477 261.788 131.477 261.788 131.527C261.662 132.266 261.394 133.089 260.68 133.207V133.249C261.511 133.291 261.856 132.191 261.856 131.477Z" fill="#263238"/>
<path d="M261.361 130.574C260.202 130.247 259.631 132.582 260.697 132.893C261.764 133.204 262.327 130.852 261.361 130.574Z" fill="#263238"/>
<path d="M268.252 130.818C267.945 130.698 267.645 130.56 267.353 130.406C267.018 130.3 266.724 130.092 266.513 129.81C266.467 129.707 266.457 129.592 266.482 129.483C266.508 129.374 266.569 129.276 266.656 129.205C266.85 129.091 267.07 129.031 267.294 129.031C267.519 129.031 267.739 129.091 267.933 129.205C268.365 129.368 268.719 129.689 268.924 130.104C268.964 130.199 268.975 130.305 268.956 130.406C268.938 130.508 268.89 130.603 268.819 130.678C268.748 130.753 268.657 130.807 268.556 130.832C268.455 130.856 268.35 130.852 268.252 130.818Z" fill="#263238"/>
<path d="M260.764 129.098C261.095 129.098 261.426 129.081 261.755 129.048C262.103 129.075 262.451 128.99 262.747 128.804C262.828 128.727 262.882 128.625 262.901 128.514C262.919 128.404 262.9 128.29 262.847 128.191C262.711 128.012 262.529 127.872 262.321 127.787C262.113 127.701 261.886 127.672 261.663 127.704C261.2 127.697 260.751 127.861 260.403 128.166C260.328 128.24 260.276 128.336 260.254 128.439C260.232 128.543 260.241 128.651 260.279 128.75C260.317 128.849 260.384 128.934 260.47 128.996C260.556 129.058 260.658 129.093 260.764 129.098Z" fill="#263238"/>
<path d="M265.285 139.077C265.075 139.212 264.856 139.413 264.587 139.38C264.317 139.317 264.063 139.2 263.84 139.035C263.84 139.035 263.789 139.035 263.798 139.035C263.872 139.199 263.99 139.341 264.137 139.444C264.285 139.547 264.458 139.609 264.638 139.623C264.793 139.609 264.941 139.552 265.066 139.459C265.19 139.365 265.286 139.239 265.343 139.094C265.369 139.077 265.318 139.052 265.285 139.077Z" fill="#263238"/>
<path d="M264.969 136.727C264.725 136.979 264.431 137.177 264.105 137.308C263.78 137.44 263.43 137.502 263.079 137.491C262.774 137.489 262.471 137.441 262.181 137.348C262.122 137.34 262.066 137.323 262.013 137.298L261.853 137.239C261.815 137.224 261.784 137.197 261.764 137.162C261.744 137.127 261.737 137.086 261.744 137.046C261.74 137.024 261.74 137.001 261.744 136.979V136.911C261.836 136.349 262.071 135.5 262.071 135.5C261.845 135.567 260.694 135.819 260.778 135.5C261.363 132.973 262.207 130.513 263.298 128.159C263.298 128.083 263.449 128.159 263.424 128.159C262.895 130.502 261.962 132.728 261.391 135.063C261.801 134.969 262.222 134.93 262.643 134.946C262.718 134.988 262.164 136.575 262.139 136.836C262.591 136.976 263.067 137.024 263.539 136.978C264.011 136.932 264.468 136.792 264.885 136.567C264.978 136.617 265.028 136.676 264.969 136.727Z" fill="#263238"/>
<path d="M262.57 137.139C262.799 137.605 263.143 138.004 263.57 138.299C263.819 138.46 264.114 138.534 264.41 138.509C265.023 138.509 265.149 137.946 265.132 137.467C265.124 137.211 265.084 136.957 265.015 136.711C264.268 137.114 263.41 137.265 262.57 137.139Z" fill="#263238"/>
<path d="M263.57 138.296C263.819 138.458 264.115 138.532 264.41 138.506C265.024 138.506 265.15 137.944 265.133 137.465C264.816 137.401 264.488 137.449 264.203 137.601C263.918 137.753 263.694 137.998 263.57 138.296Z" fill="#FF9ABB"/>
<g opacity="0.2">
<path d="M265.618 126.948C265.199 126.916 264.784 126.855 264.375 126.763C263.955 126.662 263.535 126.477 263.157 126.377C262.359 126.234 261.543 126.234 260.746 126.377C260.679 126.377 260.679 126.427 260.746 126.419C261.591 126.311 262.45 126.383 263.266 126.629C263.916 126.88 264.597 127.041 265.29 127.107C266.881 127.113 268.428 127.625 269.708 128.569C268.539 127.63 267.113 127.065 265.618 126.948Z" fill="#0E0D0D"/>
<path d="M265.889 125.854C265.491 125.82 265.095 125.762 264.705 125.678C264.31 125.577 263.949 125.4 263.554 125.308C262.798 125.173 262.025 125.173 261.269 125.308C261.202 125.308 261.202 125.358 261.269 125.35C262.069 125.245 262.882 125.311 263.655 125.543C264.272 125.785 264.919 125.94 265.578 126.005C267.09 126.007 268.562 126.493 269.778 127.391C268.667 126.498 267.311 125.963 265.889 125.854Z" fill="#0E0D0D"/>
</g>
<path d="M273.84 136.078C272.496 136.154 271.992 132.029 271.95 130.475C271.908 129.115 272.504 124.965 272.513 124.671C272.521 124.377 266.162 126.889 263.273 125.175C260.383 123.461 258.947 120.135 259.241 118.774C259.535 117.413 264.281 115.07 267.708 115.75C271.135 116.431 274.655 121.874 274.655 121.874C274.257 121.107 273.923 120.309 273.655 119.488C274.214 119.772 274.696 120.188 275.057 120.701C275.419 121.213 275.65 121.806 275.73 122.428C275.73 122.428 275.78 120.362 275.957 120.37C276.133 120.379 277.418 122.479 276.713 123.655C276.713 123.655 278.258 125.847 277.973 127.762C277.687 129.677 275.386 135.952 273.84 136.078Z" fill="#0E0D0D"/>
<path d="M261.123 123.917C261.931 124.655 262.846 125.266 263.836 125.731C264.972 126.121 266.187 126.224 267.373 126.034C268.562 125.88 269.719 125.537 270.8 125.017C271.749 124.564 272.648 123.959 273.631 123.589C273.874 123.497 274.042 123.858 273.866 124.018C271.978 125.656 269.613 126.646 267.121 126.84C265.96 126.922 264.797 126.701 263.748 126.199C262.698 125.697 261.796 124.931 261.131 123.976C261.131 123.976 261.106 123.908 261.123 123.917Z" fill="#898989"/>
<path d="M272.41 134.935C272.41 134.935 275.073 131.575 276.61 132.524C278.148 133.474 276.022 138.488 274.09 139.076C273.849 139.175 273.59 139.222 273.33 139.216C273.069 139.21 272.813 139.15 272.576 139.041C272.34 138.931 272.129 138.774 271.956 138.579C271.783 138.385 271.651 138.156 271.57 137.909L272.41 134.935Z" fill="#EB9481"/>
<path d="M264.129 147.535L266.649 153.869L274.519 145.855L276.745 148.426C276.745 148.426 269.051 161.16 269.009 160.581L266.397 155.129L262.625 158.926L262.936 149.392L264.129 147.535Z" fill="#EDEEF2"/>
<path d="M262.542 154.207C262.643 152.636 262.702 151.048 262.878 149.478C262.878 149.427 262.971 149.402 262.987 149.478C263.298 150.99 262.87 157.038 262.878 158.44C263.038 158.281 266.373 155.08 266.406 155.156C266.969 155.996 268.884 159.994 269.019 160.356C270.237 158.331 274.899 150.981 276.335 149.066C276.344 149.055 276.356 149.047 276.37 149.044C276.384 149.041 276.399 149.044 276.411 149.051C276.424 149.058 276.433 149.07 276.438 149.083C276.442 149.097 276.442 149.112 276.436 149.125C275.361 151.258 269.187 161.162 269.094 161.128C268.084 159.254 267.173 157.327 266.364 155.358C265.801 156.055 262.433 159.642 262.425 159.406C262.366 157.672 262.405 155.937 262.542 154.207Z" fill="#263238"/>
<path d="M339.871 239.347H337.899L337.888 238.374H339.61C339.901 238.374 340.147 238.331 340.349 238.246C340.555 238.158 340.711 238.032 340.817 237.869C340.923 237.702 340.976 237.502 340.976 237.268C340.976 237.01 340.927 236.799 340.828 236.636C340.728 236.473 340.576 236.354 340.37 236.28C340.168 236.205 339.91 236.168 339.594 236.168H338.303V242.844H336.969V235.105H339.594C340.02 235.105 340.399 235.146 340.732 235.227C341.068 235.309 341.354 235.436 341.588 235.61C341.825 235.78 342.004 235.996 342.124 236.259C342.248 236.521 342.31 236.833 342.31 237.194C342.31 237.513 342.234 237.805 342.082 238.071C341.93 238.333 341.705 238.548 341.407 238.714C341.109 238.881 340.739 238.98 340.296 239.012L339.871 239.347ZM339.812 242.844H337.479L338.08 241.786H339.812C340.114 241.786 340.365 241.736 340.567 241.637C340.769 241.535 340.92 241.395 341.019 241.217C341.122 241.037 341.173 240.826 341.173 240.585C341.173 240.333 341.129 240.115 341.04 239.931C340.952 239.743 340.812 239.6 340.62 239.501C340.429 239.398 340.179 239.347 339.871 239.347H338.372L338.383 238.374H340.333L340.636 238.741C341.061 238.755 341.41 238.849 341.683 239.022C341.96 239.196 342.165 239.421 342.3 239.697C342.434 239.974 342.502 240.271 342.502 240.59C342.502 241.083 342.394 241.496 342.178 241.829C341.965 242.162 341.658 242.415 341.258 242.589C340.858 242.759 340.376 242.844 339.812 242.844ZM325.467 254.69V251.948C325.467 251.742 325.43 251.565 325.356 251.416C325.281 251.268 325.168 251.152 325.016 251.071C324.867 250.989 324.679 250.949 324.452 250.949C324.243 250.949 324.062 250.984 323.91 251.055C323.758 251.126 323.639 251.222 323.554 251.342C323.469 251.462 323.426 251.599 323.426 251.751H322.151C322.151 251.524 322.206 251.305 322.316 251.092C322.425 250.88 322.585 250.69 322.794 250.523C323.003 250.357 323.253 250.226 323.543 250.13C323.834 250.035 324.16 249.987 324.521 249.987C324.954 249.987 325.336 250.059 325.669 250.205C326.006 250.35 326.27 250.57 326.461 250.864C326.656 251.154 326.754 251.519 326.754 251.959V254.515C326.754 254.777 326.771 255.013 326.807 255.222C326.846 255.427 326.901 255.606 326.971 255.759V255.844H325.659C325.598 255.706 325.551 255.53 325.515 255.318C325.483 255.101 325.467 254.892 325.467 254.69ZM325.653 252.347L325.664 253.138H324.745C324.507 253.138 324.298 253.161 324.117 253.208C323.937 253.25 323.786 253.314 323.666 253.399C323.545 253.484 323.455 253.587 323.395 253.707C323.334 253.828 323.304 253.964 323.304 254.116C323.304 254.269 323.34 254.409 323.41 254.536C323.481 254.66 323.584 254.758 323.719 254.829C323.857 254.899 324.023 254.935 324.218 254.935C324.481 254.935 324.709 254.882 324.904 254.775C325.102 254.666 325.258 254.533 325.372 254.377C325.485 254.217 325.545 254.067 325.552 253.925L325.967 254.494C325.924 254.639 325.852 254.795 325.749 254.961C325.646 255.128 325.512 255.287 325.345 255.44C325.182 255.589 324.985 255.711 324.755 255.807C324.528 255.902 324.266 255.95 323.969 255.95C323.593 255.95 323.258 255.876 322.964 255.727C322.67 255.574 322.44 255.371 322.273 255.116C322.107 254.857 322.023 254.565 322.023 254.239C322.023 253.934 322.08 253.665 322.193 253.431C322.31 253.193 322.48 252.995 322.704 252.835C322.93 252.676 323.207 252.556 323.533 252.474C323.859 252.389 324.231 252.347 324.649 252.347H325.653ZM329.379 251.198V258.055H328.098V250.093H329.278L329.379 251.198ZM333.126 252.915V253.027C333.126 253.445 333.077 253.833 332.977 254.191C332.882 254.545 332.738 254.855 332.547 255.121C332.359 255.383 332.127 255.587 331.851 255.732C331.574 255.877 331.255 255.95 330.894 255.95C330.536 255.95 330.222 255.884 329.953 255.753C329.687 255.619 329.462 255.429 329.278 255.185C329.094 254.94 328.945 254.653 328.832 254.324C328.722 253.991 328.644 253.626 328.598 253.229V252.798C328.644 252.377 328.722 251.994 328.832 251.65C328.945 251.307 329.094 251.011 329.278 250.763C329.462 250.515 329.687 250.323 329.953 250.189C330.219 250.054 330.529 249.987 330.883 249.987C331.245 249.987 331.565 250.058 331.845 250.199C332.125 250.337 332.361 250.536 332.552 250.795C332.744 251.05 332.887 251.358 332.983 251.719C333.078 252.077 333.126 252.476 333.126 252.915ZM331.845 253.027V252.915C331.845 252.649 331.82 252.403 331.771 252.176C331.721 251.946 331.643 251.744 331.537 251.571C331.431 251.397 331.294 251.262 331.128 251.167C330.965 251.067 330.768 251.018 330.538 251.018C330.311 251.018 330.116 251.057 329.953 251.135C329.79 251.209 329.654 251.314 329.544 251.448C329.434 251.583 329.349 251.741 329.289 251.921C329.229 252.098 329.186 252.292 329.161 252.501V253.532C329.204 253.787 329.276 254.021 329.379 254.233C329.482 254.446 329.627 254.616 329.815 254.744C330.006 254.868 330.251 254.93 330.548 254.93C330.779 254.93 330.975 254.88 331.138 254.781C331.301 254.682 331.434 254.545 331.537 254.372C331.643 254.194 331.721 253.991 331.771 253.76C331.82 253.53 331.845 253.285 331.845 253.027ZM336.751 255.95C336.326 255.95 335.941 255.881 335.598 255.743C335.257 255.601 334.967 255.404 334.726 255.153C334.489 254.901 334.306 254.605 334.179 254.265C334.051 253.925 333.987 253.558 333.987 253.165V252.952C333.987 252.502 334.053 252.095 334.184 251.73C334.315 251.365 334.497 251.053 334.731 250.795C334.965 250.532 335.242 250.332 335.56 250.194C335.879 250.056 336.225 249.987 336.597 249.987C337.008 249.987 337.368 250.056 337.676 250.194C337.984 250.332 338.239 250.527 338.441 250.779C338.647 251.027 338.799 251.323 338.898 251.666C339.001 252.01 339.052 252.389 339.052 252.804V253.351H334.609V252.432H337.787V252.331C337.78 252.1 337.734 251.884 337.649 251.682C337.568 251.48 337.442 251.317 337.272 251.193C337.102 251.069 336.875 251.007 336.592 251.007C336.379 251.007 336.189 251.053 336.023 251.145C335.86 251.234 335.723 251.363 335.614 251.533C335.504 251.703 335.419 251.909 335.358 252.15C335.302 252.387 335.273 252.655 335.273 252.952V253.165C335.273 253.417 335.307 253.65 335.374 253.867C335.445 254.079 335.548 254.265 335.683 254.425C335.817 254.584 335.98 254.71 336.172 254.802C336.363 254.891 336.581 254.935 336.825 254.935C337.134 254.935 337.408 254.873 337.649 254.749C337.89 254.625 338.099 254.449 338.276 254.223L338.951 254.876C338.827 255.057 338.666 255.231 338.468 255.397C338.269 255.56 338.027 255.693 337.74 255.796C337.456 255.899 337.127 255.95 336.751 255.95ZM343.979 252.495V253.505H341.003V252.495H343.979ZM341.375 250.093V255.844H340.094V250.093H341.375ZM344.904 250.093V255.844H343.623V250.093H344.904ZM347.312 250.093H348.593L348.529 252.118C348.511 252.706 348.444 253.211 348.327 253.633C348.21 254.054 348.058 254.41 347.87 254.701C347.682 254.988 347.469 255.224 347.232 255.408C346.998 255.592 346.752 255.737 346.493 255.844H346.116V254.834L346.297 254.823C346.449 254.66 346.58 254.497 346.69 254.334C346.803 254.168 346.899 253.985 346.977 253.787C347.055 253.585 347.115 253.349 347.158 253.08C347.204 252.811 347.234 252.49 347.248 252.118L347.312 250.093ZM347.652 250.093H351.298V255.844H350.022V251.177H347.652V250.093ZM345.824 254.823H352.085V257.555H350.804V255.844H347.12V257.555H345.818L345.824 254.823ZM354.668 255.217L356.23 250.093H357.602L355.295 256.721C355.242 256.862 355.173 257.017 355.088 257.183C355.002 257.35 354.891 257.507 354.753 257.656C354.618 257.809 354.45 257.931 354.248 258.023C354.046 258.119 353.801 258.166 353.514 258.166C353.401 258.166 353.291 258.156 353.185 258.134C353.082 258.117 352.985 258.097 352.892 258.076L352.887 257.098C352.923 257.102 352.965 257.105 353.015 257.109C353.068 257.112 353.11 257.114 353.142 257.114C353.355 257.114 353.532 257.087 353.674 257.034C353.815 256.985 353.931 256.903 354.019 256.79C354.111 256.676 354.189 256.524 354.253 256.333L354.668 255.217ZM353.785 250.093L355.151 254.398L355.38 255.748L354.492 255.977L352.403 250.093H353.785Z" fill="white"/>
</svg>
